<svg xmlns="http://www.w3.org/2000/svg" width="125px" height="125px" viewBox="0 0 32 32"><g id="molecular_structure" data-name="molecular structure"><path d="M26,22V18.38a1,1,0,0,0-.41-.81L20,13.49V11a3.49,3.49,0,1,0-3.32-5.5L13.59,3.19a1,1,0,0,0-1.18,0l-4,2.92a.81.81,0,0,0-.09.1A1,1,0,0,0,7.9,7.36a2.32,2.32,0,0,1,.1.79A2,2,0,0,1,5.85,10a2,2,0,0,1-1.36-.69A2,2,0,0,1,4,7.85,2,2,0,0,1,6.15,6a1,1,0,1,0,.14-2,4,4,0,0,0-.58,8H6v2.5a1,1,0,0,0,.5.86l3,1.75a.79.79,0,0,0,.29.11s0,0,0,0a1,1,0,0,0,1.35-.41,1.5,1.5,0,0,1,2.8.46,1.5,1.5,0,0,1-2.52,1.32,1,1,0,1,0-1.39,1.43A3.48,3.48,0,0,0,12,21V24.5a1,1,0,0,0,.5.86l6,3.5A.9.9,0,0,0,19,29a1,1,0,0,0,.5-.14l2.73-1.58A4,4,0,0,0,26,30a1,1,0,0,0,0-2,2,2,0,1,1,2-2,2.19,2.19,0,0,1-.11.67,1,1,0,1,0,1.88.66A4,4,0,0,0,26,22ZM19.5,6A1.5,1.5,0,1,1,18,7.5,1.5,1.5,0,0,1,19.5,6ZM12,14.08a3.5,3.5,0,0,0-1.94,1L8,13.93V11.46A3.55,3.55,0,0,0,8.61,11,4,4,0,0,0,10,8.29a3.94,3.94,0,0,0,0-.84l3-2.21,3,2.19s0,.05,0,.07a3.5,3.5,0,0,0,2,3.15v3.28l-2.68,1.56A3.49,3.49,0,0,0,12,14.08Zm10.16,11a.8.8,0,0,0-.2.07L19,26.84l-5-2.91V20.68a3.47,3.47,0,0,0,2-3.26l3.34-2L24,18.88v3.68A4,4,0,0,0,22.12,25.07Z"/></g></svg>