<svg width="1581" height="434" viewBox="0 0 1581 434" fill="none" xmlns="http://www.w3.org/2000/svg">
<path d="M666.875 402.366L565.085 302.211H537.157V431.793H561.387V332.315L659.547 431.816L691.116 431.793V302.211H666.875V402.366Z" fill="black"/>
<path d="M1230.68 363.512C1230.68 388.069 1210.7 408.048 1186.14 408.048C1161.58 408.048 1141.61 388.069 1141.61 363.512V302.211H1117.92V363.512C1117.92 401.171 1148.53 431.816 1186.14 431.816C1223.75 431.816 1254.45 401.182 1254.45 363.512V302.211H1230.68V363.512Z" fill="black"/>
<path d="M1072.39 302.211L1014.31 367.008L1072.39 431.804H1041.43L998.877 384.258L956.167 431.804H925.195L983.272 367.008L925.195 302.211H956.167L998.877 349.655L1041.43 302.211H1072.39Z" fill="black"/>
<path d="M1411.38 362.498C1418.04 365.091 1423.32 368.755 1427.13 373.491C1431.68 379.207 1433.95 386.085 1433.95 394.124C1433.95 398.318 1433.39 402.163 1432.33 405.647C1431.28 408.95 1429.57 412.164 1427.21 415.388C1423.32 420.473 1417.95 424.408 1411.13 427.182C1400.82 431.556 1386.45 433.699 1368.02 433.62C1355.51 433.62 1343.98 431.827 1333.43 428.354C1322.3 424.87 1313.85 419.774 1308.09 413.167C1306.39 411.295 1305.09 409.503 1304.19 407.721L1323.44 394.496C1323.68 394.947 1324 395.387 1324.5 395.838C1327.5 399.141 1332.61 402.005 1339.84 404.508C1348.37 407.191 1357.7 408.533 1367.85 408.533C1383.35 408.533 1394.96 406.921 1402.68 403.798C1406 402.456 1408.36 400.855 1409.75 398.972C1410.72 397.63 1411.21 395.928 1411.29 393.876C1411.29 392.275 1410.88 390.843 1410.07 389.681C1408.7 388.159 1406.58 386.818 1403.66 385.668C1398.13 383.615 1386.53 381.552 1368.74 379.5L1366.87 379.32C1347.14 377.087 1333.57 374.494 1326.27 371.551C1319.69 369.139 1314.42 365.564 1310.44 360.829C1305.89 355.112 1303.61 348.145 1303.61 340.015C1303.61 336.08 1304.18 332.247 1305.4 328.492C1306.61 324.828 1308.32 321.615 1310.52 318.751C1314.17 313.835 1319.52 309.911 1326.59 306.867C1336.58 302.583 1350.95 300.429 1369.71 300.429C1382.62 300.429 1394.06 302.132 1404.13 305.616C1415.09 309.1 1423.54 314.196 1429.39 320.803C1430.45 321.964 1431.74 323.746 1433.29 326.159L1413.88 339.384L1412.99 338.042C1410.15 334.649 1405.03 331.785 1397.65 329.462C1389.28 326.688 1379.95 325.257 1369.64 325.257C1353.97 325.257 1342.36 326.869 1334.72 329.992C1331.31 331.514 1328.96 333.126 1327.74 334.818C1326.77 336.159 1326.28 337.851 1326.2 339.914C1326.2 342.146 1326.6 343.578 1327.42 344.198C1328.31 345.36 1330.42 346.701 1333.75 348.224C1339.28 350.276 1350.97 352.339 1368.91 354.391L1370.53 354.571C1390.42 356.894 1403.98 359.487 1411.21 362.25L1411.37 362.52L1411.38 362.498Z" fill="black"/>
<path d="M877.119 326.361V302.211H772.127H747.964V326.361V355.563V379.714V407.654V431.353V431.816H877.119V407.654H772.127V379.714H877.119V355.563H772.127V326.361H877.119Z" fill="black"/>
<path d="M916.412 199.462H945.963V250.008H957.633V199.462H987.184V187.838H916.423V199.462H916.412ZM882.891 235.892L834.06 187.838H820.654V250.019H832.278V202.281L879.374 250.019H894.516V187.838H882.891V235.892ZM751.471 187.838L719.71 250.019H732.743L737.468 240.706H781.101L785.803 250.019H798.882L767.121 187.838H751.46H751.471ZM743.398 229.081L759.273 198.087L775.137 229.081H743.387H743.398ZM602.349 240.706H615.123L615.371 240.018C618.506 231.325 618.562 222.407 615.518 213.5C610.884 199.812 598.797 189.394 584.715 186.947C582.325 186.519 579.878 186.304 577.431 186.304C566.653 186.304 556.539 190.487 548.94 198.087C541.34 205.686 537.157 215.822 537.157 226.612C537.157 248.407 554.904 266.458 576.721 266.864L578.502 266.898H616.713H617.75V255.262H577.296C565.705 255.262 555.175 248.395 551.093 238.169C547.26 228.709 548.207 218.652 553.686 210.568C559.031 202.653 567.915 197.929 577.443 197.929C579.506 197.929 581.637 198.154 583.779 198.605C594.265 200.86 602.71 209.147 605.292 219.712C606.938 226.454 606.194 233.186 603.138 239.195L602.371 240.706H602.349ZM694.634 217.931C694.634 229.983 684.825 239.793 672.772 239.793C660.719 239.793 650.91 229.983 650.91 217.931V187.838H639.286V217.931C639.286 236.421 654.304 251.451 672.772 251.451C691.24 251.451 706.259 236.41 706.259 217.931V187.838H694.634V217.931ZM1416.03 187.838L1386.84 240.999L1357.34 187.838H1339.35V250.019H1350.97V200.308L1378.51 250.019H1395.14L1422.31 200.567V250.019H1433.93V187.838H1416H1416.03ZM1302.27 217.931C1302.27 229.983 1292.46 239.793 1280.41 239.793C1268.36 239.793 1258.55 229.983 1258.55 217.931V187.838H1246.88V217.931C1246.88 236.421 1261.92 251.451 1280.4 251.451C1298.88 251.451 1313.89 236.41 1313.89 217.931V187.838H1302.26V217.931H1302.27ZM1116.97 235.892L1068.13 187.838H1054.72V250.019H1066.35V202.281L1113.44 250.019H1128.58V187.838H1116.96V235.892H1116.97ZM1210.02 217.931C1210.02 229.983 1200.21 239.793 1188.16 239.793C1176.11 239.793 1166.3 229.983 1166.3 217.931V187.838H1154.67V217.931C1154.67 236.421 1169.69 251.451 1188.16 251.451C1206.63 251.451 1221.68 236.41 1221.68 217.931V187.838H1210.01V217.931H1210.02ZM1012.23 250.019H1023.85V187.838H1012.23V250.019Z" fill="black"/>
<path d="M192.911 375.734V375.701H147V431.478L206.802 431.511L267.935 369.533L233.986 335.314L192.911 375.734Z" fill="black"/>
<path d="M392.748 365.17V375.734L199.902 186H192.911H147V251.361V340.974H192.911V251.361V243.029L378.857 431.511H392.748H438.66V431.478V365.17V276.549H392.748V365.17Z" fill="black"/>
<path d="M378.857 186L315.357 250.312L349.317 284.532L392.748 241.788V241.811H438.66V186.034L378.857 186Z" fill="black"/>
</svg>
