<?xml version="1.0" encoding="UTF-8" standalone="no"?>
<!DOCTYPE svg PUBLIC "-//W3C//DTD SVG 1.1//EN"
 "http://www.w3.org/Graphics/SVG/1.1/DTD/svg11.dtd">
<!-- Generated by graphviz version 2.43.0 (0)
 -->
<!-- Title: Circuit Pages: 1 -->
<svg width="260pt" height="107pt"
 viewBox="0.00 0.00 259.60 107.00" xmlns="http://www.w3.org/2000/svg" xmlns:xlink="http://www.w3.org/1999/xlink">
<g id="graph0" class="graph" transform="scale(1 1) rotate(0) translate(4 103)">
<title>Circuit</title>
<polygon fill="white" stroke="transparent" points="-4,4 -4,-103 255.6,-103 255.6,4 -4,4"/>
<g id="clust1" class="cluster">
<title>cluster_q_inputs</title>
<path fill="lightgrey" stroke="lightgrey" d="M22.53,-9C22.53,-9 27.07,-9 27.07,-9 29.33,-9 31.6,-11.27 31.6,-13.53 31.6,-13.53 31.6,-63.47 31.6,-63.47 31.6,-65.73 29.33,-68 27.07,-68 27.07,-68 22.53,-68 22.53,-68 20.27,-68 18,-65.73 18,-63.47 18,-63.47 18,-13.53 18,-13.53 18,-11.27 20.27,-9 22.53,-9"/>
</g>
<g id="clust4" class="cluster">
<title>cluster_q_outputs</title>
<path fill="lightgrey" stroke="lightgrey" d="M234.53,-8C234.53,-8 239.07,-8 239.07,-8 241.33,-8 243.6,-10.27 243.6,-12.53 243.6,-12.53 243.6,-62.47 243.6,-62.47 243.6,-64.73 241.33,-67 239.07,-67 239.07,-67 234.53,-67 234.53,-67 232.27,-67 230,-64.73 230,-62.47 230,-62.47 230,-12.53 230,-12.53 230,-10.27 232.27,-8 234.53,-8"/>
</g>
<g id="clust7" class="cluster">
<title>cluster_8</title>
<path fill="lightblue" stroke="lightblue" d="M53.8,-43C53.8,-43 64,-43 64,-43 69.1,-43 74.2,-48.1 74.2,-53.2 74.2,-53.2 74.2,-80.8 74.2,-80.8 74.2,-85.9 69.1,-91 64,-91 64,-91 53.8,-91 53.8,-91 48.7,-91 43.6,-85.9 43.6,-80.8 43.6,-80.8 43.6,-53.2 43.6,-53.2 43.6,-48.1 48.7,-43 53.8,-43"/>
<text text-anchor="middle" x="58.9" y="-79" font-family="Times,serif" font-size="10.00">CX</text>
</g>
<g id="clust8" class="cluster">
<title>cluster_9</title>
<path fill="lightblue" stroke="lightblue" d="M96.4,-24C96.4,-24 106.6,-24 106.6,-24 111.7,-24 116.8,-29.1 116.8,-34.2 116.8,-34.2 116.8,-61.8 116.8,-61.8 116.8,-66.9 111.7,-72 106.6,-72 106.6,-72 96.4,-72 96.4,-72 91.3,-72 86.2,-66.9 86.2,-61.8 86.2,-61.8 86.2,-34.2 86.2,-34.2 86.2,-29.1 91.3,-24 96.4,-24"/>
<text text-anchor="middle" x="101.5" y="-60" font-family="Times,serif" font-size="10.00">CX</text>
</g>
<g id="clust9" class="cluster">
<title>cluster_10</title>
<path fill="lightblue" stroke="lightblue" d="M140.8,-43C140.8,-43 163.4,-43 163.4,-43 169.4,-43 175.4,-49 175.4,-55 175.4,-55 175.4,-79 175.4,-79 175.4,-85 169.4,-91 163.4,-91 163.4,-91 140.8,-91 140.8,-91 134.8,-91 128.8,-85 128.8,-79 128.8,-79 128.8,-55 128.8,-55 128.8,-49 134.8,-43 140.8,-43"/>
<text text-anchor="middle" x="152.1" y="-79" font-family="Times,serif" font-size="10.00">SWAP</text>
</g>
<g id="clust10" class="cluster">
<title>cluster_11</title>
<path fill="lightblue" stroke="lightblue" d="M197.6,-23C197.6,-23 207.8,-23 207.8,-23 212.9,-23 218,-28.1 218,-33.2 218,-33.2 218,-60.8 218,-60.8 218,-65.9 212.9,-71 207.8,-71 207.8,-71 197.6,-71 197.6,-71 192.5,-71 187.4,-65.9 187.4,-60.8 187.4,-60.8 187.4,-33.2 187.4,-33.2 187.4,-28.1 192.5,-23 197.6,-23"/>
<text text-anchor="middle" x="202.7" y="-59" font-family="Times,serif" font-size="10.00">CX</text>
</g>
<!-- (0, 0) -->
<g id="node1" class="node">
<title>(0, 0)</title>
<ellipse fill="blue" stroke="blue" cx="24.8" cy="-61" rx="1.8" ry="1.8"/>
<text text-anchor="middle" x="11.5" y="-52.8" font-family="Courier,monospace" font-size="8.00">e0[0]</text>
</g>
<!-- (8, 0) -->
<g id="node9" class="node">
<title>(8, 0)</title>
<ellipse fill="black" stroke="black" cx="58.4" cy="-65" rx="1.8" ry="1.8"/>
<text text-anchor="middle" x="53.6" y="-56.8" font-family="Helvetica,sans-Serif" font-size="8.00">0</text>
</g>
<!-- (0, 0)&#45;&gt;(8, 0) -->
<g id="edge1" class="edge">
<title>(0, 0)&#45;&gt;(8, 0)</title>
<path fill="none" stroke="blue" d="M27.16,-61.17C31.87,-61.77 47.6,-63.76 54.32,-64.61"/>
<polygon fill="blue" stroke="blue" points="56.35,-64.87 54.22,-65.73 55.36,-64.74 54.36,-64.62 54.36,-64.62 54.36,-64.62 55.36,-64.74 54.51,-63.5 56.35,-64.87 56.35,-64.87"/>
</g>
<!-- (2, 0) -->
<g id="node2" class="node">
<title>(2, 0)</title>
<ellipse fill="blue" stroke="blue" cx="24.8" cy="-46" rx="1.8" ry="1.8"/>
<text text-anchor="middle" x="11.5" y="-37.8" font-family="Courier,monospace" font-size="8.00">e1[1]</text>
</g>
<!-- (8, 1) -->
<g id="node10" class="node">
<title>(8, 1)</title>
<ellipse fill="black" stroke="black" cx="58.4" cy="-50" rx="1.8" ry="1.8"/>
<text text-anchor="middle" x="53.6" y="-41.8" font-family="Helvetica,sans-Serif" font-size="8.00">1</text>
</g>
<!-- (2, 0)&#45;&gt;(8, 1) -->
<g id="edge2" class="edge">
<title>(2, 0)&#45;&gt;(8, 1)</title>
<path fill="none" stroke="blue" d="M27.16,-46.17C31.87,-46.77 47.6,-48.76 54.32,-49.61"/>
<polygon fill="blue" stroke="blue" points="56.35,-49.87 54.22,-50.73 55.36,-49.74 54.36,-49.62 54.36,-49.62 54.36,-49.62 55.36,-49.74 54.51,-48.5 56.35,-49.87 56.35,-49.87"/>
</g>
<!-- (4, 0) -->
<g id="node3" class="node">
<title>(4, 0)</title>
<ellipse fill="blue" stroke="blue" cx="24.8" cy="-31" rx="1.8" ry="1.8"/>
<text text-anchor="middle" x="11.5" y="-22.8" font-family="Courier,monospace" font-size="8.00">e2[2]</text>
</g>
<!-- (9, 1) -->
<g id="node12" class="node">
<title>(9, 1)</title>
<ellipse fill="black" stroke="black" cx="101" cy="-31" rx="1.8" ry="1.8"/>
<text text-anchor="middle" x="96.2" y="-22.8" font-family="Helvetica,sans-Serif" font-size="8.00">1</text>
</g>
<!-- (4, 0)&#45;&gt;(9, 1) -->
<g id="edge3" class="edge">
<title>(4, 0)&#45;&gt;(9, 1)</title>
<path fill="none" stroke="blue" d="M26.63,-31C33.68,-31 83.35,-31 96.7,-31"/>
<polygon fill="blue" stroke="blue" points="98.86,-31 96.86,-32.13 97.86,-31 96.86,-31 96.86,-31 96.86,-31 97.86,-31 96.86,-29.88 98.86,-31 98.86,-31"/>
</g>
<!-- (6, 0) -->
<g id="node4" class="node">
<title>(6, 0)</title>
<ellipse fill="blue" stroke="blue" cx="24.8" cy="-16" rx="1.8" ry="1.8"/>
<text text-anchor="middle" x="11.5" y="-7.8" font-family="Courier,monospace" font-size="8.00">e3[3]</text>
</g>
<!-- (7, 0) -->
<g id="node8" class="node">
<title>(7, 0)</title>
<ellipse fill="blue" stroke="blue" cx="236.8" cy="-15" rx="1.8" ry="1.8"/>
<text text-anchor="middle" x="223.5" y="-6.8" font-family="Courier,monospace" font-size="8.00">e3[3]</text>
</g>
<!-- (6, 0)&#45;&gt;(7, 0) -->
<g id="edge4" class="edge">
<title>(6, 0)&#45;&gt;(7, 0)</title>
<path fill="none" stroke="blue" d="M26.84,-15.8C33.42,-14.57 69.94,-8 100,-8 100,-8 100,-8 152.6,-8 184.14,-8 222.16,-13.06 232.87,-14.57"/>
<polygon fill="blue" stroke="blue" points="234.98,-14.88 232.84,-15.71 233.99,-14.74 233,-14.59 233,-14.59 233,-14.59 233.99,-14.74 233.16,-13.48 234.98,-14.88 234.98,-14.88"/>
</g>
<!-- (1, 0) -->
<g id="node5" class="node">
<title>(1, 0)</title>
<ellipse fill="blue" stroke="blue" cx="236.8" cy="-60" rx="1.8" ry="1.8"/>
<text text-anchor="middle" x="223.5" y="-51.8" font-family="Courier,monospace" font-size="8.00">e0[0]</text>
</g>
<!-- (3, 0) -->
<g id="node6" class="node">
<title>(3, 0)</title>
<ellipse fill="blue" stroke="blue" cx="236.8" cy="-45" rx="1.8" ry="1.8"/>
<text text-anchor="middle" x="223.5" y="-36.8" font-family="Courier,monospace" font-size="8.00">e1[1]</text>
</g>
<!-- (5, 0) -->
<g id="node7" class="node">
<title>(5, 0)</title>
<ellipse fill="blue" stroke="blue" cx="236.8" cy="-30" rx="1.8" ry="1.8"/>
<text text-anchor="middle" x="223.5" y="-21.8" font-family="Courier,monospace" font-size="8.00">e2[2]</text>
</g>
<!-- (10, 0) -->
<g id="node13" class="node">
<title>(10, 0)</title>
<ellipse fill="black" stroke="black" cx="151.6" cy="-65" rx="1.8" ry="1.8"/>
<text text-anchor="middle" x="146.8" y="-56.8" font-family="Helvetica,sans-Serif" font-size="8.00">0</text>
</g>
<!-- (8, 0)&#45;&gt;(10, 0) -->
<g id="edge5" class="edge">
<title>(8, 0)&#45;&gt;(10, 0)</title>
<path fill="none" stroke="blue" d="M60.4,-65.41C63.88,-66.83 75.82,-71.48 86.2,-73 99.66,-74.97 103.29,-74.58 116.8,-73 128.54,-71.63 142.12,-67.67 147.83,-65.89"/>
<polygon fill="blue" stroke="blue" points="149.78,-65.27 148.21,-66.95 148.82,-65.57 147.87,-65.88 147.87,-65.88 147.87,-65.88 148.82,-65.57 147.53,-64.8 149.78,-65.27 149.78,-65.27"/>
</g>
<!-- (9, 0) -->
<g id="node11" class="node">
<title>(9, 0)</title>
<ellipse fill="black" stroke="black" cx="101" cy="-46" rx="1.8" ry="1.8"/>
<text text-anchor="middle" x="96.2" y="-37.8" font-family="Helvetica,sans-Serif" font-size="8.00">0</text>
</g>
<!-- (8, 1)&#45;&gt;(9, 0) -->
<g id="edge6" class="edge">
<title>(8, 1)&#45;&gt;(9, 0)</title>
<path fill="none" stroke="blue" d="M60.4,-49.9C65.54,-49.4 88.95,-47.09 97.15,-46.28"/>
<polygon fill="blue" stroke="blue" points="99.17,-46.08 97.29,-47.4 98.18,-46.18 97.18,-46.28 97.18,-46.28 97.18,-46.28 98.18,-46.18 97.07,-45.16 99.17,-46.08 99.17,-46.08"/>
</g>
<!-- (10, 1) -->
<g id="node14" class="node">
<title>(10, 1)</title>
<ellipse fill="black" stroke="black" cx="151.6" cy="-50" rx="1.8" ry="1.8"/>
<text text-anchor="middle" x="146.8" y="-41.8" font-family="Helvetica,sans-Serif" font-size="8.00">1</text>
</g>
<!-- (9, 0)&#45;&gt;(10, 1) -->
<g id="edge8" class="edge">
<title>(9, 0)&#45;&gt;(10, 1)</title>
<path fill="none" stroke="blue" d="M102.84,-46.07C108.19,-46.51 137.45,-48.92 147.34,-49.73"/>
<polygon fill="blue" stroke="blue" points="149.57,-49.92 147.49,-50.87 148.58,-49.83 147.58,-49.75 147.58,-49.75 147.58,-49.75 148.58,-49.83 147.67,-48.63 149.57,-49.92 149.57,-49.92"/>
</g>
<!-- (11, 1) -->
<g id="node16" class="node">
<title>(11, 1)</title>
<ellipse fill="black" stroke="black" cx="202.2" cy="-30" rx="1.8" ry="1.8"/>
<text text-anchor="middle" x="197.4" y="-21.8" font-family="Helvetica,sans-Serif" font-size="8.00">1</text>
</g>
<!-- (9, 1)&#45;&gt;(11, 1) -->
<g id="edge7" class="edge">
<title>(9, 1)&#45;&gt;(11, 1)</title>
<path fill="none" stroke="blue" d="M103.11,-30.99C112.77,-30.89 182.35,-30.19 198.06,-30.03"/>
<polygon fill="blue" stroke="blue" points="200.22,-30.01 198.23,-31.16 199.22,-30.02 198.22,-30.03 198.22,-30.03 198.22,-30.03 199.22,-30.02 198.21,-28.91 200.22,-30.01 200.22,-30.01"/>
</g>
<!-- (10, 0)&#45;&gt;(1, 0) -->
<g id="edge9" class="edge">
<title>(10, 0)&#45;&gt;(1, 0)</title>
<path fill="none" stroke="blue" d="M153.55,-65.38C159.54,-67.7 192.66,-79.74 218,-72 224.26,-70.09 230.3,-65.16 233.48,-62.25"/>
<polygon fill="blue" stroke="blue" points="234.94,-60.87 234.26,-63.06 234.21,-61.56 233.49,-62.24 233.49,-62.24 233.49,-62.24 234.21,-61.56 232.71,-61.43 234.94,-60.87 234.94,-60.87"/>
</g>
<!-- (11, 0) -->
<g id="node15" class="node">
<title>(11, 0)</title>
<ellipse fill="black" stroke="black" cx="202.2" cy="-45" rx="1.8" ry="1.8"/>
<text text-anchor="middle" x="197.4" y="-36.8" font-family="Helvetica,sans-Serif" font-size="8.00">0</text>
</g>
<!-- (10, 1)&#45;&gt;(11, 0) -->
<g id="edge10" class="edge">
<title>(10, 1)&#45;&gt;(11, 0)</title>
<path fill="none" stroke="blue" d="M153.44,-49.91C158.79,-49.36 188.05,-46.35 197.94,-45.34"/>
<polygon fill="blue" stroke="blue" points="200.17,-45.11 198.3,-46.43 199.18,-45.21 198.18,-45.31 198.18,-45.31 198.18,-45.31 199.18,-45.21 198.07,-44.19 200.17,-45.11 200.17,-45.11"/>
</g>
<!-- (11, 0)&#45;&gt;(3, 0) -->
<g id="edge12" class="edge">
<title>(11, 0)&#45;&gt;(3, 0)</title>
<path fill="none" stroke="blue" d="M204.01,-45C207.92,-45 225.04,-45 232.41,-45"/>
<polygon fill="blue" stroke="blue" points="234.64,-45 232.64,-46.13 233.64,-45 232.64,-45 232.64,-45 232.64,-45 233.64,-45 232.64,-43.88 234.64,-45 234.64,-45"/>
</g>
<!-- (11, 1)&#45;&gt;(5, 0) -->
<g id="edge11" class="edge">
<title>(11, 1)&#45;&gt;(5, 0)</title>
<path fill="none" stroke="blue" d="M204.01,-30C207.92,-30 225.04,-30 232.41,-30"/>
<polygon fill="blue" stroke="blue" points="234.64,-30 232.64,-31.13 233.64,-30 232.64,-30 232.64,-30 232.64,-30 233.64,-30 232.64,-28.88 234.64,-30 234.64,-30"/>
</g>
</g>
</svg>