<?xml version="1.0" encoding="UTF-8" standalone="no"?>
<!DOCTYPE svg PUBLIC "-//W3C//DTD SVG 1.1//EN"
 "http://www.w3.org/Graphics/SVG/1.1/DTD/svg11.dtd">
<!-- Generated by graphviz version 2.43.0 (0)
 -->
<!-- Title: Circuit Pages: 1 -->
<svg width="870pt" height="149pt"
 viewBox="0.00 0.00 870.00 149.00" xmlns="http://www.w3.org/2000/svg" xmlns:xlink="http://www.w3.org/1999/xlink">
<g id="graph0" class="graph" transform="scale(1 1) rotate(0) translate(4 145)">
<title>Circuit</title>
<polygon fill="white" stroke="transparent" points="-4,4 -4,-145 866,-145 866,4 -4,4"/>
<g id="clust1" class="cluster">
<title>cluster_q_inputs</title>
<path fill="lightgrey" stroke="lightgrey" d="M18.53,-49C18.53,-49 23.07,-49 23.07,-49 25.33,-49 27.6,-51.27 27.6,-53.53 27.6,-53.53 27.6,-88.47 27.6,-88.47 27.6,-90.73 25.33,-93 23.07,-93 23.07,-93 18.53,-93 18.53,-93 16.27,-93 14,-90.73 14,-88.47 14,-88.47 14,-53.53 14,-53.53 14,-51.27 16.27,-49 18.53,-49"/>
</g>
<g id="clust4" class="cluster">
<title>cluster_q_outputs</title>
<path fill="lightgrey" stroke="lightgrey" d="M844.93,-41C844.93,-41 849.47,-41 849.47,-41 851.73,-41 854,-43.27 854,-45.53 854,-45.53 854,-80.47 854,-80.47 854,-82.73 851.73,-85 849.47,-85 849.47,-85 844.93,-85 844.93,-85 842.67,-85 840.4,-82.73 840.4,-80.47 840.4,-80.47 840.4,-45.53 840.4,-45.53 840.4,-43.27 842.67,-41 844.93,-41"/>
</g>
<g id="clust7" class="cluster">
<title>cluster_6</title>
<path fill="lightblue" stroke="lightblue" d="M777.07,-23C777.07,-23 784.93,-23 784.93,-23 788.87,-23 792.8,-26.93 792.8,-30.87 792.8,-30.87 792.8,-48.13 792.8,-48.13 792.8,-52.07 788.87,-56 784.93,-56 784.93,-56 777.07,-56 777.07,-56 773.13,-56 769.2,-52.07 769.2,-48.13 769.2,-48.13 769.2,-30.87 769.2,-30.87 769.2,-26.93 773.13,-23 777.07,-23"/>
<text text-anchor="middle" x="781" y="-44" font-family="Times,serif" font-size="10.00">V</text>
</g>
<g id="clust8" class="cluster">
<title>cluster_7</title>
<path fill="lightblue" stroke="lightblue" d="M812.67,-56C812.67,-56 820.53,-56 820.53,-56 824.47,-56 828.4,-59.93 828.4,-63.87 828.4,-63.87 828.4,-81.13 828.4,-81.13 828.4,-85.07 824.47,-89 820.53,-89 820.53,-89 812.67,-89 812.67,-89 808.73,-89 804.8,-85.07 804.8,-81.13 804.8,-81.13 804.8,-63.87 804.8,-63.87 804.8,-59.93 808.73,-56 812.67,-56"/>
<text text-anchor="middle" x="816.6" y="-77" font-family="Times,serif" font-size="10.00">V</text>
</g>
<g id="clust9" class="cluster">
<title>cluster_8</title>
<path fill="lightblue" stroke="lightblue" d="M812.67,-90C812.67,-90 820.53,-90 820.53,-90 824.47,-90 828.4,-93.93 828.4,-97.87 828.4,-97.87 828.4,-115.13 828.4,-115.13 828.4,-119.07 824.47,-123 820.53,-123 820.53,-123 812.67,-123 812.67,-123 808.73,-123 804.8,-119.07 804.8,-115.13 804.8,-115.13 804.8,-97.87 804.8,-97.87 804.8,-93.93 808.73,-90 812.67,-90"/>
<text text-anchor="middle" x="816.6" y="-111" font-family="Times,serif" font-size="10.00">V</text>
</g>
<g id="clust10" class="cluster">
<title>cluster_9</title>
<path fill="lightblue" stroke="lightblue" d="M741.13,-23C741.13,-23 748.67,-23 748.67,-23 752.43,-23 756.2,-26.77 756.2,-30.53 756.2,-30.53 756.2,-48.47 756.2,-48.47 756.2,-52.23 752.43,-56 748.67,-56 748.67,-56 741.13,-56 741.13,-56 737.37,-56 733.6,-52.23 733.6,-48.47 733.6,-48.47 733.6,-30.53 733.6,-30.53 733.6,-26.77 737.37,-23 741.13,-23"/>
<text text-anchor="middle" x="744.9" y="-44" font-family="Times,serif" font-size="10.00">S</text>
</g>
<g id="clust11" class="cluster">
<title>cluster_10</title>
<path fill="lightblue" stroke="lightblue" d="M777.73,-56C777.73,-56 785.27,-56 785.27,-56 789.03,-56 792.8,-59.77 792.8,-63.53 792.8,-63.53 792.8,-81.47 792.8,-81.47 792.8,-85.23 789.03,-89 785.27,-89 785.27,-89 777.73,-89 777.73,-89 773.97,-89 770.2,-85.23 770.2,-81.47 770.2,-81.47 770.2,-63.53 770.2,-63.53 770.2,-59.77 773.97,-56 777.73,-56"/>
<text text-anchor="middle" x="781.5" y="-77" font-family="Times,serif" font-size="10.00">S</text>
</g>
<g id="clust12" class="cluster">
<title>cluster_11</title>
<path fill="lightblue" stroke="lightblue" d="M777.73,-92C777.73,-92 785.27,-92 785.27,-92 789.03,-92 792.8,-95.77 792.8,-99.53 792.8,-99.53 792.8,-117.47 792.8,-117.47 792.8,-121.23 789.03,-125 785.27,-125 785.27,-125 777.73,-125 777.73,-125 773.97,-125 770.2,-121.23 770.2,-117.47 770.2,-117.47 770.2,-99.53 770.2,-99.53 770.2,-95.77 773.97,-92 777.73,-92"/>
<text text-anchor="middle" x="781.5" y="-113" font-family="Times,serif" font-size="10.00">S</text>
</g>
<g id="clust13" class="cluster">
<title>cluster_12</title>
<path fill="lightblue" stroke="lightblue" d="M703.53,-23C703.53,-23 712.07,-23 712.07,-23 716.33,-23 720.6,-27.27 720.6,-31.53 720.6,-31.53 720.6,-47.47 720.6,-47.47 720.6,-51.73 716.33,-56 712.07,-56 712.07,-56 703.53,-56 703.53,-56 699.27,-56 695,-51.73 695,-47.47 695,-47.47 695,-31.53 695,-31.53 695,-27.27 699.27,-23 703.53,-23"/>
<text text-anchor="middle" x="707.8" y="-44" font-family="Times,serif" font-size="10.00">H</text>
</g>
<g id="clust14" class="cluster">
<title>cluster_13</title>
<path fill="lightblue" stroke="lightblue" d="M740.13,-56C740.13,-56 748.67,-56 748.67,-56 752.93,-56 757.2,-60.27 757.2,-64.53 757.2,-64.53 757.2,-80.47 757.2,-80.47 757.2,-84.73 752.93,-89 748.67,-89 748.67,-89 740.13,-89 740.13,-89 735.87,-89 731.6,-84.73 731.6,-80.47 731.6,-80.47 731.6,-64.53 731.6,-64.53 731.6,-60.27 735.87,-56 740.13,-56"/>
<text text-anchor="middle" x="744.4" y="-77" font-family="Times,serif" font-size="10.00">H</text>
</g>
<g id="clust15" class="cluster">
<title>cluster_14</title>
<path fill="lightblue" stroke="lightblue" d="M740.13,-92C740.13,-92 748.67,-92 748.67,-92 752.93,-92 757.2,-96.27 757.2,-100.53 757.2,-100.53 757.2,-116.47 757.2,-116.47 757.2,-120.73 752.93,-125 748.67,-125 748.67,-125 740.13,-125 740.13,-125 735.87,-125 731.6,-120.73 731.6,-116.47 731.6,-116.47 731.6,-100.53 731.6,-100.53 731.6,-96.27 735.87,-92 740.13,-92"/>
<text text-anchor="middle" x="744.4" y="-113" font-family="Times,serif" font-size="10.00">H</text>
</g>
<g id="clust16" class="cluster">
<title>cluster_15</title>
<path fill="lightblue" stroke="lightblue" d="M666.93,-23C666.93,-23 674.47,-23 674.47,-23 678.23,-23 682,-26.77 682,-30.53 682,-30.53 682,-48.47 682,-48.47 682,-52.23 678.23,-56 674.47,-56 674.47,-56 666.93,-56 666.93,-56 663.17,-56 659.4,-52.23 659.4,-48.47 659.4,-48.47 659.4,-30.53 659.4,-30.53 659.4,-26.77 663.17,-23 666.93,-23"/>
<text text-anchor="middle" x="670.7" y="-44" font-family="Times,serif" font-size="10.00">S</text>
</g>
<g id="clust17" class="cluster">
<title>cluster_16</title>
<path fill="lightblue" stroke="lightblue" d="M704.53,-56C704.53,-56 712.07,-56 712.07,-56 715.83,-56 719.6,-59.77 719.6,-63.53 719.6,-63.53 719.6,-81.47 719.6,-81.47 719.6,-85.23 715.83,-89 712.07,-89 712.07,-89 704.53,-89 704.53,-89 700.77,-89 697,-85.23 697,-81.47 697,-81.47 697,-63.53 697,-63.53 697,-59.77 700.77,-56 704.53,-56"/>
<text text-anchor="middle" x="708.3" y="-77" font-family="Times,serif" font-size="10.00">S</text>
</g>
<g id="clust18" class="cluster">
<title>cluster_17</title>
<path fill="lightblue" stroke="lightblue" d="M704.53,-93C704.53,-93 712.07,-93 712.07,-93 715.83,-93 719.6,-96.77 719.6,-100.53 719.6,-100.53 719.6,-118.47 719.6,-118.47 719.6,-122.23 715.83,-126 712.07,-126 712.07,-126 704.53,-126 704.53,-126 700.77,-126 697,-122.23 697,-118.47 697,-118.47 697,-100.53 697,-100.53 697,-96.77 700.77,-93 704.53,-93"/>
<text text-anchor="middle" x="708.3" y="-114" font-family="Times,serif" font-size="10.00">S</text>
</g>
<g id="clust19" class="cluster">
<title>cluster_18</title>
<path fill="lightblue" stroke="lightblue" d="M48.13,-64C48.13,-64 56.67,-64 56.67,-64 60.93,-64 65.2,-68.27 65.2,-72.53 65.2,-72.53 65.2,-88.47 65.2,-88.47 65.2,-92.73 60.93,-97 56.67,-97 56.67,-97 48.13,-97 48.13,-97 43.87,-97 39.6,-92.73 39.6,-88.47 39.6,-88.47 39.6,-72.53 39.6,-72.53 39.6,-68.27 43.87,-64 48.13,-64"/>
<text text-anchor="middle" x="52.4" y="-85" font-family="Times,serif" font-size="10.00">H</text>
</g>
<g id="clust20" class="cluster">
<title>cluster_19</title>
<path fill="lightblue" stroke="lightblue" d="M156.33,-45C156.33,-45 164.87,-45 164.87,-45 169.13,-45 173.4,-49.27 173.4,-53.53 173.4,-53.53 173.4,-69.47 173.4,-69.47 173.4,-73.73 169.13,-78 164.87,-78 164.87,-78 156.33,-78 156.33,-78 152.07,-78 147.8,-73.73 147.8,-69.47 147.8,-69.47 147.8,-53.53 147.8,-53.53 147.8,-49.27 152.07,-45 156.33,-45"/>
<text text-anchor="middle" x="160.6" y="-66" font-family="Times,serif" font-size="10.00">H</text>
</g>
<g id="clust21" class="cluster">
<title>cluster_20</title>
<path fill="lightblue" stroke="lightblue" d="M88.2,-65C88.2,-65 123.8,-65 123.8,-65 129.3,-65 134.8,-70.5 134.8,-76 134.8,-76 134.8,-87 134.8,-87 134.8,-92.5 129.3,-98 123.8,-98 123.8,-98 88.2,-98 88.2,-98 82.7,-98 77.2,-92.5 77.2,-87 77.2,-87 77.2,-76 77.2,-76 77.2,-70.5 82.7,-65 88.2,-65"/>
<text text-anchor="middle" x="106" y="-86" font-family="Times,serif" font-size="10.00">Rz(0.45)</text>
</g>
<g id="clust22" class="cluster">
<title>cluster_21</title>
<path fill="lightblue" stroke="lightblue" d="M91.2,-100C91.2,-100 120.8,-100 120.8,-100 126.3,-100 131.8,-105.5 131.8,-111 131.8,-111 131.8,-122 131.8,-122 131.8,-127.5 126.3,-133 120.8,-133 120.8,-133 91.2,-133 91.2,-133 85.7,-133 80.2,-127.5 80.2,-122 80.2,-122 80.2,-111 80.2,-111 80.2,-105.5 85.7,-100 91.2,-100"/>
<text text-anchor="middle" x="106" y="-121" font-family="Times,serif" font-size="10.00">Rz(0.2)</text>
</g>
<g id="clust23" class="cluster">
<title>cluster_22</title>
<path fill="lightblue" stroke="lightblue" d="M156,-80C156,-80 166.2,-80 166.2,-80 171.3,-80 176.4,-85.1 176.4,-90.2 176.4,-90.2 176.4,-117.8 176.4,-117.8 176.4,-122.9 171.3,-128 166.2,-128 166.2,-128 156,-128 156,-128 150.9,-128 145.8,-122.9 145.8,-117.8 145.8,-117.8 145.8,-90.2 145.8,-90.2 145.8,-85.1 150.9,-80 156,-80"/>
<text text-anchor="middle" x="161.1" y="-116" font-family="Times,serif" font-size="10.00">CX</text>
</g>
<g id="clust24" class="cluster">
<title>cluster_23</title>
<path fill="lightblue" stroke="lightblue" d="M198.6,-45C198.6,-45 208.8,-45 208.8,-45 213.9,-45 219,-50.1 219,-55.2 219,-55.2 219,-82.8 219,-82.8 219,-87.9 213.9,-93 208.8,-93 208.8,-93 198.6,-93 198.6,-93 193.5,-93 188.4,-87.9 188.4,-82.8 188.4,-82.8 188.4,-55.2 188.4,-55.2 188.4,-50.1 193.5,-45 198.6,-45"/>
<text text-anchor="middle" x="203.7" y="-81" font-family="Times,serif" font-size="10.00">CX</text>
</g>
<g id="clust25" class="cluster">
<title>cluster_24</title>
<path fill="lightblue" stroke="lightblue" d="M242,-60C242,-60 271.6,-60 271.6,-60 277.1,-60 282.6,-65.5 282.6,-71 282.6,-71 282.6,-82 282.6,-82 282.6,-87.5 277.1,-93 271.6,-93 271.6,-93 242,-93 242,-93 236.5,-93 231,-87.5 231,-82 231,-82 231,-71 231,-71 231,-65.5 236.5,-60 242,-60"/>
<text text-anchor="middle" x="256.8" y="-81" font-family="Times,serif" font-size="10.00">Rz(0.8)</text>
</g>
<g id="clust26" class="cluster">
<title>cluster_25</title>
<path fill="lightblue" stroke="lightblue" d="M347.4,-41C347.4,-41 357.6,-41 357.6,-41 362.7,-41 367.8,-46.1 367.8,-51.2 367.8,-51.2 367.8,-78.8 367.8,-78.8 367.8,-83.9 362.7,-89 357.6,-89 357.6,-89 347.4,-89 347.4,-89 342.3,-89 337.2,-83.9 337.2,-78.8 337.2,-78.8 337.2,-51.2 337.2,-51.2 337.2,-46.1 342.3,-41 347.4,-41"/>
<text text-anchor="middle" x="352.5" y="-77" font-family="Times,serif" font-size="10.00">CX</text>
</g>
<g id="clust27" class="cluster">
<title>cluster_26</title>
<path fill="lightblue" stroke="lightblue" d="M304.8,-67C304.8,-67 315,-67 315,-67 320.1,-67 325.2,-72.1 325.2,-77.2 325.2,-77.2 325.2,-104.8 325.2,-104.8 325.2,-109.9 320.1,-115 315,-115 315,-115 304.8,-115 304.8,-115 299.7,-115 294.6,-109.9 294.6,-104.8 294.6,-104.8 294.6,-77.2 294.6,-77.2 294.6,-72.1 299.7,-67 304.8,-67"/>
<text text-anchor="middle" x="309.9" y="-103" font-family="Times,serif" font-size="10.00">CX</text>
</g>
<g id="clust28" class="cluster">
<title>cluster_27</title>
<path fill="lightblue" stroke="lightblue" d="M347.73,-89C347.73,-89 356.27,-89 356.27,-89 360.53,-89 364.8,-93.27 364.8,-97.53 364.8,-97.53 364.8,-113.47 364.8,-113.47 364.8,-117.73 360.53,-122 356.27,-122 356.27,-122 347.73,-122 347.73,-122 343.47,-122 339.2,-117.73 339.2,-113.47 339.2,-113.47 339.2,-97.53 339.2,-97.53 339.2,-93.27 343.47,-89 347.73,-89"/>
<text text-anchor="middle" x="352" y="-110" font-family="Times,serif" font-size="10.00">H</text>
</g>
<g id="clust29" class="cluster">
<title>cluster_28</title>
<path fill="lightblue" stroke="lightblue" d="M388.33,-56C388.33,-56 396.87,-56 396.87,-56 401.13,-56 405.4,-60.27 405.4,-64.53 405.4,-64.53 405.4,-80.47 405.4,-80.47 405.4,-84.73 401.13,-89 396.87,-89 396.87,-89 388.33,-89 388.33,-89 384.07,-89 379.8,-84.73 379.8,-80.47 379.8,-80.47 379.8,-64.53 379.8,-64.53 379.8,-60.27 384.07,-56 388.33,-56"/>
<text text-anchor="middle" x="392.6" y="-77" font-family="Times,serif" font-size="10.00">H</text>
</g>
<g id="clust30" class="cluster">
<title>cluster_29</title>
<path fill="lightblue" stroke="lightblue" d="M388.67,-23C388.67,-23 396.53,-23 396.53,-23 400.47,-23 404.4,-26.93 404.4,-30.87 404.4,-30.87 404.4,-48.13 404.4,-48.13 404.4,-52.07 400.47,-56 396.53,-56 396.53,-56 388.67,-56 388.67,-56 384.73,-56 380.8,-52.07 380.8,-48.13 380.8,-48.13 380.8,-30.87 380.8,-30.87 380.8,-26.93 384.73,-23 388.67,-23"/>
<text text-anchor="middle" x="392.6" y="-44" font-family="Times,serif" font-size="10.00">V</text>
</g>
<g id="clust31" class="cluster">
<title>cluster_30</title>
<path fill="lightblue" stroke="lightblue" d="M388.33,-89C388.33,-89 396.87,-89 396.87,-89 401.13,-89 405.4,-93.27 405.4,-97.53 405.4,-97.53 405.4,-113.47 405.4,-113.47 405.4,-117.73 401.13,-122 396.87,-122 396.87,-122 388.33,-122 388.33,-122 384.07,-122 379.8,-117.73 379.8,-113.47 379.8,-113.47 379.8,-97.53 379.8,-97.53 379.8,-93.27 384.07,-89 388.33,-89"/>
<text text-anchor="middle" x="392.6" y="-110" font-family="Times,serif" font-size="10.00">H</text>
</g>
<g id="clust32" class="cluster">
<title>cluster_31</title>
<path fill="lightblue" stroke="lightblue" d="M427.6,-65C427.6,-65 437.8,-65 437.8,-65 442.9,-65 448,-70.1 448,-75.2 448,-75.2 448,-102.8 448,-102.8 448,-107.9 442.9,-113 437.8,-113 437.8,-113 427.6,-113 427.6,-113 422.5,-113 417.4,-107.9 417.4,-102.8 417.4,-102.8 417.4,-75.2 417.4,-75.2 417.4,-70.1 422.5,-65 427.6,-65"/>
<text text-anchor="middle" x="432.7" y="-101" font-family="Times,serif" font-size="10.00">CX</text>
</g>
<g id="clust33" class="cluster">
<title>cluster_32</title>
<path fill="lightblue" stroke="lightblue" d="M470.2,-23C470.2,-23 480.4,-23 480.4,-23 485.5,-23 490.6,-28.1 490.6,-33.2 490.6,-33.2 490.6,-60.8 490.6,-60.8 490.6,-65.9 485.5,-71 480.4,-71 480.4,-71 470.2,-71 470.2,-71 465.1,-71 460,-65.9 460,-60.8 460,-60.8 460,-33.2 460,-33.2 460,-28.1 465.1,-23 470.2,-23"/>
<text text-anchor="middle" x="475.3" y="-59" font-family="Times,serif" font-size="10.00">CX</text>
</g>
<g id="clust34" class="cluster">
<title>cluster_33</title>
<path fill="lightblue" stroke="lightblue" d="M513.6,-8C513.6,-8 543.2,-8 543.2,-8 548.7,-8 554.2,-13.5 554.2,-19 554.2,-19 554.2,-30 554.2,-30 554.2,-35.5 548.7,-41 543.2,-41 543.2,-41 513.6,-41 513.6,-41 508.1,-41 502.6,-35.5 502.6,-30 502.6,-30 502.6,-19 502.6,-19 502.6,-13.5 508.1,-8 513.6,-8"/>
<text text-anchor="middle" x="528.4" y="-29" font-family="Times,serif" font-size="10.00">Rz(3.4)</text>
</g>
<g id="clust35" class="cluster">
<title>cluster_34</title>
<path fill="lightblue" stroke="lightblue" d="M619.8,-23C619.8,-23 635.4,-23 635.4,-23 640.9,-23 646.4,-28.5 646.4,-34 646.4,-34 646.4,-45 646.4,-45 646.4,-50.5 640.9,-56 635.4,-56 635.4,-56 619.8,-56 619.8,-56 614.3,-56 608.8,-50.5 608.8,-45 608.8,-45 608.8,-34 608.8,-34 608.8,-28.5 614.3,-23 619.8,-23"/>
<text text-anchor="middle" x="627.6" y="-44" font-family="Times,serif" font-size="10.00">Vdg</text>
</g>
<g id="clust36" class="cluster">
<title>cluster_35</title>
<path fill="lightblue" stroke="lightblue" d="M665.93,-56C665.93,-56 674.47,-56 674.47,-56 678.73,-56 683,-60.27 683,-64.53 683,-64.53 683,-80.47 683,-80.47 683,-84.73 678.73,-89 674.47,-89 674.47,-89 665.93,-89 665.93,-89 661.67,-89 657.4,-84.73 657.4,-80.47 657.4,-80.47 657.4,-64.53 657.4,-64.53 657.4,-60.27 661.67,-56 665.93,-56"/>
<text text-anchor="middle" x="670.2" y="-77" font-family="Times,serif" font-size="10.00">H</text>
</g>
<g id="clust37" class="cluster">
<title>cluster_36</title>
<path fill="lightblue" stroke="lightblue" d="M623,-58C623,-58 633.2,-58 633.2,-58 638.3,-58 643.4,-63.1 643.4,-68.2 643.4,-68.2 643.4,-95.8 643.4,-95.8 643.4,-100.9 638.3,-106 633.2,-106 633.2,-106 623,-106 623,-106 617.9,-106 612.8,-100.9 612.8,-95.8 612.8,-95.8 612.8,-68.2 612.8,-68.2 612.8,-63.1 617.9,-58 623,-58"/>
<text text-anchor="middle" x="628.1" y="-94" font-family="Times,serif" font-size="10.00">CX</text>
</g>
<g id="clust38" class="cluster">
<title>cluster_37</title>
<path fill="lightblue" stroke="lightblue" d="M576.4,-23C576.4,-23 586.6,-23 586.6,-23 591.7,-23 596.8,-28.1 596.8,-33.2 596.8,-33.2 596.8,-60.8 596.8,-60.8 596.8,-65.9 591.7,-71 586.6,-71 586.6,-71 576.4,-71 576.4,-71 571.3,-71 566.2,-65.9 566.2,-60.8 566.2,-60.8 566.2,-33.2 566.2,-33.2 566.2,-28.1 571.3,-23 576.4,-23"/>
<text text-anchor="middle" x="581.5" y="-59" font-family="Times,serif" font-size="10.00">CX</text>
</g>
<!-- (0, 0) -->
<g id="node1" class="node">
<title>(0, 0)</title>
<ellipse fill="blue" stroke="blue" cx="20.8" cy="-86" rx="1.8" ry="1.8"/>
<text text-anchor="middle" x="9.5" y="-77.8" font-family="Courier,monospace" font-size="8.00">q[0]</text>
</g>
<!-- (21, 0) -->
<g id="node22" class="node">
<title>(21, 0)</title>
<ellipse fill="black" stroke="black" cx="106" cy="-107" rx="1.8" ry="1.8"/>
</g>
<!-- (0, 0)&#45;&gt;(21, 0) -->
<g id="edge1" class="edge">
<title>(0, 0)&#45;&gt;(21, 0)</title>
<path fill="none" stroke="blue" d="M22.68,-86.82C25.13,-89.04 32.36,-95.23 39.6,-98 62.11,-106.6 91.76,-107.14 101.64,-107.06"/>
<polygon fill="blue" stroke="blue" points="104.04,-107.03 102.06,-108.18 103.04,-107.04 102.04,-107.06 102.04,-107.06 102.04,-107.06 103.04,-107.04 102.02,-105.93 104.04,-107.03 104.04,-107.03"/>
</g>
<!-- (1, 0) -->
<g id="node2" class="node">
<title>(1, 0)</title>
<ellipse fill="blue" stroke="blue" cx="20.8" cy="-71" rx="1.8" ry="1.8"/>
<text text-anchor="middle" x="9.5" y="-62.8" font-family="Courier,monospace" font-size="8.00">q[1]</text>
</g>
<!-- (18, 0) -->
<g id="node19" class="node">
<title>(18, 0)</title>
<ellipse fill="black" stroke="black" cx="52.4" cy="-71" rx="1.8" ry="1.8"/>
</g>
<!-- (1, 0)&#45;&gt;(18, 0) -->
<g id="edge2" class="edge">
<title>(1, 0)&#45;&gt;(18, 0)</title>
<path fill="none" stroke="blue" d="M23.07,-71C27.41,-71 41.71,-71 48.18,-71"/>
<polygon fill="blue" stroke="blue" points="50.42,-71 48.42,-72.13 49.42,-71 48.42,-71 48.42,-71 48.42,-71 49.42,-71 48.42,-69.88 50.42,-71 50.42,-71"/>
</g>
<!-- (2, 0) -->
<g id="node3" class="node">
<title>(2, 0)</title>
<ellipse fill="blue" stroke="blue" cx="20.8" cy="-56" rx="1.8" ry="1.8"/>
<text text-anchor="middle" x="9.5" y="-47.8" font-family="Courier,monospace" font-size="8.00">q[2]</text>
</g>
<!-- (19, 0) -->
<g id="node20" class="node">
<title>(19, 0)</title>
<ellipse fill="black" stroke="black" cx="160.6" cy="-52" rx="1.8" ry="1.8"/>
</g>
<!-- (2, 0)&#45;&gt;(19, 0) -->
<g id="edge3" class="edge">
<title>(2, 0)&#45;&gt;(19, 0)</title>
<path fill="none" stroke="blue" d="M22.68,-55.97C33.34,-55.66 137.63,-52.64 156.64,-52.09"/>
<polygon fill="blue" stroke="blue" points="158.8,-52.02 156.83,-53.21 157.8,-52.05 156.8,-52.08 156.8,-52.08 156.8,-52.08 157.8,-52.05 156.77,-50.96 158.8,-52.02 158.8,-52.02"/>
</g>
<!-- (3, 0) -->
<g id="node4" class="node">
<title>(3, 0)</title>
<ellipse fill="blue" stroke="blue" cx="847.2" cy="-48" rx="1.8" ry="1.8"/>
<text text-anchor="middle" x="835.9" y="-39.8" font-family="Courier,monospace" font-size="8.00">q[0]</text>
</g>
<!-- (4, 0) -->
<g id="node5" class="node">
<title>(4, 0)</title>
<ellipse fill="blue" stroke="blue" cx="847.2" cy="-63" rx="1.8" ry="1.8"/>
<text text-anchor="middle" x="835.9" y="-54.8" font-family="Courier,monospace" font-size="8.00">q[1]</text>
</g>
<!-- (5, 0) -->
<g id="node6" class="node">
<title>(5, 0)</title>
<ellipse fill="blue" stroke="blue" cx="847.2" cy="-78" rx="1.8" ry="1.8"/>
<text text-anchor="middle" x="835.9" y="-69.8" font-family="Courier,monospace" font-size="8.00">q[2]</text>
</g>
<!-- (6, 0) -->
<g id="node7" class="node">
<title>(6, 0)</title>
<ellipse fill="black" stroke="black" cx="781" cy="-30" rx="1.8" ry="1.8"/>
</g>
<!-- (6, 0)&#45;&gt;(3, 0) -->
<g id="edge4" class="edge">
<title>(6, 0)&#45;&gt;(3, 0)</title>
<path fill="none" stroke="blue" d="M783.11,-30.31C790.42,-32.36 831.54,-43.89 843.15,-47.14"/>
<polygon fill="blue" stroke="blue" points="845.25,-47.73 843.02,-48.28 844.29,-47.46 843.32,-47.19 843.32,-47.19 843.32,-47.19 844.29,-47.46 843.63,-46.11 845.25,-47.73 845.25,-47.73"/>
</g>
<!-- (7, 0) -->
<g id="node8" class="node">
<title>(7, 0)</title>
<ellipse fill="black" stroke="black" cx="816.6" cy="-63" rx="1.8" ry="1.8"/>
</g>
<!-- (7, 0)&#45;&gt;(4, 0) -->
<g id="edge5" class="edge">
<title>(7, 0)&#45;&gt;(4, 0)</title>
<path fill="none" stroke="blue" d="M818.83,-63C823.02,-63 836.84,-63 843.08,-63"/>
<polygon fill="blue" stroke="blue" points="845.25,-63 843.25,-64.13 844.25,-63 843.25,-63 843.25,-63 843.25,-63 844.25,-63 843.25,-61.88 845.25,-63 845.25,-63"/>
</g>
<!-- (8, 0) -->
<g id="node9" class="node">
<title>(8, 0)</title>
<ellipse fill="black" stroke="black" cx="816.6" cy="-97" rx="1.8" ry="1.8"/>
</g>
<!-- (8, 0)&#45;&gt;(5, 0) -->
<g id="edge6" class="edge">
<title>(8, 0)&#45;&gt;(5, 0)</title>
<path fill="none" stroke="blue" d="M818.64,-96.48C820.59,-95.48 824.93,-93.22 828.4,-91 833.85,-87.52 839.86,-82.97 843.32,-80.28"/>
<polygon fill="blue" stroke="blue" points="845.26,-78.75 844.39,-80.87 844.48,-79.37 843.69,-79.98 843.69,-79.98 843.69,-79.98 844.48,-79.37 843,-79.1 845.26,-78.75 845.26,-78.75"/>
</g>
<!-- (9, 0) -->
<g id="node10" class="node">
<title>(9, 0)</title>
<ellipse fill="black" stroke="black" cx="744.4" cy="-30" rx="1.8" ry="1.8"/>
</g>
<!-- (9, 0)&#45;&gt;(6, 0) -->
<g id="edge7" class="edge">
<title>(9, 0)&#45;&gt;(6, 0)</title>
<path fill="none" stroke="blue" d="M746.26,-30C750.41,-30 768.58,-30 776.4,-30"/>
<polygon fill="blue" stroke="blue" points="778.77,-30 776.77,-31.13 777.77,-30 776.77,-30 776.77,-30 776.77,-30 777.77,-30 776.77,-28.88 778.77,-30 778.77,-30"/>
</g>
<!-- (10, 0) -->
<g id="node11" class="node">
<title>(10, 0)</title>
<ellipse fill="black" stroke="black" cx="781" cy="-63" rx="1.8" ry="1.8"/>
</g>
<!-- (10, 0)&#45;&gt;(7, 0) -->
<g id="edge8" class="edge">
<title>(10, 0)&#45;&gt;(7, 0)</title>
<path fill="none" stroke="blue" d="M782.83,-63C786.86,-63 804.51,-63 812.11,-63"/>
<polygon fill="blue" stroke="blue" points="814.4,-63 812.4,-64.13 813.4,-63 812.4,-63 812.4,-63 812.4,-63 813.4,-63 812.4,-61.88 814.4,-63 814.4,-63"/>
</g>
<!-- (11, 0) -->
<g id="node12" class="node">
<title>(11, 0)</title>
<ellipse fill="black" stroke="black" cx="781" cy="-99" rx="1.8" ry="1.8"/>
</g>
<!-- (11, 0)&#45;&gt;(8, 0) -->
<g id="edge9" class="edge">
<title>(11, 0)&#45;&gt;(8, 0)</title>
<path fill="none" stroke="blue" d="M782.83,-98.95C786.86,-98.71 804.51,-97.66 812.11,-97.21"/>
<polygon fill="blue" stroke="blue" points="814.4,-97.07 812.47,-98.31 813.41,-97.13 812.41,-97.19 812.41,-97.19 812.41,-97.19 813.41,-97.13 812.34,-96.07 814.4,-97.07 814.4,-97.07"/>
</g>
<!-- (12, 0) -->
<g id="node13" class="node">
<title>(12, 0)</title>
<ellipse fill="black" stroke="black" cx="707.8" cy="-30" rx="1.8" ry="1.8"/>
</g>
<!-- (12, 0)&#45;&gt;(9, 0) -->
<g id="edge10" class="edge">
<title>(12, 0)&#45;&gt;(9, 0)</title>
<path fill="none" stroke="blue" d="M709.66,-30C713.81,-30 731.98,-30 739.8,-30"/>
<polygon fill="blue" stroke="blue" points="742.17,-30 740.17,-31.13 741.17,-30 740.17,-30 740.17,-30 740.17,-30 741.17,-30 740.17,-28.88 742.17,-30 742.17,-30"/>
</g>
<!-- (13, 0) -->
<g id="node14" class="node">
<title>(13, 0)</title>
<ellipse fill="black" stroke="black" cx="744.4" cy="-63" rx="1.8" ry="1.8"/>
</g>
<!-- (13, 0)&#45;&gt;(10, 0) -->
<g id="edge11" class="edge">
<title>(13, 0)&#45;&gt;(10, 0)</title>
<path fill="none" stroke="blue" d="M746.26,-63C750.41,-63 768.58,-63 776.4,-63"/>
<polygon fill="blue" stroke="blue" points="778.77,-63 776.77,-64.13 777.77,-63 776.77,-63 776.77,-63 776.77,-63 777.77,-63 776.77,-61.88 778.77,-63 778.77,-63"/>
</g>
<!-- (14, 0) -->
<g id="node15" class="node">
<title>(14, 0)</title>
<ellipse fill="black" stroke="black" cx="744.4" cy="-99" rx="1.8" ry="1.8"/>
</g>
<!-- (14, 0)&#45;&gt;(11, 0) -->
<g id="edge12" class="edge">
<title>(14, 0)&#45;&gt;(11, 0)</title>
<path fill="none" stroke="blue" d="M746.26,-99C750.41,-99 768.58,-99 776.4,-99"/>
<polygon fill="blue" stroke="blue" points="778.77,-99 776.77,-100.13 777.77,-99 776.77,-99 776.77,-99 776.77,-99 777.77,-99 776.77,-97.88 778.77,-99 778.77,-99"/>
</g>
<!-- (15, 0) -->
<g id="node16" class="node">
<title>(15, 0)</title>
<ellipse fill="black" stroke="black" cx="670.2" cy="-30" rx="1.8" ry="1.8"/>
</g>
<!-- (15, 0)&#45;&gt;(12, 0) -->
<g id="edge13" class="edge">
<title>(15, 0)&#45;&gt;(12, 0)</title>
<path fill="none" stroke="blue" d="M672.08,-30C676.43,-30 695.71,-30 703.51,-30"/>
<polygon fill="blue" stroke="blue" points="705.53,-30 703.53,-31.13 704.53,-30 703.53,-30 703.53,-30 703.53,-30 704.53,-30 703.53,-28.88 705.53,-30 705.53,-30"/>
</g>
<!-- (16, 0) -->
<g id="node17" class="node">
<title>(16, 0)</title>
<ellipse fill="black" stroke="black" cx="707.8" cy="-63" rx="1.8" ry="1.8"/>
</g>
<!-- (16, 0)&#45;&gt;(13, 0) -->
<g id="edge14" class="edge">
<title>(16, 0)&#45;&gt;(13, 0)</title>
<path fill="none" stroke="blue" d="M709.66,-63C713.81,-63 731.98,-63 739.8,-63"/>
<polygon fill="blue" stroke="blue" points="742.17,-63 740.17,-64.13 741.17,-63 740.17,-63 740.17,-63 740.17,-63 741.17,-63 740.17,-61.88 742.17,-63 742.17,-63"/>
</g>
<!-- (17, 0) -->
<g id="node18" class="node">
<title>(17, 0)</title>
<ellipse fill="black" stroke="black" cx="707.8" cy="-100" rx="1.8" ry="1.8"/>
</g>
<!-- (17, 0)&#45;&gt;(14, 0) -->
<g id="edge15" class="edge">
<title>(17, 0)&#45;&gt;(14, 0)</title>
<path fill="none" stroke="blue" d="M709.66,-99.98C713.81,-99.86 731.98,-99.33 739.8,-99.1"/>
<polygon fill="blue" stroke="blue" points="742.17,-99.04 740.2,-100.22 741.17,-99.06 740.17,-99.09 740.17,-99.09 740.17,-99.09 741.17,-99.06 740.14,-97.97 742.17,-99.04 742.17,-99.04"/>
</g>
<!-- (20, 0) -->
<g id="node21" class="node">
<title>(20, 0)</title>
<ellipse fill="black" stroke="black" cx="106" cy="-72" rx="1.8" ry="1.8"/>
</g>
<!-- (18, 0)&#45;&gt;(20, 0) -->
<g id="edge16" class="edge">
<title>(18, 0)&#45;&gt;(20, 0)</title>
<path fill="none" stroke="blue" d="M54.3,-71.02C60.02,-71.13 91.57,-71.74 101.8,-71.94"/>
<polygon fill="blue" stroke="blue" points="103.91,-71.98 101.89,-73.06 102.91,-71.96 101.91,-71.94 101.91,-71.94 101.91,-71.94 102.91,-71.96 101.93,-70.82 103.91,-71.98 103.91,-71.98"/>
</g>
<!-- (23, 0) -->
<g id="node25" class="node">
<title>(23, 0)</title>
<ellipse fill="black" stroke="black" cx="203.2" cy="-52" rx="1.8" ry="1.8"/>
<text text-anchor="middle" x="198.4" y="-43.8" font-family="Helvetica,sans-Serif" font-size="8.00">0</text>
</g>
<!-- (19, 0)&#45;&gt;(23, 0) -->
<g id="edge17" class="edge">
<title>(19, 0)&#45;&gt;(23, 0)</title>
<path fill="none" stroke="blue" d="M162.6,-52C167.74,-52 191.15,-52 199.35,-52"/>
<polygon fill="blue" stroke="blue" points="201.37,-52 199.37,-53.13 200.37,-52 199.37,-52 199.37,-52 199.37,-52 200.37,-52 199.37,-50.88 201.37,-52 201.37,-52"/>
</g>
<!-- (22, 0) -->
<g id="node23" class="node">
<title>(22, 0)</title>
<ellipse fill="black" stroke="black" cx="160.6" cy="-87" rx="1.8" ry="1.8"/>
<text text-anchor="middle" x="155.8" y="-78.8" font-family="Helvetica,sans-Serif" font-size="8.00">0</text>
</g>
<!-- (20, 0)&#45;&gt;(22, 0) -->
<g id="edge18" class="edge">
<title>(20, 0)&#45;&gt;(22, 0)</title>
<path fill="none" stroke="blue" d="M107.91,-72.26C113.75,-73.92 145.91,-83.1 156.34,-86.07"/>
<polygon fill="blue" stroke="blue" points="158.49,-86.68 156.26,-87.22 157.53,-86.41 156.57,-86.13 156.57,-86.13 156.57,-86.13 157.53,-86.41 156.87,-85.05 158.49,-86.68 158.49,-86.68"/>
</g>
<!-- (22, 1) -->
<g id="node24" class="node">
<title>(22, 1)</title>
<ellipse fill="black" stroke="black" cx="160.6" cy="-102" rx="1.8" ry="1.8"/>
<text text-anchor="middle" x="155.8" y="-93.8" font-family="Helvetica,sans-Serif" font-size="8.00">1</text>
</g>
<!-- (21, 0)&#45;&gt;(22, 1) -->
<g id="edge19" class="edge">
<title>(21, 0)&#45;&gt;(22, 1)</title>
<path fill="none" stroke="blue" d="M107.91,-106.91C113.75,-106.36 145.91,-103.3 156.34,-102.31"/>
<polygon fill="blue" stroke="blue" points="158.49,-102.11 156.6,-103.41 157.49,-102.2 156.5,-102.29 156.5,-102.29 156.5,-102.29 157.49,-102.2 156.39,-101.17 158.49,-102.11 158.49,-102.11"/>
</g>
<!-- (26, 0) -->
<g id="node30" class="node">
<title>(26, 0)</title>
<ellipse fill="black" stroke="black" cx="309.4" cy="-89" rx="1.8" ry="1.8"/>
<text text-anchor="middle" x="304.6" y="-80.8" font-family="Helvetica,sans-Serif" font-size="8.00">0</text>
</g>
<!-- (22, 0)&#45;&gt;(26, 0) -->
<g id="edge21" class="edge">
<title>(22, 0)&#45;&gt;(26, 0)</title>
<path fill="none" stroke="blue" d="M162.6,-87.36C166.1,-88.6 178.1,-92.68 188.4,-94 229.93,-99.33 240.92,-98 282.6,-94 290.88,-93.21 300.45,-91.01 305.27,-89.81"/>
<polygon fill="blue" stroke="blue" points="307.43,-89.26 305.77,-90.84 306.46,-89.51 305.49,-89.75 305.49,-89.75 305.49,-89.75 306.46,-89.51 305.21,-88.66 307.43,-89.26 307.43,-89.26"/>
</g>
<!-- (23, 1) -->
<g id="node26" class="node">
<title>(23, 1)</title>
<ellipse fill="black" stroke="black" cx="203.2" cy="-67" rx="1.8" ry="1.8"/>
<text text-anchor="middle" x="198.4" y="-58.8" font-family="Helvetica,sans-Serif" font-size="8.00">1</text>
</g>
<!-- (22, 1)&#45;&gt;(23, 1) -->
<g id="edge20" class="edge">
<title>(22, 1)&#45;&gt;(23, 1)</title>
<path fill="none" stroke="blue" d="M162.46,-101.65C164.82,-100.66 171.57,-97.69 176.4,-94 186.32,-86.43 195.9,-74.99 200.05,-69.77"/>
<polygon fill="blue" stroke="blue" points="201.32,-68.15 200.97,-70.42 200.71,-68.94 200.09,-69.72 200.09,-69.72 200.09,-69.72 200.71,-68.94 199.2,-69.03 201.32,-68.15 201.32,-68.15"/>
</g>
<!-- (25, 0) -->
<g id="node28" class="node">
<title>(25, 0)</title>
<ellipse fill="black" stroke="black" cx="352" cy="-48" rx="1.8" ry="1.8"/>
<text text-anchor="middle" x="347.2" y="-39.8" font-family="Helvetica,sans-Serif" font-size="8.00">0</text>
</g>
<!-- (23, 0)&#45;&gt;(25, 0) -->
<g id="edge23" class="edge">
<title>(23, 0)&#45;&gt;(25, 0)</title>
<path fill="none" stroke="blue" d="M205.14,-51.97C216.5,-51.66 327.59,-48.64 347.84,-48.09"/>
<polygon fill="blue" stroke="blue" points="350.15,-48.02 348.18,-49.2 349.15,-48.05 348.15,-48.08 348.15,-48.08 348.15,-48.08 349.15,-48.05 348.12,-46.95 350.15,-48.02 350.15,-48.02"/>
</g>
<!-- (24, 0) -->
<g id="node27" class="node">
<title>(24, 0)</title>
<ellipse fill="black" stroke="black" cx="256.8" cy="-67" rx="1.8" ry="1.8"/>
</g>
<!-- (23, 1)&#45;&gt;(24, 0) -->
<g id="edge22" class="edge">
<title>(23, 1)&#45;&gt;(24, 0)</title>
<path fill="none" stroke="blue" d="M205.1,-67C210.82,-67 242.37,-67 252.6,-67"/>
<polygon fill="blue" stroke="blue" points="254.71,-67 252.71,-68.13 253.71,-67 252.71,-67 252.71,-67 252.71,-67 253.71,-67 252.71,-65.88 254.71,-67 254.71,-67"/>
</g>
<!-- (26, 1) -->
<g id="node31" class="node">
<title>(26, 1)</title>
<ellipse fill="black" stroke="black" cx="309.4" cy="-74" rx="1.8" ry="1.8"/>
<text text-anchor="middle" x="304.6" y="-65.8" font-family="Helvetica,sans-Serif" font-size="8.00">1</text>
</g>
<!-- (24, 0)&#45;&gt;(26, 1) -->
<g id="edge24" class="edge">
<title>(24, 0)&#45;&gt;(26, 1)</title>
<path fill="none" stroke="blue" d="M258.68,-67.12C264.29,-67.9 295.23,-72.18 305.26,-73.57"/>
<polygon fill="blue" stroke="blue" points="307.33,-73.85 305.2,-74.69 306.34,-73.72 305.35,-73.58 305.35,-73.58 305.35,-73.58 306.34,-73.72 305.5,-72.46 307.33,-73.85 307.33,-73.85"/>
</g>
<!-- (28, 0) -->
<g id="node33" class="node">
<title>(28, 0)</title>
<ellipse fill="black" stroke="black" cx="392.6" cy="-63" rx="1.8" ry="1.8"/>
</g>
<!-- (25, 0)&#45;&gt;(28, 0) -->
<g id="edge25" class="edge">
<title>(25, 0)&#45;&gt;(28, 0)</title>
<path fill="none" stroke="blue" d="M353.95,-48.37C358.84,-50.27 381.09,-58.92 388.89,-61.95"/>
<polygon fill="blue" stroke="blue" points="390.81,-62.69 388.54,-63.02 389.88,-62.33 388.95,-61.97 388.95,-61.97 388.95,-61.97 389.88,-62.33 389.35,-60.92 390.81,-62.69 390.81,-62.69"/>
</g>
<!-- (25, 1) -->
<g id="node29" class="node">
<title>(25, 1)</title>
<ellipse fill="black" stroke="black" cx="352" cy="-63" rx="1.8" ry="1.8"/>
<text text-anchor="middle" x="347.2" y="-54.8" font-family="Helvetica,sans-Serif" font-size="8.00">1</text>
</g>
<!-- (29, 0) -->
<g id="node34" class="node">
<title>(29, 0)</title>
<ellipse fill="black" stroke="black" cx="392.6" cy="-30" rx="1.8" ry="1.8"/>
</g>
<!-- (25, 1)&#45;&gt;(29, 0) -->
<g id="edge26" class="edge">
<title>(25, 1)&#45;&gt;(29, 0)</title>
<path fill="none" stroke="blue" d="M353.86,-62.65C356.22,-61.67 362.97,-58.69 367.8,-55 376.8,-48.12 385.48,-37.77 389.41,-32.83"/>
<polygon fill="blue" stroke="blue" points="390.79,-31.06 390.44,-33.33 390.18,-31.85 389.56,-32.64 389.56,-32.64 389.56,-32.64 390.18,-31.85 388.67,-31.95 390.79,-31.06 390.79,-31.06"/>
</g>
<!-- (27, 0) -->
<g id="node32" class="node">
<title>(27, 0)</title>
<ellipse fill="black" stroke="black" cx="352" cy="-96" rx="1.8" ry="1.8"/>
</g>
<!-- (26, 0)&#45;&gt;(27, 0) -->
<g id="edge27" class="edge">
<title>(26, 0)&#45;&gt;(27, 0)</title>
<path fill="none" stroke="blue" d="M311.4,-89.17C316.54,-90.06 339.95,-94.09 348.15,-95.51"/>
<polygon fill="blue" stroke="blue" points="350.17,-95.86 348.01,-96.63 349.19,-95.69 348.2,-95.52 348.2,-95.52 348.2,-95.52 349.19,-95.69 348.39,-94.41 350.17,-95.86 350.17,-95.86"/>
</g>
<!-- (26, 1)&#45;&gt;(25, 1) -->
<g id="edge28" class="edge">
<title>(26, 1)&#45;&gt;(25, 1)</title>
<path fill="none" stroke="blue" d="M311.4,-73.73C316.54,-72.34 339.95,-65.99 348.15,-63.77"/>
<polygon fill="blue" stroke="blue" points="350.17,-63.22 348.53,-64.83 349.21,-63.49 348.24,-63.75 348.24,-63.75 348.24,-63.75 349.21,-63.49 347.95,-62.66 350.17,-63.22 350.17,-63.22"/>
</g>
<!-- (30, 0) -->
<g id="node35" class="node">
<title>(30, 0)</title>
<ellipse fill="black" stroke="black" cx="392.6" cy="-96" rx="1.8" ry="1.8"/>
</g>
<!-- (27, 0)&#45;&gt;(30, 0) -->
<g id="edge29" class="edge">
<title>(27, 0)&#45;&gt;(30, 0)</title>
<path fill="none" stroke="blue" d="M353.95,-96C358.67,-96 379.58,-96 388.03,-96"/>
<polygon fill="blue" stroke="blue" points="390.23,-96 388.23,-97.13 389.23,-96 388.23,-96 388.23,-96 388.23,-96 389.23,-96 388.23,-94.88 390.23,-96 390.23,-96"/>
</g>
<!-- (31, 0) -->
<g id="node36" class="node">
<title>(31, 0)</title>
<ellipse fill="black" stroke="black" cx="432.2" cy="-72" rx="1.8" ry="1.8"/>
<text text-anchor="middle" x="427.4" y="-63.8" font-family="Helvetica,sans-Serif" font-size="8.00">0</text>
</g>
<!-- (28, 0)&#45;&gt;(31, 0) -->
<g id="edge30" class="edge">
<title>(28, 0)&#45;&gt;(31, 0)</title>
<path fill="none" stroke="blue" d="M394.53,-63.22C399.12,-64.32 419.49,-69.2 427.73,-71.17"/>
<polygon fill="blue" stroke="blue" points="429.86,-71.68 427.65,-72.31 428.89,-71.45 427.92,-71.21 427.92,-71.21 427.92,-71.21 428.89,-71.45 428.18,-70.12 429.86,-71.68 429.86,-71.68"/>
</g>
<!-- (32, 1) -->
<g id="node39" class="node">
<title>(32, 1)</title>
<ellipse fill="black" stroke="black" cx="474.8" cy="-30" rx="1.8" ry="1.8"/>
<text text-anchor="middle" x="470" y="-21.8" font-family="Helvetica,sans-Serif" font-size="8.00">1</text>
</g>
<!-- (29, 0)&#45;&gt;(32, 1) -->
<g id="edge31" class="edge">
<title>(29, 0)&#45;&gt;(32, 1)</title>
<path fill="none" stroke="blue" d="M394.5,-30C402.18,-30 456.71,-30 470.59,-30"/>
<polygon fill="blue" stroke="blue" points="472.8,-30 470.8,-31.13 471.8,-30 470.8,-30 470.8,-30 470.8,-30 471.8,-30 470.8,-28.88 472.8,-30 472.8,-30"/>
</g>
<!-- (31, 1) -->
<g id="node37" class="node">
<title>(31, 1)</title>
<ellipse fill="black" stroke="black" cx="432.2" cy="-87" rx="1.8" ry="1.8"/>
<text text-anchor="middle" x="427.4" y="-78.8" font-family="Helvetica,sans-Serif" font-size="8.00">1</text>
</g>
<!-- (30, 0)&#45;&gt;(31, 1) -->
<g id="edge32" class="edge">
<title>(30, 0)&#45;&gt;(31, 1)</title>
<path fill="none" stroke="blue" d="M394.53,-95.78C399.12,-94.68 419.49,-89.8 427.73,-87.83"/>
<polygon fill="blue" stroke="blue" points="429.86,-87.32 428.18,-88.88 428.89,-87.55 427.92,-87.79 427.92,-87.79 427.92,-87.79 428.89,-87.55 427.65,-86.69 429.86,-87.32 429.86,-87.32"/>
</g>
<!-- (36, 0) -->
<g id="node43" class="node">
<title>(36, 0)</title>
<ellipse fill="black" stroke="black" cx="627.6" cy="-80" rx="1.8" ry="1.8"/>
<text text-anchor="middle" x="622.8" y="-71.8" font-family="Helvetica,sans-Serif" font-size="8.00">0</text>
</g>
<!-- (31, 0)&#45;&gt;(36, 0) -->
<g id="edge33" class="edge">
<title>(31, 0)&#45;&gt;(36, 0)</title>
<path fill="none" stroke="blue" d="M434.06,-72.04C446.89,-72.57 598.95,-78.86 623.32,-79.86"/>
<polygon fill="blue" stroke="blue" points="625.46,-79.95 623.41,-80.99 624.46,-79.91 623.46,-79.87 623.46,-79.87 623.46,-79.87 624.46,-79.91 623.51,-78.75 625.46,-79.95 625.46,-79.95"/>
</g>
<!-- (32, 0) -->
<g id="node38" class="node">
<title>(32, 0)</title>
<ellipse fill="black" stroke="black" cx="474.8" cy="-45" rx="1.8" ry="1.8"/>
<text text-anchor="middle" x="470" y="-36.8" font-family="Helvetica,sans-Serif" font-size="8.00">0</text>
</g>
<!-- (31, 1)&#45;&gt;(32, 0) -->
<g id="edge34" class="edge">
<title>(31, 1)&#45;&gt;(32, 0)</title>
<path fill="none" stroke="blue" d="M434.08,-86.68C436.5,-85.76 443.39,-82.95 448,-79 459.02,-69.55 468.29,-54.65 472.03,-48.18"/>
<polygon fill="blue" stroke="blue" points="473.15,-46.2 473.14,-48.49 472.65,-47.07 472.16,-47.94 472.16,-47.94 472.16,-47.94 472.65,-47.07 471.18,-47.38 473.15,-46.2 473.15,-46.2"/>
</g>
<!-- (37, 0) -->
<g id="node45" class="node">
<title>(37, 0)</title>
<ellipse fill="black" stroke="black" cx="581" cy="-45" rx="1.8" ry="1.8"/>
<text text-anchor="middle" x="576.2" y="-36.8" font-family="Helvetica,sans-Serif" font-size="8.00">0</text>
</g>
<!-- (32, 0)&#45;&gt;(37, 0) -->
<g id="edge35" class="edge">
<title>(32, 0)&#45;&gt;(37, 0)</title>
<path fill="none" stroke="blue" d="M476.97,-45C487.12,-45 560.2,-45 576.7,-45"/>
<polygon fill="blue" stroke="blue" points="578.97,-45 576.97,-46.13 577.97,-45 576.97,-45 576.97,-45 576.97,-45 577.97,-45 576.97,-43.88 578.97,-45 578.97,-45"/>
</g>
<!-- (33, 0) -->
<g id="node40" class="node">
<title>(33, 0)</title>
<ellipse fill="black" stroke="black" cx="528.4" cy="-15" rx="1.8" ry="1.8"/>
</g>
<!-- (32, 1)&#45;&gt;(33, 0) -->
<g id="edge36" class="edge">
<title>(32, 1)&#45;&gt;(33, 0)</title>
<path fill="none" stroke="blue" d="M476.7,-29.74C482.42,-28.08 513.97,-18.9 524.2,-15.93"/>
<polygon fill="blue" stroke="blue" points="526.31,-15.32 524.7,-16.96 525.35,-15.6 524.39,-15.88 524.39,-15.88 524.39,-15.88 525.35,-15.6 524.08,-14.79 526.31,-15.32 526.31,-15.32"/>
</g>
<!-- (37, 1) -->
<g id="node46" class="node">
<title>(37, 1)</title>
<ellipse fill="black" stroke="black" cx="581" cy="-30" rx="1.8" ry="1.8"/>
<text text-anchor="middle" x="576.2" y="-21.8" font-family="Helvetica,sans-Serif" font-size="8.00">1</text>
</g>
<!-- (33, 0)&#45;&gt;(37, 1) -->
<g id="edge37" class="edge">
<title>(33, 0)&#45;&gt;(37, 1)</title>
<path fill="none" stroke="blue" d="M530.28,-15.26C535.89,-16.92 566.83,-26.1 576.86,-29.07"/>
<polygon fill="blue" stroke="blue" points="578.93,-29.68 576.69,-30.19 577.97,-29.4 577.01,-29.11 577.01,-29.11 577.01,-29.11 577.97,-29.4 577.33,-28.04 578.93,-29.68 578.93,-29.68"/>
</g>
<!-- (34, 0) -->
<g id="node41" class="node">
<title>(34, 0)</title>
<ellipse fill="black" stroke="black" cx="627.6" cy="-30" rx="1.8" ry="1.8"/>
</g>
<!-- (34, 0)&#45;&gt;(15, 0) -->
<g id="edge38" class="edge">
<title>(34, 0)&#45;&gt;(15, 0)</title>
<path fill="none" stroke="blue" d="M629.6,-30C634.74,-30 658.15,-30 666.35,-30"/>
<polygon fill="blue" stroke="blue" points="668.37,-30 666.37,-31.13 667.37,-30 666.37,-30 666.37,-30 666.37,-30 667.37,-30 666.37,-28.88 668.37,-30 668.37,-30"/>
</g>
<!-- (35, 0) -->
<g id="node42" class="node">
<title>(35, 0)</title>
<ellipse fill="black" stroke="black" cx="670.2" cy="-63" rx="1.8" ry="1.8"/>
</g>
<!-- (35, 0)&#45;&gt;(16, 0) -->
<g id="edge39" class="edge">
<title>(35, 0)&#45;&gt;(16, 0)</title>
<path fill="none" stroke="blue" d="M672.08,-63C676.43,-63 695.71,-63 703.51,-63"/>
<polygon fill="blue" stroke="blue" points="705.53,-63 703.53,-64.13 704.53,-63 703.53,-63 703.53,-63 703.53,-63 704.53,-63 703.53,-61.88 705.53,-63 705.53,-63"/>
</g>
<!-- (36, 0)&#45;&gt;(17, 0) -->
<g id="edge40" class="edge">
<title>(36, 0)&#45;&gt;(17, 0)</title>
<path fill="none" stroke="blue" d="M629.68,-80.44C633.45,-81.94 646.37,-86.98 657.4,-90 674.53,-94.69 695.56,-98.23 703.53,-99.49"/>
<polygon fill="blue" stroke="blue" points="705.56,-99.81 703.41,-100.61 704.58,-99.66 703.59,-99.5 703.59,-99.5 703.59,-99.5 704.58,-99.66 703.76,-98.39 705.56,-99.81 705.56,-99.81"/>
</g>
<!-- (36, 1) -->
<g id="node44" class="node">
<title>(36, 1)</title>
<ellipse fill="black" stroke="black" cx="627.6" cy="-65" rx="1.8" ry="1.8"/>
<text text-anchor="middle" x="622.8" y="-56.8" font-family="Helvetica,sans-Serif" font-size="8.00">1</text>
</g>
<!-- (36, 1)&#45;&gt;(35, 0) -->
<g id="edge41" class="edge">
<title>(36, 1)&#45;&gt;(35, 0)</title>
<path fill="none" stroke="blue" d="M629.6,-64.95C634.74,-64.7 658.15,-63.54 666.35,-63.14"/>
<polygon fill="blue" stroke="blue" points="668.37,-63.04 666.43,-64.26 667.37,-63.09 666.37,-63.14 666.37,-63.14 666.37,-63.14 667.37,-63.09 666.32,-62.02 668.37,-63.04 668.37,-63.04"/>
</g>
<!-- (37, 0)&#45;&gt;(36, 1) -->
<g id="edge43" class="edge">
<title>(37, 0)&#45;&gt;(36, 1)</title>
<path fill="none" stroke="blue" d="M583.01,-45.52C586.52,-47.34 598.57,-53.52 608.8,-58 613.94,-60.25 620.05,-62.58 623.61,-63.9"/>
<polygon fill="blue" stroke="blue" points="625.62,-64.65 623.36,-65.01 624.69,-64.3 623.75,-63.96 623.75,-63.96 623.75,-63.96 624.69,-64.3 624.14,-62.9 625.62,-64.65 625.62,-64.65"/>
</g>
<!-- (37, 1)&#45;&gt;(34, 0) -->
<g id="edge42" class="edge">
<title>(37, 1)&#45;&gt;(34, 0)</title>
<path fill="none" stroke="blue" d="M583.1,-30C588.74,-30 614.46,-30 623.47,-30"/>
<polygon fill="blue" stroke="blue" points="625.69,-30 623.69,-31.13 624.69,-30 623.69,-30 623.69,-30 623.69,-30 624.69,-30 623.69,-28.88 625.69,-30 625.69,-30"/>
</g>
</g>
</svg>