<?xml version="1.0" encoding="UTF-8" standalone="no"?>
<!DOCTYPE svg PUBLIC "-//W3C//DTD SVG 1.1//EN"
 "http://www.w3.org/Graphics/SVG/1.1/DTD/svg11.dtd">
<!-- Generated by graphviz version 2.43.0 (0)
 -->
<!-- Title: Circuit Pages: 1 -->
<svg width="441pt" height="157pt"
 viewBox="0.00 0.00 441.00 157.00" xmlns="http://www.w3.org/2000/svg" xmlns:xlink="http://www.w3.org/1999/xlink">
<g id="graph0" class="graph" transform="scale(1 1) rotate(0) translate(4 153)">
<title>Circuit</title>
<polygon fill="white" stroke="transparent" points="-4,4 -4,-153 437,-153 437,4 -4,4"/>
<g id="clust1" class="cluster">
<title>cluster_q_inputs</title>
<path fill="lightgrey" stroke="lightgrey" d="M18.53,-27C18.53,-27 23.07,-27 23.07,-27 25.33,-27 27.6,-29.27 27.6,-31.53 27.6,-31.53 27.6,-81.47 27.6,-81.47 27.6,-83.73 25.33,-86 23.07,-86 23.07,-86 18.53,-86 18.53,-86 16.27,-86 14,-83.73 14,-81.47 14,-81.47 14,-31.53 14,-31.53 14,-29.27 16.27,-27 18.53,-27"/>
</g>
<g id="clust4" class="cluster">
<title>cluster_q_outputs</title>
<path fill="lightgrey" stroke="lightgrey" d="M415.93,-46C415.93,-46 420.47,-46 420.47,-46 422.73,-46 425,-48.27 425,-50.53 425,-50.53 425,-100.47 425,-100.47 425,-102.73 422.73,-105 420.47,-105 420.47,-105 415.93,-105 415.93,-105 413.67,-105 411.4,-102.73 411.4,-100.47 411.4,-100.47 411.4,-50.53 411.4,-50.53 411.4,-48.27 413.67,-46 415.93,-46"/>
</g>
<g id="clust7" class="cluster">
<title>cluster_8</title>
<path fill="lightblue" stroke="lightblue" d="M51.6,-61C51.6,-61 88.2,-61 88.2,-61 94.2,-61 100.2,-67 100.2,-73 100.2,-73 100.2,-97 100.2,-97 100.2,-103 94.2,-109 88.2,-109 88.2,-109 51.6,-109 51.6,-109 45.6,-109 39.6,-103 39.6,-97 39.6,-97 39.6,-73 39.6,-73 39.6,-67 45.6,-61 51.6,-61"/>
<text text-anchor="middle" x="69.9" y="-97" font-family="Times,serif" font-size="10.00">CU1(0.5)</text>
</g>
<g id="clust8" class="cluster">
<title>cluster_9</title>
<path fill="lightblue" stroke="lightblue" d="M196.93,-107C196.93,-107 205.47,-107 205.47,-107 209.73,-107 214,-111.27 214,-115.53 214,-115.53 214,-131.47 214,-131.47 214,-135.73 209.73,-140 205.47,-140 205.47,-140 196.93,-140 196.93,-140 192.67,-140 188.4,-135.73 188.4,-131.47 188.4,-131.47 188.4,-115.53 188.4,-115.53 188.4,-111.27 192.67,-107 196.93,-107"/>
<text text-anchor="middle" x="201.2" y="-128" font-family="Times,serif" font-size="10.00">H</text>
</g>
<g id="clust9" class="cluster">
<title>cluster_10</title>
<path fill="lightblue" stroke="lightblue" d="M119.73,-64C119.73,-64 127.27,-64 127.27,-64 131.03,-64 134.8,-67.77 134.8,-71.53 134.8,-71.53 134.8,-89.47 134.8,-89.47 134.8,-93.23 131.03,-97 127.27,-97 127.27,-97 119.73,-97 119.73,-97 115.97,-97 112.2,-93.23 112.2,-89.47 112.2,-89.47 112.2,-71.53 112.2,-71.53 112.2,-67.77 115.97,-64 119.73,-64"/>
<text text-anchor="middle" x="123.5" y="-85" font-family="Times,serif" font-size="10.00">X</text>
</g>
<g id="clust10" class="cluster">
<title>cluster_11</title>
<path fill="lightblue" stroke="lightblue" d="M119.73,-31C119.73,-31 127.27,-31 127.27,-31 131.03,-31 134.8,-34.77 134.8,-38.53 134.8,-38.53 134.8,-56.47 134.8,-56.47 134.8,-60.23 131.03,-64 127.27,-64 127.27,-64 119.73,-64 119.73,-64 115.97,-64 112.2,-60.23 112.2,-56.47 112.2,-56.47 112.2,-38.53 112.2,-38.53 112.2,-34.77 115.97,-31 119.73,-31"/>
<text text-anchor="middle" x="123.5" y="-52" font-family="Times,serif" font-size="10.00">Y</text>
</g>
<g id="clust11" class="cluster">
<title>cluster_12</title>
<path fill="lightblue" stroke="lightblue" d="M157.33,-8C157.33,-8 164.87,-8 164.87,-8 168.63,-8 172.4,-11.77 172.4,-15.53 172.4,-15.53 172.4,-33.47 172.4,-33.47 172.4,-37.23 168.63,-41 164.87,-41 164.87,-41 157.33,-41 157.33,-41 153.57,-41 149.8,-37.23 149.8,-33.47 149.8,-33.47 149.8,-15.53 149.8,-15.53 149.8,-11.77 153.57,-8 157.33,-8"/>
<text text-anchor="middle" x="161.1" y="-29" font-family="Times,serif" font-size="10.00">Z</text>
</g>
<g id="clust12" class="cluster">
<title>cluster_13</title>
<path fill="lightblue" stroke="lightblue" d="M252.53,-107C252.53,-107 260.07,-107 260.07,-107 263.83,-107 267.6,-110.77 267.6,-114.53 267.6,-114.53 267.6,-132.47 267.6,-132.47 267.6,-136.23 263.83,-140 260.07,-140 260.07,-140 252.53,-140 252.53,-140 248.77,-140 245,-136.23 245,-132.47 245,-132.47 245,-114.53 245,-114.53 245,-110.77 248.77,-107 252.53,-107"/>
<text text-anchor="middle" x="256.3" y="-128" font-family="Times,serif" font-size="10.00">X</text>
</g>
<g id="clust13" class="cluster">
<title>cluster_14</title>
<path fill="lightblue" stroke="lightblue" d="M156,-43C156,-43 166.2,-43 166.2,-43 171.3,-43 176.4,-48.1 176.4,-53.2 176.4,-53.2 176.4,-80.8 176.4,-80.8 176.4,-85.9 171.3,-91 166.2,-91 166.2,-91 156,-91 156,-91 150.9,-91 145.8,-85.9 145.8,-80.8 145.8,-80.8 145.8,-53.2 145.8,-53.2 145.8,-48.1 150.9,-43 156,-43"/>
<text text-anchor="middle" x="161.1" y="-79" font-family="Times,serif" font-size="10.00">CX</text>
</g>
<g id="clust14" class="cluster">
<title>cluster_15</title>
<path fill="lightblue" stroke="lightblue" d="M307.13,-75C307.13,-75 314.67,-75 314.67,-75 318.43,-75 322.2,-78.77 322.2,-82.53 322.2,-82.53 322.2,-100.47 322.2,-100.47 322.2,-104.23 318.43,-108 314.67,-108 314.67,-108 307.13,-108 307.13,-108 303.37,-108 299.6,-104.23 299.6,-100.47 299.6,-100.47 299.6,-82.53 299.6,-82.53 299.6,-78.77 303.37,-75 307.13,-75"/>
<text text-anchor="middle" x="310.9" y="-96" font-family="Times,serif" font-size="10.00">Y</text>
</g>
<g id="clust15" class="cluster">
<title>cluster_16</title>
<path fill="lightblue" stroke="lightblue" d="M197.93,-41C197.93,-41 205.47,-41 205.47,-41 209.23,-41 213,-44.77 213,-48.53 213,-48.53 213,-66.47 213,-66.47 213,-70.23 209.23,-74 205.47,-74 205.47,-74 197.93,-74 197.93,-74 194.17,-74 190.4,-70.23 190.4,-66.47 190.4,-66.47 190.4,-48.53 190.4,-48.53 190.4,-44.77 194.17,-41 197.93,-41"/>
<text text-anchor="middle" x="201.7" y="-62" font-family="Times,serif" font-size="10.00">Z</text>
</g>
<g id="clust16" class="cluster">
<title>cluster_17</title>
<path fill="lightblue" stroke="lightblue" d="M196.93,-8C196.93,-8 205.47,-8 205.47,-8 209.73,-8 214,-12.27 214,-16.53 214,-16.53 214,-32.47 214,-32.47 214,-36.73 209.73,-41 205.47,-41 205.47,-41 196.93,-41 196.93,-41 192.67,-41 188.4,-36.73 188.4,-32.47 188.4,-32.47 188.4,-16.53 188.4,-16.53 188.4,-12.27 192.67,-8 196.93,-8"/>
<text text-anchor="middle" x="201.2" y="-29" font-family="Times,serif" font-size="10.00">H</text>
</g>
<g id="clust17" class="cluster">
<title>cluster_18</title>
<path fill="lightblue" stroke="lightblue" d="M307.13,-108C307.13,-108 314.67,-108 314.67,-108 318.43,-108 322.2,-111.77 322.2,-115.53 322.2,-115.53 322.2,-133.47 322.2,-133.47 322.2,-137.23 318.43,-141 314.67,-141 314.67,-141 307.13,-141 307.13,-141 303.37,-141 299.6,-137.23 299.6,-133.47 299.6,-133.47 299.6,-115.53 299.6,-115.53 299.6,-111.77 303.37,-108 307.13,-108"/>
<text text-anchor="middle" x="310.9" y="-129" font-family="Times,serif" font-size="10.00">Y</text>
</g>
<g id="clust18" class="cluster">
<title>cluster_19</title>
<path fill="lightblue" stroke="lightblue" d="M342.73,-75C342.73,-75 350.27,-75 350.27,-75 354.03,-75 357.8,-78.77 357.8,-82.53 357.8,-82.53 357.8,-100.47 357.8,-100.47 357.8,-104.23 354.03,-108 350.27,-108 350.27,-108 342.73,-108 342.73,-108 338.97,-108 335.2,-104.23 335.2,-100.47 335.2,-100.47 335.2,-82.53 335.2,-82.53 335.2,-78.77 338.97,-75 342.73,-75"/>
<text text-anchor="middle" x="346.5" y="-96" font-family="Times,serif" font-size="10.00">Z</text>
</g>
<g id="clust19" class="cluster">
<title>cluster_20</title>
<path fill="lightblue" stroke="lightblue" d="M238,-17C238,-17 274.6,-17 274.6,-17 280.6,-17 286.6,-23 286.6,-29 286.6,-29 286.6,-53 286.6,-53 286.6,-59 280.6,-65 274.6,-65 274.6,-65 238,-65 238,-65 232,-65 226,-59 226,-53 226,-53 226,-29 226,-29 226,-23 232,-17 238,-17"/>
<text text-anchor="middle" x="256.3" y="-53" font-family="Times,serif" font-size="10.00">CU1(0.5)</text>
</g>
<g id="clust20" class="cluster">
<title>cluster_21</title>
<path fill="lightblue" stroke="lightblue" d="M306.13,-9C306.13,-9 314.67,-9 314.67,-9 318.93,-9 323.2,-13.27 323.2,-17.53 323.2,-17.53 323.2,-33.47 323.2,-33.47 323.2,-37.73 318.93,-42 314.67,-42 314.67,-42 306.13,-42 306.13,-42 301.87,-42 297.6,-37.73 297.6,-33.47 297.6,-33.47 297.6,-17.53 297.6,-17.53 297.6,-13.27 301.87,-9 306.13,-9"/>
<text text-anchor="middle" x="310.4" y="-30" font-family="Times,serif" font-size="10.00">H</text>
</g>
<g id="clust21" class="cluster">
<title>cluster_22</title>
<path fill="lightblue" stroke="lightblue" d="M307.13,-42C307.13,-42 314.67,-42 314.67,-42 318.43,-42 322.2,-45.77 322.2,-49.53 322.2,-49.53 322.2,-67.47 322.2,-67.47 322.2,-71.23 318.43,-75 314.67,-75 314.67,-75 307.13,-75 307.13,-75 303.37,-75 299.6,-71.23 299.6,-67.47 299.6,-67.47 299.6,-49.53 299.6,-49.53 299.6,-45.77 303.37,-42 307.13,-42"/>
<text text-anchor="middle" x="310.9" y="-63" font-family="Times,serif" font-size="10.00">X</text>
</g>
<g id="clust22" class="cluster">
<title>cluster_23</title>
<path fill="lightblue" stroke="lightblue" d="M342.73,-108C342.73,-108 350.27,-108 350.27,-108 354.03,-108 357.8,-111.77 357.8,-115.53 357.8,-115.53 357.8,-133.47 357.8,-133.47 357.8,-137.23 354.03,-141 350.27,-141 350.27,-141 342.73,-141 342.73,-141 338.97,-141 335.2,-137.23 335.2,-133.47 335.2,-133.47 335.2,-115.53 335.2,-115.53 335.2,-111.77 338.97,-108 342.73,-108"/>
<text text-anchor="middle" x="346.5" y="-129" font-family="Times,serif" font-size="10.00">Z</text>
</g>
<g id="clust23" class="cluster">
<title>cluster_24</title>
<path fill="lightblue" stroke="lightblue" d="M379.33,-52C379.33,-52 387.87,-52 387.87,-52 392.13,-52 396.4,-56.27 396.4,-60.53 396.4,-60.53 396.4,-76.47 396.4,-76.47 396.4,-80.73 392.13,-85 387.87,-85 387.87,-85 379.33,-85 379.33,-85 375.07,-85 370.8,-80.73 370.8,-76.47 370.8,-76.47 370.8,-60.53 370.8,-60.53 370.8,-56.27 375.07,-52 379.33,-52"/>
<text text-anchor="middle" x="383.6" y="-73" font-family="Times,serif" font-size="10.00">H</text>
</g>
<g id="clust24" class="cluster">
<title>cluster_25</title>
<path fill="lightblue" stroke="lightblue" d="M342.73,-9C342.73,-9 350.27,-9 350.27,-9 354.03,-9 357.8,-12.77 357.8,-16.53 357.8,-16.53 357.8,-34.47 357.8,-34.47 357.8,-38.23 354.03,-42 350.27,-42 350.27,-42 342.73,-42 342.73,-42 338.97,-42 335.2,-38.23 335.2,-34.47 335.2,-34.47 335.2,-16.53 335.2,-16.53 335.2,-12.77 338.97,-9 342.73,-9"/>
<text text-anchor="middle" x="346.5" y="-30" font-family="Times,serif" font-size="10.00">X</text>
</g>
<g id="clust25" class="cluster">
<title>cluster_26</title>
<path fill="lightblue" stroke="lightblue" d="M342.73,-42C342.73,-42 350.27,-42 350.27,-42 354.03,-42 357.8,-45.77 357.8,-49.53 357.8,-49.53 357.8,-67.47 357.8,-67.47 357.8,-71.23 354.03,-75 350.27,-75 350.27,-75 342.73,-75 342.73,-75 338.97,-75 335.2,-71.23 335.2,-67.47 335.2,-67.47 335.2,-49.53 335.2,-49.53 335.2,-45.77 338.97,-42 342.73,-42"/>
<text text-anchor="middle" x="346.5" y="-63" font-family="Times,serif" font-size="10.00">Y</text>
</g>
<g id="clust26" class="cluster">
<title>cluster_27</title>
<path fill="lightblue" stroke="lightblue" d="M379,-85C379,-85 389.2,-85 389.2,-85 394.3,-85 399.4,-90.1 399.4,-95.2 399.4,-95.2 399.4,-122.8 399.4,-122.8 399.4,-127.9 394.3,-133 389.2,-133 389.2,-133 379,-133 379,-133 373.9,-133 368.8,-127.9 368.8,-122.8 368.8,-122.8 368.8,-95.2 368.8,-95.2 368.8,-90.1 373.9,-85 379,-85"/>
<text text-anchor="middle" x="384.1" y="-121" font-family="Times,serif" font-size="10.00">CX</text>
</g>
<!-- (0, 0) -->
<g id="node1" class="node">
<title>(0, 0)</title>
<ellipse fill="blue" stroke="blue" cx="20.8" cy="-79" rx="1.8" ry="1.8"/>
<text text-anchor="middle" x="9.5" y="-70.8" font-family="Courier,monospace" font-size="8.00">q[0]</text>
</g>
<!-- (8, 0) -->
<g id="node9" class="node">
<title>(8, 0)</title>
<ellipse fill="black" stroke="black" cx="69.4" cy="-83" rx="1.8" ry="1.8"/>
<text text-anchor="middle" x="64.6" y="-74.8" font-family="Helvetica,sans-Serif" font-size="8.00">0</text>
</g>
<!-- (0, 0)&#45;&gt;(8, 0) -->
<g id="edge1" class="edge">
<title>(0, 0)&#45;&gt;(8, 0)</title>
<path fill="none" stroke="blue" d="M22.61,-79.07C27.69,-79.51 55.31,-81.88 65.02,-82.71"/>
<polygon fill="blue" stroke="blue" points="67.42,-82.92 65.33,-83.87 66.42,-82.83 65.42,-82.74 65.42,-82.74 65.42,-82.74 66.42,-82.83 65.52,-81.62 67.42,-82.92 67.42,-82.92"/>
</g>
<!-- (2, 0) -->
<g id="node2" class="node">
<title>(2, 0)</title>
<ellipse fill="blue" stroke="blue" cx="20.8" cy="-64" rx="1.8" ry="1.8"/>
<text text-anchor="middle" x="9.5" y="-55.8" font-family="Courier,monospace" font-size="8.00">q[1]</text>
</g>
<!-- (8, 1) -->
<g id="node10" class="node">
<title>(8, 1)</title>
<ellipse fill="black" stroke="black" cx="69.4" cy="-68" rx="1.8" ry="1.8"/>
<text text-anchor="middle" x="64.6" y="-59.8" font-family="Helvetica,sans-Serif" font-size="8.00">1</text>
</g>
<!-- (2, 0)&#45;&gt;(8, 1) -->
<g id="edge2" class="edge">
<title>(2, 0)&#45;&gt;(8, 1)</title>
<path fill="none" stroke="blue" d="M22.61,-64.07C27.69,-64.51 55.31,-66.88 65.02,-67.71"/>
<polygon fill="blue" stroke="blue" points="67.42,-67.92 65.33,-68.87 66.42,-67.83 65.42,-67.74 65.42,-67.74 65.42,-67.74 66.42,-67.83 65.52,-66.62 67.42,-67.92 67.42,-67.92"/>
</g>
<!-- (4, 0) -->
<g id="node3" class="node">
<title>(4, 0)</title>
<ellipse fill="blue" stroke="blue" cx="20.8" cy="-49" rx="1.8" ry="1.8"/>
<text text-anchor="middle" x="9.5" y="-40.8" font-family="Courier,monospace" font-size="8.00">q[2]</text>
</g>
<!-- (11, 0) -->
<g id="node13" class="node">
<title>(11, 0)</title>
<ellipse fill="black" stroke="black" cx="123" cy="-38" rx="1.8" ry="1.8"/>
</g>
<!-- (4, 0)&#45;&gt;(11, 0) -->
<g id="edge3" class="edge">
<title>(4, 0)&#45;&gt;(11, 0)</title>
<path fill="none" stroke="blue" d="M22.93,-48.88C32.68,-47.81 102.96,-40.09 118.82,-38.35"/>
<polygon fill="blue" stroke="blue" points="121.01,-38.11 119.14,-39.45 120.01,-38.22 119.02,-38.33 119.02,-38.33 119.02,-38.33 120.01,-38.22 118.9,-37.21 121.01,-38.11 121.01,-38.11"/>
</g>
<!-- (6, 0) -->
<g id="node4" class="node">
<title>(6, 0)</title>
<ellipse fill="blue" stroke="blue" cx="20.8" cy="-34" rx="1.8" ry="1.8"/>
<text text-anchor="middle" x="9.5" y="-25.8" font-family="Courier,monospace" font-size="8.00">q[3]</text>
</g>
<!-- (12, 0) -->
<g id="node14" class="node">
<title>(12, 0)</title>
<ellipse fill="black" stroke="black" cx="160.6" cy="-15" rx="1.8" ry="1.8"/>
</g>
<!-- (6, 0)&#45;&gt;(12, 0) -->
<g id="edge4" class="edge">
<title>(6, 0)&#45;&gt;(12, 0)</title>
<path fill="none" stroke="blue" d="M22.68,-33.88C33.34,-32.41 137.63,-18.03 156.64,-15.41"/>
<polygon fill="blue" stroke="blue" points="158.8,-15.11 156.97,-16.5 157.81,-15.25 156.82,-15.38 156.82,-15.38 156.82,-15.38 157.81,-15.25 156.66,-14.27 158.8,-15.11 158.8,-15.11"/>
</g>
<!-- (1, 0) -->
<g id="node5" class="node">
<title>(1, 0)</title>
<ellipse fill="blue" stroke="blue" cx="418.2" cy="-98" rx="1.8" ry="1.8"/>
<text text-anchor="middle" x="406.9" y="-89.8" font-family="Courier,monospace" font-size="8.00">q[0]</text>
</g>
<!-- (3, 0) -->
<g id="node6" class="node">
<title>(3, 0)</title>
<ellipse fill="blue" stroke="blue" cx="418.2" cy="-68" rx="1.8" ry="1.8"/>
<text text-anchor="middle" x="406.9" y="-59.8" font-family="Courier,monospace" font-size="8.00">q[1]</text>
</g>
<!-- (5, 0) -->
<g id="node7" class="node">
<title>(5, 0)</title>
<ellipse fill="blue" stroke="blue" cx="418.2" cy="-53" rx="1.8" ry="1.8"/>
<text text-anchor="middle" x="406.9" y="-44.8" font-family="Courier,monospace" font-size="8.00">q[2]</text>
</g>
<!-- (7, 0) -->
<g id="node8" class="node">
<title>(7, 0)</title>
<ellipse fill="blue" stroke="blue" cx="418.2" cy="-83" rx="1.8" ry="1.8"/>
<text text-anchor="middle" x="406.9" y="-74.8" font-family="Courier,monospace" font-size="8.00">q[3]</text>
</g>
<!-- (9, 0) -->
<g id="node11" class="node">
<title>(9, 0)</title>
<ellipse fill="black" stroke="black" cx="201.2" cy="-114" rx="1.8" ry="1.8"/>
</g>
<!-- (8, 0)&#45;&gt;(9, 0) -->
<g id="edge5" class="edge">
<title>(8, 0)&#45;&gt;(9, 0)</title>
<path fill="none" stroke="blue" d="M71.41,-83.47C76,-85.6 95.41,-94.4 112.2,-99 144.72,-107.9 185.52,-112.51 197.04,-113.69"/>
<polygon fill="blue" stroke="blue" points="199.32,-113.92 197.22,-114.84 198.32,-113.82 197.33,-113.72 197.33,-113.72 197.33,-113.72 198.32,-113.82 197.44,-112.6 199.32,-113.92 199.32,-113.92"/>
</g>
<!-- (10, 0) -->
<g id="node12" class="node">
<title>(10, 0)</title>
<ellipse fill="black" stroke="black" cx="123" cy="-71" rx="1.8" ry="1.8"/>
</g>
<!-- (8, 1)&#45;&gt;(10, 0) -->
<g id="edge6" class="edge">
<title>(8, 1)&#45;&gt;(10, 0)</title>
<path fill="none" stroke="blue" d="M71.3,-68.05C77.02,-68.38 108.57,-70.22 118.8,-70.81"/>
<polygon fill="blue" stroke="blue" points="120.91,-70.94 118.85,-71.94 119.91,-70.88 118.91,-70.82 118.91,-70.82 118.91,-70.82 119.91,-70.88 118.98,-69.7 120.91,-70.94 120.91,-70.94"/>
</g>
<!-- (13, 0) -->
<g id="node15" class="node">
<title>(13, 0)</title>
<ellipse fill="black" stroke="black" cx="255.8" cy="-114" rx="1.8" ry="1.8"/>
</g>
<!-- (9, 0)&#45;&gt;(13, 0) -->
<g id="edge7" class="edge">
<title>(9, 0)&#45;&gt;(13, 0)</title>
<path fill="none" stroke="blue" d="M203.11,-114C208.95,-114 241.11,-114 251.54,-114"/>
<polygon fill="blue" stroke="blue" points="253.69,-114 251.69,-115.13 252.69,-114 251.69,-114 251.69,-114 251.69,-114 252.69,-114 251.69,-112.88 253.69,-114 253.69,-114"/>
</g>
<!-- (14, 0) -->
<g id="node16" class="node">
<title>(14, 0)</title>
<ellipse fill="black" stroke="black" cx="160.6" cy="-65" rx="1.8" ry="1.8"/>
<text text-anchor="middle" x="155.8" y="-56.8" font-family="Helvetica,sans-Serif" font-size="8.00">0</text>
</g>
<!-- (10, 0)&#45;&gt;(14, 0) -->
<g id="edge8" class="edge">
<title>(10, 0)&#45;&gt;(14, 0)</title>
<path fill="none" stroke="blue" d="M124.88,-70.85C129.23,-70.12 148.51,-66.87 156.31,-65.55"/>
<polygon fill="blue" stroke="blue" points="158.33,-65.21 156.55,-66.66 157.35,-65.38 156.36,-65.55 156.36,-65.55 156.36,-65.55 157.35,-65.38 156.17,-64.44 158.33,-65.21 158.33,-65.21"/>
</g>
<!-- (14, 1) -->
<g id="node17" class="node">
<title>(14, 1)</title>
<ellipse fill="black" stroke="black" cx="160.6" cy="-50" rx="1.8" ry="1.8"/>
<text text-anchor="middle" x="155.8" y="-41.8" font-family="Helvetica,sans-Serif" font-size="8.00">1</text>
</g>
<!-- (11, 0)&#45;&gt;(14, 1) -->
<g id="edge9" class="edge">
<title>(11, 0)&#45;&gt;(14, 1)</title>
<path fill="none" stroke="blue" d="M124.88,-38.3C129.23,-39.76 148.51,-46.26 156.31,-48.89"/>
<polygon fill="blue" stroke="blue" points="158.33,-49.57 156.08,-50 157.39,-49.25 156.44,-48.93 156.44,-48.93 156.44,-48.93 157.39,-49.25 156.8,-47.87 158.33,-49.57 158.33,-49.57"/>
</g>
<!-- (17, 0) -->
<g id="node20" class="node">
<title>(17, 0)</title>
<ellipse fill="black" stroke="black" cx="201.2" cy="-15" rx="1.8" ry="1.8"/>
</g>
<!-- (12, 0)&#45;&gt;(17, 0) -->
<g id="edge10" class="edge">
<title>(12, 0)&#45;&gt;(17, 0)</title>
<path fill="none" stroke="blue" d="M162.55,-15C167.27,-15 188.18,-15 196.63,-15"/>
<polygon fill="blue" stroke="blue" points="198.83,-15 196.83,-16.13 197.83,-15 196.83,-15 196.83,-15 196.83,-15 197.83,-15 196.83,-13.88 198.83,-15 198.83,-15"/>
</g>
<!-- (18, 0) -->
<g id="node21" class="node">
<title>(18, 0)</title>
<ellipse fill="black" stroke="black" cx="310.4" cy="-115" rx="1.8" ry="1.8"/>
</g>
<!-- (13, 0)&#45;&gt;(18, 0) -->
<g id="edge11" class="edge">
<title>(13, 0)&#45;&gt;(18, 0)</title>
<path fill="none" stroke="blue" d="M257.71,-114.02C263.55,-114.13 295.71,-114.74 306.14,-114.94"/>
<polygon fill="blue" stroke="blue" points="308.29,-114.98 306.27,-116.07 307.29,-114.96 306.29,-114.94 306.29,-114.94 306.29,-114.94 307.29,-114.96 306.31,-113.82 308.29,-114.98 308.29,-114.98"/>
</g>
<!-- (15, 0) -->
<g id="node18" class="node">
<title>(15, 0)</title>
<ellipse fill="black" stroke="black" cx="310.4" cy="-82" rx="1.8" ry="1.8"/>
</g>
<!-- (14, 0)&#45;&gt;(15, 0) -->
<g id="edge13" class="edge">
<title>(14, 0)&#45;&gt;(15, 0)</title>
<path fill="none" stroke="blue" d="M162.59,-65.49C166.04,-67.19 177.9,-72.79 188.4,-75 234.34,-84.67 292.12,-82.8 306.2,-82.16"/>
<polygon fill="blue" stroke="blue" points="308.42,-82.05 306.47,-83.27 307.42,-82.1 306.42,-82.15 306.42,-82.15 306.42,-82.15 307.42,-82.1 306.36,-81.03 308.42,-82.05 308.42,-82.05"/>
</g>
<!-- (16, 0) -->
<g id="node19" class="node">
<title>(16, 0)</title>
<ellipse fill="black" stroke="black" cx="201.2" cy="-48" rx="1.8" ry="1.8"/>
</g>
<!-- (14, 1)&#45;&gt;(16, 0) -->
<g id="edge12" class="edge">
<title>(14, 1)&#45;&gt;(16, 0)</title>
<path fill="none" stroke="blue" d="M162.55,-49.95C167.27,-49.71 188.18,-48.62 196.63,-48.18"/>
<polygon fill="blue" stroke="blue" points="198.83,-48.07 196.89,-49.3 197.83,-48.12 196.83,-48.17 196.83,-48.17 196.83,-48.17 197.83,-48.12 196.77,-47.05 198.83,-48.07 198.83,-48.07"/>
</g>
<!-- (19, 0) -->
<g id="node22" class="node">
<title>(19, 0)</title>
<ellipse fill="black" stroke="black" cx="346" cy="-82" rx="1.8" ry="1.8"/>
</g>
<!-- (15, 0)&#45;&gt;(19, 0) -->
<g id="edge14" class="edge">
<title>(15, 0)&#45;&gt;(19, 0)</title>
<path fill="none" stroke="blue" d="M312.23,-82C316.26,-82 333.91,-82 341.51,-82"/>
<polygon fill="blue" stroke="blue" points="343.8,-82 341.8,-83.13 342.8,-82 341.8,-82 341.8,-82 341.8,-82 342.8,-82 341.8,-80.88 343.8,-82 343.8,-82"/>
</g>
<!-- (20, 0) -->
<g id="node23" class="node">
<title>(20, 0)</title>
<ellipse fill="black" stroke="black" cx="255.8" cy="-39" rx="1.8" ry="1.8"/>
<text text-anchor="middle" x="251" y="-30.8" font-family="Helvetica,sans-Serif" font-size="8.00">0</text>
</g>
<!-- (16, 0)&#45;&gt;(20, 0) -->
<g id="edge15" class="edge">
<title>(16, 0)&#45;&gt;(20, 0)</title>
<path fill="none" stroke="blue" d="M203.11,-47.84C208.95,-46.85 241.11,-41.34 251.54,-39.56"/>
<polygon fill="blue" stroke="blue" points="253.69,-39.19 251.91,-40.64 252.7,-39.36 251.72,-39.53 251.72,-39.53 251.72,-39.53 252.7,-39.36 251.53,-38.42 253.69,-39.19 253.69,-39.19"/>
</g>
<!-- (20, 1) -->
<g id="node24" class="node">
<title>(20, 1)</title>
<ellipse fill="black" stroke="black" cx="255.8" cy="-24" rx="1.8" ry="1.8"/>
<text text-anchor="middle" x="251" y="-15.8" font-family="Helvetica,sans-Serif" font-size="8.00">1</text>
</g>
<!-- (17, 0)&#45;&gt;(20, 1) -->
<g id="edge16" class="edge">
<title>(17, 0)&#45;&gt;(20, 1)</title>
<path fill="none" stroke="blue" d="M203.11,-15.16C208.95,-16.15 241.11,-21.66 251.54,-23.44"/>
<polygon fill="blue" stroke="blue" points="253.69,-23.81 251.53,-24.58 252.7,-23.64 251.72,-23.47 251.72,-23.47 251.72,-23.47 252.7,-23.64 251.91,-22.36 253.69,-23.81 253.69,-23.81"/>
</g>
<!-- (23, 0) -->
<g id="node27" class="node">
<title>(23, 0)</title>
<ellipse fill="black" stroke="black" cx="346" cy="-115" rx="1.8" ry="1.8"/>
</g>
<!-- (18, 0)&#45;&gt;(23, 0) -->
<g id="edge17" class="edge">
<title>(18, 0)&#45;&gt;(23, 0)</title>
<path fill="none" stroke="blue" d="M312.23,-115C316.26,-115 333.91,-115 341.51,-115"/>
<polygon fill="blue" stroke="blue" points="343.8,-115 341.8,-116.13 342.8,-115 341.8,-115 341.8,-115 341.8,-115 342.8,-115 341.8,-113.88 343.8,-115 343.8,-115"/>
</g>
<!-- (24, 0) -->
<g id="node28" class="node">
<title>(24, 0)</title>
<ellipse fill="black" stroke="black" cx="383.6" cy="-59" rx="1.8" ry="1.8"/>
</g>
<!-- (19, 0)&#45;&gt;(24, 0) -->
<g id="edge18" class="edge">
<title>(19, 0)&#45;&gt;(24, 0)</title>
<path fill="none" stroke="blue" d="M348.03,-81.47C349.97,-80.46 354.3,-78.17 357.8,-76 366.04,-70.9 375.37,-64.26 379.88,-60.99"/>
<polygon fill="blue" stroke="blue" points="381.68,-59.68 380.72,-61.77 380.87,-60.27 380.06,-60.86 380.06,-60.86 380.06,-60.86 380.87,-60.27 379.4,-59.95 381.68,-59.68 381.68,-59.68"/>
</g>
<!-- (21, 0) -->
<g id="node25" class="node">
<title>(21, 0)</title>
<ellipse fill="black" stroke="black" cx="310.4" cy="-16" rx="1.8" ry="1.8"/>
</g>
<!-- (20, 0)&#45;&gt;(21, 0) -->
<g id="edge19" class="edge">
<title>(20, 0)&#45;&gt;(21, 0)</title>
<path fill="none" stroke="blue" d="M257.98,-38.82C262.09,-38.18 276.04,-35.74 286.6,-31 294.48,-27.46 302.69,-21.36 306.77,-18.14"/>
<polygon fill="blue" stroke="blue" points="308.59,-16.68 307.74,-18.81 307.81,-17.3 307.03,-17.93 307.03,-17.93 307.03,-17.93 307.81,-17.3 306.32,-17.05 308.59,-16.68 308.59,-16.68"/>
</g>
<!-- (22, 0) -->
<g id="node26" class="node">
<title>(22, 0)</title>
<ellipse fill="black" stroke="black" cx="310.4" cy="-49" rx="1.8" ry="1.8"/>
</g>
<!-- (20, 1)&#45;&gt;(22, 0) -->
<g id="edge20" class="edge">
<title>(20, 1)&#45;&gt;(22, 0)</title>
<path fill="none" stroke="blue" d="M257.8,-24.08C261.72,-24.43 276.4,-26.11 286.6,-32 292.59,-35.46 292,-38.94 297.6,-43 300.28,-44.94 303.68,-46.6 306.14,-47.68"/>
<polygon fill="blue" stroke="blue" points="308.23,-48.55 305.95,-48.82 307.3,-48.16 306.38,-47.78 306.38,-47.78 306.38,-47.78 307.3,-48.16 306.81,-46.74 308.23,-48.55 308.23,-48.55"/>
</g>
<!-- (25, 0) -->
<g id="node29" class="node">
<title>(25, 0)</title>
<ellipse fill="black" stroke="black" cx="346" cy="-16" rx="1.8" ry="1.8"/>
</g>
<!-- (21, 0)&#45;&gt;(25, 0) -->
<g id="edge21" class="edge">
<title>(21, 0)&#45;&gt;(25, 0)</title>
<path fill="none" stroke="blue" d="M312.23,-16C316.26,-16 333.91,-16 341.51,-16"/>
<polygon fill="blue" stroke="blue" points="343.8,-16 341.8,-17.13 342.8,-16 341.8,-16 341.8,-16 341.8,-16 342.8,-16 341.8,-14.88 343.8,-16 343.8,-16"/>
</g>
<!-- (26, 0) -->
<g id="node30" class="node">
<title>(26, 0)</title>
<ellipse fill="black" stroke="black" cx="346" cy="-49" rx="1.8" ry="1.8"/>
</g>
<!-- (22, 0)&#45;&gt;(26, 0) -->
<g id="edge22" class="edge">
<title>(22, 0)&#45;&gt;(26, 0)</title>
<path fill="none" stroke="blue" d="M312.23,-49C316.26,-49 333.91,-49 341.51,-49"/>
<polygon fill="blue" stroke="blue" points="343.8,-49 341.8,-50.13 342.8,-49 341.8,-49 341.8,-49 341.8,-49 342.8,-49 341.8,-47.88 343.8,-49 343.8,-49"/>
</g>
<!-- (27, 1) -->
<g id="node32" class="node">
<title>(27, 1)</title>
<ellipse fill="black" stroke="black" cx="383.6" cy="-107" rx="1.8" ry="1.8"/>
<text text-anchor="middle" x="378.8" y="-98.8" font-family="Helvetica,sans-Serif" font-size="8.00">1</text>
</g>
<!-- (23, 0)&#45;&gt;(27, 1) -->
<g id="edge23" class="edge">
<title>(23, 0)&#45;&gt;(27, 1)</title>
<path fill="none" stroke="blue" d="M347.88,-114.8C352.23,-113.83 371.51,-109.49 379.31,-107.74"/>
<polygon fill="blue" stroke="blue" points="381.33,-107.28 379.63,-108.82 380.36,-107.5 379.38,-107.72 379.38,-107.72 379.38,-107.72 380.36,-107.5 379.13,-106.63 381.33,-107.28 381.33,-107.28"/>
</g>
<!-- (24, 0)&#45;&gt;(3, 0) -->
<g id="edge24" class="edge">
<title>(24, 0)&#45;&gt;(3, 0)</title>
<path fill="none" stroke="blue" d="M385.41,-59.22C389.32,-60.3 406.44,-65.03 413.81,-67.06"/>
<polygon fill="blue" stroke="blue" points="416.04,-67.68 413.81,-68.23 415.08,-67.41 414.11,-67.15 414.11,-67.15 414.11,-67.15 415.08,-67.41 414.41,-66.06 416.04,-67.68 416.04,-67.68"/>
</g>
<!-- (25, 0)&#45;&gt;(5, 0) -->
<g id="edge25" class="edge">
<title>(25, 0)&#45;&gt;(5, 0)</title>
<path fill="none" stroke="blue" d="M347.79,-16.42C354.45,-19.93 401.44,-44.7 414.08,-51.35"/>
<polygon fill="blue" stroke="blue" points="416.13,-52.43 413.83,-52.5 415.24,-51.97 414.36,-51.5 414.36,-51.5 414.36,-51.5 415.24,-51.97 414.88,-50.51 416.13,-52.43 416.13,-52.43"/>
</g>
<!-- (27, 0) -->
<g id="node31" class="node">
<title>(27, 0)</title>
<ellipse fill="black" stroke="black" cx="383.6" cy="-92" rx="1.8" ry="1.8"/>
<text text-anchor="middle" x="378.8" y="-83.8" font-family="Helvetica,sans-Serif" font-size="8.00">0</text>
</g>
<!-- (26, 0)&#45;&gt;(27, 0) -->
<g id="edge26" class="edge">
<title>(26, 0)&#45;&gt;(27, 0)</title>
<path fill="none" stroke="blue" d="M347.44,-50.34C349.24,-55.62 356.51,-75.13 368.8,-86 371.98,-88.81 376.68,-90.47 379.69,-91.31"/>
<polygon fill="blue" stroke="blue" points="381.76,-91.83 379.54,-92.43 380.79,-91.58 379.82,-91.34 379.82,-91.34 379.82,-91.34 380.79,-91.58 380.09,-90.25 381.76,-91.83 381.76,-91.83"/>
</g>
<!-- (27, 0)&#45;&gt;(7, 0) -->
<g id="edge28" class="edge">
<title>(27, 0)&#45;&gt;(7, 0)</title>
<path fill="none" stroke="blue" d="M385.41,-91.78C389.32,-90.7 406.44,-85.97 413.81,-83.94"/>
<polygon fill="blue" stroke="blue" points="416.04,-83.32 414.41,-84.94 415.08,-83.59 414.11,-83.85 414.11,-83.85 414.11,-83.85 415.08,-83.59 413.81,-82.77 416.04,-83.32 416.04,-83.32"/>
</g>
<!-- (27, 1)&#45;&gt;(1, 0) -->
<g id="edge27" class="edge">
<title>(27, 1)&#45;&gt;(1, 0)</title>
<path fill="none" stroke="blue" d="M385.41,-106.78C389.32,-105.7 406.44,-100.97 413.81,-98.94"/>
<polygon fill="blue" stroke="blue" points="416.04,-98.32 414.41,-99.94 415.08,-98.59 414.11,-98.85 414.11,-98.85 414.11,-98.85 415.08,-98.59 413.81,-97.77 416.04,-98.32 416.04,-98.32"/>
</g>
</g>
</svg>