<?xml version="1.0" encoding="UTF-8" standalone="no"?>
<!DOCTYPE svg PUBLIC "-//W3C//DTD SVG 1.1//EN"
 "http://www.w3.org/Graphics/SVG/1.1/DTD/svg11.dtd">
<!-- Generated by graphviz version 2.43.0 (0)
 -->
<!-- Title: Circuit Pages: 1 -->
<svg width="517pt" height="121pt"
 viewBox="0.00 0.00 516.60 121.00" xmlns="http://www.w3.org/2000/svg" xmlns:xlink="http://www.w3.org/1999/xlink">
<g id="graph0" class="graph" transform="scale(1 1) rotate(0) translate(4 117)">
<title>Circuit</title>
<polygon fill="white" stroke="transparent" points="-4,4 -4,-117 512.6,-117 512.6,4 -4,4"/>
<g id="clust1" class="cluster">
<title>cluster_q_inputs</title>
<path fill="lightgrey" stroke="lightgrey" d="M22.53,-18C22.53,-18 27.07,-18 27.07,-18 29.33,-18 31.6,-20.27 31.6,-22.53 31.6,-22.53 31.6,-72.47 31.6,-72.47 31.6,-74.73 29.33,-77 27.07,-77 27.07,-77 22.53,-77 22.53,-77 20.27,-77 18,-74.73 18,-72.47 18,-72.47 18,-22.53 18,-22.53 18,-20.27 20.27,-18 22.53,-18"/>
</g>
<g id="clust4" class="cluster">
<title>cluster_q_outputs</title>
<path fill="lightgrey" stroke="lightgrey" d="M491.53,-25C491.53,-25 496.07,-25 496.07,-25 498.33,-25 500.6,-27.27 500.6,-29.53 500.6,-29.53 500.6,-79.47 500.6,-79.47 500.6,-81.73 498.33,-84 496.07,-84 496.07,-84 491.53,-84 491.53,-84 489.27,-84 487,-81.73 487,-79.47 487,-79.47 487,-29.53 487,-29.53 487,-27.27 489.27,-25 491.53,-25"/>
</g>
<g id="clust7" class="cluster">
<title>cluster_8</title>
<path fill="lightblue" stroke="lightblue" d="M53.8,-50C53.8,-50 64,-50 64,-50 69.1,-50 74.2,-55.1 74.2,-60.2 74.2,-60.2 74.2,-87.8 74.2,-87.8 74.2,-92.9 69.1,-98 64,-98 64,-98 53.8,-98 53.8,-98 48.7,-98 43.6,-92.9 43.6,-87.8 43.6,-87.8 43.6,-60.2 43.6,-60.2 43.6,-55.1 48.7,-50 53.8,-50"/>
<text text-anchor="middle" x="58.9" y="-86" font-family="Times,serif" font-size="10.00">CX</text>
</g>
<g id="clust8" class="cluster">
<title>cluster_9</title>
<path fill="lightblue" stroke="lightblue" d="M96.4,-31C96.4,-31 106.6,-31 106.6,-31 111.7,-31 116.8,-36.1 116.8,-41.2 116.8,-41.2 116.8,-68.8 116.8,-68.8 116.8,-73.9 111.7,-79 106.6,-79 106.6,-79 96.4,-79 96.4,-79 91.3,-79 86.2,-73.9 86.2,-68.8 86.2,-68.8 86.2,-41.2 86.2,-41.2 86.2,-36.1 91.3,-31 96.4,-31"/>
<text text-anchor="middle" x="101.5" y="-67" font-family="Times,serif" font-size="10.00">CX</text>
</g>
<g id="clust9" class="cluster">
<title>cluster_10</title>
<path fill="lightblue" stroke="lightblue" d="M197.6,-31C197.6,-31 207.8,-31 207.8,-31 212.9,-31 218,-36.1 218,-41.2 218,-41.2 218,-68.8 218,-68.8 218,-73.9 212.9,-79 207.8,-79 207.8,-79 197.6,-79 197.6,-79 192.5,-79 187.4,-73.9 187.4,-68.8 187.4,-68.8 187.4,-41.2 187.4,-41.2 187.4,-36.1 192.5,-31 197.6,-31"/>
<text text-anchor="middle" x="202.7" y="-67" font-family="Times,serif" font-size="10.00">CX</text>
</g>
<g id="clust10" class="cluster">
<title>cluster_11</title>
<path fill="lightblue" stroke="lightblue" d="M298.8,-29C298.8,-29 309,-29 309,-29 314.1,-29 319.2,-34.1 319.2,-39.2 319.2,-39.2 319.2,-66.8 319.2,-66.8 319.2,-71.9 314.1,-77 309,-77 309,-77 298.8,-77 298.8,-77 293.7,-77 288.6,-71.9 288.6,-66.8 288.6,-66.8 288.6,-39.2 288.6,-39.2 288.6,-34.1 293.7,-29 298.8,-29"/>
<text text-anchor="middle" x="303.9" y="-65" font-family="Times,serif" font-size="10.00">CX</text>
</g>
<g id="clust11" class="cluster">
<title>cluster_12</title>
<path fill="lightblue" stroke="lightblue" d="M341.4,-8C341.4,-8 351.6,-8 351.6,-8 356.7,-8 361.8,-13.1 361.8,-18.2 361.8,-18.2 361.8,-45.8 361.8,-45.8 361.8,-50.9 356.7,-56 351.6,-56 351.6,-56 341.4,-56 341.4,-56 336.3,-56 331.2,-50.9 331.2,-45.8 331.2,-45.8 331.2,-18.2 331.2,-18.2 331.2,-13.1 336.3,-8 341.4,-8"/>
<text text-anchor="middle" x="346.5" y="-44" font-family="Times,serif" font-size="10.00">CX</text>
</g>
<g id="clust12" class="cluster">
<title>cluster_13</title>
<path fill="lightblue" stroke="lightblue" d="M454.6,-57C454.6,-57 464.8,-57 464.8,-57 469.9,-57 475,-62.1 475,-67.2 475,-67.2 475,-94.8 475,-94.8 475,-99.9 469.9,-105 464.8,-105 464.8,-105 454.6,-105 454.6,-105 449.5,-105 444.4,-99.9 444.4,-94.8 444.4,-94.8 444.4,-67.2 444.4,-67.2 444.4,-62.1 449.5,-57 454.6,-57"/>
<text text-anchor="middle" x="459.7" y="-93" font-family="Times,serif" font-size="10.00">CX</text>
</g>
<g id="clust13" class="cluster">
<title>cluster_14</title>
<path fill="lightblue" stroke="lightblue" d="M140.8,-50C140.8,-50 163.4,-50 163.4,-50 169.4,-50 175.4,-56 175.4,-62 175.4,-62 175.4,-86 175.4,-86 175.4,-92 169.4,-98 163.4,-98 163.4,-98 140.8,-98 140.8,-98 134.8,-98 128.8,-92 128.8,-86 128.8,-86 128.8,-62 128.8,-62 128.8,-56 134.8,-50 140.8,-50"/>
<text text-anchor="middle" x="152.1" y="-86" font-family="Times,serif" font-size="10.00">SWAP</text>
</g>
<g id="clust14" class="cluster">
<title>cluster_15</title>
<path fill="lightblue" stroke="lightblue" d="M242,-8C242,-8 264.6,-8 264.6,-8 270.6,-8 276.6,-14 276.6,-20 276.6,-20 276.6,-44 276.6,-44 276.6,-50 270.6,-56 264.6,-56 264.6,-56 242,-56 242,-56 236,-56 230,-50 230,-44 230,-44 230,-20 230,-20 230,-14 236,-8 242,-8"/>
<text text-anchor="middle" x="253.3" y="-44" font-family="Times,serif" font-size="10.00">SWAP</text>
</g>
<g id="clust15" class="cluster">
<title>cluster_16</title>
<path fill="lightblue" stroke="lightblue" d="M385.8,-42C385.8,-42 420.4,-42 420.4,-42 426.4,-42 432.4,-48 432.4,-54 432.4,-54 432.4,-93 432.4,-93 432.4,-99 426.4,-105 420.4,-105 420.4,-105 385.8,-105 385.8,-105 379.8,-105 373.8,-99 373.8,-93 373.8,-93 373.8,-54 373.8,-54 373.8,-48 379.8,-42 385.8,-42"/>
<text text-anchor="middle" x="403.1" y="-93" font-family="Times,serif" font-size="10.00">BRIDGE</text>
</g>
<!-- (0, 0) -->
<g id="node1" class="node">
<title>(0, 0)</title>
<ellipse fill="blue" stroke="blue" cx="24.8" cy="-70" rx="1.8" ry="1.8"/>
<text text-anchor="middle" x="11.5" y="-61.8" font-family="Courier,monospace" font-size="8.00">e0[0]</text>
</g>
<!-- (8, 0) -->
<g id="node9" class="node">
<title>(8, 0)</title>
<ellipse fill="black" stroke="black" cx="58.4" cy="-72" rx="1.8" ry="1.8"/>
<text text-anchor="middle" x="53.6" y="-63.8" font-family="Helvetica,sans-Serif" font-size="8.00">0</text>
</g>
<!-- (0, 0)&#45;&gt;(8, 0) -->
<g id="edge1" class="edge">
<title>(0, 0)&#45;&gt;(8, 0)</title>
<path fill="none" stroke="blue" d="M27.16,-70.09C31.87,-70.38 47.6,-71.38 54.32,-71.81"/>
<polygon fill="blue" stroke="blue" points="56.35,-71.93 54.28,-72.93 55.35,-71.87 54.35,-71.81 54.35,-71.81 54.35,-71.81 55.35,-71.87 54.42,-70.68 56.35,-71.93 56.35,-71.93"/>
</g>
<!-- (2, 0) -->
<g id="node2" class="node">
<title>(2, 0)</title>
<ellipse fill="blue" stroke="blue" cx="24.8" cy="-55" rx="1.8" ry="1.8"/>
<text text-anchor="middle" x="11.5" y="-46.8" font-family="Courier,monospace" font-size="8.00">e1[1]</text>
</g>
<!-- (8, 1) -->
<g id="node10" class="node">
<title>(8, 1)</title>
<ellipse fill="black" stroke="black" cx="58.4" cy="-57" rx="1.8" ry="1.8"/>
<text text-anchor="middle" x="53.6" y="-48.8" font-family="Helvetica,sans-Serif" font-size="8.00">1</text>
</g>
<!-- (2, 0)&#45;&gt;(8, 1) -->
<g id="edge2" class="edge">
<title>(2, 0)&#45;&gt;(8, 1)</title>
<path fill="none" stroke="blue" d="M27.16,-55.09C31.87,-55.38 47.6,-56.38 54.32,-56.81"/>
<polygon fill="blue" stroke="blue" points="56.35,-56.93 54.28,-57.93 55.35,-56.87 54.35,-56.81 54.35,-56.81 54.35,-56.81 55.35,-56.87 54.42,-55.68 56.35,-56.93 56.35,-56.93"/>
</g>
<!-- (4, 0) -->
<g id="node3" class="node">
<title>(4, 0)</title>
<ellipse fill="blue" stroke="blue" cx="24.8" cy="-40" rx="1.8" ry="1.8"/>
<text text-anchor="middle" x="11.5" y="-31.8" font-family="Courier,monospace" font-size="8.00">e2[2]</text>
</g>
<!-- (9, 1) -->
<g id="node12" class="node">
<title>(9, 1)</title>
<ellipse fill="black" stroke="black" cx="101" cy="-38" rx="1.8" ry="1.8"/>
<text text-anchor="middle" x="96.2" y="-29.8" font-family="Helvetica,sans-Serif" font-size="8.00">1</text>
</g>
<!-- (4, 0)&#45;&gt;(9, 1) -->
<g id="edge3" class="edge">
<title>(4, 0)&#45;&gt;(9, 1)</title>
<path fill="none" stroke="blue" d="M26.63,-39.98C33.68,-39.79 83.35,-38.45 96.7,-38.09"/>
<polygon fill="blue" stroke="blue" points="98.86,-38.03 96.9,-39.21 97.86,-38.06 96.86,-38.08 96.86,-38.08 96.86,-38.08 97.86,-38.06 96.83,-36.96 98.86,-38.03 98.86,-38.03"/>
</g>
<!-- (6, 0) -->
<g id="node4" class="node">
<title>(6, 0)</title>
<ellipse fill="blue" stroke="blue" cx="24.8" cy="-25" rx="1.8" ry="1.8"/>
<text text-anchor="middle" x="11.5" y="-16.8" font-family="Courier,monospace" font-size="8.00">e3[3]</text>
</g>
<!-- (15, 0) -->
<g id="node23" class="node">
<title>(15, 0)</title>
<ellipse fill="black" stroke="black" cx="252.8" cy="-15" rx="1.8" ry="1.8"/>
<text text-anchor="middle" x="248" y="-6.8" font-family="Helvetica,sans-Serif" font-size="8.00">0</text>
</g>
<!-- (6, 0)&#45;&gt;(15, 0) -->
<g id="edge4" class="edge">
<title>(6, 0)&#45;&gt;(15, 0)</title>
<path fill="none" stroke="blue" d="M26.84,-24.75C33.41,-23.21 69.84,-15 100,-15 100,-15 100,-15 152.6,-15 190.39,-15 236.27,-15 248.61,-15"/>
<polygon fill="blue" stroke="blue" points="250.82,-15 248.82,-16.13 249.82,-15 248.82,-15 248.82,-15 248.82,-15 249.82,-15 248.82,-13.88 250.82,-15 250.82,-15"/>
</g>
<!-- (1, 0) -->
<g id="node5" class="node">
<title>(1, 0)</title>
<ellipse fill="blue" stroke="blue" cx="493.8" cy="-62" rx="1.8" ry="1.8"/>
<text text-anchor="middle" x="480.5" y="-53.8" font-family="Courier,monospace" font-size="8.00">e1[1]</text>
</g>
<!-- (3, 0) -->
<g id="node6" class="node">
<title>(3, 0)</title>
<ellipse fill="blue" stroke="blue" cx="493.8" cy="-77" rx="1.8" ry="1.8"/>
<text text-anchor="middle" x="480.5" y="-68.8" font-family="Courier,monospace" font-size="8.00">e0[0]</text>
</g>
<!-- (5, 0) -->
<g id="node7" class="node">
<title>(5, 0)</title>
<ellipse fill="blue" stroke="blue" cx="493.8" cy="-32" rx="1.8" ry="1.8"/>
<text text-anchor="middle" x="480.5" y="-23.8" font-family="Courier,monospace" font-size="8.00">e3[3]</text>
</g>
<!-- (7, 0) -->
<g id="node8" class="node">
<title>(7, 0)</title>
<ellipse fill="blue" stroke="blue" cx="493.8" cy="-47" rx="1.8" ry="1.8"/>
<text text-anchor="middle" x="480.5" y="-38.8" font-family="Courier,monospace" font-size="8.00">e2[2]</text>
</g>
<!-- (14, 0) -->
<g id="node21" class="node">
<title>(14, 0)</title>
<ellipse fill="black" stroke="black" cx="151.6" cy="-72" rx="1.8" ry="1.8"/>
<text text-anchor="middle" x="146.8" y="-63.8" font-family="Helvetica,sans-Serif" font-size="8.00">0</text>
</g>
<!-- (8, 0)&#45;&gt;(14, 0) -->
<g id="edge5" class="edge">
<title>(8, 0)&#45;&gt;(14, 0)</title>
<path fill="none" stroke="blue" d="M60.4,-72.41C63.88,-73.83 75.82,-78.48 86.2,-80 99.66,-81.97 103.29,-81.58 116.8,-80 128.54,-78.63 142.12,-74.67 147.83,-72.89"/>
<polygon fill="blue" stroke="blue" points="149.78,-72.27 148.21,-73.95 148.82,-72.57 147.87,-72.88 147.87,-72.88 147.87,-72.88 148.82,-72.57 147.53,-71.8 149.78,-72.27 149.78,-72.27"/>
</g>
<!-- (9, 0) -->
<g id="node11" class="node">
<title>(9, 0)</title>
<ellipse fill="black" stroke="black" cx="101" cy="-53" rx="1.8" ry="1.8"/>
<text text-anchor="middle" x="96.2" y="-44.8" font-family="Helvetica,sans-Serif" font-size="8.00">0</text>
</g>
<!-- (8, 1)&#45;&gt;(9, 0) -->
<g id="edge6" class="edge">
<title>(8, 1)&#45;&gt;(9, 0)</title>
<path fill="none" stroke="blue" d="M60.4,-56.9C65.54,-56.4 88.95,-54.09 97.15,-53.28"/>
<polygon fill="blue" stroke="blue" points="99.17,-53.08 97.29,-54.4 98.18,-53.18 97.18,-53.28 97.18,-53.28 97.18,-53.28 98.18,-53.18 97.07,-52.16 99.17,-53.08 99.17,-53.08"/>
</g>
<!-- (14, 1) -->
<g id="node22" class="node">
<title>(14, 1)</title>
<ellipse fill="black" stroke="black" cx="151.6" cy="-57" rx="1.8" ry="1.8"/>
<text text-anchor="middle" x="146.8" y="-48.8" font-family="Helvetica,sans-Serif" font-size="8.00">1</text>
</g>
<!-- (9, 0)&#45;&gt;(14, 1) -->
<g id="edge7" class="edge">
<title>(9, 0)&#45;&gt;(14, 1)</title>
<path fill="none" stroke="blue" d="M102.84,-53.07C108.19,-53.51 137.45,-55.92 147.34,-56.73"/>
<polygon fill="blue" stroke="blue" points="149.57,-56.92 147.49,-57.87 148.58,-56.83 147.58,-56.75 147.58,-56.75 147.58,-56.75 148.58,-56.83 147.67,-55.63 149.57,-56.92 149.57,-56.92"/>
</g>
<!-- (10, 1) -->
<g id="node14" class="node">
<title>(10, 1)</title>
<ellipse fill="black" stroke="black" cx="202.2" cy="-38" rx="1.8" ry="1.8"/>
<text text-anchor="middle" x="197.4" y="-29.8" font-family="Helvetica,sans-Serif" font-size="8.00">1</text>
</g>
<!-- (9, 1)&#45;&gt;(10, 1) -->
<g id="edge8" class="edge">
<title>(9, 1)&#45;&gt;(10, 1)</title>
<path fill="none" stroke="blue" d="M103.11,-38C112.77,-38 182.35,-38 198.06,-38"/>
<polygon fill="blue" stroke="blue" points="200.22,-38 198.22,-39.13 199.22,-38 198.22,-38 198.22,-38 198.22,-38 199.22,-38 198.22,-36.88 200.22,-38 200.22,-38"/>
</g>
<!-- (10, 0) -->
<g id="node13" class="node">
<title>(10, 0)</title>
<ellipse fill="black" stroke="black" cx="202.2" cy="-53" rx="1.8" ry="1.8"/>
<text text-anchor="middle" x="197.4" y="-44.8" font-family="Helvetica,sans-Serif" font-size="8.00">0</text>
</g>
<!-- (11, 0) -->
<g id="node15" class="node">
<title>(11, 0)</title>
<ellipse fill="black" stroke="black" cx="303.4" cy="-51" rx="1.8" ry="1.8"/>
<text text-anchor="middle" x="298.6" y="-42.8" font-family="Helvetica,sans-Serif" font-size="8.00">0</text>
</g>
<!-- (10, 0)&#45;&gt;(11, 0) -->
<g id="edge10" class="edge">
<title>(10, 0)&#45;&gt;(11, 0)</title>
<path fill="none" stroke="blue" d="M204.22,-53.21C207.75,-53.92 219.87,-56.25 230,-57 250.65,-58.53 256.02,-59.36 276.6,-57 284.93,-56.04 294.47,-53.41 299.28,-51.97"/>
<polygon fill="blue" stroke="blue" points="301.43,-51.31 299.85,-52.97 300.47,-51.6 299.52,-51.9 299.52,-51.9 299.52,-51.9 300.47,-51.6 299.19,-50.82 301.43,-51.31 301.43,-51.31"/>
</g>
<!-- (15, 1) -->
<g id="node24" class="node">
<title>(15, 1)</title>
<ellipse fill="black" stroke="black" cx="252.8" cy="-30" rx="1.8" ry="1.8"/>
<text text-anchor="middle" x="248" y="-21.8" font-family="Helvetica,sans-Serif" font-size="8.00">1</text>
</g>
<!-- (10, 1)&#45;&gt;(15, 1) -->
<g id="edge9" class="edge">
<title>(10, 1)&#45;&gt;(15, 1)</title>
<path fill="none" stroke="blue" d="M204.04,-37.86C209.44,-36.97 239.15,-32.08 248.78,-30.5"/>
<polygon fill="blue" stroke="blue" points="250.77,-30.17 248.98,-31.6 249.79,-30.33 248.8,-30.49 248.8,-30.49 248.8,-30.49 249.79,-30.33 248.62,-29.38 250.77,-30.17 250.77,-30.17"/>
</g>
<!-- (16, 1) -->
<g id="node26" class="node">
<title>(16, 1)</title>
<ellipse fill="black" stroke="black" cx="402.6" cy="-64" rx="1.8" ry="1.8"/>
<text text-anchor="middle" x="397.8" y="-55.8" font-family="Helvetica,sans-Serif" font-size="8.00">1</text>
</g>
<!-- (11, 0)&#45;&gt;(16, 1) -->
<g id="edge11" class="edge">
<title>(11, 0)&#45;&gt;(16, 1)</title>
<path fill="none" stroke="blue" d="M305.41,-51.27C308.94,-52.22 321.03,-55.36 331.2,-57 356.92,-61.14 388.34,-63.22 398.36,-63.82"/>
<polygon fill="blue" stroke="blue" points="400.6,-63.95 398.54,-64.96 399.6,-63.89 398.6,-63.83 398.6,-63.83 398.6,-63.83 399.6,-63.89 398.67,-62.71 400.6,-63.95 400.6,-63.95"/>
</g>
<!-- (11, 1) -->
<g id="node16" class="node">
<title>(11, 1)</title>
<ellipse fill="black" stroke="black" cx="303.4" cy="-36" rx="1.8" ry="1.8"/>
<text text-anchor="middle" x="298.6" y="-27.8" font-family="Helvetica,sans-Serif" font-size="8.00">1</text>
</g>
<!-- (12, 1) -->
<g id="node18" class="node">
<title>(12, 1)</title>
<ellipse fill="black" stroke="black" cx="346" cy="-30" rx="1.8" ry="1.8"/>
<text text-anchor="middle" x="341.2" y="-21.8" font-family="Helvetica,sans-Serif" font-size="8.00">1</text>
</g>
<!-- (11, 1)&#45;&gt;(12, 1) -->
<g id="edge12" class="edge">
<title>(11, 1)&#45;&gt;(12, 1)</title>
<path fill="none" stroke="blue" d="M305.4,-35.85C310.54,-35.09 333.95,-31.63 342.15,-30.42"/>
<polygon fill="blue" stroke="blue" points="344.17,-30.12 342.36,-31.53 343.18,-30.27 342.19,-30.42 342.19,-30.42 342.19,-30.42 343.18,-30.27 342.03,-29.3 344.17,-30.12 344.17,-30.12"/>
</g>
<!-- (12, 0) -->
<g id="node17" class="node">
<title>(12, 0)</title>
<ellipse fill="black" stroke="black" cx="346" cy="-15" rx="1.8" ry="1.8"/>
<text text-anchor="middle" x="341.2" y="-6.8" font-family="Helvetica,sans-Serif" font-size="8.00">0</text>
</g>
<!-- (12, 0)&#45;&gt;(5, 0) -->
<g id="edge13" class="edge">
<title>(12, 0)&#45;&gt;(5, 0)</title>
<path fill="none" stroke="blue" d="M347.93,-15.11C359.21,-16.42 469.55,-29.29 489.66,-31.63"/>
<polygon fill="blue" stroke="blue" points="491.95,-31.9 489.84,-32.79 490.96,-31.79 489.97,-31.67 489.97,-31.67 489.97,-31.67 490.96,-31.79 490.1,-30.55 491.95,-31.9 491.95,-31.9"/>
</g>
<!-- (16, 2) -->
<g id="node27" class="node">
<title>(16, 2)</title>
<ellipse fill="black" stroke="black" cx="402.6" cy="-49" rx="1.8" ry="1.8"/>
<text text-anchor="middle" x="397.8" y="-40.8" font-family="Helvetica,sans-Serif" font-size="8.00">2</text>
</g>
<!-- (12, 1)&#45;&gt;(16, 2) -->
<g id="edge14" class="edge">
<title>(12, 1)&#45;&gt;(16, 2)</title>
<path fill="none" stroke="blue" d="M347.95,-30.33C354.11,-32.47 388.55,-44.46 398.75,-48.01"/>
<polygon fill="blue" stroke="blue" points="400.79,-48.72 398.53,-49.12 399.85,-48.39 398.9,-48.06 398.9,-48.06 398.9,-48.06 399.85,-48.39 399.27,-47 400.79,-48.72 400.79,-48.72"/>
</g>
<!-- (13, 0) -->
<g id="node19" class="node">
<title>(13, 0)</title>
<ellipse fill="black" stroke="black" cx="459.2" cy="-64" rx="1.8" ry="1.8"/>
<text text-anchor="middle" x="454.4" y="-55.8" font-family="Helvetica,sans-Serif" font-size="8.00">0</text>
</g>
<!-- (13, 0)&#45;&gt;(1, 0) -->
<g id="edge16" class="edge">
<title>(13, 0)&#45;&gt;(1, 0)</title>
<path fill="none" stroke="blue" d="M461.01,-63.95C464.92,-63.71 482.04,-62.66 489.41,-62.21"/>
<polygon fill="blue" stroke="blue" points="491.64,-62.07 489.71,-63.32 490.64,-62.13 489.64,-62.19 489.64,-62.19 489.64,-62.19 490.64,-62.13 489.57,-61.07 491.64,-62.07 491.64,-62.07"/>
</g>
<!-- (13, 1) -->
<g id="node20" class="node">
<title>(13, 1)</title>
<ellipse fill="black" stroke="black" cx="459.2" cy="-79" rx="1.8" ry="1.8"/>
<text text-anchor="middle" x="454.4" y="-70.8" font-family="Helvetica,sans-Serif" font-size="8.00">1</text>
</g>
<!-- (13, 1)&#45;&gt;(3, 0) -->
<g id="edge15" class="edge">
<title>(13, 1)&#45;&gt;(3, 0)</title>
<path fill="none" stroke="blue" d="M461.01,-78.95C464.92,-78.71 482.04,-77.66 489.41,-77.21"/>
<polygon fill="blue" stroke="blue" points="491.64,-77.07 489.71,-78.32 490.64,-77.13 489.64,-77.19 489.64,-77.19 489.64,-77.19 490.64,-77.13 489.57,-76.07 491.64,-77.07 491.64,-77.07"/>
</g>
<!-- (16, 0) -->
<g id="node25" class="node">
<title>(16, 0)</title>
<ellipse fill="black" stroke="black" cx="402.6" cy="-79" rx="1.8" ry="1.8"/>
<text text-anchor="middle" x="397.8" y="-70.8" font-family="Helvetica,sans-Serif" font-size="8.00">0</text>
</g>
<!-- (14, 0)&#45;&gt;(16, 0) -->
<g id="edge17" class="edge">
<title>(14, 0)&#45;&gt;(16, 0)</title>
<path fill="none" stroke="blue" d="M153.57,-72.31C161.04,-74.7 210.49,-90 251.8,-90 251.8,-90 251.8,-90 304.4,-90 341.66,-90 386.45,-81.92 398.49,-79.61"/>
<polygon fill="blue" stroke="blue" points="400.65,-79.19 398.9,-80.68 399.67,-79.38 398.68,-79.57 398.68,-79.57 398.68,-79.57 399.67,-79.38 398.47,-78.47 400.65,-79.19 400.65,-79.19"/>
</g>
<!-- (14, 1)&#45;&gt;(10, 0) -->
<g id="edge18" class="edge">
<title>(14, 1)&#45;&gt;(10, 0)</title>
<path fill="none" stroke="blue" d="M153.44,-56.93C158.79,-56.49 188.05,-54.08 197.94,-53.27"/>
<polygon fill="blue" stroke="blue" points="200.17,-53.08 198.27,-54.37 199.18,-53.17 198.18,-53.25 198.18,-53.25 198.18,-53.25 199.18,-53.17 198.09,-52.13 200.17,-53.08 200.17,-53.08"/>
</g>
<!-- (15, 0)&#45;&gt;(12, 0) -->
<g id="edge19" class="edge">
<title>(15, 0)&#45;&gt;(12, 0)</title>
<path fill="none" stroke="blue" d="M254.82,-15C263.63,-15 326.62,-15 341.74,-15"/>
<polygon fill="blue" stroke="blue" points="344.1,-15 342.1,-16.13 343.1,-15 342.1,-15 342.1,-15 342.1,-15 343.1,-15 342.1,-13.88 344.1,-15 344.1,-15"/>
</g>
<!-- (15, 1)&#45;&gt;(11, 1) -->
<g id="edge20" class="edge">
<title>(15, 1)&#45;&gt;(11, 1)</title>
<path fill="none" stroke="blue" d="M254.64,-30.1C260.04,-30.77 289.75,-34.44 299.38,-35.63"/>
<polygon fill="blue" stroke="blue" points="301.37,-35.87 299.25,-36.74 300.38,-35.75 299.39,-35.63 299.39,-35.63 299.39,-35.63 300.38,-35.75 299.53,-34.51 301.37,-35.87 301.37,-35.87"/>
</g>
<!-- (16, 0)&#45;&gt;(13, 1) -->
<g id="edge23" class="edge">
<title>(16, 0)&#45;&gt;(13, 1)</title>
<path fill="none" stroke="blue" d="M404.55,-79C410.71,-79 445.15,-79 455.35,-79"/>
<polygon fill="blue" stroke="blue" points="457.39,-79 455.39,-80.13 456.39,-79 455.39,-79 455.39,-79 455.39,-79 456.39,-79 455.39,-77.88 457.39,-79 457.39,-79"/>
</g>
<!-- (16, 1)&#45;&gt;(13, 0) -->
<g id="edge22" class="edge">
<title>(16, 1)&#45;&gt;(13, 0)</title>
<path fill="none" stroke="blue" d="M404.55,-64C410.71,-64 445.15,-64 455.35,-64"/>
<polygon fill="blue" stroke="blue" points="457.39,-64 455.39,-65.13 456.39,-64 455.39,-64 455.39,-64 455.39,-64 456.39,-64 455.39,-62.88 457.39,-64 457.39,-64"/>
</g>
<!-- (16, 2)&#45;&gt;(7, 0) -->
<g id="edge21" class="edge">
<title>(16, 2)&#45;&gt;(7, 0)</title>
<path fill="none" stroke="blue" d="M404.6,-48.98C413.21,-48.78 474.82,-47.4 489.61,-47.07"/>
<polygon fill="blue" stroke="blue" points="491.92,-47.02 489.94,-48.19 490.92,-47.04 489.92,-47.06 489.92,-47.06 489.92,-47.06 490.92,-47.04 489.89,-45.94 491.92,-47.02 491.92,-47.02"/>
</g>
</g>
</svg>