<?xml version="1.0" encoding="UTF-8" standalone="no"?>
<!DOCTYPE svg PUBLIC "-//W3C//DTD SVG 1.1//EN"
 "http://www.w3.org/Graphics/SVG/1.1/DTD/svg11.dtd">
<!-- Generated by graphviz version 2.43.0 (0)
 -->
<!-- Title: Qubit connectivity Pages: 1 -->
<svg width="134pt" height="204pt"
 viewBox="0.00 0.00 134.43 203.54" xmlns="http://www.w3.org/2000/svg" xmlns:xlink="http://www.w3.org/1999/xlink">
<g id="graph0" class="graph" transform="scale(1 1) rotate(0) translate(4 199.54)">
<title>Qubit connectivity</title>
<polygon fill="white" stroke="transparent" points="-4,4 -4,-199.54 130.43,-199.54 130.43,4 -4,4"/>
<!-- e1[1] -->
<g id="node1" class="node">
<title>e1[1]</title>
<ellipse fill="none" stroke="blue" cx="27.67" cy="-27.67" rx="27.84" ry="27.84"/>
<text text-anchor="middle" x="27.67" y="-25.17" font-family="Courier,monospace" font-size="10.00">e1[1]</text>
</g>
<!-- e0[0] -->
<g id="node2" class="node">
<title>e0[0]</title>
<ellipse fill="none" stroke="blue" cx="98.76" cy="-38.06" rx="27.84" ry="27.84"/>
<text text-anchor="middle" x="98.76" y="-35.56" font-family="Courier,monospace" font-size="10.00">e0[0]</text>
</g>
<!-- e1[1]&#45;&#45;e0[0] -->
<g id="edge1" class="edge">
<title>e1[1]&#45;&#45;e0[0]</title>
<path fill="none" stroke="black" d="M55.36,-31.72C60.5,-32.47 65.88,-33.25 71.03,-34.01"/>
</g>
<!-- e2[2] -->
<g id="node3" class="node">
<title>e2[2]</title>
<ellipse fill="none" stroke="blue" cx="54.16" cy="-95.48" rx="27.84" ry="27.84"/>
<text text-anchor="middle" x="54.16" y="-92.98" font-family="Courier,monospace" font-size="10.00">e2[2]</text>
</g>
<!-- e1[1]&#45;&#45;e2[2] -->
<g id="edge2" class="edge">
<title>e1[1]&#45;&#45;e2[2]</title>
<path fill="none" stroke="black" d="M37.83,-53.69C39.88,-58.92 42.02,-64.42 44.06,-69.64"/>
</g>
<!-- e0[0]&#45;&#45;e2[2] -->
<g id="edge3" class="edge">
<title>e0[0]&#45;&#45;e2[2]</title>
<path fill="none" stroke="black" d="M81.64,-60.1C78.2,-64.53 74.59,-69.18 71.15,-73.6"/>
</g>
<!-- e3[3] -->
<g id="node4" class="node">
<title>e3[3]</title>
<ellipse fill="none" stroke="blue" cx="42.5" cy="-167.87" rx="27.84" ry="27.84"/>
<text text-anchor="middle" x="42.5" y="-165.37" font-family="Courier,monospace" font-size="10.00">e3[3]</text>
</g>
<!-- e2[2]&#45;&#45;e3[3] -->
<g id="edge4" class="edge">
<title>e2[2]&#45;&#45;e3[3]</title>
<path fill="none" stroke="black" d="M49.75,-122.85C48.82,-128.62 47.84,-134.7 46.92,-140.47"/>
</g>
</g>
</svg>