<?xml version="1.0" encoding="UTF-8" standalone="no"?>
<!DOCTYPE svg PUBLIC "-//W3C//DTD SVG 1.1//EN"
 "http://www.w3.org/Graphics/SVG/1.1/DTD/svg11.dtd">
<!-- Generated by graphviz version 2.43.0 (0)
 -->
<!-- Title: Circuit Pages: 1 -->
<svg width="371pt" height="143pt"
 viewBox="0.00 0.00 371.40 143.00" xmlns="http://www.w3.org/2000/svg" xmlns:xlink="http://www.w3.org/1999/xlink">
<g id="graph0" class="graph" transform="scale(1 1) rotate(0) translate(4 139)">
<title>Circuit</title>
<polygon fill="white" stroke="transparent" points="-4,4 -4,-139 367.4,-139 367.4,4 -4,4"/>
<g id="clust1" class="cluster">
<title>cluster_q_inputs</title>
<path fill="lightgrey" stroke="lightgrey" d="M22.53,-42C22.53,-42 27.07,-42 27.07,-42 29.33,-42 31.6,-44.27 31.6,-46.53 31.6,-46.53 31.6,-96.47 31.6,-96.47 31.6,-98.73 29.33,-101 27.07,-101 27.07,-101 22.53,-101 22.53,-101 20.27,-101 18,-98.73 18,-96.47 18,-96.47 18,-46.53 18,-46.53 18,-44.27 20.27,-42 22.53,-42"/>
</g>
<g id="clust4" class="cluster">
<title>cluster_q_outputs</title>
<path fill="lightgrey" stroke="lightgrey" d="M346.33,-47C346.33,-47 350.87,-47 350.87,-47 353.13,-47 355.4,-49.27 355.4,-51.53 355.4,-51.53 355.4,-101.47 355.4,-101.47 355.4,-103.73 353.13,-106 350.87,-106 350.87,-106 346.33,-106 346.33,-106 344.07,-106 341.8,-103.73 341.8,-101.47 341.8,-101.47 341.8,-51.53 341.8,-51.53 341.8,-49.27 344.07,-47 346.33,-47"/>
</g>
<g id="clust7" class="cluster">
<title>cluster_8</title>
<path fill="lightblue" stroke="lightblue" d="M53.8,-57C53.8,-57 64,-57 64,-57 69.1,-57 74.2,-62.1 74.2,-67.2 74.2,-67.2 74.2,-94.8 74.2,-94.8 74.2,-99.9 69.1,-105 64,-105 64,-105 53.8,-105 53.8,-105 48.7,-105 43.6,-99.9 43.6,-94.8 43.6,-94.8 43.6,-67.2 43.6,-67.2 43.6,-62.1 48.7,-57 53.8,-57"/>
<text text-anchor="middle" x="58.9" y="-93" font-family="Times,serif" font-size="10.00">CX</text>
</g>
<g id="clust8" class="cluster">
<title>cluster_9</title>
<path fill="lightblue" stroke="lightblue" d="M96.4,-23C96.4,-23 106.6,-23 106.6,-23 111.7,-23 116.8,-28.1 116.8,-33.2 116.8,-33.2 116.8,-60.8 116.8,-60.8 116.8,-65.9 111.7,-71 106.6,-71 106.6,-71 96.4,-71 96.4,-71 91.3,-71 86.2,-65.9 86.2,-60.8 86.2,-60.8 86.2,-33.2 86.2,-33.2 86.2,-28.1 91.3,-23 96.4,-23"/>
<text text-anchor="middle" x="101.5" y="-59" font-family="Times,serif" font-size="10.00">CX</text>
</g>
<g id="clust9" class="cluster">
<title>cluster_10</title>
<path fill="lightblue" stroke="lightblue" d="M139,-57C139,-57 149.2,-57 149.2,-57 154.3,-57 159.4,-62.1 159.4,-67.2 159.4,-67.2 159.4,-94.8 159.4,-94.8 159.4,-99.9 154.3,-105 149.2,-105 149.2,-105 139,-105 139,-105 133.9,-105 128.8,-99.9 128.8,-94.8 128.8,-94.8 128.8,-67.2 128.8,-67.2 128.8,-62.1 133.9,-57 139,-57"/>
<text text-anchor="middle" x="144.1" y="-93" font-family="Times,serif" font-size="10.00">CX</text>
</g>
<g id="clust10" class="cluster">
<title>cluster_11</title>
<path fill="lightblue" stroke="lightblue" d="M181.6,-77C181.6,-77 191.8,-77 191.8,-77 196.9,-77 202,-82.1 202,-87.2 202,-87.2 202,-114.8 202,-114.8 202,-119.9 196.9,-125 191.8,-125 191.8,-125 181.6,-125 181.6,-125 176.5,-125 171.4,-119.9 171.4,-114.8 171.4,-114.8 171.4,-87.2 171.4,-87.2 171.4,-82.1 176.5,-77 181.6,-77"/>
<text text-anchor="middle" x="186.7" y="-113" font-family="Times,serif" font-size="10.00">CX</text>
</g>
<g id="clust11" class="cluster">
<title>cluster_12</title>
<path fill="lightblue" stroke="lightblue" d="M224.2,-42C224.2,-42 234.4,-42 234.4,-42 239.5,-42 244.6,-47.1 244.6,-52.2 244.6,-52.2 244.6,-79.8 244.6,-79.8 244.6,-84.9 239.5,-90 234.4,-90 234.4,-90 224.2,-90 224.2,-90 219.1,-90 214,-84.9 214,-79.8 214,-79.8 214,-52.2 214,-52.2 214,-47.1 219.1,-42 224.2,-42"/>
<text text-anchor="middle" x="229.3" y="-78" font-family="Times,serif" font-size="10.00">CX</text>
</g>
<g id="clust12" class="cluster">
<title>cluster_13</title>
<path fill="lightblue" stroke="lightblue" d="M266.8,-8C266.8,-8 277,-8 277,-8 282.1,-8 287.2,-13.1 287.2,-18.2 287.2,-18.2 287.2,-45.8 287.2,-45.8 287.2,-50.9 282.1,-56 277,-56 277,-56 266.8,-56 266.8,-56 261.7,-56 256.6,-50.9 256.6,-45.8 256.6,-45.8 256.6,-18.2 256.6,-18.2 256.6,-13.1 261.7,-8 266.8,-8"/>
<text text-anchor="middle" x="271.9" y="-44" font-family="Times,serif" font-size="10.00">CX</text>
</g>
<g id="clust13" class="cluster">
<title>cluster_14</title>
<path fill="lightblue" stroke="lightblue" d="M309.4,-79C309.4,-79 319.6,-79 319.6,-79 324.7,-79 329.8,-84.1 329.8,-89.2 329.8,-89.2 329.8,-116.8 329.8,-116.8 329.8,-121.9 324.7,-127 319.6,-127 319.6,-127 309.4,-127 309.4,-127 304.3,-127 299.2,-121.9 299.2,-116.8 299.2,-116.8 299.2,-89.2 299.2,-89.2 299.2,-84.1 304.3,-79 309.4,-79"/>
<text text-anchor="middle" x="314.5" y="-115" font-family="Times,serif" font-size="10.00">CX</text>
</g>
<!-- (0, 0) -->
<g id="node1" class="node">
<title>(0, 0)</title>
<ellipse fill="blue" stroke="blue" cx="24.8" cy="-79" rx="1.8" ry="1.8"/>
<text text-anchor="middle" x="11.5" y="-70.8" font-family="Courier,monospace" font-size="8.00">e0[0]</text>
</g>
<!-- (8, 0) -->
<g id="node9" class="node">
<title>(8, 0)</title>
<ellipse fill="black" stroke="black" cx="58.4" cy="-79" rx="1.8" ry="1.8"/>
<text text-anchor="middle" x="53.6" y="-70.8" font-family="Helvetica,sans-Serif" font-size="8.00">0</text>
</g>
<!-- (0, 0)&#45;&gt;(8, 0) -->
<g id="edge1" class="edge">
<title>(0, 0)&#45;&gt;(8, 0)</title>
<path fill="none" stroke="blue" d="M27.16,-79C31.87,-79 47.6,-79 54.32,-79"/>
<polygon fill="blue" stroke="blue" points="56.35,-79 54.35,-80.13 55.35,-79 54.35,-79 54.35,-79 54.35,-79 55.35,-79 54.35,-77.88 56.35,-79 56.35,-79"/>
</g>
<!-- (2, 0) -->
<g id="node2" class="node">
<title>(2, 0)</title>
<ellipse fill="blue" stroke="blue" cx="24.8" cy="-64" rx="1.8" ry="1.8"/>
<text text-anchor="middle" x="11.5" y="-55.8" font-family="Courier,monospace" font-size="8.00">e1[1]</text>
</g>
<!-- (8, 1) -->
<g id="node10" class="node">
<title>(8, 1)</title>
<ellipse fill="black" stroke="black" cx="58.4" cy="-64" rx="1.8" ry="1.8"/>
<text text-anchor="middle" x="53.6" y="-55.8" font-family="Helvetica,sans-Serif" font-size="8.00">1</text>
</g>
<!-- (2, 0)&#45;&gt;(8, 1) -->
<g id="edge2" class="edge">
<title>(2, 0)&#45;&gt;(8, 1)</title>
<path fill="none" stroke="blue" d="M27.16,-64C31.87,-64 47.6,-64 54.32,-64"/>
<polygon fill="blue" stroke="blue" points="56.35,-64 54.35,-65.13 55.35,-64 54.35,-64 54.35,-64 54.35,-64 55.35,-64 54.35,-62.88 56.35,-64 56.35,-64"/>
</g>
<!-- (4, 0) -->
<g id="node3" class="node">
<title>(4, 0)</title>
<ellipse fill="blue" stroke="blue" cx="24.8" cy="-49" rx="1.8" ry="1.8"/>
<text text-anchor="middle" x="11.5" y="-40.8" font-family="Courier,monospace" font-size="8.00">e2[2]</text>
</g>
<!-- (9, 1) -->
<g id="node12" class="node">
<title>(9, 1)</title>
<ellipse fill="black" stroke="black" cx="101" cy="-45" rx="1.8" ry="1.8"/>
<text text-anchor="middle" x="96.2" y="-36.8" font-family="Helvetica,sans-Serif" font-size="8.00">1</text>
</g>
<!-- (4, 0)&#45;&gt;(9, 1) -->
<g id="edge3" class="edge">
<title>(4, 0)&#45;&gt;(9, 1)</title>
<path fill="none" stroke="blue" d="M26.63,-48.96C33.68,-48.58 83.35,-45.9 96.7,-45.18"/>
<polygon fill="blue" stroke="blue" points="98.86,-45.06 96.93,-46.29 97.87,-45.12 96.87,-45.17 96.87,-45.17 96.87,-45.17 97.87,-45.12 96.81,-44.05 98.86,-45.06 98.86,-45.06"/>
</g>
<!-- (6, 0) -->
<g id="node4" class="node">
<title>(6, 0)</title>
<ellipse fill="blue" stroke="blue" cx="24.8" cy="-94" rx="1.8" ry="1.8"/>
<text text-anchor="middle" x="11.5" y="-85.8" font-family="Courier,monospace" font-size="8.00">e3[3]</text>
</g>
<!-- (11, 1) -->
<g id="node16" class="node">
<title>(11, 1)</title>
<ellipse fill="black" stroke="black" cx="186.2" cy="-84" rx="1.8" ry="1.8"/>
<text text-anchor="middle" x="181.4" y="-75.8" font-family="Helvetica,sans-Serif" font-size="8.00">1</text>
</g>
<!-- (6, 0)&#45;&gt;(11, 1) -->
<g id="edge4" class="edge">
<title>(6, 0)&#45;&gt;(11, 1)</title>
<path fill="none" stroke="blue" d="M26.66,-94.87C29.07,-97.23 36.19,-103.73 43.6,-106 92.82,-121.04 112.64,-127.51 159.4,-106 166.85,-102.58 165.1,-97.24 171.4,-92 174.86,-89.12 179.49,-86.67 182.41,-85.27"/>
<polygon fill="blue" stroke="blue" points="184.39,-84.35 183.05,-86.21 183.49,-84.77 182.58,-85.19 182.58,-85.19 182.58,-85.19 183.49,-84.77 182.11,-84.17 184.39,-84.35 184.39,-84.35"/>
</g>
<!-- (1, 0) -->
<g id="node5" class="node">
<title>(1, 0)</title>
<ellipse fill="blue" stroke="blue" cx="348.6" cy="-99" rx="1.8" ry="1.8"/>
<text text-anchor="middle" x="335.3" y="-90.8" font-family="Courier,monospace" font-size="8.00">e0[0]</text>
</g>
<!-- (3, 0) -->
<g id="node6" class="node">
<title>(3, 0)</title>
<ellipse fill="blue" stroke="blue" cx="348.6" cy="-84" rx="1.8" ry="1.8"/>
<text text-anchor="middle" x="335.3" y="-75.8" font-family="Courier,monospace" font-size="8.00">e1[1]</text>
</g>
<!-- (5, 0) -->
<g id="node7" class="node">
<title>(5, 0)</title>
<ellipse fill="blue" stroke="blue" cx="348.6" cy="-69" rx="1.8" ry="1.8"/>
<text text-anchor="middle" x="335.3" y="-60.8" font-family="Courier,monospace" font-size="8.00">e2[2]</text>
</g>
<!-- (7, 0) -->
<g id="node8" class="node">
<title>(7, 0)</title>
<ellipse fill="blue" stroke="blue" cx="348.6" cy="-54" rx="1.8" ry="1.8"/>
<text text-anchor="middle" x="335.3" y="-45.8" font-family="Courier,monospace" font-size="8.00">e3[3]</text>
</g>
<!-- (10, 0) -->
<g id="node13" class="node">
<title>(10, 0)</title>
<ellipse fill="black" stroke="black" cx="143.6" cy="-79" rx="1.8" ry="1.8"/>
<text text-anchor="middle" x="138.8" y="-70.8" font-family="Helvetica,sans-Serif" font-size="8.00">0</text>
</g>
<!-- (8, 0)&#45;&gt;(10, 0) -->
<g id="edge5" class="edge">
<title>(8, 0)&#45;&gt;(10, 0)</title>
<path fill="none" stroke="blue" d="M60.33,-79C68.37,-79 125.83,-79 139.63,-79"/>
<polygon fill="blue" stroke="blue" points="141.78,-79 139.78,-80.13 140.78,-79 139.78,-79 139.78,-79 139.78,-79 140.78,-79 139.78,-77.88 141.78,-79 141.78,-79"/>
</g>
<!-- (9, 0) -->
<g id="node11" class="node">
<title>(9, 0)</title>
<ellipse fill="black" stroke="black" cx="101" cy="-30" rx="1.8" ry="1.8"/>
<text text-anchor="middle" x="96.2" y="-21.8" font-family="Helvetica,sans-Serif" font-size="8.00">0</text>
</g>
<!-- (8, 1)&#45;&gt;(9, 0) -->
<g id="edge6" class="edge">
<title>(8, 1)&#45;&gt;(9, 0)</title>
<path fill="none" stroke="blue" d="M60.34,-62.91C63.63,-59.15 75.03,-46.45 86.2,-38 89.79,-35.28 94.38,-32.79 97.26,-31.34"/>
<polygon fill="blue" stroke="blue" points="99.21,-30.37 97.92,-32.27 98.31,-30.81 97.42,-31.26 97.42,-31.26 97.42,-31.26 98.31,-30.81 96.92,-30.25 99.21,-30.37 99.21,-30.37"/>
</g>
<!-- (13, 0) -->
<g id="node19" class="node">
<title>(13, 0)</title>
<ellipse fill="black" stroke="black" cx="271.4" cy="-30" rx="1.8" ry="1.8"/>
<text text-anchor="middle" x="266.6" y="-21.8" font-family="Helvetica,sans-Serif" font-size="8.00">0</text>
</g>
<!-- (9, 0)&#45;&gt;(13, 0) -->
<g id="edge7" class="edge">
<title>(9, 0)&#45;&gt;(13, 0)</title>
<path fill="none" stroke="blue" d="M103.08,-30C116.21,-30 245.65,-30 267.33,-30"/>
<polygon fill="blue" stroke="blue" points="269.42,-30 267.42,-31.13 268.42,-30 267.42,-30 267.42,-30 267.42,-30 268.42,-30 267.42,-28.88 269.42,-30 269.42,-30"/>
</g>
<!-- (10, 1) -->
<g id="node14" class="node">
<title>(10, 1)</title>
<ellipse fill="black" stroke="black" cx="143.6" cy="-64" rx="1.8" ry="1.8"/>
<text text-anchor="middle" x="138.8" y="-55.8" font-family="Helvetica,sans-Serif" font-size="8.00">1</text>
</g>
<!-- (9, 1)&#45;&gt;(10, 1) -->
<g id="edge8" class="edge">
<title>(9, 1)&#45;&gt;(10, 1)</title>
<path fill="none" stroke="blue" d="M103,-45.47C108.14,-47.87 131.55,-58.83 139.75,-62.67"/>
<polygon fill="blue" stroke="blue" points="141.77,-63.61 139.48,-63.78 140.86,-63.19 139.96,-62.76 139.96,-62.76 139.96,-62.76 140.86,-63.19 140.44,-61.75 141.77,-63.61 141.77,-63.61"/>
</g>
<!-- (11, 0) -->
<g id="node15" class="node">
<title>(11, 0)</title>
<ellipse fill="black" stroke="black" cx="186.2" cy="-99" rx="1.8" ry="1.8"/>
<text text-anchor="middle" x="181.4" y="-90.8" font-family="Helvetica,sans-Serif" font-size="8.00">0</text>
</g>
<!-- (10, 0)&#45;&gt;(11, 0) -->
<g id="edge9" class="edge">
<title>(10, 0)&#45;&gt;(11, 0)</title>
<path fill="none" stroke="blue" d="M145.6,-79.49C150.74,-82.02 174.15,-93.56 182.35,-97.6"/>
<polygon fill="blue" stroke="blue" points="184.37,-98.59 182.08,-98.72 183.47,-98.15 182.58,-97.71 182.58,-97.71 182.58,-97.71 183.47,-98.15 183.07,-96.7 184.37,-98.59 184.37,-98.59"/>
</g>
<!-- (12, 0) -->
<g id="node17" class="node">
<title>(12, 0)</title>
<ellipse fill="black" stroke="black" cx="228.8" cy="-64" rx="1.8" ry="1.8"/>
<text text-anchor="middle" x="224" y="-55.8" font-family="Helvetica,sans-Serif" font-size="8.00">0</text>
</g>
<!-- (10, 1)&#45;&gt;(12, 0) -->
<g id="edge10" class="edge">
<title>(10, 1)&#45;&gt;(12, 0)</title>
<path fill="none" stroke="blue" d="M145.53,-64C153.57,-64 211.03,-64 224.83,-64"/>
<polygon fill="blue" stroke="blue" points="226.98,-64 224.98,-65.13 225.98,-64 224.98,-64 224.98,-64 224.98,-64 225.98,-64 224.98,-62.88 226.98,-64 226.98,-64"/>
</g>
<!-- (14, 0) -->
<g id="node21" class="node">
<title>(14, 0)</title>
<ellipse fill="black" stroke="black" cx="314" cy="-101" rx="1.8" ry="1.8"/>
<text text-anchor="middle" x="309.2" y="-92.8" font-family="Helvetica,sans-Serif" font-size="8.00">0</text>
</g>
<!-- (11, 0)&#45;&gt;(14, 0) -->
<g id="edge12" class="edge">
<title>(11, 0)&#45;&gt;(14, 0)</title>
<path fill="none" stroke="blue" d="M188,-99.01C197.58,-99.16 289.84,-100.63 309.38,-100.94"/>
<polygon fill="blue" stroke="blue" points="311.71,-100.98 309.7,-102.07 310.71,-100.96 309.71,-100.95 309.71,-100.95 309.71,-100.95 310.71,-100.96 309.73,-99.82 311.71,-100.98 311.71,-100.98"/>
</g>
<!-- (12, 1) -->
<g id="node18" class="node">
<title>(12, 1)</title>
<ellipse fill="black" stroke="black" cx="228.8" cy="-49" rx="1.8" ry="1.8"/>
<text text-anchor="middle" x="224" y="-40.8" font-family="Helvetica,sans-Serif" font-size="8.00">1</text>
</g>
<!-- (11, 1)&#45;&gt;(12, 1) -->
<g id="edge11" class="edge">
<title>(11, 1)&#45;&gt;(12, 1)</title>
<path fill="none" stroke="blue" d="M188.13,-82.87C191.39,-78.95 202.71,-65.72 214,-57 217.56,-54.25 222.16,-51.77 225.05,-50.32"/>
<polygon fill="blue" stroke="blue" points="227.01,-49.37 225.7,-51.25 226.11,-49.81 225.21,-50.24 225.21,-50.24 225.21,-50.24 226.11,-49.81 224.72,-49.23 227.01,-49.37 227.01,-49.37"/>
</g>
<!-- (12, 0)&#45;&gt;(5, 0) -->
<g id="edge14" class="edge">
<title>(12, 0)&#45;&gt;(5, 0)</title>
<path fill="none" stroke="blue" d="M231.12,-64.06C242.69,-64.55 326.58,-68.11 344.31,-68.86"/>
<polygon fill="blue" stroke="blue" points="346.43,-68.95 344.39,-69.99 345.43,-68.91 344.44,-68.87 344.44,-68.87 344.44,-68.87 345.43,-68.91 344.48,-67.74 346.43,-68.95 346.43,-68.95"/>
</g>
<!-- (13, 1) -->
<g id="node20" class="node">
<title>(13, 1)</title>
<ellipse fill="black" stroke="black" cx="271.4" cy="-15" rx="1.8" ry="1.8"/>
<text text-anchor="middle" x="266.6" y="-6.8" font-family="Helvetica,sans-Serif" font-size="8.00">1</text>
</g>
<!-- (12, 1)&#45;&gt;(13, 1) -->
<g id="edge13" class="edge">
<title>(12, 1)&#45;&gt;(13, 1)</title>
<path fill="none" stroke="blue" d="M230.74,-47.91C234.03,-44.15 245.43,-31.45 256.6,-23 260.19,-20.28 264.78,-17.79 267.66,-16.34"/>
<polygon fill="blue" stroke="blue" points="269.61,-15.37 268.32,-17.27 268.71,-15.81 267.82,-16.26 267.82,-16.26 267.82,-16.26 268.71,-15.81 267.32,-15.25 269.61,-15.37 269.61,-15.37"/>
</g>
<!-- (14, 1) -->
<g id="node22" class="node">
<title>(14, 1)</title>
<ellipse fill="black" stroke="black" cx="314" cy="-86" rx="1.8" ry="1.8"/>
<text text-anchor="middle" x="309.2" y="-77.8" font-family="Helvetica,sans-Serif" font-size="8.00">1</text>
</g>
<!-- (13, 0)&#45;&gt;(14, 1) -->
<g id="edge15" class="edge">
<title>(13, 0)&#45;&gt;(14, 1)</title>
<path fill="none" stroke="blue" d="M273.1,-30.97C277.73,-37.35 303.73,-73.21 311.07,-83.34"/>
<polygon fill="blue" stroke="blue" points="312.4,-85.17 310.31,-84.21 311.81,-84.36 311.22,-83.55 311.22,-83.55 311.22,-83.55 311.81,-84.36 312.14,-82.89 312.4,-85.17 312.4,-85.17"/>
</g>
<!-- (13, 1)&#45;&gt;(7, 0) -->
<g id="edge16" class="edge">
<title>(13, 1)&#45;&gt;(7, 0)</title>
<path fill="none" stroke="blue" d="M273.24,-15.44C280.44,-19.17 331.56,-45.68 344.59,-52.44"/>
<polygon fill="blue" stroke="blue" points="346.45,-53.4 344.16,-53.48 345.56,-52.94 344.67,-52.48 344.67,-52.48 344.67,-52.48 345.56,-52.94 345.19,-51.48 346.45,-53.4 346.45,-53.4"/>
</g>
<!-- (14, 0)&#45;&gt;(1, 0) -->
<g id="edge18" class="edge">
<title>(14, 0)&#45;&gt;(1, 0)</title>
<path fill="none" stroke="blue" d="M315.81,-100.95C319.72,-100.71 336.84,-99.66 344.21,-99.21"/>
<polygon fill="blue" stroke="blue" points="346.44,-99.07 344.51,-100.32 345.44,-99.13 344.44,-99.19 344.44,-99.19 344.44,-99.19 345.44,-99.13 344.37,-98.07 346.44,-99.07 346.44,-99.07"/>
</g>
<!-- (14, 1)&#45;&gt;(3, 0) -->
<g id="edge17" class="edge">
<title>(14, 1)&#45;&gt;(3, 0)</title>
<path fill="none" stroke="blue" d="M315.81,-85.95C319.72,-85.71 336.84,-84.66 344.21,-84.21"/>
<polygon fill="blue" stroke="blue" points="346.44,-84.07 344.51,-85.32 345.44,-84.13 344.44,-84.19 344.44,-84.19 344.44,-84.19 345.44,-84.13 344.37,-83.07 346.44,-84.07 346.44,-84.07"/>
</g>
</g>
</svg>