<?xml version="1.0" encoding="UTF-8" standalone="no"?>
<!DOCTYPE svg PUBLIC "-//W3C//DTD SVG 1.1//EN"
 "http://www.w3.org/Graphics/SVG/1.1/DTD/svg11.dtd">
<!-- Generated by graphviz version 2.43.0 (0)
 -->
<!-- Title: Circuit Pages: 1 -->
<svg width="286pt" height="144pt"
 viewBox="0.00 0.00 286.20 144.00" xmlns="http://www.w3.org/2000/svg" xmlns:xlink="http://www.w3.org/1999/xlink">
<g id="graph0" class="graph" transform="scale(1 1) rotate(0) translate(4 140)">
<title>Circuit</title>
<polygon fill="white" stroke="transparent" points="-4,4 -4,-140 282.2,-140 282.2,4 -4,4"/>
<g id="clust1" class="cluster">
<title>cluster_q_inputs</title>
<path fill="lightgrey" stroke="lightgrey" d="M22.53,-26C22.53,-26 27.07,-26 27.07,-26 29.33,-26 31.6,-28.27 31.6,-30.53 31.6,-30.53 31.6,-80.47 31.6,-80.47 31.6,-82.73 29.33,-85 27.07,-85 27.07,-85 22.53,-85 22.53,-85 20.27,-85 18,-82.73 18,-80.47 18,-80.47 18,-30.53 18,-30.53 18,-28.27 20.27,-26 22.53,-26"/>
</g>
<g id="clust4" class="cluster">
<title>cluster_q_outputs</title>
<path fill="lightgrey" stroke="lightgrey" d="M261.13,-14C261.13,-14 265.67,-14 265.67,-14 267.93,-14 270.2,-16.27 270.2,-18.53 270.2,-18.53 270.2,-68.47 270.2,-68.47 270.2,-70.73 267.93,-73 265.67,-73 265.67,-73 261.13,-73 261.13,-73 258.87,-73 256.6,-70.73 256.6,-68.47 256.6,-68.47 256.6,-18.53 256.6,-18.53 256.6,-16.27 258.87,-14 261.13,-14"/>
</g>
<g id="clust7" class="cluster">
<title>cluster_8</title>
<path fill="lightblue" stroke="lightblue" d="M53.8,-41C53.8,-41 64,-41 64,-41 69.1,-41 74.2,-46.1 74.2,-51.2 74.2,-51.2 74.2,-78.8 74.2,-78.8 74.2,-83.9 69.1,-89 64,-89 64,-89 53.8,-89 53.8,-89 48.7,-89 43.6,-83.9 43.6,-78.8 43.6,-78.8 43.6,-51.2 43.6,-51.2 43.6,-46.1 48.7,-41 53.8,-41"/>
<text text-anchor="middle" x="58.9" y="-77" font-family="Times,serif" font-size="10.00">CX</text>
</g>
<g id="clust8" class="cluster">
<title>cluster_9</title>
<path fill="lightblue" stroke="lightblue" d="M96.4,-14C96.4,-14 106.6,-14 106.6,-14 111.7,-14 116.8,-19.1 116.8,-24.2 116.8,-24.2 116.8,-51.8 116.8,-51.8 116.8,-56.9 111.7,-62 106.6,-62 106.6,-62 96.4,-62 96.4,-62 91.3,-62 86.2,-56.9 86.2,-51.8 86.2,-51.8 86.2,-24.2 86.2,-24.2 86.2,-19.1 91.3,-14 96.4,-14"/>
<text text-anchor="middle" x="101.5" y="-50" font-family="Times,serif" font-size="10.00">CX</text>
</g>
<g id="clust9" class="cluster">
<title>cluster_10</title>
<path fill="lightblue" stroke="lightblue" d="M139,-44C139,-44 149.2,-44 149.2,-44 154.3,-44 159.4,-49.1 159.4,-54.2 159.4,-54.2 159.4,-81.8 159.4,-81.8 159.4,-86.9 154.3,-92 149.2,-92 149.2,-92 139,-92 139,-92 133.9,-92 128.8,-86.9 128.8,-81.8 128.8,-81.8 128.8,-54.2 128.8,-54.2 128.8,-49.1 133.9,-44 139,-44"/>
<text text-anchor="middle" x="144.1" y="-80" font-family="Times,serif" font-size="10.00">CX</text>
</g>
<g id="clust10" class="cluster">
<title>cluster_11</title>
<path fill="lightblue" stroke="lightblue" d="M181.6,-80C181.6,-80 191.8,-80 191.8,-80 196.9,-80 202,-85.1 202,-90.2 202,-90.2 202,-117.8 202,-117.8 202,-122.9 196.9,-128 191.8,-128 191.8,-128 181.6,-128 181.6,-128 176.5,-128 171.4,-122.9 171.4,-117.8 171.4,-117.8 171.4,-90.2 171.4,-90.2 171.4,-85.1 176.5,-80 181.6,-80"/>
<text text-anchor="middle" x="186.7" y="-116" font-family="Times,serif" font-size="10.00">CX</text>
</g>
<g id="clust11" class="cluster">
<title>cluster_12</title>
<path fill="lightblue" stroke="lightblue" d="M224.2,-8C224.2,-8 234.4,-8 234.4,-8 239.5,-8 244.6,-13.1 244.6,-18.2 244.6,-18.2 244.6,-45.8 244.6,-45.8 244.6,-50.9 239.5,-56 234.4,-56 234.4,-56 224.2,-56 224.2,-56 219.1,-56 214,-50.9 214,-45.8 214,-45.8 214,-18.2 214,-18.2 214,-13.1 219.1,-8 224.2,-8"/>
<text text-anchor="middle" x="229.3" y="-44" font-family="Times,serif" font-size="10.00">CX</text>
</g>
<!-- (0, 0) -->
<g id="node1" class="node">
<title>(0, 0)</title>
<ellipse fill="blue" stroke="blue" cx="24.8" cy="-48" rx="1.8" ry="1.8"/>
<text text-anchor="middle" x="11.5" y="-39.8" font-family="Courier,monospace" font-size="8.00">e0[0]</text>
</g>
<!-- (8, 0) -->
<g id="node9" class="node">
<title>(8, 0)</title>
<ellipse fill="black" stroke="black" cx="58.4" cy="-48" rx="1.8" ry="1.8"/>
<text text-anchor="middle" x="53.6" y="-39.8" font-family="Helvetica,sans-Serif" font-size="8.00">0</text>
</g>
<!-- (0, 0)&#45;&gt;(8, 0) -->
<g id="edge1" class="edge">
<title>(0, 0)&#45;&gt;(8, 0)</title>
<path fill="none" stroke="blue" d="M27.16,-48C31.87,-48 47.6,-48 54.32,-48"/>
<polygon fill="blue" stroke="blue" points="56.35,-48 54.35,-49.13 55.35,-48 54.35,-48 54.35,-48 54.35,-48 55.35,-48 54.35,-46.88 56.35,-48 56.35,-48"/>
</g>
<!-- (2, 0) -->
<g id="node2" class="node">
<title>(2, 0)</title>
<ellipse fill="blue" stroke="blue" cx="24.8" cy="-78" rx="1.8" ry="1.8"/>
<text text-anchor="middle" x="11.5" y="-69.8" font-family="Courier,monospace" font-size="8.00">e1[1]</text>
</g>
<!-- (11, 0) -->
<g id="node15" class="node">
<title>(11, 0)</title>
<ellipse fill="black" stroke="black" cx="186.2" cy="-102" rx="1.8" ry="1.8"/>
<text text-anchor="middle" x="181.4" y="-93.8" font-family="Helvetica,sans-Serif" font-size="8.00">0</text>
</g>
<!-- (2, 0)&#45;&gt;(11, 0) -->
<g id="edge2" class="edge">
<title>(2, 0)&#45;&gt;(11, 0)</title>
<path fill="none" stroke="blue" d="M26.66,-78.91C29.05,-81.38 36.13,-88.24 43.6,-91 96.07,-110.4 166.75,-104.05 182.16,-102.36"/>
<polygon fill="blue" stroke="blue" points="184.26,-102.12 182.4,-103.46 183.27,-102.23 182.27,-102.35 182.27,-102.35 182.27,-102.35 183.27,-102.23 182.14,-101.23 184.26,-102.12 184.26,-102.12"/>
</g>
<!-- (4, 0) -->
<g id="node3" class="node">
<title>(4, 0)</title>
<ellipse fill="blue" stroke="blue" cx="24.8" cy="-63" rx="1.8" ry="1.8"/>
<text text-anchor="middle" x="11.5" y="-54.8" font-family="Courier,monospace" font-size="8.00">e2[2]</text>
</g>
<!-- (8, 1) -->
<g id="node10" class="node">
<title>(8, 1)</title>
<ellipse fill="black" stroke="black" cx="58.4" cy="-63" rx="1.8" ry="1.8"/>
<text text-anchor="middle" x="53.6" y="-54.8" font-family="Helvetica,sans-Serif" font-size="8.00">1</text>
</g>
<!-- (4, 0)&#45;&gt;(8, 1) -->
<g id="edge3" class="edge">
<title>(4, 0)&#45;&gt;(8, 1)</title>
<path fill="none" stroke="blue" d="M27.16,-63C31.87,-63 47.6,-63 54.32,-63"/>
<polygon fill="blue" stroke="blue" points="56.35,-63 54.35,-64.13 55.35,-63 54.35,-63 54.35,-63 54.35,-63 55.35,-63 54.35,-61.88 56.35,-63 56.35,-63"/>
</g>
<!-- (6, 0) -->
<g id="node4" class="node">
<title>(6, 0)</title>
<ellipse fill="blue" stroke="blue" cx="24.8" cy="-33" rx="1.8" ry="1.8"/>
<text text-anchor="middle" x="11.5" y="-24.8" font-family="Courier,monospace" font-size="8.00">e3[3]</text>
</g>
<!-- (9, 1) -->
<g id="node12" class="node">
<title>(9, 1)</title>
<ellipse fill="black" stroke="black" cx="101" cy="-21" rx="1.8" ry="1.8"/>
<text text-anchor="middle" x="96.2" y="-12.8" font-family="Helvetica,sans-Serif" font-size="8.00">1</text>
</g>
<!-- (6, 0)&#45;&gt;(9, 1) -->
<g id="edge4" class="edge">
<title>(6, 0)&#45;&gt;(9, 1)</title>
<path fill="none" stroke="blue" d="M26.63,-32.87C33.68,-31.73 83.35,-23.69 96.7,-21.53"/>
<polygon fill="blue" stroke="blue" points="98.86,-21.18 97.07,-22.61 97.88,-21.34 96.89,-21.5 96.89,-21.5 96.89,-21.5 97.88,-21.34 96.71,-20.39 98.86,-21.18 98.86,-21.18"/>
</g>
<!-- (1, 0) -->
<g id="node5" class="node">
<title>(1, 0)</title>
<ellipse fill="blue" stroke="blue" cx="263.4" cy="-21" rx="1.8" ry="1.8"/>
<text text-anchor="middle" x="250.1" y="-12.8" font-family="Courier,monospace" font-size="8.00">e0[0]</text>
</g>
<!-- (3, 0) -->
<g id="node6" class="node">
<title>(3, 0)</title>
<ellipse fill="blue" stroke="blue" cx="263.4" cy="-36" rx="1.8" ry="1.8"/>
<text text-anchor="middle" x="250.1" y="-27.8" font-family="Courier,monospace" font-size="8.00">e1[1]</text>
</g>
<!-- (5, 0) -->
<g id="node7" class="node">
<title>(5, 0)</title>
<ellipse fill="blue" stroke="blue" cx="263.4" cy="-51" rx="1.8" ry="1.8"/>
<text text-anchor="middle" x="250.1" y="-42.8" font-family="Courier,monospace" font-size="8.00">e2[2]</text>
</g>
<!-- (7, 0) -->
<g id="node8" class="node">
<title>(7, 0)</title>
<ellipse fill="blue" stroke="blue" cx="263.4" cy="-66" rx="1.8" ry="1.8"/>
<text text-anchor="middle" x="250.1" y="-57.8" font-family="Courier,monospace" font-size="8.00">e3[3]</text>
</g>
<!-- (9, 0) -->
<g id="node11" class="node">
<title>(9, 0)</title>
<ellipse fill="black" stroke="black" cx="101" cy="-36" rx="1.8" ry="1.8"/>
<text text-anchor="middle" x="96.2" y="-27.8" font-family="Helvetica,sans-Serif" font-size="8.00">0</text>
</g>
<!-- (8, 0)&#45;&gt;(9, 0) -->
<g id="edge6" class="edge">
<title>(8, 0)&#45;&gt;(9, 0)</title>
<path fill="none" stroke="blue" d="M60.4,-47.7C65.54,-46.19 88.95,-39.27 97.15,-36.84"/>
<polygon fill="blue" stroke="blue" points="99.17,-36.25 97.57,-37.89 98.21,-36.53 97.25,-36.81 97.25,-36.81 97.25,-36.81 98.21,-36.53 96.93,-35.73 99.17,-36.25 99.17,-36.25"/>
</g>
<!-- (10, 0) -->
<g id="node13" class="node">
<title>(10, 0)</title>
<ellipse fill="black" stroke="black" cx="143.6" cy="-66" rx="1.8" ry="1.8"/>
<text text-anchor="middle" x="138.8" y="-57.8" font-family="Helvetica,sans-Serif" font-size="8.00">0</text>
</g>
<!-- (8, 1)&#45;&gt;(10, 0) -->
<g id="edge5" class="edge">
<title>(8, 1)&#45;&gt;(10, 0)</title>
<path fill="none" stroke="blue" d="M60.33,-63.03C68.37,-63.32 125.83,-65.4 139.63,-65.89"/>
<polygon fill="blue" stroke="blue" points="141.78,-65.97 139.74,-67.02 140.78,-65.93 139.78,-65.9 139.78,-65.9 139.78,-65.9 140.78,-65.93 139.82,-64.77 141.78,-65.97 141.78,-65.97"/>
</g>
<!-- (12, 0) -->
<g id="node17" class="node">
<title>(12, 0)</title>
<ellipse fill="black" stroke="black" cx="228.8" cy="-15" rx="1.8" ry="1.8"/>
<text text-anchor="middle" x="224" y="-6.8" font-family="Helvetica,sans-Serif" font-size="8.00">0</text>
</g>
<!-- (9, 0)&#45;&gt;(12, 0) -->
<g id="edge7" class="edge">
<title>(9, 0)&#45;&gt;(12, 0)</title>
<path fill="none" stroke="blue" d="M102.8,-35.87C112.38,-34.27 204.64,-18.87 224.18,-15.6"/>
<polygon fill="blue" stroke="blue" points="226.51,-15.21 224.73,-16.65 225.53,-15.38 224.54,-15.54 224.54,-15.54 224.54,-15.54 225.53,-15.38 224.36,-14.43 226.51,-15.21 226.51,-15.21"/>
</g>
<!-- (10, 1) -->
<g id="node14" class="node">
<title>(10, 1)</title>
<ellipse fill="black" stroke="black" cx="143.6" cy="-51" rx="1.8" ry="1.8"/>
<text text-anchor="middle" x="138.8" y="-42.8" font-family="Helvetica,sans-Serif" font-size="8.00">1</text>
</g>
<!-- (9, 1)&#45;&gt;(10, 1) -->
<g id="edge8" class="edge">
<title>(9, 1)&#45;&gt;(10, 1)</title>
<path fill="none" stroke="blue" d="M102.84,-21.38C105.15,-22.43 111.79,-25.57 116.8,-29 125.98,-35.29 135.67,-44.28 140.11,-48.56"/>
<polygon fill="blue" stroke="blue" points="141.68,-50.08 139.46,-49.5 140.96,-49.39 140.24,-48.69 140.24,-48.69 140.24,-48.69 140.96,-49.39 141.03,-47.88 141.68,-50.08 141.68,-50.08"/>
</g>
<!-- (10, 0)&#45;&gt;(5, 0) -->
<g id="edge10" class="edge">
<title>(10, 0)&#45;&gt;(5, 0)</title>
<path fill="none" stroke="blue" d="M145.6,-66C153.32,-65.97 204.34,-65.47 244.6,-57 249.99,-55.86 256.02,-53.61 259.5,-52.21"/>
<polygon fill="blue" stroke="blue" points="261.46,-51.41 260.04,-53.21 260.53,-51.79 259.61,-52.17 259.61,-52.17 259.61,-52.17 260.53,-51.79 259.18,-51.13 261.46,-51.41 261.46,-51.41"/>
</g>
<!-- (11, 1) -->
<g id="node16" class="node">
<title>(11, 1)</title>
<ellipse fill="black" stroke="black" cx="186.2" cy="-87" rx="1.8" ry="1.8"/>
<text text-anchor="middle" x="181.4" y="-78.8" font-family="Helvetica,sans-Serif" font-size="8.00">1</text>
</g>
<!-- (10, 1)&#45;&gt;(11, 1) -->
<g id="edge9" class="edge">
<title>(10, 1)&#45;&gt;(11, 1)</title>
<path fill="none" stroke="blue" d="M145.46,-51.34C147.83,-52.32 154.6,-55.27 159.4,-59 169.44,-66.81 178.96,-78.69 183.07,-84.12"/>
<polygon fill="blue" stroke="blue" points="184.33,-85.8 182.23,-84.88 183.73,-85 183.14,-84.2 183.14,-84.2 183.14,-84.2 183.73,-85 184.04,-83.53 184.33,-85.8 184.33,-85.8"/>
</g>
<!-- (12, 1) -->
<g id="node18" class="node">
<title>(12, 1)</title>
<ellipse fill="black" stroke="black" cx="228.8" cy="-30" rx="1.8" ry="1.8"/>
<text text-anchor="middle" x="224" y="-21.8" font-family="Helvetica,sans-Serif" font-size="8.00">1</text>
</g>
<!-- (11, 0)&#45;&gt;(12, 1) -->
<g id="edge12" class="edge">
<title>(11, 0)&#45;&gt;(12, 1)</title>
<path fill="none" stroke="blue" d="M188.14,-101.74C190.71,-100.98 197.95,-98.53 202,-94 218.78,-75.22 225.4,-44.14 227.23,-33.61"/>
<polygon fill="blue" stroke="blue" points="227.59,-31.4 228.38,-33.56 227.43,-32.39 227.27,-33.37 227.27,-33.37 227.27,-33.37 227.43,-32.39 226.16,-33.19 227.59,-31.4 227.59,-31.4"/>
</g>
<!-- (11, 1)&#45;&gt;(7, 0) -->
<g id="edge11" class="edge">
<title>(11, 1)&#45;&gt;(7, 0)</title>
<path fill="none" stroke="blue" d="M188.03,-86.91C193.28,-86.32 222.31,-82.81 244.6,-75 250.12,-73.06 256.11,-69.76 259.54,-67.74"/>
<polygon fill="blue" stroke="blue" points="261.47,-66.58 260.34,-68.57 260.62,-67.09 259.76,-67.61 259.76,-67.61 259.76,-67.61 260.62,-67.09 259.18,-66.65 261.47,-66.58 261.47,-66.58"/>
</g>
<!-- (12, 0)&#45;&gt;(1, 0) -->
<g id="edge14" class="edge">
<title>(12, 0)&#45;&gt;(1, 0)</title>
<path fill="none" stroke="blue" d="M230.61,-15.15C234.52,-15.87 251.64,-19.02 259.01,-20.38"/>
<polygon fill="blue" stroke="blue" points="261.24,-20.79 259.07,-21.53 260.26,-20.61 259.27,-20.42 259.27,-20.42 259.27,-20.42 260.26,-20.61 259.48,-19.32 261.24,-20.79 261.24,-20.79"/>
</g>
<!-- (12, 1)&#45;&gt;(3, 0) -->
<g id="edge13" class="edge">
<title>(12, 1)&#45;&gt;(3, 0)</title>
<path fill="none" stroke="blue" d="M230.61,-30.15C234.52,-30.87 251.64,-34.02 259.01,-35.38"/>
<polygon fill="blue" stroke="blue" points="261.24,-35.79 259.07,-36.53 260.26,-35.61 259.27,-35.42 259.27,-35.42 259.27,-35.42 260.26,-35.61 259.48,-34.32 261.24,-35.79 261.24,-35.79"/>
</g>
</g>
</svg>