<?xml version="1.0" encoding="UTF-8" standalone="no"?>
<!DOCTYPE svg PUBLIC "-//W3C//DTD SVG 1.1//EN"
 "http://www.w3.org/Graphics/SVG/1.1/DTD/svg11.dtd">
<!-- Generated by graphviz version 2.43.0 (0)
 -->
<!-- Title: Circuit Pages: 1 -->
<svg width="430pt" height="143pt"
 viewBox="0.00 0.00 430.00 143.00" xmlns="http://www.w3.org/2000/svg" xmlns:xlink="http://www.w3.org/1999/xlink">
<g id="graph0" class="graph" transform="scale(1 1) rotate(0) translate(4 139)">
<title>Circuit</title>
<polygon fill="white" stroke="transparent" points="-4,4 -4,-139 426,-139 426,4 -4,4"/>
<g id="clust1" class="cluster">
<title>cluster_q_inputs</title>
<path fill="lightgrey" stroke="lightgrey" d="M22.53,-37C22.53,-37 27.07,-37 27.07,-37 29.33,-37 31.6,-39.27 31.6,-41.53 31.6,-41.53 31.6,-91.47 31.6,-91.47 31.6,-93.73 29.33,-96 27.07,-96 27.07,-96 22.53,-96 22.53,-96 20.27,-96 18,-93.73 18,-91.47 18,-91.47 18,-41.53 18,-41.53 18,-39.27 20.27,-37 22.53,-37"/>
</g>
<g id="clust4" class="cluster">
<title>cluster_q_outputs</title>
<path fill="lightgrey" stroke="lightgrey" d="M404.93,-47C404.93,-47 409.47,-47 409.47,-47 411.73,-47 414,-49.27 414,-51.53 414,-51.53 414,-101.47 414,-101.47 414,-103.73 411.73,-106 409.47,-106 409.47,-106 404.93,-106 404.93,-106 402.67,-106 400.4,-103.73 400.4,-101.47 400.4,-101.47 400.4,-51.53 400.4,-51.53 400.4,-49.27 402.67,-47 404.93,-47"/>
</g>
<g id="clust7" class="cluster">
<title>cluster_8</title>
<path fill="lightblue" stroke="lightblue" d="M53.8,-26C53.8,-26 64,-26 64,-26 69.1,-26 74.2,-31.1 74.2,-36.2 74.2,-36.2 74.2,-63.8 74.2,-63.8 74.2,-68.9 69.1,-74 64,-74 64,-74 53.8,-74 53.8,-74 48.7,-74 43.6,-68.9 43.6,-63.8 43.6,-63.8 43.6,-36.2 43.6,-36.2 43.6,-31.1 48.7,-26 53.8,-26"/>
<text text-anchor="middle" x="58.9" y="-62" font-family="Times,serif" font-size="10.00">CX</text>
</g>
<g id="clust8" class="cluster">
<title>cluster_9</title>
<path fill="lightblue" stroke="lightblue" d="M96.4,-48C96.4,-48 106.6,-48 106.6,-48 111.7,-48 116.8,-53.1 116.8,-58.2 116.8,-58.2 116.8,-85.8 116.8,-85.8 116.8,-90.9 111.7,-96 106.6,-96 106.6,-96 96.4,-96 96.4,-96 91.3,-96 86.2,-90.9 86.2,-85.8 86.2,-85.8 86.2,-58.2 86.2,-58.2 86.2,-53.1 91.3,-48 96.4,-48"/>
<text text-anchor="middle" x="101.5" y="-84" font-family="Times,serif" font-size="10.00">CX</text>
</g>
<g id="clust9" class="cluster">
<title>cluster_10</title>
<path fill="lightblue" stroke="lightblue" d="M140.8,-26C140.8,-26 163.4,-26 163.4,-26 169.4,-26 175.4,-32 175.4,-38 175.4,-38 175.4,-62 175.4,-62 175.4,-68 169.4,-74 163.4,-74 163.4,-74 140.8,-74 140.8,-74 134.8,-74 128.8,-68 128.8,-62 128.8,-62 128.8,-38 128.8,-38 128.8,-32 134.8,-26 140.8,-26"/>
<text text-anchor="middle" x="152.1" y="-62" font-family="Times,serif" font-size="10.00">SWAP</text>
</g>
<g id="clust10" class="cluster">
<title>cluster_11</title>
<path fill="lightblue" stroke="lightblue" d="M197.6,-51C197.6,-51 207.8,-51 207.8,-51 212.9,-51 218,-56.1 218,-61.2 218,-61.2 218,-88.8 218,-88.8 218,-93.9 212.9,-99 207.8,-99 207.8,-99 197.6,-99 197.6,-99 192.5,-99 187.4,-93.9 187.4,-88.8 187.4,-88.8 187.4,-61.2 187.4,-61.2 187.4,-56.1 192.5,-51 197.6,-51"/>
<text text-anchor="middle" x="202.7" y="-87" font-family="Times,serif" font-size="10.00">CX</text>
</g>
<g id="clust11" class="cluster">
<title>cluster_12</title>
<path fill="lightblue" stroke="lightblue" d="M240.2,-78C240.2,-78 250.4,-78 250.4,-78 255.5,-78 260.6,-83.1 260.6,-88.2 260.6,-88.2 260.6,-115.8 260.6,-115.8 260.6,-120.9 255.5,-126 250.4,-126 250.4,-126 240.2,-126 240.2,-126 235.1,-126 230,-120.9 230,-115.8 230,-115.8 230,-88.2 230,-88.2 230,-83.1 235.1,-78 240.2,-78"/>
<text text-anchor="middle" x="245.3" y="-114" font-family="Times,serif" font-size="10.00">CX</text>
</g>
<g id="clust12" class="cluster">
<title>cluster_13</title>
<path fill="lightblue" stroke="lightblue" d="M282.8,-42C282.8,-42 293,-42 293,-42 298.1,-42 303.2,-47.1 303.2,-52.2 303.2,-52.2 303.2,-79.8 303.2,-79.8 303.2,-84.9 298.1,-90 293,-90 293,-90 282.8,-90 282.8,-90 277.7,-90 272.6,-84.9 272.6,-79.8 272.6,-79.8 272.6,-52.2 272.6,-52.2 272.6,-47.1 277.7,-42 282.8,-42"/>
<text text-anchor="middle" x="287.9" y="-78" font-family="Times,serif" font-size="10.00">CX</text>
</g>
<g id="clust13" class="cluster">
<title>cluster_14</title>
<path fill="lightblue" stroke="lightblue" d="M325.4,-8C325.4,-8 335.6,-8 335.6,-8 340.7,-8 345.8,-13.1 345.8,-18.2 345.8,-18.2 345.8,-45.8 345.8,-45.8 345.8,-50.9 340.7,-56 335.6,-56 335.6,-56 325.4,-56 325.4,-56 320.3,-56 315.2,-50.9 315.2,-45.8 315.2,-45.8 315.2,-18.2 315.2,-18.2 315.2,-13.1 320.3,-8 325.4,-8"/>
<text text-anchor="middle" x="330.5" y="-44" font-family="Times,serif" font-size="10.00">CX</text>
</g>
<g id="clust14" class="cluster">
<title>cluster_15</title>
<path fill="lightblue" stroke="lightblue" d="M368,-79C368,-79 378.2,-79 378.2,-79 383.3,-79 388.4,-84.1 388.4,-89.2 388.4,-89.2 388.4,-116.8 388.4,-116.8 388.4,-121.9 383.3,-127 378.2,-127 378.2,-127 368,-127 368,-127 362.9,-127 357.8,-121.9 357.8,-116.8 357.8,-116.8 357.8,-89.2 357.8,-89.2 357.8,-84.1 362.9,-79 368,-79"/>
<text text-anchor="middle" x="373.1" y="-115" font-family="Times,serif" font-size="10.00">CX</text>
</g>
<!-- (0, 0) -->
<g id="node1" class="node">
<title>(0, 0)</title>
<ellipse fill="blue" stroke="blue" cx="24.8" cy="-44" rx="1.8" ry="1.8"/>
<text text-anchor="middle" x="11.5" y="-35.8" font-family="Courier,monospace" font-size="8.00">e0[0]</text>
</g>
<!-- (8, 0) -->
<g id="node9" class="node">
<title>(8, 0)</title>
<ellipse fill="black" stroke="black" cx="58.4" cy="-33" rx="1.8" ry="1.8"/>
<text text-anchor="middle" x="53.6" y="-24.8" font-family="Helvetica,sans-Serif" font-size="8.00">0</text>
</g>
<!-- (0, 0)&#45;&gt;(8, 0) -->
<g id="edge1" class="edge">
<title>(0, 0)&#45;&gt;(8, 0)</title>
<path fill="none" stroke="blue" d="M26.58,-43.73C30.37,-42.41 46.97,-36.63 54.11,-34.14"/>
<polygon fill="blue" stroke="blue" points="56.28,-33.39 54.76,-35.11 55.33,-33.72 54.39,-34.05 54.39,-34.05 54.39,-34.05 55.33,-33.72 54.02,-32.99 56.28,-33.39 56.28,-33.39"/>
</g>
<!-- (2, 0) -->
<g id="node2" class="node">
<title>(2, 0)</title>
<ellipse fill="blue" stroke="blue" cx="24.8" cy="-59" rx="1.8" ry="1.8"/>
<text text-anchor="middle" x="11.5" y="-50.8" font-family="Courier,monospace" font-size="8.00">e1[1]</text>
</g>
<!-- (8, 1) -->
<g id="node10" class="node">
<title>(8, 1)</title>
<ellipse fill="black" stroke="black" cx="58.4" cy="-48" rx="1.8" ry="1.8"/>
<text text-anchor="middle" x="53.6" y="-39.8" font-family="Helvetica,sans-Serif" font-size="8.00">1</text>
</g>
<!-- (2, 0)&#45;&gt;(8, 1) -->
<g id="edge2" class="edge">
<title>(2, 0)&#45;&gt;(8, 1)</title>
<path fill="none" stroke="blue" d="M26.58,-58.73C30.37,-57.41 46.97,-51.63 54.11,-49.14"/>
<polygon fill="blue" stroke="blue" points="56.28,-48.39 54.76,-50.11 55.33,-48.72 54.39,-49.05 54.39,-49.05 54.39,-49.05 55.33,-48.72 54.02,-47.99 56.28,-48.39 56.28,-48.39"/>
</g>
<!-- (4, 0) -->
<g id="node3" class="node">
<title>(4, 0)</title>
<ellipse fill="blue" stroke="blue" cx="24.8" cy="-74" rx="1.8" ry="1.8"/>
<text text-anchor="middle" x="11.5" y="-65.8" font-family="Courier,monospace" font-size="8.00">e2[2]</text>
</g>
<!-- (9, 1) -->
<g id="node12" class="node">
<title>(9, 1)</title>
<ellipse fill="black" stroke="black" cx="101" cy="-70" rx="1.8" ry="1.8"/>
<text text-anchor="middle" x="96.2" y="-61.8" font-family="Helvetica,sans-Serif" font-size="8.00">1</text>
</g>
<!-- (4, 0)&#45;&gt;(9, 1) -->
<g id="edge3" class="edge">
<title>(4, 0)&#45;&gt;(9, 1)</title>
<path fill="none" stroke="blue" d="M26.76,-74.07C29.44,-74.27 37.16,-74.82 43.6,-75 57.19,-75.38 60.66,-76.3 74.2,-75 82.48,-74.21 92.05,-72.01 96.87,-70.81"/>
<polygon fill="blue" stroke="blue" points="99.03,-70.26 97.37,-71.84 98.06,-70.51 97.09,-70.75 97.09,-70.75 97.09,-70.75 98.06,-70.51 96.81,-69.66 99.03,-70.26 99.03,-70.26"/>
</g>
<!-- (6, 0) -->
<g id="node4" class="node">
<title>(6, 0)</title>
<ellipse fill="blue" stroke="blue" cx="24.8" cy="-89" rx="1.8" ry="1.8"/>
<text text-anchor="middle" x="11.5" y="-80.8" font-family="Courier,monospace" font-size="8.00">e3[3]</text>
</g>
<!-- (12, 1) -->
<g id="node18" class="node">
<title>(12, 1)</title>
<ellipse fill="black" stroke="black" cx="244.8" cy="-85" rx="1.8" ry="1.8"/>
<text text-anchor="middle" x="240" y="-76.8" font-family="Helvetica,sans-Serif" font-size="8.00">1</text>
</g>
<!-- (6, 0)&#45;&gt;(12, 1) -->
<g id="edge4" class="edge">
<title>(6, 0)&#45;&gt;(12, 1)</title>
<path fill="none" stroke="blue" d="M26.82,-89.52C33.24,-92.75 68.94,-110 100,-110 100,-110 100,-110 152.6,-110 182,-110 190.28,-109.8 218,-100 223.82,-97.94 224.66,-96.1 230,-93 233.89,-90.74 238.4,-88.12 241.18,-86.52"/>
<polygon fill="blue" stroke="blue" points="243.05,-85.43 241.88,-87.41 242.19,-85.93 241.32,-86.43 241.32,-86.43 241.32,-86.43 242.19,-85.93 240.76,-85.46 243.05,-85.43 243.05,-85.43"/>
</g>
<!-- (1, 0) -->
<g id="node5" class="node">
<title>(1, 0)</title>
<ellipse fill="blue" stroke="blue" cx="407.2" cy="-84" rx="1.8" ry="1.8"/>
<text text-anchor="middle" x="393.9" y="-75.8" font-family="Courier,monospace" font-size="8.00">e0[0]</text>
</g>
<!-- (3, 0) -->
<g id="node6" class="node">
<title>(3, 0)</title>
<ellipse fill="blue" stroke="blue" cx="407.2" cy="-99" rx="1.8" ry="1.8"/>
<text text-anchor="middle" x="393.9" y="-90.8" font-family="Courier,monospace" font-size="8.00">e1[1]</text>
</g>
<!-- (5, 0) -->
<g id="node7" class="node">
<title>(5, 0)</title>
<ellipse fill="blue" stroke="blue" cx="407.2" cy="-69" rx="1.8" ry="1.8"/>
<text text-anchor="middle" x="393.9" y="-60.8" font-family="Courier,monospace" font-size="8.00">e2[2]</text>
</g>
<!-- (7, 0) -->
<g id="node8" class="node">
<title>(7, 0)</title>
<ellipse fill="blue" stroke="blue" cx="407.2" cy="-54" rx="1.8" ry="1.8"/>
<text text-anchor="middle" x="393.9" y="-45.8" font-family="Courier,monospace" font-size="8.00">e3[3]</text>
</g>
<!-- (10, 0) -->
<g id="node13" class="node">
<title>(10, 0)</title>
<ellipse fill="black" stroke="black" cx="151.6" cy="-33" rx="1.8" ry="1.8"/>
<text text-anchor="middle" x="146.8" y="-24.8" font-family="Helvetica,sans-Serif" font-size="8.00">0</text>
</g>
<!-- (8, 0)&#45;&gt;(10, 0) -->
<g id="edge6" class="edge">
<title>(8, 0)&#45;&gt;(10, 0)</title>
<path fill="none" stroke="blue" d="M60.42,-33C69.23,-33 132.22,-33 147.34,-33"/>
<polygon fill="blue" stroke="blue" points="149.7,-33 147.7,-34.13 148.7,-33 147.7,-33 147.7,-33 147.7,-33 148.7,-33 147.7,-31.88 149.7,-33 149.7,-33"/>
</g>
<!-- (9, 0) -->
<g id="node11" class="node">
<title>(9, 0)</title>
<ellipse fill="black" stroke="black" cx="101" cy="-55" rx="1.8" ry="1.8"/>
<text text-anchor="middle" x="96.2" y="-46.8" font-family="Helvetica,sans-Serif" font-size="8.00">0</text>
</g>
<!-- (8, 1)&#45;&gt;(9, 0) -->
<g id="edge5" class="edge">
<title>(8, 1)&#45;&gt;(9, 0)</title>
<path fill="none" stroke="blue" d="M60.4,-48.17C65.54,-49.06 88.95,-53.09 97.15,-54.51"/>
<polygon fill="blue" stroke="blue" points="99.17,-54.86 97.01,-55.63 98.19,-54.69 97.2,-54.52 97.2,-54.52 97.2,-54.52 98.19,-54.69 97.39,-53.41 99.17,-54.86 99.17,-54.86"/>
</g>
<!-- (10, 1) -->
<g id="node14" class="node">
<title>(10, 1)</title>
<ellipse fill="black" stroke="black" cx="151.6" cy="-48" rx="1.8" ry="1.8"/>
<text text-anchor="middle" x="146.8" y="-39.8" font-family="Helvetica,sans-Serif" font-size="8.00">1</text>
</g>
<!-- (9, 0)&#45;&gt;(10, 1) -->
<g id="edge8" class="edge">
<title>(9, 0)&#45;&gt;(10, 1)</title>
<path fill="none" stroke="blue" d="M102.84,-54.88C108.24,-54.1 137.95,-49.82 147.58,-48.43"/>
<polygon fill="blue" stroke="blue" points="149.57,-48.15 147.75,-49.55 148.58,-48.29 147.59,-48.43 147.59,-48.43 147.59,-48.43 148.58,-48.29 147.43,-47.32 149.57,-48.15 149.57,-48.15"/>
</g>
<!-- (11, 1) -->
<g id="node16" class="node">
<title>(11, 1)</title>
<ellipse fill="black" stroke="black" cx="202.2" cy="-58" rx="1.8" ry="1.8"/>
<text text-anchor="middle" x="197.4" y="-49.8" font-family="Helvetica,sans-Serif" font-size="8.00">1</text>
</g>
<!-- (9, 1)&#45;&gt;(11, 1) -->
<g id="edge7" class="edge">
<title>(9, 1)&#45;&gt;(11, 1)</title>
<path fill="none" stroke="blue" d="M103.07,-70.37C109.85,-72.65 147.29,-84.37 175.4,-75 181.72,-72.89 181.84,-69.68 187.4,-66 191.15,-63.52 195.7,-60.96 198.52,-59.43"/>
<polygon fill="blue" stroke="blue" points="200.43,-58.4 199.2,-60.34 199.55,-58.88 198.67,-59.35 198.67,-59.35 198.67,-59.35 199.55,-58.88 198.14,-58.36 200.43,-58.4 200.43,-58.4"/>
</g>
<!-- (14, 0) -->
<g id="node21" class="node">
<title>(14, 0)</title>
<ellipse fill="black" stroke="black" cx="330" cy="-30" rx="1.8" ry="1.8"/>
<text text-anchor="middle" x="325.2" y="-21.8" font-family="Helvetica,sans-Serif" font-size="8.00">0</text>
</g>
<!-- (10, 0)&#45;&gt;(14, 0) -->
<g id="edge9" class="edge">
<title>(10, 0)&#45;&gt;(14, 0)</title>
<path fill="none" stroke="blue" d="M153.73,-32.98C167.49,-32.75 303.07,-30.44 325.78,-30.05"/>
<polygon fill="blue" stroke="blue" points="327.98,-30.02 325.99,-31.18 326.98,-30.03 325.98,-30.05 325.98,-30.05 325.98,-30.05 326.98,-30.03 325.96,-28.93 327.98,-30.02 327.98,-30.02"/>
</g>
<!-- (11, 0) -->
<g id="node15" class="node">
<title>(11, 0)</title>
<ellipse fill="black" stroke="black" cx="202.2" cy="-73" rx="1.8" ry="1.8"/>
<text text-anchor="middle" x="197.4" y="-64.8" font-family="Helvetica,sans-Serif" font-size="8.00">0</text>
</g>
<!-- (10, 1)&#45;&gt;(11, 0) -->
<g id="edge10" class="edge">
<title>(10, 1)&#45;&gt;(11, 0)</title>
<path fill="none" stroke="blue" d="M153.44,-48.43C158.84,-51.21 188.55,-66.49 198.18,-71.45"/>
<polygon fill="blue" stroke="blue" points="200.17,-72.47 197.88,-72.56 199.28,-72.01 198.4,-71.56 198.4,-71.56 198.4,-71.56 199.28,-72.01 198.91,-70.56 200.17,-72.47 200.17,-72.47"/>
</g>
<!-- (12, 0) -->
<g id="node17" class="node">
<title>(12, 0)</title>
<ellipse fill="black" stroke="black" cx="244.8" cy="-100" rx="1.8" ry="1.8"/>
<text text-anchor="middle" x="240" y="-91.8" font-family="Helvetica,sans-Serif" font-size="8.00">0</text>
</g>
<!-- (11, 0)&#45;&gt;(12, 0) -->
<g id="edge12" class="edge">
<title>(11, 0)&#45;&gt;(12, 0)</title>
<path fill="none" stroke="blue" d="M204.2,-73.76C207.68,-76.39 219.64,-85.34 230,-92 233.79,-94.43 238.33,-97 241.14,-98.55"/>
<polygon fill="blue" stroke="blue" points="243.04,-99.59 240.74,-99.62 242.16,-99.11 241.28,-98.63 241.28,-98.63 241.28,-98.63 242.16,-99.11 241.82,-97.64 243.04,-99.59 243.04,-99.59"/>
</g>
<!-- (13, 0) -->
<g id="node19" class="node">
<title>(13, 0)</title>
<ellipse fill="black" stroke="black" cx="287.4" cy="-64" rx="1.8" ry="1.8"/>
<text text-anchor="middle" x="282.6" y="-55.8" font-family="Helvetica,sans-Serif" font-size="8.00">0</text>
</g>
<!-- (11, 1)&#45;&gt;(13, 0) -->
<g id="edge11" class="edge">
<title>(11, 1)&#45;&gt;(13, 0)</title>
<path fill="none" stroke="blue" d="M204.13,-58.07C212.17,-58.65 269.63,-62.79 283.43,-63.79"/>
<polygon fill="blue" stroke="blue" points="285.58,-63.94 283.5,-64.92 284.58,-63.87 283.58,-63.8 283.58,-63.8 283.58,-63.8 284.58,-63.87 283.66,-62.67 285.58,-63.94 285.58,-63.94"/>
</g>
<!-- (15, 0) -->
<g id="node23" class="node">
<title>(15, 0)</title>
<ellipse fill="black" stroke="black" cx="372.6" cy="-101" rx="1.8" ry="1.8"/>
<text text-anchor="middle" x="367.8" y="-92.8" font-family="Helvetica,sans-Serif" font-size="8.00">0</text>
</g>
<!-- (12, 0)&#45;&gt;(15, 0) -->
<g id="edge14" class="edge">
<title>(12, 0)&#45;&gt;(15, 0)</title>
<path fill="none" stroke="blue" d="M246.6,-100.01C256.18,-100.08 348.44,-100.82 367.98,-100.97"/>
<polygon fill="blue" stroke="blue" points="370.31,-100.99 368.31,-102.1 369.31,-100.98 368.31,-100.97 368.31,-100.97 368.31,-100.97 369.31,-100.98 368.32,-99.85 370.31,-100.99 370.31,-100.99"/>
</g>
<!-- (13, 1) -->
<g id="node20" class="node">
<title>(13, 1)</title>
<ellipse fill="black" stroke="black" cx="287.4" cy="-49" rx="1.8" ry="1.8"/>
<text text-anchor="middle" x="282.6" y="-40.8" font-family="Helvetica,sans-Serif" font-size="8.00">1</text>
</g>
<!-- (12, 1)&#45;&gt;(13, 1) -->
<g id="edge13" class="edge">
<title>(12, 1)&#45;&gt;(13, 1)</title>
<path fill="none" stroke="blue" d="M246.72,-83.82C249.95,-79.74 261.17,-65.98 272.6,-57 276.14,-54.22 280.74,-51.74 283.64,-50.31"/>
<polygon fill="blue" stroke="blue" points="285.6,-49.36 284.29,-51.24 284.7,-49.8 283.8,-50.23 283.8,-50.23 283.8,-50.23 284.7,-49.8 283.31,-49.22 285.6,-49.36 285.6,-49.36"/>
</g>
<!-- (13, 0)&#45;&gt;(5, 0) -->
<g id="edge16" class="edge">
<title>(13, 0)&#45;&gt;(5, 0)</title>
<path fill="none" stroke="blue" d="M289.72,-64.06C301.29,-64.55 385.18,-68.11 402.91,-68.86"/>
<polygon fill="blue" stroke="blue" points="405.03,-68.95 402.99,-69.99 404.03,-68.91 403.04,-68.87 403.04,-68.87 403.04,-68.87 404.03,-68.91 403.08,-67.74 405.03,-68.95 405.03,-68.95"/>
</g>
<!-- (14, 1) -->
<g id="node22" class="node">
<title>(14, 1)</title>
<ellipse fill="black" stroke="black" cx="330" cy="-15" rx="1.8" ry="1.8"/>
<text text-anchor="middle" x="325.2" y="-6.8" font-family="Helvetica,sans-Serif" font-size="8.00">1</text>
</g>
<!-- (13, 1)&#45;&gt;(14, 1) -->
<g id="edge15" class="edge">
<title>(13, 1)&#45;&gt;(14, 1)</title>
<path fill="none" stroke="blue" d="M289.34,-47.91C292.63,-44.15 304.03,-31.45 315.2,-23 318.79,-20.28 323.38,-17.79 326.26,-16.34"/>
<polygon fill="blue" stroke="blue" points="328.21,-15.37 326.92,-17.27 327.31,-15.81 326.42,-16.26 326.42,-16.26 326.42,-16.26 327.31,-15.81 325.92,-15.25 328.21,-15.37 328.21,-15.37"/>
</g>
<!-- (15, 1) -->
<g id="node24" class="node">
<title>(15, 1)</title>
<ellipse fill="black" stroke="black" cx="372.6" cy="-86" rx="1.8" ry="1.8"/>
<text text-anchor="middle" x="367.8" y="-77.8" font-family="Helvetica,sans-Serif" font-size="8.00">1</text>
</g>
<!-- (14, 0)&#45;&gt;(15, 1) -->
<g id="edge17" class="edge">
<title>(14, 0)&#45;&gt;(15, 1)</title>
<path fill="none" stroke="blue" d="M331.7,-30.97C336.33,-37.35 362.33,-73.21 369.67,-83.34"/>
<polygon fill="blue" stroke="blue" points="371,-85.17 368.91,-84.21 370.41,-84.36 369.82,-83.55 369.82,-83.55 369.82,-83.55 370.41,-84.36 370.74,-82.89 371,-85.17 371,-85.17"/>
</g>
<!-- (14, 1)&#45;&gt;(7, 0) -->
<g id="edge18" class="edge">
<title>(14, 1)&#45;&gt;(7, 0)</title>
<path fill="none" stroke="blue" d="M331.84,-15.44C339.04,-19.17 390.16,-45.68 403.19,-52.44"/>
<polygon fill="blue" stroke="blue" points="405.05,-53.4 402.76,-53.48 404.16,-52.94 403.27,-52.48 403.27,-52.48 403.27,-52.48 404.16,-52.94 403.79,-51.48 405.05,-53.4 405.05,-53.4"/>
</g>
<!-- (15, 0)&#45;&gt;(3, 0) -->
<g id="edge20" class="edge">
<title>(15, 0)&#45;&gt;(3, 0)</title>
<path fill="none" stroke="blue" d="M374.41,-100.95C378.32,-100.71 395.44,-99.66 402.81,-99.21"/>
<polygon fill="blue" stroke="blue" points="405.04,-99.07 403.11,-100.32 404.04,-99.13 403.04,-99.19 403.04,-99.19 403.04,-99.19 404.04,-99.13 402.97,-98.07 405.04,-99.07 405.04,-99.07"/>
</g>
<!-- (15, 1)&#45;&gt;(1, 0) -->
<g id="edge19" class="edge">
<title>(15, 1)&#45;&gt;(1, 0)</title>
<path fill="none" stroke="blue" d="M374.41,-85.95C378.32,-85.71 395.44,-84.66 402.81,-84.21"/>
<polygon fill="blue" stroke="blue" points="405.04,-84.07 403.11,-85.32 404.04,-84.13 403.04,-84.19 403.04,-84.19 403.04,-84.19 404.04,-84.13 402.97,-83.07 405.04,-84.07 405.04,-84.07"/>
</g>
</g>
</svg>