<?xml version="1.0" encoding="UTF-8" standalone="no"?>
<!DOCTYPE svg PUBLIC "-//W3C//DTD SVG 1.1//EN"
 "http://www.w3.org/Graphics/SVG/1.1/DTD/svg11.dtd">
<!-- Generated by graphviz version 2.43.0 (0)
 -->
<!-- Title: Circuit Pages: 1 -->
<svg width="244pt" height="143pt"
 viewBox="0.00 0.00 243.60 143.00" xmlns="http://www.w3.org/2000/svg" xmlns:xlink="http://www.w3.org/1999/xlink">
<g id="graph0" class="graph" transform="scale(1 1) rotate(0) translate(4 139)">
<title>Circuit</title>
<polygon fill="white" stroke="transparent" points="-4,4 -4,-139 239.6,-139 239.6,4 -4,4"/>
<g id="clust1" class="cluster">
<title>cluster_q_inputs</title>
<path fill="lightgrey" stroke="lightgrey" d="M22.53,-19C22.53,-19 27.07,-19 27.07,-19 29.33,-19 31.6,-21.27 31.6,-23.53 31.6,-23.53 31.6,-73.47 31.6,-73.47 31.6,-75.73 29.33,-78 27.07,-78 27.07,-78 22.53,-78 22.53,-78 20.27,-78 18,-75.73 18,-73.47 18,-73.47 18,-23.53 18,-23.53 18,-21.27 20.27,-19 22.53,-19"/>
</g>
<g id="clust4" class="cluster">
<title>cluster_q_outputs</title>
<path fill="lightgrey" stroke="lightgrey" d="M218.53,-32C218.53,-32 223.07,-32 223.07,-32 225.33,-32 227.6,-34.27 227.6,-36.53 227.6,-36.53 227.6,-86.47 227.6,-86.47 227.6,-88.73 225.33,-91 223.07,-91 223.07,-91 218.53,-91 218.53,-91 216.27,-91 214,-88.73 214,-86.47 214,-86.47 214,-36.53 214,-36.53 214,-34.27 216.27,-32 218.53,-32"/>
</g>
<g id="clust7" class="cluster">
<title>cluster_8</title>
<path fill="lightblue" stroke="lightblue" d="M53.8,-8C53.8,-8 64,-8 64,-8 69.1,-8 74.2,-13.1 74.2,-18.2 74.2,-18.2 74.2,-45.8 74.2,-45.8 74.2,-50.9 69.1,-56 64,-56 64,-56 53.8,-56 53.8,-56 48.7,-56 43.6,-50.9 43.6,-45.8 43.6,-45.8 43.6,-18.2 43.6,-18.2 43.6,-13.1 48.7,-8 53.8,-8"/>
<text text-anchor="middle" x="58.9" y="-44" font-family="Times,serif" font-size="10.00">CX</text>
</g>
<g id="clust8" class="cluster">
<title>cluster_9</title>
<path fill="lightblue" stroke="lightblue" d="M96.4,-79C96.4,-79 106.6,-79 106.6,-79 111.7,-79 116.8,-84.1 116.8,-89.2 116.8,-89.2 116.8,-116.8 116.8,-116.8 116.8,-121.9 111.7,-127 106.6,-127 106.6,-127 96.4,-127 96.4,-127 91.3,-127 86.2,-121.9 86.2,-116.8 86.2,-116.8 86.2,-89.2 86.2,-89.2 86.2,-84.1 91.3,-79 96.4,-79"/>
<text text-anchor="middle" x="101.5" y="-115" font-family="Times,serif" font-size="10.00">CX</text>
</g>
<g id="clust9" class="cluster">
<title>cluster_10</title>
<path fill="lightblue" stroke="lightblue" d="M139,-51C139,-51 149.2,-51 149.2,-51 154.3,-51 159.4,-56.1 159.4,-61.2 159.4,-61.2 159.4,-88.8 159.4,-88.8 159.4,-93.9 154.3,-99 149.2,-99 149.2,-99 139,-99 139,-99 133.9,-99 128.8,-93.9 128.8,-88.8 128.8,-88.8 128.8,-61.2 128.8,-61.2 128.8,-56.1 133.9,-51 139,-51"/>
<text text-anchor="middle" x="144.1" y="-87" font-family="Times,serif" font-size="10.00">CX</text>
</g>
<g id="clust10" class="cluster">
<title>cluster_11</title>
<path fill="lightblue" stroke="lightblue" d="M181.6,-21C181.6,-21 191.8,-21 191.8,-21 196.9,-21 202,-26.1 202,-31.2 202,-31.2 202,-58.8 202,-58.8 202,-63.9 196.9,-69 191.8,-69 191.8,-69 181.6,-69 181.6,-69 176.5,-69 171.4,-63.9 171.4,-58.8 171.4,-58.8 171.4,-31.2 171.4,-31.2 171.4,-26.1 176.5,-21 181.6,-21"/>
<text text-anchor="middle" x="186.7" y="-57" font-family="Times,serif" font-size="10.00">CX</text>
</g>
<!-- (0, 0) -->
<g id="node1" class="node">
<title>(0, 0)</title>
<ellipse fill="blue" stroke="blue" cx="24.8" cy="-56" rx="1.8" ry="1.8"/>
<text text-anchor="middle" x="11.5" y="-47.8" font-family="Courier,monospace" font-size="8.00">e0[0]</text>
</g>
<!-- (10, 0) -->
<g id="node13" class="node">
<title>(10, 0)</title>
<ellipse fill="black" stroke="black" cx="143.6" cy="-58" rx="1.8" ry="1.8"/>
<text text-anchor="middle" x="138.8" y="-49.8" font-family="Helvetica,sans-Serif" font-size="8.00">0</text>
</g>
<!-- (0, 0)&#45;&gt;(10, 0) -->
<g id="edge1" class="edge">
<title>(0, 0)&#45;&gt;(10, 0)</title>
<path fill="none" stroke="blue" d="M26.76,-56.07C29.44,-56.26 37.17,-56.79 43.6,-57 81.29,-58.25 127.1,-58.09 139.42,-58.02"/>
<polygon fill="blue" stroke="blue" points="141.62,-58.01 139.63,-59.14 140.62,-58.01 139.62,-58.02 139.62,-58.02 139.62,-58.02 140.62,-58.01 139.62,-56.89 141.62,-58.01 141.62,-58.01"/>
</g>
<!-- (2, 0) -->
<g id="node2" class="node">
<title>(2, 0)</title>
<ellipse fill="blue" stroke="blue" cx="24.8" cy="-26" rx="1.8" ry="1.8"/>
<text text-anchor="middle" x="11.5" y="-17.8" font-family="Courier,monospace" font-size="8.00">e1[1]</text>
</g>
<!-- (8, 0) -->
<g id="node9" class="node">
<title>(8, 0)</title>
<ellipse fill="black" stroke="black" cx="58.4" cy="-15" rx="1.8" ry="1.8"/>
<text text-anchor="middle" x="53.6" y="-6.8" font-family="Helvetica,sans-Serif" font-size="8.00">0</text>
</g>
<!-- (2, 0)&#45;&gt;(8, 0) -->
<g id="edge2" class="edge">
<title>(2, 0)&#45;&gt;(8, 0)</title>
<path fill="none" stroke="blue" d="M26.58,-25.73C30.37,-24.41 46.97,-18.63 54.11,-16.14"/>
<polygon fill="blue" stroke="blue" points="56.28,-15.39 54.76,-17.11 55.33,-15.72 54.39,-16.05 54.39,-16.05 54.39,-16.05 55.33,-15.72 54.02,-14.99 56.28,-15.39 56.28,-15.39"/>
</g>
<!-- (4, 0) -->
<g id="node3" class="node">
<title>(4, 0)</title>
<ellipse fill="blue" stroke="blue" cx="24.8" cy="-71" rx="1.8" ry="1.8"/>
<text text-anchor="middle" x="11.5" y="-62.8" font-family="Courier,monospace" font-size="8.00">e2[2]</text>
</g>
<!-- (9, 0) -->
<g id="node11" class="node">
<title>(9, 0)</title>
<ellipse fill="black" stroke="black" cx="101" cy="-101" rx="1.8" ry="1.8"/>
<text text-anchor="middle" x="96.2" y="-92.8" font-family="Helvetica,sans-Serif" font-size="8.00">0</text>
</g>
<!-- (4, 0)&#45;&gt;(9, 0) -->
<g id="edge3" class="edge">
<title>(4, 0)&#45;&gt;(9, 0)</title>
<path fill="none" stroke="blue" d="M26.63,-71.34C33.68,-74.19 83.35,-94.27 96.7,-99.67"/>
<polygon fill="blue" stroke="blue" points="98.86,-100.54 96.59,-100.83 97.94,-100.17 97.01,-99.79 97.01,-99.79 97.01,-99.79 97.94,-100.17 97.43,-98.75 98.86,-100.54 98.86,-100.54"/>
</g>
<!-- (6, 0) -->
<g id="node4" class="node">
<title>(6, 0)</title>
<ellipse fill="blue" stroke="blue" cx="24.8" cy="-41" rx="1.8" ry="1.8"/>
<text text-anchor="middle" x="11.5" y="-32.8" font-family="Courier,monospace" font-size="8.00">e3[3]</text>
</g>
<!-- (8, 1) -->
<g id="node10" class="node">
<title>(8, 1)</title>
<ellipse fill="black" stroke="black" cx="58.4" cy="-30" rx="1.8" ry="1.8"/>
<text text-anchor="middle" x="53.6" y="-21.8" font-family="Helvetica,sans-Serif" font-size="8.00">1</text>
</g>
<!-- (6, 0)&#45;&gt;(8, 1) -->
<g id="edge4" class="edge">
<title>(6, 0)&#45;&gt;(8, 1)</title>
<path fill="none" stroke="blue" d="M26.58,-40.73C30.37,-39.41 46.97,-33.63 54.11,-31.14"/>
<polygon fill="blue" stroke="blue" points="56.28,-30.39 54.76,-32.11 55.33,-30.72 54.39,-31.05 54.39,-31.05 54.39,-31.05 55.33,-30.72 54.02,-29.99 56.28,-30.39 56.28,-30.39"/>
</g>
<!-- (1, 0) -->
<g id="node5" class="node">
<title>(1, 0)</title>
<ellipse fill="blue" stroke="blue" cx="220.8" cy="-54" rx="1.8" ry="1.8"/>
<text text-anchor="middle" x="207.5" y="-45.8" font-family="Courier,monospace" font-size="8.00">e0[0]</text>
</g>
<!-- (3, 0) -->
<g id="node6" class="node">
<title>(3, 0)</title>
<ellipse fill="blue" stroke="blue" cx="220.8" cy="-39" rx="1.8" ry="1.8"/>
<text text-anchor="middle" x="207.5" y="-30.8" font-family="Courier,monospace" font-size="8.00">e1[1]</text>
</g>
<!-- (5, 0) -->
<g id="node7" class="node">
<title>(5, 0)</title>
<ellipse fill="blue" stroke="blue" cx="220.8" cy="-84" rx="1.8" ry="1.8"/>
<text text-anchor="middle" x="207.5" y="-75.8" font-family="Courier,monospace" font-size="8.00">e2[2]</text>
</g>
<!-- (7, 0) -->
<g id="node8" class="node">
<title>(7, 0)</title>
<ellipse fill="blue" stroke="blue" cx="220.8" cy="-69" rx="1.8" ry="1.8"/>
<text text-anchor="middle" x="207.5" y="-60.8" font-family="Courier,monospace" font-size="8.00">e3[3]</text>
</g>
<!-- (11, 0) -->
<g id="node15" class="node">
<title>(11, 0)</title>
<ellipse fill="black" stroke="black" cx="186.2" cy="-28" rx="1.8" ry="1.8"/>
<text text-anchor="middle" x="181.4" y="-19.8" font-family="Helvetica,sans-Serif" font-size="8.00">0</text>
</g>
<!-- (8, 0)&#45;&gt;(11, 0) -->
<g id="edge6" class="edge">
<title>(8, 0)&#45;&gt;(11, 0)</title>
<path fill="none" stroke="blue" d="M60.2,-15.08C69.78,-16.07 162.04,-25.61 181.58,-27.63"/>
<polygon fill="blue" stroke="blue" points="183.91,-27.87 181.81,-28.78 182.92,-27.76 181.92,-27.66 181.92,-27.66 181.92,-27.66 182.92,-27.76 182.04,-26.54 183.91,-27.87 183.91,-27.87"/>
</g>
<!-- (9, 1) -->
<g id="node12" class="node">
<title>(9, 1)</title>
<ellipse fill="black" stroke="black" cx="101" cy="-86" rx="1.8" ry="1.8"/>
<text text-anchor="middle" x="96.2" y="-77.8" font-family="Helvetica,sans-Serif" font-size="8.00">1</text>
</g>
<!-- (8, 1)&#45;&gt;(9, 1) -->
<g id="edge5" class="edge">
<title>(8, 1)&#45;&gt;(9, 1)</title>
<path fill="none" stroke="blue" d="M60.1,-30.97C64.73,-37.35 90.73,-73.21 98.07,-83.34"/>
<polygon fill="blue" stroke="blue" points="99.4,-85.17 97.31,-84.21 98.81,-84.36 98.22,-83.55 98.22,-83.55 98.22,-83.55 98.81,-84.36 99.14,-82.89 99.4,-85.17 99.4,-85.17"/>
</g>
<!-- (9, 0)&#45;&gt;(5, 0) -->
<g id="edge8" class="edge">
<title>(9, 0)&#45;&gt;(5, 0)</title>
<path fill="none" stroke="blue" d="M102.82,-101.06C107.96,-101.42 136.5,-103.19 159.4,-100 181.99,-96.86 208.21,-88.08 216.87,-85.05"/>
<polygon fill="blue" stroke="blue" points="218.96,-84.3 217.46,-86.03 218.02,-84.64 217.08,-84.97 217.08,-84.97 217.08,-84.97 218.02,-84.64 216.7,-83.91 218.96,-84.3 218.96,-84.3"/>
</g>
<!-- (10, 1) -->
<g id="node14" class="node">
<title>(10, 1)</title>
<ellipse fill="black" stroke="black" cx="143.6" cy="-73" rx="1.8" ry="1.8"/>
<text text-anchor="middle" x="138.8" y="-64.8" font-family="Helvetica,sans-Serif" font-size="8.00">1</text>
</g>
<!-- (9, 1)&#45;&gt;(10, 1) -->
<g id="edge7" class="edge">
<title>(9, 1)&#45;&gt;(10, 1)</title>
<path fill="none" stroke="blue" d="M103,-85.68C108.14,-84.03 131.55,-76.54 139.75,-73.91"/>
<polygon fill="blue" stroke="blue" points="141.77,-73.27 140.21,-74.95 140.82,-73.57 139.87,-73.88 139.87,-73.88 139.87,-73.88 140.82,-73.57 139.52,-72.8 141.77,-73.27 141.77,-73.27"/>
</g>
<!-- (11, 1) -->
<g id="node16" class="node">
<title>(11, 1)</title>
<ellipse fill="black" stroke="black" cx="186.2" cy="-43" rx="1.8" ry="1.8"/>
<text text-anchor="middle" x="181.4" y="-34.8" font-family="Helvetica,sans-Serif" font-size="8.00">1</text>
</g>
<!-- (10, 0)&#45;&gt;(11, 1) -->
<g id="edge10" class="edge">
<title>(10, 0)&#45;&gt;(11, 1)</title>
<path fill="none" stroke="blue" d="M145.6,-57.63C150.74,-55.73 174.15,-47.08 182.35,-44.05"/>
<polygon fill="blue" stroke="blue" points="184.37,-43.31 182.88,-45.05 183.43,-43.65 182.49,-44 182.49,-44 182.49,-44 183.43,-43.65 182.1,-42.94 184.37,-43.31 184.37,-43.31"/>
</g>
<!-- (10, 1)&#45;&gt;(7, 0) -->
<g id="edge9" class="edge">
<title>(10, 1)&#45;&gt;(7, 0)</title>
<path fill="none" stroke="blue" d="M145.41,-72.96C150.52,-72.7 178.88,-71.25 202,-70 207.02,-69.73 212.84,-69.4 216.42,-69.19"/>
<polygon fill="blue" stroke="blue" points="218.84,-69.06 216.9,-70.29 217.84,-69.11 216.84,-69.17 216.84,-69.17 216.84,-69.17 217.84,-69.11 216.77,-68.05 218.84,-69.06 218.84,-69.06"/>
</g>
<!-- (11, 0)&#45;&gt;(3, 0) -->
<g id="edge11" class="edge">
<title>(11, 0)&#45;&gt;(3, 0)</title>
<path fill="none" stroke="blue" d="M188.01,-28.27C191.92,-29.59 209.04,-35.37 216.41,-37.86"/>
<polygon fill="blue" stroke="blue" points="218.64,-38.61 216.39,-39.03 217.69,-38.29 216.74,-37.97 216.74,-37.97 216.74,-37.97 217.69,-38.29 217.1,-36.9 218.64,-38.61 218.64,-38.61"/>
</g>
<!-- (11, 1)&#45;&gt;(1, 0) -->
<g id="edge12" class="edge">
<title>(11, 1)&#45;&gt;(1, 0)</title>
<path fill="none" stroke="blue" d="M188.01,-43.27C191.92,-44.59 209.04,-50.37 216.41,-52.86"/>
<polygon fill="blue" stroke="blue" points="218.64,-53.61 216.39,-54.03 217.69,-53.29 216.74,-52.97 216.74,-52.97 216.74,-52.97 217.69,-53.29 217.1,-51.9 218.64,-53.61 218.64,-53.61"/>
</g>
</g>
</svg>