<?xml version="1.0" encoding="UTF-8" standalone="no"?>
<!DOCTYPE svg PUBLIC "-//W3C//DTD SVG 1.1//EN"
 "http://www.w3.org/Graphics/SVG/1.1/DTD/svg11.dtd">
<!-- Generated by graphviz version 2.43.0 (0)
 -->
<!-- Title: Circuit Pages: 1 -->
<svg width="158pt" height="107pt"
 viewBox="0.00 0.00 158.40 107.00" xmlns="http://www.w3.org/2000/svg" xmlns:xlink="http://www.w3.org/1999/xlink">
<g id="graph0" class="graph" transform="scale(1 1) rotate(0) translate(4 103)">
<title>Circuit</title>
<polygon fill="white" stroke="transparent" points="-4,4 -4,-103 154.4,-103 154.4,4 -4,4"/>
<g id="clust1" class="cluster">
<title>cluster_q_inputs</title>
<path fill="lightgrey" stroke="lightgrey" d="M22.53,-9C22.53,-9 27.07,-9 27.07,-9 29.33,-9 31.6,-11.27 31.6,-13.53 31.6,-13.53 31.6,-63.47 31.6,-63.47 31.6,-65.73 29.33,-68 27.07,-68 27.07,-68 22.53,-68 22.53,-68 20.27,-68 18,-65.73 18,-63.47 18,-63.47 18,-13.53 18,-13.53 18,-11.27 20.27,-9 22.53,-9"/>
</g>
<g id="clust4" class="cluster">
<title>cluster_q_outputs</title>
<path fill="lightgrey" stroke="lightgrey" d="M133.33,-8C133.33,-8 137.87,-8 137.87,-8 140.13,-8 142.4,-10.27 142.4,-12.53 142.4,-12.53 142.4,-62.47 142.4,-62.47 142.4,-64.73 140.13,-67 137.87,-67 137.87,-67 133.33,-67 133.33,-67 131.07,-67 128.8,-64.73 128.8,-62.47 128.8,-62.47 128.8,-12.53 128.8,-12.53 128.8,-10.27 131.07,-8 133.33,-8"/>
</g>
<g id="clust7" class="cluster">
<title>cluster_8</title>
<path fill="lightblue" stroke="lightblue" d="M53.8,-43C53.8,-43 64,-43 64,-43 69.1,-43 74.2,-48.1 74.2,-53.2 74.2,-53.2 74.2,-80.8 74.2,-80.8 74.2,-85.9 69.1,-91 64,-91 64,-91 53.8,-91 53.8,-91 48.7,-91 43.6,-85.9 43.6,-80.8 43.6,-80.8 43.6,-53.2 43.6,-53.2 43.6,-48.1 48.7,-43 53.8,-43"/>
<text text-anchor="middle" x="58.9" y="-79" font-family="Times,serif" font-size="10.00">CX</text>
</g>
<g id="clust8" class="cluster">
<title>cluster_9</title>
<path fill="lightblue" stroke="lightblue" d="M96.4,-23C96.4,-23 106.6,-23 106.6,-23 111.7,-23 116.8,-28.1 116.8,-33.2 116.8,-33.2 116.8,-60.8 116.8,-60.8 116.8,-65.9 111.7,-71 106.6,-71 106.6,-71 96.4,-71 96.4,-71 91.3,-71 86.2,-65.9 86.2,-60.8 86.2,-60.8 86.2,-33.2 86.2,-33.2 86.2,-28.1 91.3,-23 96.4,-23"/>
<text text-anchor="middle" x="101.5" y="-59" font-family="Times,serif" font-size="10.00">CX</text>
</g>
<!-- (0, 0) -->
<g id="node1" class="node">
<title>(0, 0)</title>
<ellipse fill="blue" stroke="blue" cx="24.8" cy="-61" rx="1.8" ry="1.8"/>
<text text-anchor="middle" x="11.5" y="-52.8" font-family="Courier,monospace" font-size="8.00">e0[0]</text>
</g>
<!-- (8, 0) -->
<g id="node9" class="node">
<title>(8, 0)</title>
<ellipse fill="black" stroke="black" cx="58.4" cy="-65" rx="1.8" ry="1.8"/>
<text text-anchor="middle" x="53.6" y="-56.8" font-family="Helvetica,sans-Serif" font-size="8.00">0</text>
</g>
<!-- (0, 0)&#45;&gt;(8, 0) -->
<g id="edge1" class="edge">
<title>(0, 0)&#45;&gt;(8, 0)</title>
<path fill="none" stroke="blue" d="M27.16,-61.17C31.87,-61.77 47.6,-63.76 54.32,-64.61"/>
<polygon fill="blue" stroke="blue" points="56.35,-64.87 54.22,-65.73 55.36,-64.74 54.36,-64.62 54.36,-64.62 54.36,-64.62 55.36,-64.74 54.51,-63.5 56.35,-64.87 56.35,-64.87"/>
</g>
<!-- (2, 0) -->
<g id="node2" class="node">
<title>(2, 0)</title>
<ellipse fill="blue" stroke="blue" cx="24.8" cy="-46" rx="1.8" ry="1.8"/>
<text text-anchor="middle" x="11.5" y="-37.8" font-family="Courier,monospace" font-size="8.00">e1[1]</text>
</g>
<!-- (8, 1) -->
<g id="node10" class="node">
<title>(8, 1)</title>
<ellipse fill="black" stroke="black" cx="58.4" cy="-50" rx="1.8" ry="1.8"/>
<text text-anchor="middle" x="53.6" y="-41.8" font-family="Helvetica,sans-Serif" font-size="8.00">1</text>
</g>
<!-- (2, 0)&#45;&gt;(8, 1) -->
<g id="edge2" class="edge">
<title>(2, 0)&#45;&gt;(8, 1)</title>
<path fill="none" stroke="blue" d="M27.16,-46.17C31.87,-46.77 47.6,-48.76 54.32,-49.61"/>
<polygon fill="blue" stroke="blue" points="56.35,-49.87 54.22,-50.73 55.36,-49.74 54.36,-49.62 54.36,-49.62 54.36,-49.62 55.36,-49.74 54.51,-48.5 56.35,-49.87 56.35,-49.87"/>
</g>
<!-- (4, 0) -->
<g id="node3" class="node">
<title>(4, 0)</title>
<ellipse fill="blue" stroke="blue" cx="24.8" cy="-31" rx="1.8" ry="1.8"/>
<text text-anchor="middle" x="11.5" y="-22.8" font-family="Courier,monospace" font-size="8.00">e2[2]</text>
</g>
<!-- (9, 1) -->
<g id="node12" class="node">
<title>(9, 1)</title>
<ellipse fill="black" stroke="black" cx="101" cy="-30" rx="1.8" ry="1.8"/>
<text text-anchor="middle" x="96.2" y="-21.8" font-family="Helvetica,sans-Serif" font-size="8.00">1</text>
</g>
<!-- (4, 0)&#45;&gt;(9, 1) -->
<g id="edge3" class="edge">
<title>(4, 0)&#45;&gt;(9, 1)</title>
<path fill="none" stroke="blue" d="M26.63,-30.99C33.68,-30.89 83.35,-30.22 96.7,-30.04"/>
<polygon fill="blue" stroke="blue" points="98.86,-30.02 96.88,-31.17 97.86,-30.03 96.86,-30.04 96.86,-30.04 96.86,-30.04 97.86,-30.03 96.85,-28.92 98.86,-30.02 98.86,-30.02"/>
</g>
<!-- (6, 0) -->
<g id="node4" class="node">
<title>(6, 0)</title>
<ellipse fill="blue" stroke="blue" cx="24.8" cy="-16" rx="1.8" ry="1.8"/>
<text text-anchor="middle" x="11.5" y="-7.8" font-family="Courier,monospace" font-size="8.00">e3[3]</text>
</g>
<!-- (7, 0) -->
<g id="node8" class="node">
<title>(7, 0)</title>
<ellipse fill="blue" stroke="blue" cx="135.6" cy="-15" rx="1.8" ry="1.8"/>
<text text-anchor="middle" x="122.3" y="-6.8" font-family="Courier,monospace" font-size="8.00">e3[3]</text>
</g>
<!-- (6, 0)&#45;&gt;(7, 0) -->
<g id="edge4" class="edge">
<title>(6, 0)&#45;&gt;(7, 0)</title>
<path fill="none" stroke="blue" d="M27.02,-15.99C37.62,-15.89 113.92,-15.19 131.15,-15.03"/>
<polygon fill="blue" stroke="blue" points="133.52,-15.01 131.53,-16.15 132.52,-15.02 131.52,-15.03 131.52,-15.03 131.52,-15.03 132.52,-15.02 131.51,-13.9 133.52,-15.01 133.52,-15.01"/>
</g>
<!-- (1, 0) -->
<g id="node5" class="node">
<title>(1, 0)</title>
<ellipse fill="blue" stroke="blue" cx="135.6" cy="-60" rx="1.8" ry="1.8"/>
<text text-anchor="middle" x="122.3" y="-51.8" font-family="Courier,monospace" font-size="8.00">e0[0]</text>
</g>
<!-- (3, 0) -->
<g id="node6" class="node">
<title>(3, 0)</title>
<ellipse fill="blue" stroke="blue" cx="135.6" cy="-45" rx="1.8" ry="1.8"/>
<text text-anchor="middle" x="122.3" y="-36.8" font-family="Courier,monospace" font-size="8.00">e1[1]</text>
</g>
<!-- (5, 0) -->
<g id="node7" class="node">
<title>(5, 0)</title>
<ellipse fill="blue" stroke="blue" cx="135.6" cy="-30" rx="1.8" ry="1.8"/>
<text text-anchor="middle" x="122.3" y="-21.8" font-family="Courier,monospace" font-size="8.00">e2[2]</text>
</g>
<!-- (8, 0)&#45;&gt;(1, 0) -->
<g id="edge5" class="edge">
<title>(8, 0)&#45;&gt;(1, 0)</title>
<path fill="none" stroke="blue" d="M60.23,-65.35C65.48,-67.53 94.53,-78.81 116.8,-72 123.06,-70.09 129.1,-65.16 132.28,-62.25"/>
<polygon fill="blue" stroke="blue" points="133.74,-60.87 133.06,-63.06 133.01,-61.56 132.29,-62.24 132.29,-62.24 132.29,-62.24 133.01,-61.56 131.51,-61.43 133.74,-60.87 133.74,-60.87"/>
</g>
<!-- (9, 0) -->
<g id="node11" class="node">
<title>(9, 0)</title>
<ellipse fill="black" stroke="black" cx="101" cy="-45" rx="1.8" ry="1.8"/>
<text text-anchor="middle" x="96.2" y="-36.8" font-family="Helvetica,sans-Serif" font-size="8.00">0</text>
</g>
<!-- (8, 1)&#45;&gt;(9, 0) -->
<g id="edge6" class="edge">
<title>(8, 1)&#45;&gt;(9, 0)</title>
<path fill="none" stroke="blue" d="M60.4,-49.88C65.54,-49.24 88.95,-46.36 97.15,-45.35"/>
<polygon fill="blue" stroke="blue" points="99.17,-45.1 97.32,-46.46 98.18,-45.22 97.19,-45.35 97.19,-45.35 97.19,-45.35 98.18,-45.22 97.05,-44.23 99.17,-45.1 99.17,-45.1"/>
</g>
<!-- (9, 0)&#45;&gt;(3, 0) -->
<g id="edge7" class="edge">
<title>(9, 0)&#45;&gt;(3, 0)</title>
<path fill="none" stroke="blue" d="M102.81,-45C106.72,-45 123.84,-45 131.21,-45"/>
<polygon fill="blue" stroke="blue" points="133.44,-45 131.44,-46.13 132.44,-45 131.44,-45 131.44,-45 131.44,-45 132.44,-45 131.44,-43.88 133.44,-45 133.44,-45"/>
</g>
<!-- (9, 1)&#45;&gt;(5, 0) -->
<g id="edge8" class="edge">
<title>(9, 1)&#45;&gt;(5, 0)</title>
<path fill="none" stroke="blue" d="M102.81,-30C106.72,-30 123.84,-30 131.21,-30"/>
<polygon fill="blue" stroke="blue" points="133.44,-30 131.44,-31.13 132.44,-30 131.44,-30 131.44,-30 131.44,-30 132.44,-30 131.44,-28.88 133.44,-30 133.44,-30"/>
</g>
</g>
</svg>