<?xml version="1.0" encoding="UTF-8" standalone="no"?>
<!DOCTYPE svg PUBLIC "-//W3C//DTD SVG 1.1//EN"
 "http://www.w3.org/Graphics/SVG/1.1/DTD/svg11.dtd">
<!-- Generated by graphviz version 2.43.0 (0)
 -->
<!-- Title: Qubit connectivity Pages: 1 -->
<svg width="197pt" height="127pt"
 viewBox="0.00 0.00 196.64 127.42" xmlns="http://www.w3.org/2000/svg" xmlns:xlink="http://www.w3.org/1999/xlink">
<g id="graph0" class="graph" transform="scale(1 1) rotate(0) translate(4 123.42)">
<title>Qubit connectivity</title>
<polygon fill="white" stroke="transparent" points="-4,4 -4,-123.42 192.64,-123.42 192.64,4 -4,4"/>
<!-- q[1] -->
<g id="node1" class="node">
<title>q[1]</title>
<ellipse fill="none" stroke="blue" cx="91.67" cy="-68.32" rx="24.27" ry="24.27"/>
<text text-anchor="middle" x="91.67" y="-65.82" font-family="Courier,monospace" font-size="10.00">q[1]</text>
</g>
<!-- q[0] -->
<g id="node2" class="node">
<title>q[0]</title>
<ellipse fill="none" stroke="blue" cx="164.51" cy="-76.75" rx="24.27" ry="24.27"/>
<text text-anchor="middle" x="164.51" y="-74.25" font-family="Courier,monospace" font-size="10.00">q[0]</text>
</g>
<!-- q[1]&#45;&#45;q[0] -->
<g id="edge1" class="edge">
<title>q[1]&#45;&#45;q[0]</title>
<path fill="none" stroke="black" d="M115.92,-71.13C123.7,-72.03 132.32,-73.02 140.11,-73.93"/>
</g>
<!-- q[2] -->
<g id="node3" class="node">
<title>q[2]</title>
<ellipse fill="none" stroke="blue" cx="33.82" cy="-24.14" rx="24.27" ry="24.27"/>
<text text-anchor="middle" x="33.82" y="-21.64" font-family="Courier,monospace" font-size="10.00">q[2]</text>
</g>
<!-- q[1]&#45;&#45;q[2] -->
<g id="edge2" class="edge">
<title>q[1]&#45;&#45;q[2]</title>
<path fill="none" stroke="black" d="M72.41,-53.61C66.23,-48.89 59.38,-43.66 53.2,-38.94"/>
</g>
<!-- q[3] -->
<g id="node4" class="node">
<title>q[3]</title>
<ellipse fill="none" stroke="blue" cx="24.14" cy="-95.29" rx="24.27" ry="24.27"/>
<text text-anchor="middle" x="24.14" y="-92.79" font-family="Courier,monospace" font-size="10.00">q[3]</text>
</g>
<!-- q[1]&#45;&#45;q[3] -->
<g id="edge3" class="edge">
<title>q[1]&#45;&#45;q[3]</title>
<path fill="none" stroke="black" d="M69.18,-77.3C61.97,-80.18 53.98,-83.37 46.75,-86.26"/>
</g>
<!-- q[2]&#45;&#45;q[3] -->
<g id="edge4" class="edge">
<title>q[2]&#45;&#45;q[3]</title>
<path fill="none" stroke="black" d="M30.54,-48.22C29.53,-55.64 28.42,-63.81 27.41,-71.22"/>
</g>
</g>
</svg>