<?xml version="1.0" encoding="UTF-8" standalone="no"?>
<!DOCTYPE svg PUBLIC "-//W3C//DTD SVG 1.1//EN"
 "http://www.w3.org/Graphics/SVG/1.1/DTD/svg11.dtd">
<!-- Generated by graphviz version 2.43.0 (0)
 -->
<!-- Title: Circuit Pages: 1 -->
<svg width="345pt" height="143pt"
 viewBox="0.00 0.00 344.80 143.00" xmlns="http://www.w3.org/2000/svg" xmlns:xlink="http://www.w3.org/1999/xlink">
<g id="graph0" class="graph" transform="scale(1 1) rotate(0) translate(4 139)">
<title>Circuit</title>
<polygon fill="white" stroke="transparent" points="-4,4 -4,-139 340.8,-139 340.8,4 -4,4"/>
<g id="clust1" class="cluster">
<title>cluster_q_inputs</title>
<path fill="lightgrey" stroke="lightgrey" d="M22.53,-35C22.53,-35 27.07,-35 27.07,-35 29.33,-35 31.6,-37.27 31.6,-39.53 31.6,-39.53 31.6,-89.47 31.6,-89.47 31.6,-91.73 29.33,-94 27.07,-94 27.07,-94 22.53,-94 22.53,-94 20.27,-94 18,-91.73 18,-89.47 18,-89.47 18,-39.53 18,-39.53 18,-37.27 20.27,-35 22.53,-35"/>
</g>
<g id="clust4" class="cluster">
<title>cluster_q_outputs</title>
<path fill="lightgrey" stroke="lightgrey" d="M319.73,-47C319.73,-47 324.27,-47 324.27,-47 326.53,-47 328.8,-49.27 328.8,-51.53 328.8,-51.53 328.8,-101.47 328.8,-101.47 328.8,-103.73 326.53,-106 324.27,-106 324.27,-106 319.73,-106 319.73,-106 317.47,-106 315.2,-103.73 315.2,-101.47 315.2,-101.47 315.2,-51.53 315.2,-51.53 315.2,-49.27 317.47,-47 319.73,-47"/>
</g>
<g id="clust7" class="cluster">
<title>cluster_8</title>
<path fill="lightblue" stroke="lightblue" d="M55.6,-24C55.6,-24 78.2,-24 78.2,-24 84.2,-24 90.2,-30 90.2,-36 90.2,-36 90.2,-60 90.2,-60 90.2,-66 84.2,-72 78.2,-72 78.2,-72 55.6,-72 55.6,-72 49.6,-72 43.6,-66 43.6,-60 43.6,-60 43.6,-36 43.6,-36 43.6,-30 49.6,-24 55.6,-24"/>
<text text-anchor="middle" x="66.9" y="-60" font-family="Times,serif" font-size="10.00">SWAP</text>
</g>
<g id="clust8" class="cluster">
<title>cluster_9</title>
<path fill="lightblue" stroke="lightblue" d="M112.4,-48C112.4,-48 122.6,-48 122.6,-48 127.7,-48 132.8,-53.1 132.8,-58.2 132.8,-58.2 132.8,-85.8 132.8,-85.8 132.8,-90.9 127.7,-96 122.6,-96 122.6,-96 112.4,-96 112.4,-96 107.3,-96 102.2,-90.9 102.2,-85.8 102.2,-85.8 102.2,-58.2 102.2,-58.2 102.2,-53.1 107.3,-48 112.4,-48"/>
<text text-anchor="middle" x="117.5" y="-84" font-family="Times,serif" font-size="10.00">CX</text>
</g>
<g id="clust9" class="cluster">
<title>cluster_10</title>
<path fill="lightblue" stroke="lightblue" d="M155,-75C155,-75 165.2,-75 165.2,-75 170.3,-75 175.4,-80.1 175.4,-85.2 175.4,-85.2 175.4,-112.8 175.4,-112.8 175.4,-117.9 170.3,-123 165.2,-123 165.2,-123 155,-123 155,-123 149.9,-123 144.8,-117.9 144.8,-112.8 144.8,-112.8 144.8,-85.2 144.8,-85.2 144.8,-80.1 149.9,-75 155,-75"/>
<text text-anchor="middle" x="160.1" y="-111" font-family="Times,serif" font-size="10.00">CX</text>
</g>
<g id="clust10" class="cluster">
<title>cluster_11</title>
<path fill="lightblue" stroke="lightblue" d="M197.6,-42C197.6,-42 207.8,-42 207.8,-42 212.9,-42 218,-47.1 218,-52.2 218,-52.2 218,-79.8 218,-79.8 218,-84.9 212.9,-90 207.8,-90 207.8,-90 197.6,-90 197.6,-90 192.5,-90 187.4,-84.9 187.4,-79.8 187.4,-79.8 187.4,-52.2 187.4,-52.2 187.4,-47.1 192.5,-42 197.6,-42"/>
<text text-anchor="middle" x="202.7" y="-78" font-family="Times,serif" font-size="10.00">CX</text>
</g>
<g id="clust11" class="cluster">
<title>cluster_12</title>
<path fill="lightblue" stroke="lightblue" d="M240.2,-8C240.2,-8 250.4,-8 250.4,-8 255.5,-8 260.6,-13.1 260.6,-18.2 260.6,-18.2 260.6,-45.8 260.6,-45.8 260.6,-50.9 255.5,-56 250.4,-56 250.4,-56 240.2,-56 240.2,-56 235.1,-56 230,-50.9 230,-45.8 230,-45.8 230,-18.2 230,-18.2 230,-13.1 235.1,-8 240.2,-8"/>
<text text-anchor="middle" x="245.3" y="-44" font-family="Times,serif" font-size="10.00">CX</text>
</g>
<g id="clust12" class="cluster">
<title>cluster_13</title>
<path fill="lightblue" stroke="lightblue" d="M282.8,-79C282.8,-79 293,-79 293,-79 298.1,-79 303.2,-84.1 303.2,-89.2 303.2,-89.2 303.2,-116.8 303.2,-116.8 303.2,-121.9 298.1,-127 293,-127 293,-127 282.8,-127 282.8,-127 277.7,-127 272.6,-121.9 272.6,-116.8 272.6,-116.8 272.6,-89.2 272.6,-89.2 272.6,-84.1 277.7,-79 282.8,-79"/>
<text text-anchor="middle" x="287.9" y="-115" font-family="Times,serif" font-size="10.00">CX</text>
</g>
<!-- (0, 0) -->
<g id="node1" class="node">
<title>(0, 0)</title>
<ellipse fill="blue" stroke="blue" cx="24.8" cy="-42" rx="1.8" ry="1.8"/>
<text text-anchor="middle" x="11.5" y="-33.8" font-family="Courier,monospace" font-size="8.00">e0[0]</text>
</g>
<!-- (8, 0) -->
<g id="node9" class="node">
<title>(8, 0)</title>
<ellipse fill="black" stroke="black" cx="66.4" cy="-31" rx="1.8" ry="1.8"/>
<text text-anchor="middle" x="61.6" y="-22.8" font-family="Helvetica,sans-Serif" font-size="8.00">0</text>
</g>
<!-- (0, 0)&#45;&gt;(8, 0) -->
<g id="edge1" class="edge">
<title>(0, 0)&#45;&gt;(8, 0)</title>
<path fill="none" stroke="blue" d="M26.78,-41.73C31.79,-40.34 54.62,-33.99 62.62,-31.77"/>
<polygon fill="blue" stroke="blue" points="64.59,-31.22 62.97,-32.84 63.63,-31.49 62.66,-31.76 62.66,-31.76 62.66,-31.76 63.63,-31.49 62.36,-30.68 64.59,-31.22 64.59,-31.22"/>
</g>
<!-- (2, 0) -->
<g id="node2" class="node">
<title>(2, 0)</title>
<ellipse fill="blue" stroke="blue" cx="24.8" cy="-57" rx="1.8" ry="1.8"/>
<text text-anchor="middle" x="11.5" y="-48.8" font-family="Courier,monospace" font-size="8.00">e1[1]</text>
</g>
<!-- (8, 1) -->
<g id="node10" class="node">
<title>(8, 1)</title>
<ellipse fill="black" stroke="black" cx="66.4" cy="-46" rx="1.8" ry="1.8"/>
<text text-anchor="middle" x="61.6" y="-37.8" font-family="Helvetica,sans-Serif" font-size="8.00">1</text>
</g>
<!-- (2, 0)&#45;&gt;(8, 1) -->
<g id="edge2" class="edge">
<title>(2, 0)&#45;&gt;(8, 1)</title>
<path fill="none" stroke="blue" d="M26.78,-56.73C31.79,-55.34 54.62,-48.99 62.62,-46.77"/>
<polygon fill="blue" stroke="blue" points="64.59,-46.22 62.97,-47.84 63.63,-46.49 62.66,-46.76 62.66,-46.76 62.66,-46.76 63.63,-46.49 62.36,-45.68 64.59,-46.22 64.59,-46.22"/>
</g>
<!-- (4, 0) -->
<g id="node3" class="node">
<title>(4, 0)</title>
<ellipse fill="blue" stroke="blue" cx="24.8" cy="-72" rx="1.8" ry="1.8"/>
<text text-anchor="middle" x="11.5" y="-63.8" font-family="Courier,monospace" font-size="8.00">e2[2]</text>
</g>
<!-- (9, 1) -->
<g id="node12" class="node">
<title>(9, 1)</title>
<ellipse fill="black" stroke="black" cx="117" cy="-55" rx="1.8" ry="1.8"/>
<text text-anchor="middle" x="112.2" y="-46.8" font-family="Helvetica,sans-Serif" font-size="8.00">1</text>
</g>
<!-- (4, 0)&#45;&gt;(9, 1) -->
<g id="edge3" class="edge">
<title>(4, 0)&#45;&gt;(9, 1)</title>
<path fill="none" stroke="blue" d="M26.75,-72.26C32.74,-73.83 65.81,-81.83 90.2,-73 96.73,-70.64 96.51,-66.98 102.2,-63 105.89,-60.42 110.45,-57.89 113.3,-56.39"/>
<polygon fill="blue" stroke="blue" points="115.22,-55.39 113.97,-57.31 114.34,-55.85 113.45,-56.31 113.45,-56.31 113.45,-56.31 114.34,-55.85 112.93,-55.31 115.22,-55.39 115.22,-55.39"/>
</g>
<!-- (6, 0) -->
<g id="node4" class="node">
<title>(6, 0)</title>
<ellipse fill="blue" stroke="blue" cx="24.8" cy="-87" rx="1.8" ry="1.8"/>
<text text-anchor="middle" x="11.5" y="-78.8" font-family="Courier,monospace" font-size="8.00">e3[3]</text>
</g>
<!-- (10, 1) -->
<g id="node14" class="node">
<title>(10, 1)</title>
<ellipse fill="black" stroke="black" cx="159.6" cy="-82" rx="1.8" ry="1.8"/>
<text text-anchor="middle" x="154.8" y="-73.8" font-family="Helvetica,sans-Serif" font-size="8.00">1</text>
</g>
<!-- (6, 0)&#45;&gt;(10, 1) -->
<g id="edge4" class="edge">
<title>(6, 0)&#45;&gt;(10, 1)</title>
<path fill="none" stroke="blue" d="M26.88,-87.38C35.22,-90.3 90.29,-108.49 132.8,-97 138.76,-95.39 139.46,-93.1 144.8,-90 148.69,-87.74 153.2,-85.12 155.98,-83.52"/>
<polygon fill="blue" stroke="blue" points="157.85,-82.43 156.68,-84.41 156.99,-82.93 156.12,-83.43 156.12,-83.43 156.12,-83.43 156.99,-82.93 155.56,-82.46 157.85,-82.43 157.85,-82.43"/>
</g>
<!-- (1, 0) -->
<g id="node5" class="node">
<title>(1, 0)</title>
<ellipse fill="blue" stroke="blue" cx="322" cy="-84" rx="1.8" ry="1.8"/>
<text text-anchor="middle" x="308.7" y="-75.8" font-family="Courier,monospace" font-size="8.00">e0[0]</text>
</g>
<!-- (3, 0) -->
<g id="node6" class="node">
<title>(3, 0)</title>
<ellipse fill="blue" stroke="blue" cx="322" cy="-99" rx="1.8" ry="1.8"/>
<text text-anchor="middle" x="308.7" y="-90.8" font-family="Courier,monospace" font-size="8.00">e1[1]</text>
</g>
<!-- (5, 0) -->
<g id="node7" class="node">
<title>(5, 0)</title>
<ellipse fill="blue" stroke="blue" cx="322" cy="-69" rx="1.8" ry="1.8"/>
<text text-anchor="middle" x="308.7" y="-60.8" font-family="Courier,monospace" font-size="8.00">e2[2]</text>
</g>
<!-- (7, 0) -->
<g id="node8" class="node">
<title>(7, 0)</title>
<ellipse fill="blue" stroke="blue" cx="322" cy="-54" rx="1.8" ry="1.8"/>
<text text-anchor="middle" x="308.7" y="-45.8" font-family="Courier,monospace" font-size="8.00">e3[3]</text>
</g>
<!-- (12, 0) -->
<g id="node17" class="node">
<title>(12, 0)</title>
<ellipse fill="black" stroke="black" cx="244.8" cy="-30" rx="1.8" ry="1.8"/>
<text text-anchor="middle" x="240" y="-21.8" font-family="Helvetica,sans-Serif" font-size="8.00">0</text>
</g>
<!-- (8, 0)&#45;&gt;(12, 0) -->
<g id="edge6" class="edge">
<title>(8, 0)&#45;&gt;(12, 0)</title>
<path fill="none" stroke="blue" d="M68.53,-30.99C82.29,-30.92 217.87,-30.15 240.58,-30.02"/>
<polygon fill="blue" stroke="blue" points="242.78,-30.01 240.78,-31.14 241.78,-30.01 240.78,-30.02 240.78,-30.02 240.78,-30.02 241.78,-30.01 240.77,-28.89 242.78,-30.01 242.78,-30.01"/>
</g>
<!-- (9, 0) -->
<g id="node11" class="node">
<title>(9, 0)</title>
<ellipse fill="black" stroke="black" cx="117" cy="-70" rx="1.8" ry="1.8"/>
<text text-anchor="middle" x="112.2" y="-61.8" font-family="Helvetica,sans-Serif" font-size="8.00">0</text>
</g>
<!-- (8, 1)&#45;&gt;(9, 0) -->
<g id="edge5" class="edge">
<title>(8, 1)&#45;&gt;(9, 0)</title>
<path fill="none" stroke="blue" d="M68.24,-46.42C73.64,-49.08 103.35,-63.75 112.98,-68.51"/>
<polygon fill="blue" stroke="blue" points="114.97,-69.49 112.68,-69.62 114.08,-69.05 113.18,-68.61 113.18,-68.61 113.18,-68.61 114.08,-69.05 113.68,-67.6 114.97,-69.49 114.97,-69.49"/>
</g>
<!-- (10, 0) -->
<g id="node13" class="node">
<title>(10, 0)</title>
<ellipse fill="black" stroke="black" cx="159.6" cy="-97" rx="1.8" ry="1.8"/>
<text text-anchor="middle" x="154.8" y="-88.8" font-family="Helvetica,sans-Serif" font-size="8.00">0</text>
</g>
<!-- (9, 0)&#45;&gt;(10, 0) -->
<g id="edge7" class="edge">
<title>(9, 0)&#45;&gt;(10, 0)</title>
<path fill="none" stroke="blue" d="M119,-70.76C122.48,-73.39 134.44,-82.34 144.8,-89 148.59,-91.43 153.13,-94 155.94,-95.55"/>
<polygon fill="blue" stroke="blue" points="157.84,-96.59 155.54,-96.62 156.96,-96.11 156.08,-95.63 156.08,-95.63 156.08,-95.63 156.96,-96.11 156.62,-94.64 157.84,-96.59 157.84,-96.59"/>
</g>
<!-- (11, 0) -->
<g id="node15" class="node">
<title>(11, 0)</title>
<ellipse fill="black" stroke="black" cx="202.2" cy="-64" rx="1.8" ry="1.8"/>
<text text-anchor="middle" x="197.4" y="-55.8" font-family="Helvetica,sans-Serif" font-size="8.00">0</text>
</g>
<!-- (9, 1)&#45;&gt;(11, 0) -->
<g id="edge8" class="edge">
<title>(9, 1)&#45;&gt;(11, 0)</title>
<path fill="none" stroke="blue" d="M118.93,-55.1C126.97,-55.97 184.43,-62.19 198.23,-63.68"/>
<polygon fill="blue" stroke="blue" points="200.38,-63.91 198.27,-64.81 199.38,-63.8 198.39,-63.7 198.39,-63.7 198.39,-63.7 199.38,-63.8 198.51,-62.58 200.38,-63.91 200.38,-63.91"/>
</g>
<!-- (13, 0) -->
<g id="node19" class="node">
<title>(13, 0)</title>
<ellipse fill="black" stroke="black" cx="287.4" cy="-101" rx="1.8" ry="1.8"/>
<text text-anchor="middle" x="282.6" y="-92.8" font-family="Helvetica,sans-Serif" font-size="8.00">0</text>
</g>
<!-- (10, 0)&#45;&gt;(13, 0) -->
<g id="edge10" class="edge">
<title>(10, 0)&#45;&gt;(13, 0)</title>
<path fill="none" stroke="blue" d="M161.4,-97.03C170.98,-97.33 263.24,-100.26 282.78,-100.88"/>
<polygon fill="blue" stroke="blue" points="285.11,-100.96 283.08,-102.02 284.11,-100.93 283.11,-100.9 283.11,-100.9 283.11,-100.9 284.11,-100.93 283.15,-99.77 285.11,-100.96 285.11,-100.96"/>
</g>
<!-- (11, 1) -->
<g id="node16" class="node">
<title>(11, 1)</title>
<ellipse fill="black" stroke="black" cx="202.2" cy="-49" rx="1.8" ry="1.8"/>
<text text-anchor="middle" x="197.4" y="-40.8" font-family="Helvetica,sans-Serif" font-size="8.00">1</text>
</g>
<!-- (10, 1)&#45;&gt;(11, 1) -->
<g id="edge9" class="edge">
<title>(10, 1)&#45;&gt;(11, 1)</title>
<path fill="none" stroke="blue" d="M161.55,-80.96C164.87,-77.36 176.36,-65.19 187.4,-57 191.01,-54.32 195.6,-51.82 198.47,-50.35"/>
<polygon fill="blue" stroke="blue" points="200.41,-49.38 199.13,-51.28 199.52,-49.82 198.63,-50.27 198.63,-50.27 198.63,-50.27 199.52,-49.82 198.12,-49.26 200.41,-49.38 200.41,-49.38"/>
</g>
<!-- (11, 0)&#45;&gt;(5, 0) -->
<g id="edge12" class="edge">
<title>(11, 0)&#45;&gt;(5, 0)</title>
<path fill="none" stroke="blue" d="M204.52,-64.06C216.09,-64.55 299.98,-68.11 317.71,-68.86"/>
<polygon fill="blue" stroke="blue" points="319.83,-68.95 317.79,-69.99 318.83,-68.91 317.84,-68.87 317.84,-68.87 317.84,-68.87 318.83,-68.91 317.88,-67.74 319.83,-68.95 319.83,-68.95"/>
</g>
<!-- (12, 1) -->
<g id="node18" class="node">
<title>(12, 1)</title>
<ellipse fill="black" stroke="black" cx="244.8" cy="-15" rx="1.8" ry="1.8"/>
<text text-anchor="middle" x="240" y="-6.8" font-family="Helvetica,sans-Serif" font-size="8.00">1</text>
</g>
<!-- (11, 1)&#45;&gt;(12, 1) -->
<g id="edge11" class="edge">
<title>(11, 1)&#45;&gt;(12, 1)</title>
<path fill="none" stroke="blue" d="M204.14,-47.91C207.43,-44.15 218.83,-31.45 230,-23 233.59,-20.28 238.18,-17.79 241.06,-16.34"/>
<polygon fill="blue" stroke="blue" points="243.01,-15.37 241.72,-17.27 242.11,-15.81 241.22,-16.26 241.22,-16.26 241.22,-16.26 242.11,-15.81 240.72,-15.25 243.01,-15.37 243.01,-15.37"/>
</g>
<!-- (13, 1) -->
<g id="node20" class="node">
<title>(13, 1)</title>
<ellipse fill="black" stroke="black" cx="287.4" cy="-86" rx="1.8" ry="1.8"/>
<text text-anchor="middle" x="282.6" y="-77.8" font-family="Helvetica,sans-Serif" font-size="8.00">1</text>
</g>
<!-- (12, 0)&#45;&gt;(13, 1) -->
<g id="edge13" class="edge">
<title>(12, 0)&#45;&gt;(13, 1)</title>
<path fill="none" stroke="blue" d="M246.5,-30.97C251.13,-37.35 277.13,-73.21 284.47,-83.34"/>
<polygon fill="blue" stroke="blue" points="285.8,-85.17 283.71,-84.21 285.21,-84.36 284.62,-83.55 284.62,-83.55 284.62,-83.55 285.21,-84.36 285.54,-82.89 285.8,-85.17 285.8,-85.17"/>
</g>
<!-- (12, 1)&#45;&gt;(7, 0) -->
<g id="edge14" class="edge">
<title>(12, 1)&#45;&gt;(7, 0)</title>
<path fill="none" stroke="blue" d="M246.64,-15.44C253.84,-19.17 304.96,-45.68 317.99,-52.44"/>
<polygon fill="blue" stroke="blue" points="319.85,-53.4 317.56,-53.48 318.96,-52.94 318.07,-52.48 318.07,-52.48 318.07,-52.48 318.96,-52.94 318.59,-51.48 319.85,-53.4 319.85,-53.4"/>
</g>
<!-- (13, 0)&#45;&gt;(3, 0) -->
<g id="edge15" class="edge">
<title>(13, 0)&#45;&gt;(3, 0)</title>
<path fill="none" stroke="blue" d="M289.21,-100.95C293.12,-100.71 310.24,-99.66 317.61,-99.21"/>
<polygon fill="blue" stroke="blue" points="319.84,-99.07 317.91,-100.32 318.84,-99.13 317.84,-99.19 317.84,-99.19 317.84,-99.19 318.84,-99.13 317.77,-98.07 319.84,-99.07 319.84,-99.07"/>
</g>
<!-- (13, 1)&#45;&gt;(1, 0) -->
<g id="edge16" class="edge">
<title>(13, 1)&#45;&gt;(1, 0)</title>
<path fill="none" stroke="blue" d="M289.21,-85.95C293.12,-85.71 310.24,-84.66 317.61,-84.21"/>
<polygon fill="blue" stroke="blue" points="319.84,-84.07 317.91,-85.32 318.84,-84.13 317.84,-84.19 317.84,-84.19 317.84,-84.19 318.84,-84.13 317.77,-83.07 319.84,-84.07 319.84,-84.07"/>
</g>
</g>
</svg>