<?xml version="1.0" encoding="UTF-8" standalone="no"?>
<!DOCTYPE svg PUBLIC "-//W3C//DTD SVG 1.1//EN"
 "http://www.w3.org/Graphics/SVG/1.1/DTD/svg11.dtd">
<!-- Generated by graphviz version 2.43.0 (0)
 -->
<!-- Title: Qubit connectivity Pages: 1 -->
<svg width="142pt" height="142pt"
 viewBox="0.00 0.00 142.21 142.28" xmlns="http://www.w3.org/2000/svg" xmlns:xlink="http://www.w3.org/1999/xlink">
<g id="graph0" class="graph" transform="scale(1 1) rotate(0) translate(4 138.28)">
<title>Qubit connectivity</title>
<polygon fill="white" stroke="transparent" points="-4,4 -4,-138.28 138.21,-138.28 138.21,4 -4,4"/>
<!-- q[1] -->
<g id="node1" class="node">
<title>q[1]</title>
<ellipse fill="none" stroke="blue" cx="24.14" cy="-60.77" rx="24.27" ry="24.27"/>
<text text-anchor="middle" x="24.14" y="-58.27" font-family="Courier,monospace" font-size="10.00">q[1]</text>
</g>
<!-- q[0] -->
<g id="node2" class="node">
<title>q[0]</title>
<ellipse fill="none" stroke="blue" cx="110.07" cy="-73.49" rx="24.27" ry="24.27"/>
<text text-anchor="middle" x="110.07" y="-70.99" font-family="Courier,monospace" font-size="10.00">q[0]</text>
</g>
<!-- q[1]&#45;&#45;q[0] -->
<g id="edge1" class="edge">
<title>q[1]&#45;&#45;q[0]</title>
<path fill="none" stroke="black" d="M48.07,-64.31C59.89,-66.06 74.12,-68.17 85.96,-69.92"/>
</g>
<!-- q[2] -->
<g id="node3" class="node">
<title>q[2]</title>
<ellipse fill="none" stroke="blue" cx="73.43" cy="-24.14" rx="24.27" ry="24.27"/>
<text text-anchor="middle" x="73.43" y="-21.64" font-family="Courier,monospace" font-size="10.00">q[2]</text>
</g>
<!-- q[1]&#45;&#45;q[2] -->
<g id="edge2" class="edge">
<title>q[1]&#45;&#45;q[2]</title>
<path fill="none" stroke="black" d="M43.62,-46.29C46.95,-43.81 50.42,-41.23 53.76,-38.75"/>
</g>
<!-- q[3] -->
<g id="node4" class="node">
<title>q[3]</title>
<ellipse fill="none" stroke="blue" cx="60.69" cy="-110.15" rx="24.27" ry="24.27"/>
<text text-anchor="middle" x="60.69" y="-107.65" font-family="Courier,monospace" font-size="10.00">q[3]</text>
</g>
<!-- q[1]&#45;&#45;q[3] -->
<g id="edge3" class="edge">
<title>q[1]&#45;&#45;q[3]</title>
<path fill="none" stroke="black" d="M38.58,-80.28C41.06,-83.63 43.63,-87.1 46.11,-90.45"/>
</g>
<!-- q[0]&#45;&#45;q[2] -->
<g id="edge4" class="edge">
<title>q[0]&#45;&#45;q[2]</title>
<path fill="none" stroke="black" d="M95.59,-53.98C93.11,-50.64 90.53,-47.17 88.04,-43.82"/>
</g>
<!-- q[0]&#45;&#45;q[3] -->
<g id="edge5" class="edge">
<title>q[0]&#45;&#45;q[3]</title>
<path fill="none" stroke="black" d="M90.55,-87.98C87.21,-90.46 83.74,-93.04 80.39,-95.52"/>
</g>
<!-- q[2]&#45;&#45;q[3] -->
<g id="edge6" class="edge">
<title>q[2]&#45;&#45;q[3]</title>
<path fill="none" stroke="black" d="M69.88,-48.09C68.13,-59.93 66.02,-74.17 64.26,-86.02"/>
</g>
</g>
</svg>