<?xml version="1.0" encoding="UTF-8" standalone="no"?>
<!DOCTYPE svg PUBLIC "-//W3C//DTD SVG 1.1//EN"
 "http://www.w3.org/Graphics/SVG/1.1/DTD/svg11.dtd">
<!-- Generated by graphviz version 2.43.0 (0)
 -->
<!-- Title: Qubit connectivity Pages: 1 -->
<svg width="79pt" height="278pt"
 viewBox="0.00 0.00 79.41 277.63" xmlns="http://www.w3.org/2000/svg" xmlns:xlink="http://www.w3.org/1999/xlink">
<g id="graph0" class="graph" transform="scale(1 1) rotate(0) translate(4 273.63)">
<title>Qubit connectivity</title>
<polygon fill="white" stroke="transparent" points="-4,4 -4,-273.63 75.41,-273.63 75.41,4 -4,4"/>
<!-- e0[0] -->
<g id="node1" class="node">
<title>e0[0]</title>
<ellipse fill="none" stroke="blue" cx="27.67" cy="-27.67" rx="27.84" ry="27.84"/>
<text text-anchor="middle" x="27.67" y="-25.17" font-family="Courier,monospace" font-size="10.00">e0[0]</text>
</g>
<!-- e1[1] -->
<g id="node2" class="node">
<title>e1[1]</title>
<ellipse fill="none" stroke="blue" cx="43.74" cy="-98.14" rx="27.84" ry="27.84"/>
<text text-anchor="middle" x="43.74" y="-95.64" font-family="Courier,monospace" font-size="10.00">e1[1]</text>
</g>
<!-- e0[0]&#45;&#45;e1[1] -->
<g id="edge1" class="edge">
<title>e0[0]&#45;&#45;e1[1]</title>
<path fill="none" stroke="black" d="M33.83,-54.71C35.04,-59.99 36.3,-65.53 37.51,-70.82"/>
</g>
<!-- e2[2] -->
<g id="node3" class="node">
<title>e2[2]</title>
<ellipse fill="none" stroke="blue" cx="42.13" cy="-170.36" rx="27.84" ry="27.84"/>
<text text-anchor="middle" x="42.13" y="-167.86" font-family="Courier,monospace" font-size="10.00">e2[2]</text>
</g>
<!-- e1[1]&#45;&#45;e2[2] -->
<g id="edge2" class="edge">
<title>e1[1]&#45;&#45;e2[2]</title>
<path fill="none" stroke="black" d="M43.12,-125.85C43,-131.26 42.88,-136.94 42.76,-142.36"/>
</g>
<!-- e3[3] -->
<g id="node4" class="node">
<title>e3[3]</title>
<ellipse fill="none" stroke="blue" cx="33.63" cy="-241.96" rx="27.84" ry="27.84"/>
<text text-anchor="middle" x="33.63" y="-239.46" font-family="Courier,monospace" font-size="10.00">e3[3]</text>
</g>
<!-- e2[2]&#45;&#45;e3[3] -->
<g id="edge3" class="edge">
<title>e2[2]&#45;&#45;e3[3]</title>
<path fill="none" stroke="black" d="M38.87,-197.84C38.23,-203.2 37.57,-208.83 36.93,-214.2"/>
</g>
</g>
</svg>