<?xml version="1.0" encoding="UTF-8" standalone="no"?>
<!DOCTYPE svg PUBLIC "-//W3C//DTD SVG 1.1//EN"
 "http://www.w3.org/Graphics/SVG/1.1/DTD/svg11.dtd">
<!-- Generated by graphviz version 2.43.0 (0)
 -->
<!-- Title: Circuit Pages: 1 -->
<svg width="145pt" height="105pt"
 viewBox="0.00 0.00 144.80 105.00" xmlns="http://www.w3.org/2000/svg" xmlns:xlink="http://www.w3.org/1999/xlink">
<g id="graph0" class="graph" transform="scale(1 1) rotate(0) translate(4 101)">
<title>Circuit</title>
<polygon fill="white" stroke="transparent" points="-4,4 -4,-101 140.8,-101 140.8,4 -4,4"/>
<g id="clust1" class="cluster">
<title>cluster_q_inputs</title>
<path fill="lightgrey" stroke="lightgrey" d="M22.53,-8C22.53,-8 27.07,-8 27.07,-8 29.33,-8 31.6,-10.27 31.6,-12.53 31.6,-12.53 31.6,-62.47 31.6,-62.47 31.6,-64.73 29.33,-67 27.07,-67 27.07,-67 22.53,-67 22.53,-67 20.27,-67 18,-64.73 18,-62.47 18,-62.47 18,-12.53 18,-12.53 18,-10.27 20.27,-8 22.53,-8"/>
</g>
<g id="clust4" class="cluster">
<title>cluster_q_outputs</title>
<path fill="lightgrey" stroke="lightgrey" d="M119.73,-9C119.73,-9 124.27,-9 124.27,-9 126.53,-9 128.8,-11.27 128.8,-13.53 128.8,-13.53 128.8,-63.47 128.8,-63.47 128.8,-65.73 126.53,-68 124.27,-68 124.27,-68 119.73,-68 119.73,-68 117.47,-68 115.2,-65.73 115.2,-63.47 115.2,-63.47 115.2,-13.53 115.2,-13.53 115.2,-11.27 117.47,-9 119.73,-9"/>
</g>
<g id="clust7" class="cluster">
<title>cluster_8</title>
<path fill="lightblue" stroke="lightblue" d="M55.6,-41C55.6,-41 91.2,-41 91.2,-41 97.2,-41 103.2,-47 103.2,-53 103.2,-53 103.2,-77 103.2,-77 103.2,-83 97.2,-89 91.2,-89 91.2,-89 55.6,-89 55.6,-89 49.6,-89 43.6,-83 43.6,-77 43.6,-77 43.6,-53 43.6,-53 43.6,-47 49.6,-41 55.6,-41"/>
<text text-anchor="middle" x="73.4" y="-77" font-family="Times,serif" font-size="10.00">CRy(0.6)</text>
</g>
<!-- (0, 0) -->
<g id="node1" class="node">
<title>(0, 0)</title>
<ellipse fill="blue" stroke="blue" cx="24.8" cy="-60" rx="1.8" ry="1.8"/>
<text text-anchor="middle" x="11.5" y="-51.8" font-family="Courier,monospace" font-size="8.00">e0[0]</text>
</g>
<!-- (8, 0) -->
<g id="node9" class="node">
<title>(8, 0)</title>
<ellipse fill="black" stroke="black" cx="73.4" cy="-63" rx="1.8" ry="1.8"/>
<text text-anchor="middle" x="68.6" y="-54.8" font-family="Helvetica,sans-Serif" font-size="8.00">0</text>
</g>
<!-- (0, 0)&#45;&gt;(8, 0) -->
<g id="edge1" class="edge">
<title>(0, 0)&#45;&gt;(8, 0)</title>
<path fill="none" stroke="blue" d="M26.61,-60.05C31.69,-60.38 59.31,-62.16 69.02,-62.78"/>
<polygon fill="blue" stroke="blue" points="71.42,-62.94 69.35,-63.93 70.42,-62.87 69.42,-62.81 69.42,-62.81 69.42,-62.81 70.42,-62.87 69.49,-61.69 71.42,-62.94 71.42,-62.94"/>
</g>
<!-- (2, 0) -->
<g id="node2" class="node">
<title>(2, 0)</title>
<ellipse fill="blue" stroke="blue" cx="24.8" cy="-30" rx="1.8" ry="1.8"/>
<text text-anchor="middle" x="11.5" y="-21.8" font-family="Courier,monospace" font-size="8.00">e1[1]</text>
</g>
<!-- (3, 0) -->
<g id="node6" class="node">
<title>(3, 0)</title>
<ellipse fill="blue" stroke="blue" cx="122" cy="-31" rx="1.8" ry="1.8"/>
<text text-anchor="middle" x="108.7" y="-22.8" font-family="Courier,monospace" font-size="8.00">e1[1]</text>
</g>
<!-- (2, 0)&#45;&gt;(3, 0) -->
<g id="edge2" class="edge">
<title>(2, 0)&#45;&gt;(3, 0)</title>
<path fill="none" stroke="blue" d="M26.87,-30.01C36.14,-30.11 102.91,-30.81 117.98,-30.97"/>
<polygon fill="blue" stroke="blue" points="120.06,-30.99 118.05,-32.09 119.06,-30.98 118.06,-30.97 118.06,-30.97 118.06,-30.97 119.06,-30.98 118.07,-29.84 120.06,-30.99 120.06,-30.99"/>
</g>
<!-- (4, 0) -->
<g id="node3" class="node">
<title>(4, 0)</title>
<ellipse fill="blue" stroke="blue" cx="24.8" cy="-45" rx="1.8" ry="1.8"/>
<text text-anchor="middle" x="11.5" y="-36.8" font-family="Courier,monospace" font-size="8.00">e2[2]</text>
</g>
<!-- (8, 1) -->
<g id="node10" class="node">
<title>(8, 1)</title>
<ellipse fill="black" stroke="black" cx="73.4" cy="-48" rx="1.8" ry="1.8"/>
<text text-anchor="middle" x="68.6" y="-39.8" font-family="Helvetica,sans-Serif" font-size="8.00">1</text>
</g>
<!-- (4, 0)&#45;&gt;(8, 1) -->
<g id="edge3" class="edge">
<title>(4, 0)&#45;&gt;(8, 1)</title>
<path fill="none" stroke="blue" d="M26.61,-45.05C31.69,-45.38 59.31,-47.16 69.02,-47.78"/>
<polygon fill="blue" stroke="blue" points="71.42,-47.94 69.35,-48.93 70.42,-47.87 69.42,-47.81 69.42,-47.81 69.42,-47.81 70.42,-47.87 69.49,-46.69 71.42,-47.94 71.42,-47.94"/>
</g>
<!-- (6, 0) -->
<g id="node4" class="node">
<title>(6, 0)</title>
<ellipse fill="blue" stroke="blue" cx="24.8" cy="-15" rx="1.8" ry="1.8"/>
<text text-anchor="middle" x="11.5" y="-6.8" font-family="Courier,monospace" font-size="8.00">e3[3]</text>
</g>
<!-- (7, 0) -->
<g id="node8" class="node">
<title>(7, 0)</title>
<ellipse fill="blue" stroke="blue" cx="122" cy="-16" rx="1.8" ry="1.8"/>
<text text-anchor="middle" x="108.7" y="-7.8" font-family="Courier,monospace" font-size="8.00">e3[3]</text>
</g>
<!-- (6, 0)&#45;&gt;(7, 0) -->
<g id="edge4" class="edge">
<title>(6, 0)&#45;&gt;(7, 0)</title>
<path fill="none" stroke="blue" d="M26.87,-15.01C36.14,-15.11 102.91,-15.81 117.98,-15.97"/>
<polygon fill="blue" stroke="blue" points="120.06,-15.99 118.05,-17.09 119.06,-15.98 118.06,-15.97 118.06,-15.97 118.06,-15.97 119.06,-15.98 118.07,-14.84 120.06,-15.99 120.06,-15.99"/>
</g>
<!-- (1, 0) -->
<g id="node5" class="node">
<title>(1, 0)</title>
<ellipse fill="blue" stroke="blue" cx="122" cy="-61" rx="1.8" ry="1.8"/>
<text text-anchor="middle" x="108.7" y="-52.8" font-family="Courier,monospace" font-size="8.00">e0[0]</text>
</g>
<!-- (5, 0) -->
<g id="node7" class="node">
<title>(5, 0)</title>
<ellipse fill="blue" stroke="blue" cx="122" cy="-46" rx="1.8" ry="1.8"/>
<text text-anchor="middle" x="108.7" y="-37.8" font-family="Courier,monospace" font-size="8.00">e2[2]</text>
</g>
<!-- (8, 0)&#45;&gt;(1, 0) -->
<g id="edge6" class="edge">
<title>(8, 0)&#45;&gt;(1, 0)</title>
<path fill="none" stroke="blue" d="M75.21,-62.97C80.29,-62.75 107.91,-61.56 117.62,-61.14"/>
<polygon fill="blue" stroke="blue" points="120.02,-61.04 118.07,-62.25 119.02,-61.09 118.02,-61.13 118.02,-61.13 118.02,-61.13 119.02,-61.09 117.97,-60 120.02,-61.04 120.02,-61.04"/>
</g>
<!-- (8, 1)&#45;&gt;(5, 0) -->
<g id="edge5" class="edge">
<title>(8, 1)&#45;&gt;(5, 0)</title>
<path fill="none" stroke="blue" d="M75.21,-47.97C80.29,-47.75 107.91,-46.56 117.62,-46.14"/>
<polygon fill="blue" stroke="blue" points="120.02,-46.04 118.07,-47.25 119.02,-46.09 118.02,-46.13 118.02,-46.13 118.02,-46.13 119.02,-46.09 117.97,-45 120.02,-46.04 120.02,-46.04"/>
</g>
</g>
</svg>