<?xml version="1.0" encoding="UTF-8" standalone="no"?>
<!DOCTYPE svg PUBLIC "-//W3C//DTD SVG 1.1//EN"
 "http://www.w3.org/Graphics/SVG/1.1/DTD/svg11.dtd">
<!-- Generated by graphviz version 2.43.0 (0)
 -->
<!-- Title: Qubit connectivity Pages: 1 -->
<svg width="148pt" height="151pt"
 viewBox="0.00 0.00 147.63 150.52" xmlns="http://www.w3.org/2000/svg" xmlns:xlink="http://www.w3.org/1999/xlink">
<g id="graph0" class="graph" transform="scale(1 1) rotate(0) translate(4 146.52)">
<title>Qubit connectivity</title>
<polygon fill="white" stroke="transparent" points="-4,4 -4,-146.52 143.63,-146.52 143.63,4 -4,4"/>
<!-- q[0] -->
<g id="node1" class="node">
<title>q[0]</title>
<ellipse fill="none" stroke="blue" cx="24.14" cy="-59.73" rx="24.27" ry="24.27"/>
<text text-anchor="middle" x="24.14" y="-57.23" font-family="Courier,monospace" font-size="10.00">q[0]</text>
</g>
<!-- q[1] -->
<g id="node2" class="node">
<title>q[1]</title>
<ellipse fill="none" stroke="blue" cx="115.49" cy="-82.38" rx="24.27" ry="24.27"/>
<text text-anchor="middle" x="115.49" y="-79.88" font-family="Courier,monospace" font-size="10.00">q[1]</text>
</g>
<!-- q[0]&#45;&#45;q[1] -->
<g id="edge1" class="edge">
<title>q[0]&#45;&#45;q[1]</title>
<path fill="none" stroke="black" d="M47.66,-65.56C61.3,-68.94 78.42,-73.19 92.04,-76.56"/>
</g>
<!-- q[3] -->
<g id="node3" class="node">
<title>q[3]</title>
<ellipse fill="none" stroke="blue" cx="70.3" cy="-24.14" rx="24.27" ry="24.27"/>
<text text-anchor="middle" x="70.3" y="-21.64" font-family="Courier,monospace" font-size="10.00">q[3]</text>
</g>
<!-- q[0]&#45;&#45;q[3] -->
<g id="edge2" class="edge">
<title>q[0]&#45;&#45;q[3]</title>
<path fill="none" stroke="black" d="M43.45,-44.84C45.92,-42.93 48.45,-40.98 50.92,-39.08"/>
</g>
<!-- q[2] -->
<g id="node4" class="node">
<title>q[2]</title>
<ellipse fill="none" stroke="blue" cx="69.61" cy="-118.38" rx="24.27" ry="24.27"/>
<text text-anchor="middle" x="69.61" y="-115.88" font-family="Courier,monospace" font-size="10.00">q[2]</text>
</g>
<!-- q[1]&#45;&#45;q[2] -->
<g id="edge3" class="edge">
<title>q[1]&#45;&#45;q[2]</title>
<path fill="none" stroke="black" d="M96.3,-97.44C93.85,-99.37 91.33,-101.34 88.87,-103.27"/>
</g>
<!-- q[2]&#45;&#45;q[3] -->
<g id="edge4" class="edge">
<title>q[2]&#45;&#45;q[3]</title>
<path fill="none" stroke="black" d="M69.79,-94.11C69.89,-80.04 70.02,-62.38 70.12,-48.32"/>
</g>
</g>
</svg>