<?xml version="1.0" encoding="UTF-8" standalone="no"?>
<!DOCTYPE svg PUBLIC "-//W3C//DTD SVG 1.1//EN"
 "http://www.w3.org/Graphics/SVG/1.1/DTD/svg11.dtd">
<!-- Generated by graphviz version 2.43.0 (0)
 -->
<!-- Title: Qubit connectivity Pages: 1 -->
<svg width="278pt" height="80pt"
 viewBox="0.00 0.00 277.68 80.27" xmlns="http://www.w3.org/2000/svg" xmlns:xlink="http://www.w3.org/1999/xlink">
<g id="graph0" class="graph" transform="scale(1 1) rotate(0) translate(4 76.27)">
<title>Qubit connectivity</title>
<polygon fill="white" stroke="transparent" points="-4,4 -4,-76.27 273.68,-76.27 273.68,4 -4,4"/>
<!-- e1[1] -->
<g id="node1" class="node">
<title>e1[1]</title>
<ellipse fill="none" stroke="blue" cx="170.14" cy="-29.46" rx="27.84" ry="27.84"/>
<text text-anchor="middle" x="170.14" y="-26.96" font-family="Courier,monospace" font-size="10.00">e1[1]</text>
</g>
<!-- e0[0] -->
<g id="node2" class="node">
<title>e0[0]</title>
<ellipse fill="none" stroke="blue" cx="242.01" cy="-34.78" rx="27.84" ry="27.84"/>
<text text-anchor="middle" x="242.01" y="-32.28" font-family="Courier,monospace" font-size="10.00">e0[0]</text>
</g>
<!-- e1[1]&#45;&#45;e0[0] -->
<g id="edge1" class="edge">
<title>e1[1]&#45;&#45;e0[0]</title>
<path fill="none" stroke="black" d="M198.13,-31.53C203.34,-31.92 208.77,-32.32 213.98,-32.7"/>
</g>
<!-- e2[2] -->
<g id="node3" class="node">
<title>e2[2]</title>
<ellipse fill="none" stroke="blue" cx="97.93" cy="-27.67" rx="27.84" ry="27.84"/>
<text text-anchor="middle" x="97.93" y="-25.17" font-family="Courier,monospace" font-size="10.00">e2[2]</text>
</g>
<!-- e1[1]&#45;&#45;e2[2] -->
<g id="edge2" class="edge">
<title>e1[1]&#45;&#45;e2[2]</title>
<path fill="none" stroke="black" d="M142.43,-28.77C137.02,-28.64 131.34,-28.5 125.92,-28.36"/>
</g>
<!-- e3[3] -->
<g id="node4" class="node">
<title>e3[3]</title>
<ellipse fill="none" stroke="blue" cx="27.67" cy="-44.6" rx="27.84" ry="27.84"/>
<text text-anchor="middle" x="27.67" y="-42.1" font-family="Courier,monospace" font-size="10.00">e3[3]</text>
</g>
<!-- e2[2]&#45;&#45;e3[3] -->
<g id="edge3" class="edge">
<title>e2[2]&#45;&#45;e3[3]</title>
<path fill="none" stroke="black" d="M70.96,-34.17C65.7,-35.43 60.18,-36.76 54.91,-38.04"/>
</g>
</g>
</svg>