<svg width="72" height="42" xmlns="http://www.w3.org/2000/svg" xmlns:xlink="http://www.w3.org/1999/xlink" xml:space="preserve" overflow="hidden"><defs><clipPath id="clip0"><rect x="123" y="188" width="72" height="42"/></clipPath></defs><g clip-path="url(#clip0)" transform="translate(-123 -188)"><path d="M35.5968 10.0518 35.5968 23.1787 15.7096 23.1787 15.7096 10.0518 9.73641 10.0518 9.73641 23.1787 9.73641 29.1545 9.73641 42 15.7096 42 15.7096 29.1545 35.5968 29.1545 35.5968 42 41.57 42 41.57 29.1545 41.57 23.1787 41.57 10.0518 35.5968 10.0518Z" transform="matrix(1.01099 0 0 1 123.024 188)"/><path d="M52.7893 10.0518 46.6571 17.4375 53.373 17.4375 53.373 42 59.3488 42 59.3488 17.4375 59.3488 10.0518" transform="matrix(1.01099 0 0 1 123.024 188)"/><path d="M3.7997 2.18131C4.03425 2.27252 4.21407 2.40544 4.34959 2.57223 4.50856 2.7729 4.58935 3.01526 4.58935 3.29933 4.58935 3.44788 4.5685 3.5834 4.53202 3.70588 4.49553 3.82316 4.43559 3.93522 4.3522 4.04989 4.21407 4.22971 4.02643 4.36783 3.78667 4.46426 3.42442 4.61802 2.91884 4.6936 2.26992 4.69099 1.82949 4.69099 1.42293 4.62844 1.05287 4.50596 0.661951 4.38347 0.364855 4.20365 0.161579 3.97171 0.101638 3.90655 0.0547282 3.84401 0.023455 3.77885L0.701042 3.31236C0.708861 3.328 0.721891 3.34363 0.737528 3.35927 0.844378 3.47655 1.0242 3.57558 1.27699 3.66418 1.57669 3.758 1.90506 3.80491 2.2621 3.80491 2.80678 3.80491 3.21593 3.74758 3.48958 3.63812 3.60685 3.59121 3.69025 3.53388 3.73716 3.46873 3.77104 3.42182 3.78928 3.36188 3.79188 3.28891 3.79188 3.23157 3.77625 3.18206 3.75019 3.14036 3.70067 3.08563 3.6277 3.03872 3.52346 2.99963 3.328 2.92666 2.92144 2.85369 2.29337 2.78332L2.22822 2.77811C1.53239 2.69993 1.05547 2.60871 0.800074 2.50447 0.568131 2.41847 0.383098 2.29337 0.242368 2.12658 0.0833954 1.92591 0.00260611 1.68094 0.00260611 1.39427 0.00260611 1.25614 0.023455 1.12063 0.0651526 0.987714 0.10685 0.860015 0.166791 0.745346 0.244974 0.643708 0.372673 0.471705 0.562919 0.333582 0.810499 0.226731 1.16232 0.0755771 1.66791 3.76137e-16 2.32725 3.76137e-16 2.78071 3.76137e-16 3.18466 0.0599404 3.53909 0.182427 3.9248 0.304914 4.22189 0.484736 4.42777 0.716679 4.46426 0.758377 4.51117 0.820923 4.5659 0.904319L3.8831 1.37081 3.85182 1.3239C3.75279 1.20402 3.57297 1.10238 3.31236 1.02159 3.01787 0.925168 2.6895 0.873045 2.32725 0.873045 1.77476 0.873045 1.3656 0.93038 1.09717 1.03984 0.97729 1.09456 0.893894 1.14929 0.852197 1.20923 0.818317 1.25614 0.800074 1.31608 0.797468 1.38905 0.797468 1.46724 0.818317 1.51154 0.839166 1.54021 0.878258 1.5793 0.946016 1.62882 1.06329 1.68094 1.25875 1.75391 1.67051 1.82688 2.30119 1.89725L2.35853 1.90246C3.05957 1.98325 3.53649 2.07446 3.78928 2.17349L3.7997 2.1787Z" transform="matrix(1.01099 0 0 1 123.024 188)"/><path d="M10.2003 0.179821 9.16567 0.179821 7.74274 1.76433 6.32241 0.179821 5.28779 0.179821 7.33879 2.46798 7.33879 4.50856 8.14929 4.50856 8.14929 2.46798 10.2003 0.179821Z" transform="matrix(1.01099 0 0 1 123.024 188)"/><path d="M14.7193 2.18131C14.9538 2.27252 15.1337 2.40544 15.2692 2.57223 15.4281 2.7729 15.5089 3.01526 15.5089 3.29933 15.5089 3.44788 15.4881 3.5834 15.4516 3.70588 15.4151 3.82316 15.3552 3.93522 15.2718 4.04989 15.1337 4.22971 14.946 4.36783 14.7063 4.46426 14.344 4.61802 13.8384 4.6936 13.1895 4.69099 12.7491 4.69099 12.3425 4.62844 11.9724 4.50596 11.5815 4.38347 11.2844 4.20365 11.0812 3.97171 11.0212 3.90655 10.9743 3.84401 10.943 3.77885L11.6206 3.31236C11.6284 3.328 11.6415 3.34363 11.6571 3.35927 11.764 3.47655 11.9438 3.57558 12.1966 3.66418 12.4963 3.758 12.8246 3.80491 13.1817 3.80491 13.7264 3.80491 14.1355 3.74758 14.4092 3.63812 14.5264 3.59121 14.6098 3.53388 14.6567 3.46873 14.6906 3.42182 14.7089 3.36188 14.7115 3.28891 14.7115 3.23157 14.6958 3.18206 14.6698 3.14036 14.6203 3.08563 14.5473 3.03872 14.443 2.99963 14.2476 2.92666 13.841 2.85369 13.213 2.78332L13.1478 2.77811C12.452 2.69993 11.9751 2.60871 11.7197 2.50447 11.4877 2.41847 11.3027 2.29337 11.162 2.12658 11.003 1.92591 10.9222 1.68094 10.9222 1.39427 10.9222 1.25614 10.943 1.12063 10.9847 0.987714 11.0264 0.860015 11.0864 0.745346 11.1646 0.643708 11.2923 0.471705 11.4825 0.333582 11.7301 0.226731 12.0819 0.0755771 12.5875 3.76137e-16 13.2468 3.76137e-16 13.7003 3.76137e-16 14.1042 0.0599404 14.4587 0.182427 14.8444 0.304914 15.1415 0.484736 15.3474 0.716679 15.3838 0.758377 15.4308 0.820923 15.4855 0.904319L14.8027 1.37081 14.7714 1.3239C14.6724 1.20402 14.4926 1.10238 14.2319 1.02159 13.9375 0.925168 13.6091 0.873045 13.2468 0.873045 12.6943 0.873045 12.2852 0.93038 12.0168 1.03984 11.8969 1.09456 11.8135 1.14929 11.7718 1.20923 11.7379 1.25614 11.7197 1.31608 11.7171 1.38905 11.7171 1.46724 11.7379 1.51154 11.7587 1.54021 11.7978 1.5793 11.8656 1.62882 11.9829 1.68094 12.1783 1.75391 12.5901 1.82688 13.2208 1.89725L13.2781 1.90246C13.9792 1.98325 14.4561 2.07446 14.7089 2.17349L14.7193 2.1787Z" transform="matrix(1.01099 0 0 1 123.024 188)"/><path d="M16.4315 0.99032 18.4877 0.99032 18.4877 4.50856 19.3008 4.50856 19.3008 0.99032 21.357 0.99032 21.357 0.179821 16.4315 0.179821 16.4315 0.99032Z" transform="matrix(1.01099 0 0 1 123.024 188)"/><path d="M26.809 0.985108 26.809 0.177215 23.2986 0.177215 22.4907 0.177215 22.4907 0.985108 22.4907 1.9624 22.4907 2.77029 22.4907 3.70328 22.4907 4.49553 22.4907 4.51117 26.809 4.51117 26.809 3.70328 23.2986 3.70328 23.2986 2.77029 26.809 2.77029 26.809 1.9624 23.2986 1.9624 23.2986 0.985108 26.809 0.985108Z" transform="matrix(1.01099 0 0 1 123.024 188)"/><path d="M33.822 0.177215 31.7893 3.8831 29.7357 0.177215 28.4795 0.177215 28.4795 4.51117 29.29 4.51117 29.29 1.04765 31.2107 4.51117 32.3704 4.51117 34.2625 1.0659 34.2625 4.51117 35.073 4.51117 35.073 0.177215 33.822 0.177215Z" transform="matrix(1.01099 0 0 1 123.024 188)"/><path d="M46.2401 0.177215 44.2074 3.8831 42.1538 0.177215 40.8976 0.177215 40.8976 4.51117 41.7081 4.51117 41.7081 1.04765 43.6288 4.51117 44.7885 4.51117 46.6806 1.0659 46.6806 4.51117 47.4911 4.51117 47.4911 0.177215 46.2401 0.177215Z" transform="matrix(1.01099 0 0 1 123.024 188)"/><path d="M51.2856 4.68838C49.9929 4.68838 48.9401 3.63552 48.9401 2.34289 48.9401 1.05026 49.9929 0 51.2856 0 52.5782 0 53.6311 1.05287 53.6311 2.3455 53.6311 3.63812 52.5782 4.69099 51.2856 4.69099ZM51.2856 0.807893C50.4386 0.807893 49.748 1.49851 49.748 2.3455 49.748 3.19248 50.4386 3.8831 51.2856 3.8831 52.1325 3.8831 52.8232 3.19248 52.8232 2.3455 52.8232 1.49851 52.1325 0.807893 51.2856 0.807893Z" transform="matrix(1.01099 0 0 1 123.024 188)"/><path d="M57.4464 0.179821 57.2874 0.179821C57.2874 0.179821 55.1791 0.179821 55.1791 0.179821L55.1791 4.51117 57.2874 4.51117C57.2874 4.51117 57.4464 4.51117 57.4464 4.51117 58.5879 4.44862 59.4974 3.50261 59.4974 2.3455 59.4974 1.18838 58.5879 0.242368 57.4464 0.179821ZM57.3291 3.70328 57.29 3.70328C57.29 3.70328 55.9896 3.70328 55.9896 3.70328L55.9896 3.70328 55.9896 0.985108 57.29 0.985108C57.29 0.985108 57.3291 0.985108 57.3291 0.985108 58.0797 0.985108 58.6869 1.59494 58.6869 2.34289 58.6869 3.09345 58.0771 3.70067 57.3291 3.70067Z" transform="matrix(1.01099 0 0 1 123.024 188)"/><path d="M65.2751 0.985108 65.2751 0.177215 61.7647 0.177215 60.9594 0.177215 60.9594 0.985108 60.9594 1.9624 60.9594 2.77029 60.9594 3.70328 60.9594 4.49553 60.9594 4.51117 65.2751 4.51117 65.2751 3.70328 61.7647 3.70328 61.7647 2.77029 65.2751 2.77029 65.2751 1.9624 61.7647 1.9624 61.7647 0.985108 65.2751 0.985108Z" transform="matrix(1.01099 0 0 1 123.024 188)"/><path d="M67.7509 0.177215 66.9639 0.177215 66.9639 1.07893 66.9639 2.02755 66.9639 2.81459 66.9639 3.72413 66.9639 4.49553 66.9639 4.51117 71.1701 4.51117 71.1701 3.72413 67.7509 3.72413 67.7509 0.177215Z" transform="matrix(1.01099 0 0 1 123.024 188)"/></g></svg>