<?xml version="1.0" encoding="utf-8" standalone="no"?>
<!DOCTYPE svg PUBLIC "-//W3C//DTD SVG 1.1//EN"
  "http://www.w3.org/Graphics/SVG/1.1/DTD/svg11.dtd">
<svg xmlns:xlink="http://www.w3.org/1999/xlink" width="460.8pt" height="345.6pt" viewBox="0 0 460.8 345.6" xmlns="http://www.w3.org/2000/svg" version="1.1">
 <metadata>
  <rdf:RDF xmlns:dc="http://purl.org/dc/elements/1.1/" xmlns:cc="http://creativecommons.org/ns#" xmlns:rdf="http://www.w3.org/1999/02/22-rdf-syntax-ns#">
   <cc:Work>
    <dc:type rdf:resource="http://purl.org/dc/dcmitype/StillImage"/>
    <dc:date>2024-08-06T15:59:09.666599</dc:date>
    <dc:format>image/svg+xml</dc:format>
    <dc:creator>
     <cc:Agent>
      <dc:title>Matplotlib v3.9.1, https://matplotlib.org/</dc:title>
     </cc:Agent>
    </dc:creator>
   </cc:Work>
  </rdf:RDF>
 </metadata>
 <defs>
  <style type="text/css">*{stroke-linejoin: round; stroke-linecap: butt}</style>
 </defs>
 <g id="figure_1">
  <g id="patch_1">
   <path d="M 0 345.6 
L 460.8 345.6 
L 460.8 0 
L 0 0 
z
" style="fill: #ffffff"/>
  </g>
  <g id="axes_1">
   <g id="patch_2">
    <path d="M 57.6 307.584 
L 414.72 307.584 
L 414.72 41.472 
L 57.6 41.472 
z
" style="fill: #ffffff"/>
   </g>
   <g id="matplotlib.axis_1">
    <g id="xtick_1">
     <g id="line2d_1">
      <path d="M 71.276392 307.584 
L 71.276392 41.472 
" clip-path="url(#p62fd0c6710)" style="fill: none; stroke-dasharray: 2.96,1.28; stroke-dashoffset: 0; stroke: #b0b0b0; stroke-width: 0.8"/>
     </g>
     <g id="line2d_2">
      <defs>
       <path id="mfa93829bb8" d="M 0 0 
L 0 3.5 
" style="stroke: #000000; stroke-width: 0.8"/>
      </defs>
      <g>
       <use xlink:href="#mfa93829bb8" x="71.276392" y="307.584" style="stroke: #000000; stroke-width: 0.8"/>
      </g>
     </g>
     <g id="text_1">
      <!-- 0 -->
      <g transform="translate(68.095142 322.182437) scale(0.1 -0.1)">
       <defs>
        <path id="DejaVuSans-30" d="M 2034 4250 
Q 1547 4250 1301 3770 
Q 1056 3291 1056 2328 
Q 1056 1369 1301 889 
Q 1547 409 2034 409 
Q 2525 409 2770 889 
Q 3016 1369 3016 2328 
Q 3016 3291 2770 3770 
Q 2525 4250 2034 4250 
z
M 2034 4750 
Q 2819 4750 3233 4129 
Q 3647 3509 3647 2328 
Q 3647 1150 3233 529 
Q 2819 -91 2034 -91 
Q 1250 -91 836 529 
Q 422 1150 422 2328 
Q 422 3509 836 4129 
Q 1250 4750 2034 4750 
z
" transform="scale(0.015625)"/>
       </defs>
       <use xlink:href="#DejaVuSans-30"/>
      </g>
     </g>
    </g>
    <g id="xtick_2">
     <g id="line2d_3">
      <path d="M 135.184767 307.584 
L 135.184767 41.472 
" clip-path="url(#p62fd0c6710)" style="fill: none; stroke-dasharray: 2.96,1.28; stroke-dashoffset: 0; stroke: #b0b0b0; stroke-width: 0.8"/>
     </g>
     <g id="line2d_4">
      <g>
       <use xlink:href="#mfa93829bb8" x="135.184767" y="307.584" style="stroke: #000000; stroke-width: 0.8"/>
      </g>
     </g>
     <g id="text_2">
      <!-- 50 -->
      <g transform="translate(128.822267 322.182437) scale(0.1 -0.1)">
       <defs>
        <path id="DejaVuSans-35" d="M 691 4666 
L 3169 4666 
L 3169 4134 
L 1269 4134 
L 1269 2991 
Q 1406 3038 1543 3061 
Q 1681 3084 1819 3084 
Q 2600 3084 3056 2656 
Q 3513 2228 3513 1497 
Q 3513 744 3044 326 
Q 2575 -91 1722 -91 
Q 1428 -91 1123 -41 
Q 819 9 494 109 
L 494 744 
Q 775 591 1075 516 
Q 1375 441 1709 441 
Q 2250 441 2565 725 
Q 2881 1009 2881 1497 
Q 2881 1984 2565 2268 
Q 2250 2553 1709 2553 
Q 1456 2553 1204 2497 
Q 953 2441 691 2322 
L 691 4666 
z
" transform="scale(0.015625)"/>
       </defs>
       <use xlink:href="#DejaVuSans-35"/>
       <use xlink:href="#DejaVuSans-30" x="63.623047"/>
      </g>
     </g>
    </g>
    <g id="xtick_3">
     <g id="line2d_5">
      <path d="M 199.093142 307.584 
L 199.093142 41.472 
" clip-path="url(#p62fd0c6710)" style="fill: none; stroke-dasharray: 2.96,1.28; stroke-dashoffset: 0; stroke: #b0b0b0; stroke-width: 0.8"/>
     </g>
     <g id="line2d_6">
      <g>
       <use xlink:href="#mfa93829bb8" x="199.093142" y="307.584" style="stroke: #000000; stroke-width: 0.8"/>
      </g>
     </g>
     <g id="text_3">
      <!-- 100 -->
      <g transform="translate(189.549392 322.182437) scale(0.1 -0.1)">
       <defs>
        <path id="DejaVuSans-31" d="M 794 531 
L 1825 531 
L 1825 4091 
L 703 3866 
L 703 4441 
L 1819 4666 
L 2450 4666 
L 2450 531 
L 3481 531 
L 3481 0 
L 794 0 
L 794 531 
z
" transform="scale(0.015625)"/>
       </defs>
       <use xlink:href="#DejaVuSans-31"/>
       <use xlink:href="#DejaVuSans-30" x="63.623047"/>
       <use xlink:href="#DejaVuSans-30" x="127.246094"/>
      </g>
     </g>
    </g>
    <g id="xtick_4">
     <g id="line2d_7">
      <path d="M 263.001518 307.584 
L 263.001518 41.472 
" clip-path="url(#p62fd0c6710)" style="fill: none; stroke-dasharray: 2.96,1.28; stroke-dashoffset: 0; stroke: #b0b0b0; stroke-width: 0.8"/>
     </g>
     <g id="line2d_8">
      <g>
       <use xlink:href="#mfa93829bb8" x="263.001518" y="307.584" style="stroke: #000000; stroke-width: 0.8"/>
      </g>
     </g>
     <g id="text_4">
      <!-- 150 -->
      <g transform="translate(253.457768 322.182437) scale(0.1 -0.1)">
       <use xlink:href="#DejaVuSans-31"/>
       <use xlink:href="#DejaVuSans-35" x="63.623047"/>
       <use xlink:href="#DejaVuSans-30" x="127.246094"/>
      </g>
     </g>
    </g>
    <g id="xtick_5">
     <g id="line2d_9">
      <path d="M 326.909893 307.584 
L 326.909893 41.472 
" clip-path="url(#p62fd0c6710)" style="fill: none; stroke-dasharray: 2.96,1.28; stroke-dashoffset: 0; stroke: #b0b0b0; stroke-width: 0.8"/>
     </g>
     <g id="line2d_10">
      <g>
       <use xlink:href="#mfa93829bb8" x="326.909893" y="307.584" style="stroke: #000000; stroke-width: 0.8"/>
      </g>
     </g>
     <g id="text_5">
      <!-- 200 -->
      <g transform="translate(317.366143 322.182437) scale(0.1 -0.1)">
       <defs>
        <path id="DejaVuSans-32" d="M 1228 531 
L 3431 531 
L 3431 0 
L 469 0 
L 469 531 
Q 828 903 1448 1529 
Q 2069 2156 2228 2338 
Q 2531 2678 2651 2914 
Q 2772 3150 2772 3378 
Q 2772 3750 2511 3984 
Q 2250 4219 1831 4219 
Q 1534 4219 1204 4116 
Q 875 4013 500 3803 
L 500 4441 
Q 881 4594 1212 4672 
Q 1544 4750 1819 4750 
Q 2544 4750 2975 4387 
Q 3406 4025 3406 3419 
Q 3406 3131 3298 2873 
Q 3191 2616 2906 2266 
Q 2828 2175 2409 1742 
Q 1991 1309 1228 531 
z
" transform="scale(0.015625)"/>
       </defs>
       <use xlink:href="#DejaVuSans-32"/>
       <use xlink:href="#DejaVuSans-30" x="63.623047"/>
       <use xlink:href="#DejaVuSans-30" x="127.246094"/>
      </g>
     </g>
    </g>
    <g id="xtick_6">
     <g id="line2d_11">
      <path d="M 390.818268 307.584 
L 390.818268 41.472 
" clip-path="url(#p62fd0c6710)" style="fill: none; stroke-dasharray: 2.96,1.28; stroke-dashoffset: 0; stroke: #b0b0b0; stroke-width: 0.8"/>
     </g>
     <g id="line2d_12">
      <g>
       <use xlink:href="#mfa93829bb8" x="390.818268" y="307.584" style="stroke: #000000; stroke-width: 0.8"/>
      </g>
     </g>
     <g id="text_6">
      <!-- 250 -->
      <g transform="translate(381.274518 322.182437) scale(0.1 -0.1)">
       <use xlink:href="#DejaVuSans-32"/>
       <use xlink:href="#DejaVuSans-35" x="63.623047"/>
       <use xlink:href="#DejaVuSans-30" x="127.246094"/>
      </g>
     </g>
    </g>
    <g id="text_7">
     <!-- Sequence length (number of Cliffords) -->
     <g transform="translate(140.370156 335.860562) scale(0.1 -0.1)">
      <defs>
       <path id="DejaVuSans-53" d="M 3425 4513 
L 3425 3897 
Q 3066 4069 2747 4153 
Q 2428 4238 2131 4238 
Q 1616 4238 1336 4038 
Q 1056 3838 1056 3469 
Q 1056 3159 1242 3001 
Q 1428 2844 1947 2747 
L 2328 2669 
Q 3034 2534 3370 2195 
Q 3706 1856 3706 1288 
Q 3706 609 3251 259 
Q 2797 -91 1919 -91 
Q 1588 -91 1214 -16 
Q 841 59 441 206 
L 441 856 
Q 825 641 1194 531 
Q 1563 422 1919 422 
Q 2459 422 2753 634 
Q 3047 847 3047 1241 
Q 3047 1584 2836 1778 
Q 2625 1972 2144 2069 
L 1759 2144 
Q 1053 2284 737 2584 
Q 422 2884 422 3419 
Q 422 4038 858 4394 
Q 1294 4750 2059 4750 
Q 2388 4750 2728 4690 
Q 3069 4631 3425 4513 
z
" transform="scale(0.015625)"/>
       <path id="DejaVuSans-65" d="M 3597 1894 
L 3597 1613 
L 953 1613 
Q 991 1019 1311 708 
Q 1631 397 2203 397 
Q 2534 397 2845 478 
Q 3156 559 3463 722 
L 3463 178 
Q 3153 47 2828 -22 
Q 2503 -91 2169 -91 
Q 1331 -91 842 396 
Q 353 884 353 1716 
Q 353 2575 817 3079 
Q 1281 3584 2069 3584 
Q 2775 3584 3186 3129 
Q 3597 2675 3597 1894 
z
M 3022 2063 
Q 3016 2534 2758 2815 
Q 2500 3097 2075 3097 
Q 1594 3097 1305 2825 
Q 1016 2553 972 2059 
L 3022 2063 
z
" transform="scale(0.015625)"/>
       <path id="DejaVuSans-71" d="M 947 1747 
Q 947 1113 1208 752 
Q 1469 391 1925 391 
Q 2381 391 2643 752 
Q 2906 1113 2906 1747 
Q 2906 2381 2643 2742 
Q 2381 3103 1925 3103 
Q 1469 3103 1208 2742 
Q 947 2381 947 1747 
z
M 2906 525 
Q 2725 213 2448 61 
Q 2172 -91 1784 -91 
Q 1150 -91 751 415 
Q 353 922 353 1747 
Q 353 2572 751 3078 
Q 1150 3584 1784 3584 
Q 2172 3584 2448 3432 
Q 2725 3281 2906 2969 
L 2906 3500 
L 3481 3500 
L 3481 -1331 
L 2906 -1331 
L 2906 525 
z
" transform="scale(0.015625)"/>
       <path id="DejaVuSans-75" d="M 544 1381 
L 544 3500 
L 1119 3500 
L 1119 1403 
Q 1119 906 1312 657 
Q 1506 409 1894 409 
Q 2359 409 2629 706 
Q 2900 1003 2900 1516 
L 2900 3500 
L 3475 3500 
L 3475 0 
L 2900 0 
L 2900 538 
Q 2691 219 2414 64 
Q 2138 -91 1772 -91 
Q 1169 -91 856 284 
Q 544 659 544 1381 
z
M 1991 3584 
L 1991 3584 
z
" transform="scale(0.015625)"/>
       <path id="DejaVuSans-6e" d="M 3513 2113 
L 3513 0 
L 2938 0 
L 2938 2094 
Q 2938 2591 2744 2837 
Q 2550 3084 2163 3084 
Q 1697 3084 1428 2787 
Q 1159 2491 1159 1978 
L 1159 0 
L 581 0 
L 581 3500 
L 1159 3500 
L 1159 2956 
Q 1366 3272 1645 3428 
Q 1925 3584 2291 3584 
Q 2894 3584 3203 3211 
Q 3513 2838 3513 2113 
z
" transform="scale(0.015625)"/>
       <path id="DejaVuSans-63" d="M 3122 3366 
L 3122 2828 
Q 2878 2963 2633 3030 
Q 2388 3097 2138 3097 
Q 1578 3097 1268 2742 
Q 959 2388 959 1747 
Q 959 1106 1268 751 
Q 1578 397 2138 397 
Q 2388 397 2633 464 
Q 2878 531 3122 666 
L 3122 134 
Q 2881 22 2623 -34 
Q 2366 -91 2075 -91 
Q 1284 -91 818 406 
Q 353 903 353 1747 
Q 353 2603 823 3093 
Q 1294 3584 2113 3584 
Q 2378 3584 2631 3529 
Q 2884 3475 3122 3366 
z
" transform="scale(0.015625)"/>
       <path id="DejaVuSans-20" transform="scale(0.015625)"/>
       <path id="DejaVuSans-6c" d="M 603 4863 
L 1178 4863 
L 1178 0 
L 603 0 
L 603 4863 
z
" transform="scale(0.015625)"/>
       <path id="DejaVuSans-67" d="M 2906 1791 
Q 2906 2416 2648 2759 
Q 2391 3103 1925 3103 
Q 1463 3103 1205 2759 
Q 947 2416 947 1791 
Q 947 1169 1205 825 
Q 1463 481 1925 481 
Q 2391 481 2648 825 
Q 2906 1169 2906 1791 
z
M 3481 434 
Q 3481 -459 3084 -895 
Q 2688 -1331 1869 -1331 
Q 1566 -1331 1297 -1286 
Q 1028 -1241 775 -1147 
L 775 -588 
Q 1028 -725 1275 -790 
Q 1522 -856 1778 -856 
Q 2344 -856 2625 -561 
Q 2906 -266 2906 331 
L 2906 616 
Q 2728 306 2450 153 
Q 2172 0 1784 0 
Q 1141 0 747 490 
Q 353 981 353 1791 
Q 353 2603 747 3093 
Q 1141 3584 1784 3584 
Q 2172 3584 2450 3431 
Q 2728 3278 2906 2969 
L 2906 3500 
L 3481 3500 
L 3481 434 
z
" transform="scale(0.015625)"/>
       <path id="DejaVuSans-74" d="M 1172 4494 
L 1172 3500 
L 2356 3500 
L 2356 3053 
L 1172 3053 
L 1172 1153 
Q 1172 725 1289 603 
Q 1406 481 1766 481 
L 2356 481 
L 2356 0 
L 1766 0 
Q 1100 0 847 248 
Q 594 497 594 1153 
L 594 3053 
L 172 3053 
L 172 3500 
L 594 3500 
L 594 4494 
L 1172 4494 
z
" transform="scale(0.015625)"/>
       <path id="DejaVuSans-68" d="M 3513 2113 
L 3513 0 
L 2938 0 
L 2938 2094 
Q 2938 2591 2744 2837 
Q 2550 3084 2163 3084 
Q 1697 3084 1428 2787 
Q 1159 2491 1159 1978 
L 1159 0 
L 581 0 
L 581 4863 
L 1159 4863 
L 1159 2956 
Q 1366 3272 1645 3428 
Q 1925 3584 2291 3584 
Q 2894 3584 3203 3211 
Q 3513 2838 3513 2113 
z
" transform="scale(0.015625)"/>
       <path id="DejaVuSans-28" d="M 1984 4856 
Q 1566 4138 1362 3434 
Q 1159 2731 1159 2009 
Q 1159 1288 1364 580 
Q 1569 -128 1984 -844 
L 1484 -844 
Q 1016 -109 783 600 
Q 550 1309 550 2009 
Q 550 2706 781 3412 
Q 1013 4119 1484 4856 
L 1984 4856 
z
" transform="scale(0.015625)"/>
       <path id="DejaVuSans-6d" d="M 3328 2828 
Q 3544 3216 3844 3400 
Q 4144 3584 4550 3584 
Q 5097 3584 5394 3201 
Q 5691 2819 5691 2113 
L 5691 0 
L 5113 0 
L 5113 2094 
Q 5113 2597 4934 2840 
Q 4756 3084 4391 3084 
Q 3944 3084 3684 2787 
Q 3425 2491 3425 1978 
L 3425 0 
L 2847 0 
L 2847 2094 
Q 2847 2600 2669 2842 
Q 2491 3084 2119 3084 
Q 1678 3084 1418 2786 
Q 1159 2488 1159 1978 
L 1159 0 
L 581 0 
L 581 3500 
L 1159 3500 
L 1159 2956 
Q 1356 3278 1631 3431 
Q 1906 3584 2284 3584 
Q 2666 3584 2933 3390 
Q 3200 3197 3328 2828 
z
" transform="scale(0.015625)"/>
       <path id="DejaVuSans-62" d="M 3116 1747 
Q 3116 2381 2855 2742 
Q 2594 3103 2138 3103 
Q 1681 3103 1420 2742 
Q 1159 2381 1159 1747 
Q 1159 1113 1420 752 
Q 1681 391 2138 391 
Q 2594 391 2855 752 
Q 3116 1113 3116 1747 
z
M 1159 2969 
Q 1341 3281 1617 3432 
Q 1894 3584 2278 3584 
Q 2916 3584 3314 3078 
Q 3713 2572 3713 1747 
Q 3713 922 3314 415 
Q 2916 -91 2278 -91 
Q 1894 -91 1617 61 
Q 1341 213 1159 525 
L 1159 0 
L 581 0 
L 581 4863 
L 1159 4863 
L 1159 2969 
z
" transform="scale(0.015625)"/>
       <path id="DejaVuSans-72" d="M 2631 2963 
Q 2534 3019 2420 3045 
Q 2306 3072 2169 3072 
Q 1681 3072 1420 2755 
Q 1159 2438 1159 1844 
L 1159 0 
L 581 0 
L 581 3500 
L 1159 3500 
L 1159 2956 
Q 1341 3275 1631 3429 
Q 1922 3584 2338 3584 
Q 2397 3584 2469 3576 
Q 2541 3569 2628 3553 
L 2631 2963 
z
" transform="scale(0.015625)"/>
       <path id="DejaVuSans-6f" d="M 1959 3097 
Q 1497 3097 1228 2736 
Q 959 2375 959 1747 
Q 959 1119 1226 758 
Q 1494 397 1959 397 
Q 2419 397 2687 759 
Q 2956 1122 2956 1747 
Q 2956 2369 2687 2733 
Q 2419 3097 1959 3097 
z
M 1959 3584 
Q 2709 3584 3137 3096 
Q 3566 2609 3566 1747 
Q 3566 888 3137 398 
Q 2709 -91 1959 -91 
Q 1206 -91 779 398 
Q 353 888 353 1747 
Q 353 2609 779 3096 
Q 1206 3584 1959 3584 
z
" transform="scale(0.015625)"/>
       <path id="DejaVuSans-66" d="M 2375 4863 
L 2375 4384 
L 1825 4384 
Q 1516 4384 1395 4259 
Q 1275 4134 1275 3809 
L 1275 3500 
L 2222 3500 
L 2222 3053 
L 1275 3053 
L 1275 0 
L 697 0 
L 697 3053 
L 147 3053 
L 147 3500 
L 697 3500 
L 697 3744 
Q 697 4328 969 4595 
Q 1241 4863 1831 4863 
L 2375 4863 
z
" transform="scale(0.015625)"/>
       <path id="DejaVuSans-43" d="M 4122 4306 
L 4122 3641 
Q 3803 3938 3442 4084 
Q 3081 4231 2675 4231 
Q 1875 4231 1450 3742 
Q 1025 3253 1025 2328 
Q 1025 1406 1450 917 
Q 1875 428 2675 428 
Q 3081 428 3442 575 
Q 3803 722 4122 1019 
L 4122 359 
Q 3791 134 3420 21 
Q 3050 -91 2638 -91 
Q 1578 -91 968 557 
Q 359 1206 359 2328 
Q 359 3453 968 4101 
Q 1578 4750 2638 4750 
Q 3056 4750 3426 4639 
Q 3797 4528 4122 4306 
z
" transform="scale(0.015625)"/>
       <path id="DejaVuSans-69" d="M 603 3500 
L 1178 3500 
L 1178 0 
L 603 0 
L 603 3500 
z
M 603 4863 
L 1178 4863 
L 1178 4134 
L 603 4134 
L 603 4863 
z
" transform="scale(0.015625)"/>
       <path id="DejaVuSans-64" d="M 2906 2969 
L 2906 4863 
L 3481 4863 
L 3481 0 
L 2906 0 
L 2906 525 
Q 2725 213 2448 61 
Q 2172 -91 1784 -91 
Q 1150 -91 751 415 
Q 353 922 353 1747 
Q 353 2572 751 3078 
Q 1150 3584 1784 3584 
Q 2172 3584 2448 3432 
Q 2725 3281 2906 2969 
z
M 947 1747 
Q 947 1113 1208 752 
Q 1469 391 1925 391 
Q 2381 391 2643 752 
Q 2906 1113 2906 1747 
Q 2906 2381 2643 2742 
Q 2381 3103 1925 3103 
Q 1469 3103 1208 2742 
Q 947 2381 947 1747 
z
" transform="scale(0.015625)"/>
       <path id="DejaVuSans-73" d="M 2834 3397 
L 2834 2853 
Q 2591 2978 2328 3040 
Q 2066 3103 1784 3103 
Q 1356 3103 1142 2972 
Q 928 2841 928 2578 
Q 928 2378 1081 2264 
Q 1234 2150 1697 2047 
L 1894 2003 
Q 2506 1872 2764 1633 
Q 3022 1394 3022 966 
Q 3022 478 2636 193 
Q 2250 -91 1575 -91 
Q 1294 -91 989 -36 
Q 684 19 347 128 
L 347 722 
Q 666 556 975 473 
Q 1284 391 1588 391 
Q 1994 391 2212 530 
Q 2431 669 2431 922 
Q 2431 1156 2273 1281 
Q 2116 1406 1581 1522 
L 1381 1569 
Q 847 1681 609 1914 
Q 372 2147 372 2553 
Q 372 3047 722 3315 
Q 1072 3584 1716 3584 
Q 2034 3584 2315 3537 
Q 2597 3491 2834 3397 
z
" transform="scale(0.015625)"/>
       <path id="DejaVuSans-29" d="M 513 4856 
L 1013 4856 
Q 1481 4119 1714 3412 
Q 1947 2706 1947 2009 
Q 1947 1309 1714 600 
Q 1481 -109 1013 -844 
L 513 -844 
Q 928 -128 1133 580 
Q 1338 1288 1338 2009 
Q 1338 2731 1133 3434 
Q 928 4138 513 4856 
z
" transform="scale(0.015625)"/>
      </defs>
      <use xlink:href="#DejaVuSans-53"/>
      <use xlink:href="#DejaVuSans-65" x="63.476562"/>
      <use xlink:href="#DejaVuSans-71" x="125"/>
      <use xlink:href="#DejaVuSans-75" x="188.476562"/>
      <use xlink:href="#DejaVuSans-65" x="251.855469"/>
      <use xlink:href="#DejaVuSans-6e" x="313.378906"/>
      <use xlink:href="#DejaVuSans-63" x="376.757812"/>
      <use xlink:href="#DejaVuSans-65" x="431.738281"/>
      <use xlink:href="#DejaVuSans-20" x="493.261719"/>
      <use xlink:href="#DejaVuSans-6c" x="525.048828"/>
      <use xlink:href="#DejaVuSans-65" x="552.832031"/>
      <use xlink:href="#DejaVuSans-6e" x="614.355469"/>
      <use xlink:href="#DejaVuSans-67" x="677.734375"/>
      <use xlink:href="#DejaVuSans-74" x="741.210938"/>
      <use xlink:href="#DejaVuSans-68" x="780.419922"/>
      <use xlink:href="#DejaVuSans-20" x="843.798828"/>
      <use xlink:href="#DejaVuSans-28" x="875.585938"/>
      <use xlink:href="#DejaVuSans-6e" x="914.599609"/>
      <use xlink:href="#DejaVuSans-75" x="977.978516"/>
      <use xlink:href="#DejaVuSans-6d" x="1041.357422"/>
      <use xlink:href="#DejaVuSans-62" x="1138.769531"/>
      <use xlink:href="#DejaVuSans-65" x="1202.246094"/>
      <use xlink:href="#DejaVuSans-72" x="1263.769531"/>
      <use xlink:href="#DejaVuSans-20" x="1304.882812"/>
      <use xlink:href="#DejaVuSans-6f" x="1336.669922"/>
      <use xlink:href="#DejaVuSans-66" x="1397.851562"/>
      <use xlink:href="#DejaVuSans-20" x="1433.056641"/>
      <use xlink:href="#DejaVuSans-43" x="1464.84375"/>
      <use xlink:href="#DejaVuSans-6c" x="1534.667969"/>
      <use xlink:href="#DejaVuSans-69" x="1562.451172"/>
      <use xlink:href="#DejaVuSans-66" x="1590.234375"/>
      <use xlink:href="#DejaVuSans-66" x="1625.439453"/>
      <use xlink:href="#DejaVuSans-6f" x="1660.644531"/>
      <use xlink:href="#DejaVuSans-72" x="1721.826172"/>
      <use xlink:href="#DejaVuSans-64" x="1761.189453"/>
      <use xlink:href="#DejaVuSans-73" x="1824.666016"/>
      <use xlink:href="#DejaVuSans-29" x="1876.765625"/>
     </g>
    </g>
   </g>
   <g id="matplotlib.axis_2">
    <g id="ytick_1">
     <g id="line2d_13">
      <path d="M 57.6 283.980608 
L 414.72 283.980608 
" clip-path="url(#p62fd0c6710)" style="fill: none; stroke-dasharray: 2.96,1.28; stroke-dashoffset: 0; stroke: #b0b0b0; stroke-width: 0.8"/>
     </g>
     <g id="line2d_14">
      <defs>
       <path id="ma1bbe07e97" d="M 0 0 
L -3.5 0 
" style="stroke: #000000; stroke-width: 0.8"/>
      </defs>
      <g>
       <use xlink:href="#ma1bbe07e97" x="57.6" y="283.980608" style="stroke: #000000; stroke-width: 0.8"/>
      </g>
     </g>
     <g id="text_8">
      <!-- 0.70 -->
      <g transform="translate(28.334375 287.779826) scale(0.1 -0.1)">
       <defs>
        <path id="DejaVuSans-2e" d="M 684 794 
L 1344 794 
L 1344 0 
L 684 0 
L 684 794 
z
" transform="scale(0.015625)"/>
        <path id="DejaVuSans-37" d="M 525 4666 
L 3525 4666 
L 3525 4397 
L 1831 0 
L 1172 0 
L 2766 4134 
L 525 4134 
L 525 4666 
z
" transform="scale(0.015625)"/>
       </defs>
       <use xlink:href="#DejaVuSans-30"/>
       <use xlink:href="#DejaVuSans-2e" x="63.623047"/>
       <use xlink:href="#DejaVuSans-37" x="95.410156"/>
       <use xlink:href="#DejaVuSans-30" x="159.033203"/>
      </g>
     </g>
    </g>
    <g id="ytick_2">
     <g id="line2d_15">
      <path d="M 57.6 244.5661 
L 414.72 244.5661 
" clip-path="url(#p62fd0c6710)" style="fill: none; stroke-dasharray: 2.96,1.28; stroke-dashoffset: 0; stroke: #b0b0b0; stroke-width: 0.8"/>
     </g>
     <g id="line2d_16">
      <g>
       <use xlink:href="#ma1bbe07e97" x="57.6" y="244.5661" style="stroke: #000000; stroke-width: 0.8"/>
      </g>
     </g>
     <g id="text_9">
      <!-- 0.75 -->
      <g transform="translate(28.334375 248.365319) scale(0.1 -0.1)">
       <use xlink:href="#DejaVuSans-30"/>
       <use xlink:href="#DejaVuSans-2e" x="63.623047"/>
       <use xlink:href="#DejaVuSans-37" x="95.410156"/>
       <use xlink:href="#DejaVuSans-35" x="159.033203"/>
      </g>
     </g>
    </g>
    <g id="ytick_3">
     <g id="line2d_17">
      <path d="M 57.6 205.151592 
L 414.72 205.151592 
" clip-path="url(#p62fd0c6710)" style="fill: none; stroke-dasharray: 2.96,1.28; stroke-dashoffset: 0; stroke: #b0b0b0; stroke-width: 0.8"/>
     </g>
     <g id="line2d_18">
      <g>
       <use xlink:href="#ma1bbe07e97" x="57.6" y="205.151592" style="stroke: #000000; stroke-width: 0.8"/>
      </g>
     </g>
     <g id="text_10">
      <!-- 0.80 -->
      <g transform="translate(28.334375 208.950811) scale(0.1 -0.1)">
       <defs>
        <path id="DejaVuSans-38" d="M 2034 2216 
Q 1584 2216 1326 1975 
Q 1069 1734 1069 1313 
Q 1069 891 1326 650 
Q 1584 409 2034 409 
Q 2484 409 2743 651 
Q 3003 894 3003 1313 
Q 3003 1734 2745 1975 
Q 2488 2216 2034 2216 
z
M 1403 2484 
Q 997 2584 770 2862 
Q 544 3141 544 3541 
Q 544 4100 942 4425 
Q 1341 4750 2034 4750 
Q 2731 4750 3128 4425 
Q 3525 4100 3525 3541 
Q 3525 3141 3298 2862 
Q 3072 2584 2669 2484 
Q 3125 2378 3379 2068 
Q 3634 1759 3634 1313 
Q 3634 634 3220 271 
Q 2806 -91 2034 -91 
Q 1263 -91 848 271 
Q 434 634 434 1313 
Q 434 1759 690 2068 
Q 947 2378 1403 2484 
z
M 1172 3481 
Q 1172 3119 1398 2916 
Q 1625 2713 2034 2713 
Q 2441 2713 2670 2916 
Q 2900 3119 2900 3481 
Q 2900 3844 2670 4047 
Q 2441 4250 2034 4250 
Q 1625 4250 1398 4047 
Q 1172 3844 1172 3481 
z
" transform="scale(0.015625)"/>
       </defs>
       <use xlink:href="#DejaVuSans-30"/>
       <use xlink:href="#DejaVuSans-2e" x="63.623047"/>
       <use xlink:href="#DejaVuSans-38" x="95.410156"/>
       <use xlink:href="#DejaVuSans-30" x="159.033203"/>
      </g>
     </g>
    </g>
    <g id="ytick_4">
     <g id="line2d_19">
      <path d="M 57.6 165.737084 
L 414.72 165.737084 
" clip-path="url(#p62fd0c6710)" style="fill: none; stroke-dasharray: 2.96,1.28; stroke-dashoffset: 0; stroke: #b0b0b0; stroke-width: 0.8"/>
     </g>
     <g id="line2d_20">
      <g>
       <use xlink:href="#ma1bbe07e97" x="57.6" y="165.737084" style="stroke: #000000; stroke-width: 0.8"/>
      </g>
     </g>
     <g id="text_11">
      <!-- 0.85 -->
      <g transform="translate(28.334375 169.536303) scale(0.1 -0.1)">
       <use xlink:href="#DejaVuSans-30"/>
       <use xlink:href="#DejaVuSans-2e" x="63.623047"/>
       <use xlink:href="#DejaVuSans-38" x="95.410156"/>
       <use xlink:href="#DejaVuSans-35" x="159.033203"/>
      </g>
     </g>
    </g>
    <g id="ytick_5">
     <g id="line2d_21">
      <path d="M 57.6 126.322576 
L 414.72 126.322576 
" clip-path="url(#p62fd0c6710)" style="fill: none; stroke-dasharray: 2.96,1.28; stroke-dashoffset: 0; stroke: #b0b0b0; stroke-width: 0.8"/>
     </g>
     <g id="line2d_22">
      <g>
       <use xlink:href="#ma1bbe07e97" x="57.6" y="126.322576" style="stroke: #000000; stroke-width: 0.8"/>
      </g>
     </g>
     <g id="text_12">
      <!-- 0.90 -->
      <g transform="translate(28.334375 130.121795) scale(0.1 -0.1)">
       <defs>
        <path id="DejaVuSans-39" d="M 703 97 
L 703 672 
Q 941 559 1184 500 
Q 1428 441 1663 441 
Q 2288 441 2617 861 
Q 2947 1281 2994 2138 
Q 2813 1869 2534 1725 
Q 2256 1581 1919 1581 
Q 1219 1581 811 2004 
Q 403 2428 403 3163 
Q 403 3881 828 4315 
Q 1253 4750 1959 4750 
Q 2769 4750 3195 4129 
Q 3622 3509 3622 2328 
Q 3622 1225 3098 567 
Q 2575 -91 1691 -91 
Q 1453 -91 1209 -44 
Q 966 3 703 97 
z
M 1959 2075 
Q 2384 2075 2632 2365 
Q 2881 2656 2881 3163 
Q 2881 3666 2632 3958 
Q 2384 4250 1959 4250 
Q 1534 4250 1286 3958 
Q 1038 3666 1038 3163 
Q 1038 2656 1286 2365 
Q 1534 2075 1959 2075 
z
" transform="scale(0.015625)"/>
       </defs>
       <use xlink:href="#DejaVuSans-30"/>
       <use xlink:href="#DejaVuSans-2e" x="63.623047"/>
       <use xlink:href="#DejaVuSans-39" x="95.410156"/>
       <use xlink:href="#DejaVuSans-30" x="159.033203"/>
      </g>
     </g>
    </g>
    <g id="ytick_6">
     <g id="line2d_23">
      <path d="M 57.6 86.908068 
L 414.72 86.908068 
" clip-path="url(#p62fd0c6710)" style="fill: none; stroke-dasharray: 2.96,1.28; stroke-dashoffset: 0; stroke: #b0b0b0; stroke-width: 0.8"/>
     </g>
     <g id="line2d_24">
      <g>
       <use xlink:href="#ma1bbe07e97" x="57.6" y="86.908068" style="stroke: #000000; stroke-width: 0.8"/>
      </g>
     </g>
     <g id="text_13">
      <!-- 0.95 -->
      <g transform="translate(28.334375 90.707287) scale(0.1 -0.1)">
       <use xlink:href="#DejaVuSans-30"/>
       <use xlink:href="#DejaVuSans-2e" x="63.623047"/>
       <use xlink:href="#DejaVuSans-39" x="95.410156"/>
       <use xlink:href="#DejaVuSans-35" x="159.033203"/>
      </g>
     </g>
    </g>
    <g id="ytick_7">
     <g id="line2d_25">
      <path d="M 57.6 47.49356 
L 414.72 47.49356 
" clip-path="url(#p62fd0c6710)" style="fill: none; stroke-dasharray: 2.96,1.28; stroke-dashoffset: 0; stroke: #b0b0b0; stroke-width: 0.8"/>
     </g>
     <g id="line2d_26">
      <g>
       <use xlink:href="#ma1bbe07e97" x="57.6" y="47.49356" style="stroke: #000000; stroke-width: 0.8"/>
      </g>
     </g>
     <g id="text_14">
      <!-- 1.00 -->
      <g transform="translate(28.334375 51.292779) scale(0.1 -0.1)">
       <use xlink:href="#DejaVuSans-31"/>
       <use xlink:href="#DejaVuSans-2e" x="63.623047"/>
       <use xlink:href="#DejaVuSans-30" x="95.410156"/>
       <use xlink:href="#DejaVuSans-30" x="159.033203"/>
      </g>
     </g>
    </g>
    <g id="text_15">
     <!-- Avg. Survival -->
     <g transform="translate(22.254687 207.125656) rotate(-90) scale(0.1 -0.1)">
      <defs>
       <path id="DejaVuSans-41" d="M 2188 4044 
L 1331 1722 
L 3047 1722 
L 2188 4044 
z
M 1831 4666 
L 2547 4666 
L 4325 0 
L 3669 0 
L 3244 1197 
L 1141 1197 
L 716 0 
L 50 0 
L 1831 4666 
z
" transform="scale(0.015625)"/>
       <path id="DejaVuSans-76" d="M 191 3500 
L 800 3500 
L 1894 563 
L 2988 3500 
L 3597 3500 
L 2284 0 
L 1503 0 
L 191 3500 
z
" transform="scale(0.015625)"/>
       <path id="DejaVuSans-61" d="M 2194 1759 
Q 1497 1759 1228 1600 
Q 959 1441 959 1056 
Q 959 750 1161 570 
Q 1363 391 1709 391 
Q 2188 391 2477 730 
Q 2766 1069 2766 1631 
L 2766 1759 
L 2194 1759 
z
M 3341 1997 
L 3341 0 
L 2766 0 
L 2766 531 
Q 2569 213 2275 61 
Q 1981 -91 1556 -91 
Q 1019 -91 701 211 
Q 384 513 384 1019 
Q 384 1609 779 1909 
Q 1175 2209 1959 2209 
L 2766 2209 
L 2766 2266 
Q 2766 2663 2505 2880 
Q 2244 3097 1772 3097 
Q 1472 3097 1187 3025 
Q 903 2953 641 2809 
L 641 3341 
Q 956 3463 1253 3523 
Q 1550 3584 1831 3584 
Q 2591 3584 2966 3190 
Q 3341 2797 3341 1997 
z
" transform="scale(0.015625)"/>
      </defs>
      <use xlink:href="#DejaVuSans-41"/>
      <use xlink:href="#DejaVuSans-76" x="62.533203"/>
      <use xlink:href="#DejaVuSans-67" x="121.712891"/>
      <use xlink:href="#DejaVuSans-2e" x="185.189453"/>
      <use xlink:href="#DejaVuSans-20" x="216.976562"/>
      <use xlink:href="#DejaVuSans-53" x="248.763672"/>
      <use xlink:href="#DejaVuSans-75" x="312.240234"/>
      <use xlink:href="#DejaVuSans-72" x="375.619141"/>
      <use xlink:href="#DejaVuSans-76" x="416.732422"/>
      <use xlink:href="#DejaVuSans-69" x="475.912109"/>
      <use xlink:href="#DejaVuSans-76" x="503.695312"/>
      <use xlink:href="#DejaVuSans-61" x="562.875"/>
      <use xlink:href="#DejaVuSans-6c" x="624.154297"/>
     </g>
    </g>
   </g>
   <g id="line2d_27">
    <path d="M 73.832727 60.233376 
L 90.448905 73.350637 
L 107.065082 86.170457 
L 123.68126 98.699582 
L 140.297437 110.944603 
L 156.913615 122.911962 
L 173.529792 134.607956 
L 190.14597 146.038737 
L 206.762147 157.21032 
L 223.378325 168.128583 
L 241.27267 179.609997 
L 259.167015 190.811284 
L 277.06136 201.739279 
L 294.955705 212.40065 
L 312.85005 222.801901 
L 330.744395 232.949379 
L 348.63874 242.849277 
L 366.533085 252.507633 
L 385.705598 262.594529 
L 398.487273 269.172336 
L 398.487273 269.172336 
" clip-path="url(#p62fd0c6710)" style="fill: none; stroke: #1f77b4; stroke-width: 1.5; stroke-linecap: square"/>
   </g>
   <g id="LineCollection_1">
    <path d="M 73.832727 60.982739 
L 73.832727 56.076506 
" clip-path="url(#p62fd0c6710)" style="fill: none; stroke: #1f77b4; stroke-width: 1.5"/>
   </g>
   <g id="line2d_28">
    <defs>
     <path id="m723409e941" d="M 3 0 
L -3 -0 
" style="stroke: #1f77b4"/>
    </defs>
    <g clip-path="url(#p62fd0c6710)">
     <use xlink:href="#m723409e941" x="73.832727" y="60.982739" style="fill: #1f77b4; stroke: #1f77b4"/>
    </g>
   </g>
   <g id="line2d_29">
    <g clip-path="url(#p62fd0c6710)">
     <use xlink:href="#m723409e941" x="73.832727" y="56.076506" style="fill: #1f77b4; stroke: #1f77b4"/>
    </g>
   </g>
   <g id="LineCollection_2">
    <path d="M 112.177752 93.880256 
L 112.177752 85.453911 
" clip-path="url(#p62fd0c6710)" style="fill: none; stroke: #1f77b4; stroke-width: 1.5"/>
   </g>
   <g id="line2d_30">
    <g clip-path="url(#p62fd0c6710)">
     <use xlink:href="#m723409e941" x="112.177752" y="93.880256" style="fill: #1f77b4; stroke: #1f77b4"/>
    </g>
   </g>
   <g id="line2d_31">
    <g clip-path="url(#p62fd0c6710)">
     <use xlink:href="#m723409e941" x="112.177752" y="85.453911" style="fill: #1f77b4; stroke: #1f77b4"/>
    </g>
   </g>
   <g id="LineCollection_3">
    <path d="M 153.079112 128.576685 
L 153.079112 117.762145 
" clip-path="url(#p62fd0c6710)" style="fill: none; stroke: #1f77b4; stroke-width: 1.5"/>
   </g>
   <g id="line2d_32">
    <g clip-path="url(#p62fd0c6710)">
     <use xlink:href="#m723409e941" x="153.079112" y="128.576685" style="fill: #1f77b4; stroke: #1f77b4"/>
    </g>
   </g>
   <g id="line2d_33">
    <g clip-path="url(#p62fd0c6710)">
     <use xlink:href="#m723409e941" x="153.079112" y="117.762145" style="fill: #1f77b4; stroke: #1f77b4"/>
    </g>
   </g>
   <g id="LineCollection_4">
    <path d="M 398.487273 276.42291 
L 398.487273 260.006699 
" clip-path="url(#p62fd0c6710)" style="fill: none; stroke: #1f77b4; stroke-width: 1.5"/>
   </g>
   <g id="line2d_34">
    <g clip-path="url(#p62fd0c6710)">
     <use xlink:href="#m723409e941" x="398.487273" y="276.42291" style="fill: #1f77b4; stroke: #1f77b4"/>
    </g>
   </g>
   <g id="line2d_35">
    <g clip-path="url(#p62fd0c6710)">
     <use xlink:href="#m723409e941" x="398.487273" y="260.006699" style="fill: #1f77b4; stroke: #1f77b4"/>
    </g>
   </g>
   <g id="line2d_36">
    <path d="M 73.832727 54.324215 
L 89.170737 68.03624 
L 104.508747 81.426527 
L 119.846757 94.502625 
L 135.184767 107.271907 
L 150.522777 119.74157 
L 165.860787 131.918646 
L 181.198797 143.809999 
L 196.536807 155.422335 
L 211.874817 166.762199 
L 227.212827 177.835985 
L 242.550838 188.649937 
L 257.888848 199.210151 
L 274.505025 210.370947 
L 291.121203 221.248324 
L 307.73738 231.849478 
L 324.353558 242.181424 
L 340.969735 252.250998 
L 357.585913 262.064862 
L 374.20209 271.629511 
L 390.818268 280.951273 
L 398.487273 285.173417 
L 398.487273 285.173417 
" clip-path="url(#p62fd0c6710)" style="fill: none; stroke: #ff7f0e; stroke-width: 1.5; stroke-linecap: square"/>
   </g>
   <g id="LineCollection_5">
    <path d="M 73.832727 60.699776 
L 73.832727 56.359468 
" clip-path="url(#p62fd0c6710)" style="fill: none; stroke: #ff7f0e; stroke-width: 1.5"/>
   </g>
   <g id="line2d_37">
    <defs>
     <path id="m688026422e" d="M 3 0 
L -3 -0 
" style="stroke: #ff7f0e"/>
    </defs>
    <g clip-path="url(#p62fd0c6710)">
     <use xlink:href="#m688026422e" x="73.832727" y="60.699776" style="fill: #ff7f0e; stroke: #ff7f0e"/>
    </g>
   </g>
   <g id="line2d_38">
    <g clip-path="url(#p62fd0c6710)">
     <use xlink:href="#m688026422e" x="73.832727" y="56.359468" style="fill: #ff7f0e; stroke: #ff7f0e"/>
    </g>
   </g>
   <g id="LineCollection_6">
    <path d="M 112.177752 90.143143 
L 112.177752 83.672993 
" clip-path="url(#p62fd0c6710)" style="fill: none; stroke: #ff7f0e; stroke-width: 1.5"/>
   </g>
   <g id="line2d_39">
    <g clip-path="url(#p62fd0c6710)">
     <use xlink:href="#m688026422e" x="112.177752" y="90.143143" style="fill: #ff7f0e; stroke: #ff7f0e"/>
    </g>
   </g>
   <g id="line2d_40">
    <g clip-path="url(#p62fd0c6710)">
     <use xlink:href="#m688026422e" x="112.177752" y="83.672993" style="fill: #ff7f0e; stroke: #ff7f0e"/>
    </g>
   </g>
   <g id="LineCollection_7">
    <path d="M 153.079112 121.769328 
L 153.079112 111.956861 
" clip-path="url(#p62fd0c6710)" style="fill: none; stroke: #ff7f0e; stroke-width: 1.5"/>
   </g>
   <g id="line2d_41">
    <g clip-path="url(#p62fd0c6710)">
     <use xlink:href="#m688026422e" x="153.079112" y="121.769328" style="fill: #ff7f0e; stroke: #ff7f0e"/>
    </g>
   </g>
   <g id="line2d_42">
    <g clip-path="url(#p62fd0c6710)">
     <use xlink:href="#m688026422e" x="153.079112" y="111.956861" style="fill: #ff7f0e; stroke: #ff7f0e"/>
    </g>
   </g>
   <g id="LineCollection_8">
    <path d="M 398.487273 295.488 
L 398.487273 278.779537 
" clip-path="url(#p62fd0c6710)" style="fill: none; stroke: #ff7f0e; stroke-width: 1.5"/>
   </g>
   <g id="line2d_43">
    <g clip-path="url(#p62fd0c6710)">
     <use xlink:href="#m688026422e" x="398.487273" y="295.488" style="fill: #ff7f0e; stroke: #ff7f0e"/>
    </g>
   </g>
   <g id="line2d_44">
    <g clip-path="url(#p62fd0c6710)">
     <use xlink:href="#m688026422e" x="398.487273" y="278.779537" style="fill: #ff7f0e; stroke: #ff7f0e"/>
    </g>
   </g>
   <g id="line2d_45">
    <path d="M 73.832727 55.137502 
L 90.448905 67.362461 
L 108.34325 80.241556 
L 126.237595 92.830336 
L 144.13194 105.135346 
L 162.026285 117.162981 
L 179.92063 128.919494 
L 197.814975 140.410997 
L 215.70932 151.643464 
L 233.603665 162.622733 
L 251.49801 173.354512 
L 270.670523 184.584545 
L 289.843035 195.543573 
L 309.015548 206.238137 
L 328.18806 216.674618 
L 347.360573 226.859246 
L 366.533085 236.798097 
L 385.705598 246.497103 
L 398.487273 252.832723 
L 398.487273 252.832723 
" clip-path="url(#p62fd0c6710)" style="fill: none; stroke: #2ca02c; stroke-width: 1.5; stroke-linecap: square"/>
   </g>
   <g id="LineCollection_9">
    <path d="M 73.832727 57.530956 
L 73.832727 54.010257 
" clip-path="url(#p62fd0c6710)" style="fill: none; stroke: #2ca02c; stroke-width: 1.5"/>
   </g>
   <g id="line2d_46">
    <defs>
     <path id="m52796fb2a0" d="M 3 0 
L -3 -0 
" style="stroke: #2ca02c"/>
    </defs>
    <g clip-path="url(#p62fd0c6710)">
     <use xlink:href="#m52796fb2a0" x="73.832727" y="57.530956" style="fill: #2ca02c; stroke: #2ca02c"/>
    </g>
   </g>
   <g id="line2d_47">
    <g clip-path="url(#p62fd0c6710)">
     <use xlink:href="#m52796fb2a0" x="73.832727" y="54.010257" style="fill: #2ca02c; stroke: #2ca02c"/>
    </g>
   </g>
   <g id="LineCollection_10">
    <path d="M 112.177752 87.423768 
L 112.177752 79.297756 
" clip-path="url(#p62fd0c6710)" style="fill: none; stroke: #2ca02c; stroke-width: 1.5"/>
   </g>
   <g id="line2d_48">
    <g clip-path="url(#p62fd0c6710)">
     <use xlink:href="#m52796fb2a0" x="112.177752" y="87.423768" style="fill: #2ca02c; stroke: #2ca02c"/>
    </g>
   </g>
   <g id="line2d_49">
    <g clip-path="url(#p62fd0c6710)">
     <use xlink:href="#m52796fb2a0" x="112.177752" y="79.297756" style="fill: #2ca02c; stroke: #2ca02c"/>
    </g>
   </g>
   <g id="LineCollection_11">
    <path d="M 153.079112 114.157496 
L 153.079112 105.379469 
" clip-path="url(#p62fd0c6710)" style="fill: none; stroke: #2ca02c; stroke-width: 1.5"/>
   </g>
   <g id="line2d_50">
    <g clip-path="url(#p62fd0c6710)">
     <use xlink:href="#m52796fb2a0" x="153.079112" y="114.157496" style="fill: #2ca02c; stroke: #2ca02c"/>
    </g>
   </g>
   <g id="line2d_51">
    <g clip-path="url(#p62fd0c6710)">
     <use xlink:href="#m52796fb2a0" x="153.079112" y="105.379469" style="fill: #2ca02c; stroke: #2ca02c"/>
    </g>
   </g>
   <g id="LineCollection_12">
    <path d="M 398.487273 263.718571 
L 398.487273 242.756012 
" clip-path="url(#p62fd0c6710)" style="fill: none; stroke: #2ca02c; stroke-width: 1.5"/>
   </g>
   <g id="line2d_52">
    <g clip-path="url(#p62fd0c6710)">
     <use xlink:href="#m52796fb2a0" x="398.487273" y="263.718571" style="fill: #2ca02c; stroke: #2ca02c"/>
    </g>
   </g>
   <g id="line2d_53">
    <g clip-path="url(#p62fd0c6710)">
     <use xlink:href="#m52796fb2a0" x="398.487273" y="242.756012" style="fill: #2ca02c; stroke: #2ca02c"/>
    </g>
   </g>
   <g id="line2d_54">
    <path d="M 73.832727 56.298269 
L 89.170737 68.777759 
L 104.508747 80.989848 
L 121.124925 93.9245 
L 137.741102 106.559172 
L 154.35728 118.90082 
L 170.973457 130.956242 
L 187.589635 142.732075 
L 204.205812 154.234803 
L 220.82199 165.470761 
L 237.438168 176.446134 
L 254.054345 187.166967 
L 270.670523 197.639163 
L 288.564868 208.645462 
L 306.459213 219.377116 
L 324.353558 229.840976 
L 342.247903 240.043727 
L 360.142248 249.991883 
L 378.036593 259.691797 
L 395.930938 269.149664 
L 398.487273 270.481383 
L 398.487273 270.481383 
" clip-path="url(#p62fd0c6710)" style="fill: none; stroke: #d62728; stroke-width: 1.5; stroke-linecap: square"/>
   </g>
   <g id="LineCollection_13">
    <path d="M 73.832727 57.184923 
L 73.832727 53.568 
" clip-path="url(#p62fd0c6710)" style="fill: none; stroke: #d62728; stroke-width: 1.5"/>
   </g>
   <g id="line2d_55">
    <defs>
     <path id="m77d864689a" d="M 3 0 
L -3 -0 
" style="stroke: #d62728"/>
    </defs>
    <g clip-path="url(#p62fd0c6710)">
     <use xlink:href="#m77d864689a" x="73.832727" y="57.184923" style="fill: #d62728; stroke: #d62728"/>
    </g>
   </g>
   <g id="line2d_56">
    <g clip-path="url(#p62fd0c6710)">
     <use xlink:href="#m77d864689a" x="73.832727" y="53.568" style="fill: #d62728; stroke: #d62728"/>
    </g>
   </g>
   <g id="LineCollection_14">
    <path d="M 112.177752 90.395556 
L 112.177752 81.843999 
" clip-path="url(#p62fd0c6710)" style="fill: none; stroke: #d62728; stroke-width: 1.5"/>
   </g>
   <g id="line2d_57">
    <g clip-path="url(#p62fd0c6710)">
     <use xlink:href="#m77d864689a" x="112.177752" y="90.395556" style="fill: #d62728; stroke: #d62728"/>
    </g>
   </g>
   <g id="line2d_58">
    <g clip-path="url(#p62fd0c6710)">
     <use xlink:href="#m77d864689a" x="112.177752" y="81.843999" style="fill: #d62728; stroke: #d62728"/>
    </g>
   </g>
   <g id="LineCollection_15">
    <path d="M 153.079112 126.566479 
L 153.079112 114.254321 
" clip-path="url(#p62fd0c6710)" style="fill: none; stroke: #d62728; stroke-width: 1.5"/>
   </g>
   <g id="line2d_59">
    <g clip-path="url(#p62fd0c6710)">
     <use xlink:href="#m77d864689a" x="153.079112" y="126.566479" style="fill: #d62728; stroke: #d62728"/>
    </g>
   </g>
   <g id="line2d_60">
    <g clip-path="url(#p62fd0c6710)">
     <use xlink:href="#m77d864689a" x="153.079112" y="114.254321" style="fill: #d62728; stroke: #d62728"/>
    </g>
   </g>
   <g id="LineCollection_16">
    <path d="M 398.487273 278.550764 
L 398.487273 261.032006 
" clip-path="url(#p62fd0c6710)" style="fill: none; stroke: #d62728; stroke-width: 1.5"/>
   </g>
   <g id="line2d_61">
    <g clip-path="url(#p62fd0c6710)">
     <use xlink:href="#m77d864689a" x="398.487273" y="278.550764" style="fill: #d62728; stroke: #d62728"/>
    </g>
   </g>
   <g id="line2d_62">
    <g clip-path="url(#p62fd0c6710)">
     <use xlink:href="#m77d864689a" x="398.487273" y="261.032006" style="fill: #d62728; stroke: #d62728"/>
    </g>
   </g>
   <g id="line2d_63">
    <path d="M 73.832727 56.214656 
L 90.448905 68.629625 
L 107.065082 80.779988 
L 123.68126 92.671386 
L 141.575605 105.194224 
L 159.46995 117.429863 
L 177.364295 129.384891 
L 195.25864 141.065744 
L 213.152985 152.478708 
L 231.04733 163.629929 
L 248.941675 174.525408 
L 266.83602 185.171011 
L 284.730365 195.572469 
L 303.902878 206.45232 
L 323.07539 217.06505 
L 342.247903 227.41722 
L 361.420415 237.515225 
L 380.592928 247.365306 
L 398.487273 256.340404 
L 398.487273 256.340404 
" clip-path="url(#p62fd0c6710)" style="fill: none; stroke: #9467bd; stroke-width: 1.5; stroke-linecap: square"/>
   </g>
   <g id="LineCollection_17">
    <path d="M 73.832727 56.320456 
L 73.832727 53.644177 
" clip-path="url(#p62fd0c6710)" style="fill: none; stroke: #9467bd; stroke-width: 1.5"/>
   </g>
   <g id="line2d_64">
    <defs>
     <path id="mc3b1be66d6" d="M 3 0 
L -3 -0 
" style="stroke: #9467bd"/>
    </defs>
    <g clip-path="url(#p62fd0c6710)">
     <use xlink:href="#mc3b1be66d6" x="73.832727" y="56.320456" style="fill: #9467bd; stroke: #9467bd"/>
    </g>
   </g>
   <g id="line2d_65">
    <g clip-path="url(#p62fd0c6710)">
     <use xlink:href="#mc3b1be66d6" x="73.832727" y="53.644177" style="fill: #9467bd; stroke: #9467bd"/>
    </g>
   </g>
   <g id="LineCollection_18">
    <path d="M 112.177752 83.227652 
L 112.177752 74.822681 
" clip-path="url(#p62fd0c6710)" style="fill: none; stroke: #9467bd; stroke-width: 1.5"/>
   </g>
   <g id="line2d_66">
    <g clip-path="url(#p62fd0c6710)">
     <use xlink:href="#mc3b1be66d6" x="112.177752" y="83.227652" style="fill: #9467bd; stroke: #9467bd"/>
    </g>
   </g>
   <g id="line2d_67">
    <g clip-path="url(#p62fd0c6710)">
     <use xlink:href="#mc3b1be66d6" x="112.177752" y="74.822681" style="fill: #9467bd; stroke: #9467bd"/>
    </g>
   </g>
   <g id="LineCollection_19">
    <path d="M 153.079112 126.877753 
L 153.079112 116.307917 
" clip-path="url(#p62fd0c6710)" style="fill: none; stroke: #9467bd; stroke-width: 1.5"/>
   </g>
   <g id="line2d_68">
    <g clip-path="url(#p62fd0c6710)">
     <use xlink:href="#mc3b1be66d6" x="153.079112" y="126.877753" style="fill: #9467bd; stroke: #9467bd"/>
    </g>
   </g>
   <g id="line2d_69">
    <g clip-path="url(#p62fd0c6710)">
     <use xlink:href="#mc3b1be66d6" x="153.079112" y="116.307917" style="fill: #9467bd; stroke: #9467bd"/>
    </g>
   </g>
   <g id="LineCollection_20">
    <path d="M 398.487273 262.99563 
L 398.487273 245.843823 
" clip-path="url(#p62fd0c6710)" style="fill: none; stroke: #9467bd; stroke-width: 1.5"/>
   </g>
   <g id="line2d_70">
    <g clip-path="url(#p62fd0c6710)">
     <use xlink:href="#mc3b1be66d6" x="398.487273" y="262.99563" style="fill: #9467bd; stroke: #9467bd"/>
    </g>
   </g>
   <g id="line2d_71">
    <g clip-path="url(#p62fd0c6710)">
     <use xlink:href="#mc3b1be66d6" x="398.487273" y="245.843823" style="fill: #9467bd; stroke: #9467bd"/>
    </g>
   </g>
   <g id="line2d_72">
    <defs>
     <path id="m85e190a504" d="M 0 2.5 
C 0.663008 2.5 1.29895 2.236584 1.767767 1.767767 
C 2.236584 1.29895 2.5 0.663008 2.5 0 
C 2.5 -0.663008 2.236584 -1.29895 1.767767 -1.767767 
C 1.29895 -2.236584 0.663008 -2.5 0 -2.5 
C -0.663008 -2.5 -1.29895 -2.236584 -1.767767 -1.767767 
C -2.236584 -1.29895 -2.5 -0.663008 -2.5 0 
C -2.5 0.663008 -2.236584 1.29895 -1.767767 1.767767 
C -1.29895 2.236584 -0.663008 2.5 0 2.5 
z
" style="stroke: #1f77b4"/>
    </defs>
    <g clip-path="url(#p62fd0c6710)">
     <use xlink:href="#m85e190a504" x="73.832727" y="58.529622" style="fill: #ffffff; stroke: #1f77b4"/>
    </g>
   </g>
   <g id="line2d_73">
    <g clip-path="url(#p62fd0c6710)">
     <use xlink:href="#m85e190a504" x="112.177752" y="89.667084" style="fill: #ffffff; stroke: #1f77b4"/>
    </g>
   </g>
   <g id="line2d_74">
    <g clip-path="url(#p62fd0c6710)">
     <use xlink:href="#m85e190a504" x="153.079112" y="123.169415" style="fill: #ffffff; stroke: #1f77b4"/>
    </g>
   </g>
   <g id="line2d_75">
    <g clip-path="url(#p62fd0c6710)">
     <use xlink:href="#m85e190a504" x="398.487273" y="268.214805" style="fill: #ffffff; stroke: #1f77b4"/>
    </g>
   </g>
   <g id="line2d_76">
    <defs>
     <path id="m10f37c60dc" d="M 0 2.5 
C 0.663008 2.5 1.29895 2.236584 1.767767 1.767767 
C 2.236584 1.29895 2.5 0.663008 2.5 0 
C 2.5 -0.663008 2.236584 -1.29895 1.767767 -1.767767 
C 1.29895 -2.236584 0.663008 -2.5 0 -2.5 
C -0.663008 -2.5 -1.29895 -2.236584 -1.767767 -1.767767 
C -2.236584 -1.29895 -2.5 -0.663008 -2.5 0 
C -2.5 0.663008 -2.236584 1.29895 -1.767767 1.767767 
C -1.29895 2.236584 -0.663008 2.5 0 2.5 
z
" style="stroke: #ff7f0e"/>
    </defs>
    <g clip-path="url(#p62fd0c6710)">
     <use xlink:href="#m10f37c60dc" x="73.832727" y="58.529622" style="fill: #ffffff; stroke: #ff7f0e"/>
    </g>
   </g>
   <g id="line2d_77">
    <g clip-path="url(#p62fd0c6710)">
     <use xlink:href="#m10f37c60dc" x="112.177752" y="86.908068" style="fill: #ffffff; stroke: #ff7f0e"/>
    </g>
   </g>
   <g id="line2d_78">
    <g clip-path="url(#p62fd0c6710)">
     <use xlink:href="#m10f37c60dc" x="153.079112" y="116.863094" style="fill: #ffffff; stroke: #ff7f0e"/>
    </g>
   </g>
   <g id="line2d_79">
    <g clip-path="url(#p62fd0c6710)">
     <use xlink:href="#m10f37c60dc" x="398.487273" y="287.133768" style="fill: #ffffff; stroke: #ff7f0e"/>
    </g>
   </g>
   <g id="line2d_80">
    <defs>
     <path id="m909a429c71" d="M 0 2.5 
C 0.663008 2.5 1.29895 2.236584 1.767767 1.767767 
C 2.236584 1.29895 2.5 0.663008 2.5 0 
C 2.5 -0.663008 2.236584 -1.29895 1.767767 -1.767767 
C 1.29895 -2.236584 0.663008 -2.5 0 -2.5 
C -0.663008 -2.5 -1.29895 -2.236584 -1.767767 -1.767767 
C -2.236584 -1.29895 -2.5 -0.663008 -2.5 0 
C -2.5 0.663008 -2.236584 1.29895 -1.767767 1.767767 
C -1.29895 2.236584 -0.663008 2.5 0 2.5 
z
" style="stroke: #2ca02c"/>
    </defs>
    <g clip-path="url(#p62fd0c6710)">
     <use xlink:href="#m909a429c71" x="73.832727" y="55.770607" style="fill: #ffffff; stroke: #2ca02c"/>
    </g>
   </g>
   <g id="line2d_81">
    <g clip-path="url(#p62fd0c6710)">
     <use xlink:href="#m909a429c71" x="112.177752" y="83.360762" style="fill: #ffffff; stroke: #2ca02c"/>
    </g>
   </g>
   <g id="line2d_82">
    <g clip-path="url(#p62fd0c6710)">
     <use xlink:href="#m909a429c71" x="153.079112" y="109.768483" style="fill: #ffffff; stroke: #2ca02c"/>
    </g>
   </g>
   <g id="line2d_83">
    <g clip-path="url(#p62fd0c6710)">
     <use xlink:href="#m909a429c71" x="398.487273" y="253.237292" style="fill: #ffffff; stroke: #2ca02c"/>
    </g>
   </g>
   <g id="line2d_84">
    <defs>
     <path id="m0bdc8b5cab" d="M 0 2.5 
C 0.663008 2.5 1.29895 2.236584 1.767767 1.767767 
C 2.236584 1.29895 2.5 0.663008 2.5 0 
C 2.5 -0.663008 2.236584 -1.29895 1.767767 -1.767767 
C 1.29895 -2.236584 0.663008 -2.5 0 -2.5 
C -0.663008 -2.5 -1.29895 -2.236584 -1.767767 -1.767767 
C -2.236584 -1.29895 -2.5 -0.663008 -2.5 0 
C -2.5 0.663008 -2.236584 1.29895 -1.767767 1.767767 
C -1.29895 2.236584 -0.663008 2.5 0 2.5 
z
" style="stroke: #d62728"/>
    </defs>
    <g clip-path="url(#p62fd0c6710)">
     <use xlink:href="#m0bdc8b5cab" x="73.832727" y="55.376462" style="fill: #ffffff; stroke: #d62728"/>
    </g>
   </g>
   <g id="line2d_85">
    <g clip-path="url(#p62fd0c6710)">
     <use xlink:href="#m0bdc8b5cab" x="112.177752" y="86.119778" style="fill: #ffffff; stroke: #d62728"/>
    </g>
   </g>
   <g id="line2d_86">
    <g clip-path="url(#p62fd0c6710)">
     <use xlink:href="#m0bdc8b5cab" x="153.079112" y="120.4104" style="fill: #ffffff; stroke: #d62728"/>
    </g>
   </g>
   <g id="line2d_87">
    <g clip-path="url(#p62fd0c6710)">
     <use xlink:href="#m0bdc8b5cab" x="398.487273" y="269.791385" style="fill: #ffffff; stroke: #d62728"/>
    </g>
   </g>
   <g id="line2d_88">
    <defs>
     <path id="ma94a4bf6f2" d="M 0 2.5 
C 0.663008 2.5 1.29895 2.236584 1.767767 1.767767 
C 2.236584 1.29895 2.5 0.663008 2.5 0 
C 2.5 -0.663008 2.236584 -1.29895 1.767767 -1.767767 
C 1.29895 -2.236584 0.663008 -2.5 0 -2.5 
C -0.663008 -2.5 -1.29895 -2.236584 -1.767767 -1.767767 
C -2.236584 -1.29895 -2.5 -0.663008 -2.5 0 
C -2.5 0.663008 -2.236584 1.29895 -1.767767 1.767767 
C -1.29895 2.236584 -0.663008 2.5 0 2.5 
z
" style="stroke: #9467bd"/>
    </defs>
    <g clip-path="url(#p62fd0c6710)">
     <use xlink:href="#ma94a4bf6f2" x="73.832727" y="54.982317" style="fill: #ffffff; stroke: #9467bd"/>
    </g>
   </g>
   <g id="line2d_89">
    <g clip-path="url(#p62fd0c6710)">
     <use xlink:href="#ma94a4bf6f2" x="112.177752" y="79.025166" style="fill: #ffffff; stroke: #9467bd"/>
    </g>
   </g>
   <g id="line2d_90">
    <g clip-path="url(#p62fd0c6710)">
     <use xlink:href="#ma94a4bf6f2" x="153.079112" y="121.592835" style="fill: #ffffff; stroke: #9467bd"/>
    </g>
   </g>
   <g id="line2d_91">
    <g clip-path="url(#p62fd0c6710)">
     <use xlink:href="#ma94a4bf6f2" x="398.487273" y="254.419727" style="fill: #ffffff; stroke: #9467bd"/>
    </g>
   </g>
   <g id="patch_3">
    <path d="M 57.6 307.584 
L 57.6 41.472 
" style="fill: none; stroke: #000000; stroke-width: 0.8; stroke-linejoin: miter; stroke-linecap: square"/>
   </g>
   <g id="patch_4">
    <path d="M 414.72 307.584 
L 414.72 41.472 
" style="fill: none; stroke: #000000; stroke-width: 0.8; stroke-linejoin: miter; stroke-linecap: square"/>
   </g>
   <g id="patch_5">
    <path d="M 57.6 307.584 
L 414.72 307.584 
" style="fill: none; stroke: #000000; stroke-width: 0.8; stroke-linejoin: miter; stroke-linecap: square"/>
   </g>
   <g id="patch_6">
    <path d="M 57.6 41.472 
L 414.72 41.472 
" style="fill: none; stroke: #000000; stroke-width: 0.8; stroke-linejoin: miter; stroke-linecap: square"/>
   </g>
   <g id="text_16">
    <!-- Data collected on 2024/04/10 -->
    <g transform="translate(146.909063 35.472) scale(0.12 -0.12)">
     <defs>
      <path id="DejaVuSans-44" d="M 1259 4147 
L 1259 519 
L 2022 519 
Q 2988 519 3436 956 
Q 3884 1394 3884 2338 
Q 3884 3275 3436 3711 
Q 2988 4147 2022 4147 
L 1259 4147 
z
M 628 4666 
L 1925 4666 
Q 3281 4666 3915 4102 
Q 4550 3538 4550 2338 
Q 4550 1131 3912 565 
Q 3275 0 1925 0 
L 628 0 
L 628 4666 
z
" transform="scale(0.015625)"/>
      <path id="DejaVuSans-34" d="M 2419 4116 
L 825 1625 
L 2419 1625 
L 2419 4116 
z
M 2253 4666 
L 3047 4666 
L 3047 1625 
L 3713 1625 
L 3713 1100 
L 3047 1100 
L 3047 0 
L 2419 0 
L 2419 1100 
L 313 1100 
L 313 1709 
L 2253 4666 
z
" transform="scale(0.015625)"/>
      <path id="DejaVuSans-2f" d="M 1625 4666 
L 2156 4666 
L 531 -594 
L 0 -594 
L 1625 4666 
z
" transform="scale(0.015625)"/>
     </defs>
     <use xlink:href="#DejaVuSans-44"/>
     <use xlink:href="#DejaVuSans-61" x="77.001953"/>
     <use xlink:href="#DejaVuSans-74" x="138.28125"/>
     <use xlink:href="#DejaVuSans-61" x="177.490234"/>
     <use xlink:href="#DejaVuSans-20" x="238.769531"/>
     <use xlink:href="#DejaVuSans-63" x="270.556641"/>
     <use xlink:href="#DejaVuSans-6f" x="325.537109"/>
     <use xlink:href="#DejaVuSans-6c" x="386.71875"/>
     <use xlink:href="#DejaVuSans-6c" x="414.501953"/>
     <use xlink:href="#DejaVuSans-65" x="442.285156"/>
     <use xlink:href="#DejaVuSans-63" x="503.808594"/>
     <use xlink:href="#DejaVuSans-74" x="558.789062"/>
     <use xlink:href="#DejaVuSans-65" x="597.998047"/>
     <use xlink:href="#DejaVuSans-64" x="659.521484"/>
     <use xlink:href="#DejaVuSans-20" x="722.998047"/>
     <use xlink:href="#DejaVuSans-6f" x="754.785156"/>
     <use xlink:href="#DejaVuSans-6e" x="815.966797"/>
     <use xlink:href="#DejaVuSans-20" x="879.345703"/>
     <use xlink:href="#DejaVuSans-32" x="911.132812"/>
     <use xlink:href="#DejaVuSans-30" x="974.755859"/>
     <use xlink:href="#DejaVuSans-32" x="1038.378906"/>
     <use xlink:href="#DejaVuSans-34" x="1102.001953"/>
     <use xlink:href="#DejaVuSans-2f" x="1165.625"/>
     <use xlink:href="#DejaVuSans-30" x="1199.316406"/>
     <use xlink:href="#DejaVuSans-34" x="1262.939453"/>
     <use xlink:href="#DejaVuSans-2f" x="1326.5625"/>
     <use xlink:href="#DejaVuSans-31" x="1360.253906"/>
     <use xlink:href="#DejaVuSans-30" x="1423.876953"/>
    </g>
   </g>
   <g id="legend_1">
    <g id="patch_7">
     <path d="M 361.609063 122.862625 
L 407.72 122.862625 
Q 409.72 122.862625 409.72 120.862625 
L 409.72 48.472 
Q 409.72 46.472 407.72 46.472 
L 361.609063 46.472 
Q 359.609063 46.472 359.609063 48.472 
L 359.609063 120.862625 
Q 359.609063 122.862625 361.609063 122.862625 
z
" style="fill: #ffffff; opacity: 0.8; stroke: #cccccc; stroke-linejoin: miter"/>
    </g>
    <g id="line2d_92">
     <path d="M 363.609063 54.570438 
L 373.609063 54.570438 
L 383.609063 54.570438 
" style="fill: none; stroke: #1f77b4; stroke-width: 1.5; stroke-linecap: square"/>
    </g>
    <g id="text_17">
     <!-- G1 -->
     <g transform="translate(391.609063 58.070438) scale(0.1 -0.1)">
      <defs>
       <path id="DejaVuSans-47" d="M 3809 666 
L 3809 1919 
L 2778 1919 
L 2778 2438 
L 4434 2438 
L 4434 434 
Q 4069 175 3628 42 
Q 3188 -91 2688 -91 
Q 1594 -91 976 548 
Q 359 1188 359 2328 
Q 359 3472 976 4111 
Q 1594 4750 2688 4750 
Q 3144 4750 3555 4637 
Q 3966 4525 4313 4306 
L 4313 3634 
Q 3963 3931 3569 4081 
Q 3175 4231 2741 4231 
Q 1884 4231 1454 3753 
Q 1025 3275 1025 2328 
Q 1025 1384 1454 906 
Q 1884 428 2741 428 
Q 3075 428 3337 486 
Q 3600 544 3809 666 
z
" transform="scale(0.015625)"/>
      </defs>
      <use xlink:href="#DejaVuSans-47"/>
      <use xlink:href="#DejaVuSans-31" x="77.490234"/>
     </g>
    </g>
    <g id="line2d_93">
     <path d="M 363.609063 69.248563 
L 373.609063 69.248563 
L 383.609063 69.248563 
" style="fill: none; stroke: #ff7f0e; stroke-width: 1.5; stroke-linecap: square"/>
    </g>
    <g id="text_18">
     <!-- G2 -->
     <g transform="translate(391.609063 72.748563) scale(0.1 -0.1)">
      <use xlink:href="#DejaVuSans-47"/>
      <use xlink:href="#DejaVuSans-32" x="77.490234"/>
     </g>
    </g>
    <g id="line2d_94">
     <path d="M 363.609063 83.926688 
L 373.609063 83.926688 
L 383.609063 83.926688 
" style="fill: none; stroke: #2ca02c; stroke-width: 1.5; stroke-linecap: square"/>
    </g>
    <g id="text_19">
     <!-- G3 -->
     <g transform="translate(391.609063 87.426688) scale(0.1 -0.1)">
      <defs>
       <path id="DejaVuSans-33" d="M 2597 2516 
Q 3050 2419 3304 2112 
Q 3559 1806 3559 1356 
Q 3559 666 3084 287 
Q 2609 -91 1734 -91 
Q 1441 -91 1130 -33 
Q 819 25 488 141 
L 488 750 
Q 750 597 1062 519 
Q 1375 441 1716 441 
Q 2309 441 2620 675 
Q 2931 909 2931 1356 
Q 2931 1769 2642 2001 
Q 2353 2234 1838 2234 
L 1294 2234 
L 1294 2753 
L 1863 2753 
Q 2328 2753 2575 2939 
Q 2822 3125 2822 3475 
Q 2822 3834 2567 4026 
Q 2313 4219 1838 4219 
Q 1578 4219 1281 4162 
Q 984 4106 628 3988 
L 628 4550 
Q 988 4650 1302 4700 
Q 1616 4750 1894 4750 
Q 2613 4750 3031 4423 
Q 3450 4097 3450 3541 
Q 3450 3153 3228 2886 
Q 3006 2619 2597 2516 
z
" transform="scale(0.015625)"/>
      </defs>
      <use xlink:href="#DejaVuSans-47"/>
      <use xlink:href="#DejaVuSans-33" x="77.490234"/>
     </g>
    </g>
    <g id="line2d_95">
     <path d="M 363.609063 98.604813 
L 373.609063 98.604813 
L 383.609063 98.604813 
" style="fill: none; stroke: #d62728; stroke-width: 1.5; stroke-linecap: square"/>
    </g>
    <g id="text_20">
     <!-- G4 -->
     <g transform="translate(391.609063 102.104813) scale(0.1 -0.1)">
      <use xlink:href="#DejaVuSans-47"/>
      <use xlink:href="#DejaVuSans-34" x="77.490234"/>
     </g>
    </g>
    <g id="line2d_96">
     <path d="M 363.609063 113.282938 
L 373.609063 113.282938 
L 383.609063 113.282938 
" style="fill: none; stroke: #9467bd; stroke-width: 1.5; stroke-linecap: square"/>
    </g>
    <g id="text_21">
     <!-- G5 -->
     <g transform="translate(391.609063 116.782938) scale(0.1 -0.1)">
      <use xlink:href="#DejaVuSans-47"/>
      <use xlink:href="#DejaVuSans-35" x="77.490234"/>
     </g>
    </g>
   </g>
  </g>
 </g>
 <defs>
  <clipPath id="p62fd0c6710">
   <rect x="57.6" y="41.472" width="357.12" height="266.112"/>
  </clipPath>
 </defs>
</svg>
