<?xml version="1.0" encoding="utf-8" standalone="no"?>
<!DOCTYPE svg PUBLIC "-//W3C//DTD SVG 1.1//EN"
  "http://www.w3.org/Graphics/SVG/1.1/DTD/svg11.dtd">
<svg xmlns:xlink="http://www.w3.org/1999/xlink" width="1050.924563pt" height="537.240937pt" viewBox="0 0 1050.924563 537.240937" xmlns="http://www.w3.org/2000/svg" version="1.1">
 <metadata>
  <rdf:RDF xmlns:dc="http://purl.org/dc/elements/1.1/" xmlns:cc="http://creativecommons.org/ns#" xmlns:rdf="http://www.w3.org/1999/02/22-rdf-syntax-ns#">
   <cc:Work>
    <dc:type rdf:resource="http://purl.org/dc/dcmitype/StillImage"/>
    <dc:date>2025-01-20T23:42:41.378458</dc:date>
    <dc:format>image/svg+xml</dc:format>
    <dc:creator>
     <cc:Agent>
      <dc:title>Matplotlib v3.9.2, https://matplotlib.org/</dc:title>
     </cc:Agent>
    </dc:creator>
   </cc:Work>
  </rdf:RDF>
 </metadata>
 <defs>
  <style type="text/css">*{stroke-linejoin: round; stroke-linecap: butt}</style>
 </defs>
 <g id="figure_1">
  <g id="patch_1">
   <path d="M 0 537.240937 
L 1050.924563 537.240937 
L 1050.924563 0 
L 0 0 
z
" style="fill: #ffffff"/>
  </g>
  <g id="axes_1">
   <g id="patch_2">
    <path d="M 86.036563 473.89875 
L 867.236563 473.89875 
L 867.236563 30.37875 
L 86.036563 30.37875 
z
" style="fill: #ffffff"/>
   </g>
   <g id="matplotlib.axis_1">
    <g id="xtick_1">
     <g id="line2d_1">
      <path d="M 120.851778 473.89875 
L 120.851778 30.37875 
" clip-path="url(#p616aa60f78)" style="fill: none; stroke: #cccccc; stroke-linecap: round"/>
     </g>
     <g id="text_1">
      <!-- 0 -->
      <g style="fill: #262626" transform="translate(114.734746 499.145937) scale(0.22 -0.22)">
       <defs>
        <path id="ArialMT-30" d="M 266 2259 
Q 266 3072 433 3567 
Q 600 4063 929 4331 
Q 1259 4600 1759 4600 
Q 2128 4600 2406 4451 
Q 2684 4303 2865 4023 
Q 3047 3744 3150 3342 
Q 3253 2941 3253 2259 
Q 3253 1453 3087 958 
Q 2922 463 2592 192 
Q 2263 -78 1759 -78 
Q 1097 -78 719 397 
Q 266 969 266 2259 
z
M 844 2259 
Q 844 1131 1108 757 
Q 1372 384 1759 384 
Q 2147 384 2411 759 
Q 2675 1134 2675 2259 
Q 2675 3391 2411 3762 
Q 2147 4134 1753 4134 
Q 1366 4134 1134 3806 
Q 844 3388 844 2259 
z
" transform="scale(0.015625)"/>
       </defs>
       <use xlink:href="#ArialMT-30"/>
      </g>
     </g>
    </g>
    <g id="xtick_2">
     <g id="line2d_2">
      <path d="M 294.320712 473.89875 
L 294.320712 30.37875 
" clip-path="url(#p616aa60f78)" style="fill: none; stroke: #cccccc; stroke-linecap: round"/>
     </g>
     <g id="text_2">
      <!-- 500 -->
      <g style="fill: #262626" transform="translate(275.969619 499.145937) scale(0.22 -0.22)">
       <defs>
        <path id="ArialMT-35" d="M 266 1200 
L 856 1250 
Q 922 819 1161 601 
Q 1400 384 1738 384 
Q 2144 384 2425 690 
Q 2706 997 2706 1503 
Q 2706 1984 2436 2262 
Q 2166 2541 1728 2541 
Q 1456 2541 1237 2417 
Q 1019 2294 894 2097 
L 366 2166 
L 809 4519 
L 3088 4519 
L 3088 3981 
L 1259 3981 
L 1013 2750 
Q 1425 3038 1878 3038 
Q 2478 3038 2890 2622 
Q 3303 2206 3303 1553 
Q 3303 931 2941 478 
Q 2500 -78 1738 -78 
Q 1113 -78 717 272 
Q 322 622 266 1200 
z
" transform="scale(0.015625)"/>
       </defs>
       <use xlink:href="#ArialMT-35"/>
       <use xlink:href="#ArialMT-30" x="55.615234"/>
       <use xlink:href="#ArialMT-30" x="111.230469"/>
      </g>
     </g>
    </g>
    <g id="xtick_3">
     <g id="line2d_3">
      <path d="M 467.789647 473.89875 
L 467.789647 30.37875 
" clip-path="url(#p616aa60f78)" style="fill: none; stroke: #cccccc; stroke-linecap: round"/>
     </g>
     <g id="text_3">
      <!-- 1000 -->
      <g style="fill: #262626" transform="translate(443.321522 499.145937) scale(0.22 -0.22)">
       <defs>
        <path id="ArialMT-31" d="M 2384 0 
L 1822 0 
L 1822 3584 
Q 1619 3391 1289 3197 
Q 959 3003 697 2906 
L 697 3450 
Q 1169 3672 1522 3987 
Q 1875 4303 2022 4600 
L 2384 4600 
L 2384 0 
z
" transform="scale(0.015625)"/>
       </defs>
       <use xlink:href="#ArialMT-31"/>
       <use xlink:href="#ArialMT-30" x="55.615234"/>
       <use xlink:href="#ArialMT-30" x="111.230469"/>
       <use xlink:href="#ArialMT-30" x="166.845703"/>
      </g>
     </g>
    </g>
    <g id="xtick_4">
     <g id="line2d_4">
      <path d="M 641.258581 473.89875 
L 641.258581 30.37875 
" clip-path="url(#p616aa60f78)" style="fill: none; stroke: #cccccc; stroke-linecap: round"/>
     </g>
     <g id="text_4">
      <!-- 1500 -->
      <g style="fill: #262626" transform="translate(616.790456 499.145937) scale(0.22 -0.22)">
       <use xlink:href="#ArialMT-31"/>
       <use xlink:href="#ArialMT-35" x="55.615234"/>
       <use xlink:href="#ArialMT-30" x="111.230469"/>
       <use xlink:href="#ArialMT-30" x="166.845703"/>
      </g>
     </g>
    </g>
    <g id="xtick_5">
     <g id="line2d_5">
      <path d="M 814.727516 473.89875 
L 814.727516 30.37875 
" clip-path="url(#p616aa60f78)" style="fill: none; stroke: #cccccc; stroke-linecap: round"/>
     </g>
     <g id="text_5">
      <!-- 2000 -->
      <g style="fill: #262626" transform="translate(790.259391 499.145937) scale(0.22 -0.22)">
       <defs>
        <path id="ArialMT-32" d="M 3222 541 
L 3222 0 
L 194 0 
Q 188 203 259 391 
Q 375 700 629 1000 
Q 884 1300 1366 1694 
Q 2113 2306 2375 2664 
Q 2638 3022 2638 3341 
Q 2638 3675 2398 3904 
Q 2159 4134 1775 4134 
Q 1369 4134 1125 3890 
Q 881 3647 878 3216 
L 300 3275 
Q 359 3922 746 4261 
Q 1134 4600 1788 4600 
Q 2447 4600 2831 4234 
Q 3216 3869 3216 3328 
Q 3216 3053 3103 2787 
Q 2991 2522 2730 2228 
Q 2469 1934 1863 1422 
Q 1356 997 1212 845 
Q 1069 694 975 541 
L 3222 541 
z
" transform="scale(0.015625)"/>
       </defs>
       <use xlink:href="#ArialMT-32"/>
       <use xlink:href="#ArialMT-30" x="55.615234"/>
       <use xlink:href="#ArialMT-30" x="111.230469"/>
       <use xlink:href="#ArialMT-30" x="166.845703"/>
      </g>
     </g>
    </g>
    <g id="text_6">
     <!-- Sequence Length (Number of Cliffords) -->
     <g style="fill: #262626" transform="translate(268.085938 524.989687) scale(0.24 -0.24)">
      <defs>
       <path id="ArialMT-53" d="M 288 1472 
L 859 1522 
Q 900 1178 1048 958 
Q 1197 738 1509 602 
Q 1822 466 2213 466 
Q 2559 466 2825 569 
Q 3091 672 3220 851 
Q 3350 1031 3350 1244 
Q 3350 1459 3225 1620 
Q 3100 1781 2813 1891 
Q 2628 1963 1997 2114 
Q 1366 2266 1113 2400 
Q 784 2572 623 2826 
Q 463 3081 463 3397 
Q 463 3744 659 4045 
Q 856 4347 1234 4503 
Q 1613 4659 2075 4659 
Q 2584 4659 2973 4495 
Q 3363 4331 3572 4012 
Q 3781 3694 3797 3291 
L 3216 3247 
Q 3169 3681 2898 3903 
Q 2628 4125 2100 4125 
Q 1550 4125 1298 3923 
Q 1047 3722 1047 3438 
Q 1047 3191 1225 3031 
Q 1400 2872 2139 2705 
Q 2878 2538 3153 2413 
Q 3553 2228 3743 1945 
Q 3934 1663 3934 1294 
Q 3934 928 3725 604 
Q 3516 281 3123 101 
Q 2731 -78 2241 -78 
Q 1619 -78 1198 103 
Q 778 284 539 648 
Q 300 1013 288 1472 
z
" transform="scale(0.015625)"/>
       <path id="ArialMT-65" d="M 2694 1069 
L 3275 997 
Q 3138 488 2766 206 
Q 2394 -75 1816 -75 
Q 1088 -75 661 373 
Q 234 822 234 1631 
Q 234 2469 665 2931 
Q 1097 3394 1784 3394 
Q 2450 3394 2872 2941 
Q 3294 2488 3294 1666 
Q 3294 1616 3291 1516 
L 816 1516 
Q 847 969 1125 678 
Q 1403 388 1819 388 
Q 2128 388 2347 550 
Q 2566 713 2694 1069 
z
M 847 1978 
L 2700 1978 
Q 2663 2397 2488 2606 
Q 2219 2931 1791 2931 
Q 1403 2931 1139 2672 
Q 875 2413 847 1978 
z
" transform="scale(0.015625)"/>
       <path id="ArialMT-71" d="M 2538 -1272 
L 2538 353 
Q 2406 169 2170 47 
Q 1934 -75 1669 -75 
Q 1078 -75 651 397 
Q 225 869 225 1691 
Q 225 2191 398 2587 
Q 572 2984 901 3189 
Q 1231 3394 1625 3394 
Q 2241 3394 2594 2875 
L 2594 3319 
L 3100 3319 
L 3100 -1272 
L 2538 -1272 
z
M 803 1669 
Q 803 1028 1072 708 
Q 1341 388 1716 388 
Q 2075 388 2334 692 
Q 2594 997 2594 1619 
Q 2594 2281 2320 2615 
Q 2047 2950 1678 2950 
Q 1313 2950 1058 2639 
Q 803 2328 803 1669 
z
" transform="scale(0.015625)"/>
       <path id="ArialMT-75" d="M 2597 0 
L 2597 488 
Q 2209 -75 1544 -75 
Q 1250 -75 995 37 
Q 741 150 617 320 
Q 494 491 444 738 
Q 409 903 409 1263 
L 409 3319 
L 972 3319 
L 972 1478 
Q 972 1038 1006 884 
Q 1059 663 1231 536 
Q 1403 409 1656 409 
Q 1909 409 2131 539 
Q 2353 669 2445 892 
Q 2538 1116 2538 1541 
L 2538 3319 
L 3100 3319 
L 3100 0 
L 2597 0 
z
" transform="scale(0.015625)"/>
       <path id="ArialMT-6e" d="M 422 0 
L 422 3319 
L 928 3319 
L 928 2847 
Q 1294 3394 1984 3394 
Q 2284 3394 2536 3286 
Q 2788 3178 2913 3003 
Q 3038 2828 3088 2588 
Q 3119 2431 3119 2041 
L 3119 0 
L 2556 0 
L 2556 2019 
Q 2556 2363 2490 2533 
Q 2425 2703 2258 2804 
Q 2091 2906 1866 2906 
Q 1506 2906 1245 2678 
Q 984 2450 984 1813 
L 984 0 
L 422 0 
z
" transform="scale(0.015625)"/>
       <path id="ArialMT-63" d="M 2588 1216 
L 3141 1144 
Q 3050 572 2676 248 
Q 2303 -75 1759 -75 
Q 1078 -75 664 370 
Q 250 816 250 1647 
Q 250 2184 428 2587 
Q 606 2991 970 3192 
Q 1334 3394 1763 3394 
Q 2303 3394 2647 3120 
Q 2991 2847 3088 2344 
L 2541 2259 
Q 2463 2594 2264 2762 
Q 2066 2931 1784 2931 
Q 1359 2931 1093 2626 
Q 828 2322 828 1663 
Q 828 994 1084 691 
Q 1341 388 1753 388 
Q 2084 388 2306 591 
Q 2528 794 2588 1216 
z
" transform="scale(0.015625)"/>
       <path id="ArialMT-20" transform="scale(0.015625)"/>
       <path id="ArialMT-4c" d="M 469 0 
L 469 4581 
L 1075 4581 
L 1075 541 
L 3331 541 
L 3331 0 
L 469 0 
z
" transform="scale(0.015625)"/>
       <path id="ArialMT-67" d="M 319 -275 
L 866 -356 
Q 900 -609 1056 -725 
Q 1266 -881 1628 -881 
Q 2019 -881 2231 -725 
Q 2444 -569 2519 -288 
Q 2563 -116 2559 434 
Q 2191 0 1641 0 
Q 956 0 581 494 
Q 206 988 206 1678 
Q 206 2153 378 2554 
Q 550 2956 876 3175 
Q 1203 3394 1644 3394 
Q 2231 3394 2613 2919 
L 2613 3319 
L 3131 3319 
L 3131 450 
Q 3131 -325 2973 -648 
Q 2816 -972 2473 -1159 
Q 2131 -1347 1631 -1347 
Q 1038 -1347 672 -1080 
Q 306 -813 319 -275 
z
M 784 1719 
Q 784 1066 1043 766 
Q 1303 466 1694 466 
Q 2081 466 2343 764 
Q 2606 1063 2606 1700 
Q 2606 2309 2336 2618 
Q 2066 2928 1684 2928 
Q 1309 2928 1046 2623 
Q 784 2319 784 1719 
z
" transform="scale(0.015625)"/>
       <path id="ArialMT-74" d="M 1650 503 
L 1731 6 
Q 1494 -44 1306 -44 
Q 1000 -44 831 53 
Q 663 150 594 308 
Q 525 466 525 972 
L 525 2881 
L 113 2881 
L 113 3319 
L 525 3319 
L 525 4141 
L 1084 4478 
L 1084 3319 
L 1650 3319 
L 1650 2881 
L 1084 2881 
L 1084 941 
Q 1084 700 1114 631 
Q 1144 563 1211 522 
Q 1278 481 1403 481 
Q 1497 481 1650 503 
z
" transform="scale(0.015625)"/>
       <path id="ArialMT-68" d="M 422 0 
L 422 4581 
L 984 4581 
L 984 2938 
Q 1378 3394 1978 3394 
Q 2347 3394 2619 3248 
Q 2891 3103 3008 2847 
Q 3125 2591 3125 2103 
L 3125 0 
L 2563 0 
L 2563 2103 
Q 2563 2525 2380 2717 
Q 2197 2909 1863 2909 
Q 1613 2909 1392 2779 
Q 1172 2650 1078 2428 
Q 984 2206 984 1816 
L 984 0 
L 422 0 
z
" transform="scale(0.015625)"/>
       <path id="ArialMT-28" d="M 1497 -1347 
Q 1031 -759 709 28 
Q 388 816 388 1659 
Q 388 2403 628 3084 
Q 909 3875 1497 4659 
L 1900 4659 
Q 1522 4009 1400 3731 
Q 1209 3300 1100 2831 
Q 966 2247 966 1656 
Q 966 153 1900 -1347 
L 1497 -1347 
z
" transform="scale(0.015625)"/>
       <path id="ArialMT-4e" d="M 488 0 
L 488 4581 
L 1109 4581 
L 3516 984 
L 3516 4581 
L 4097 4581 
L 4097 0 
L 3475 0 
L 1069 3600 
L 1069 0 
L 488 0 
z
" transform="scale(0.015625)"/>
       <path id="ArialMT-6d" d="M 422 0 
L 422 3319 
L 925 3319 
L 925 2853 
Q 1081 3097 1340 3245 
Q 1600 3394 1931 3394 
Q 2300 3394 2536 3241 
Q 2772 3088 2869 2813 
Q 3263 3394 3894 3394 
Q 4388 3394 4653 3120 
Q 4919 2847 4919 2278 
L 4919 0 
L 4359 0 
L 4359 2091 
Q 4359 2428 4304 2576 
Q 4250 2725 4106 2815 
Q 3963 2906 3769 2906 
Q 3419 2906 3187 2673 
Q 2956 2441 2956 1928 
L 2956 0 
L 2394 0 
L 2394 2156 
Q 2394 2531 2256 2718 
Q 2119 2906 1806 2906 
Q 1569 2906 1367 2781 
Q 1166 2656 1075 2415 
Q 984 2175 984 1722 
L 984 0 
L 422 0 
z
" transform="scale(0.015625)"/>
       <path id="ArialMT-62" d="M 941 0 
L 419 0 
L 419 4581 
L 981 4581 
L 981 2947 
Q 1338 3394 1891 3394 
Q 2197 3394 2470 3270 
Q 2744 3147 2920 2923 
Q 3097 2700 3197 2384 
Q 3297 2069 3297 1709 
Q 3297 856 2875 390 
Q 2453 -75 1863 -75 
Q 1275 -75 941 416 
L 941 0 
z
M 934 1684 
Q 934 1088 1097 822 
Q 1363 388 1816 388 
Q 2184 388 2453 708 
Q 2722 1028 2722 1663 
Q 2722 2313 2464 2622 
Q 2206 2931 1841 2931 
Q 1472 2931 1203 2611 
Q 934 2291 934 1684 
z
" transform="scale(0.015625)"/>
       <path id="ArialMT-72" d="M 416 0 
L 416 3319 
L 922 3319 
L 922 2816 
Q 1116 3169 1280 3281 
Q 1444 3394 1641 3394 
Q 1925 3394 2219 3213 
L 2025 2691 
Q 1819 2813 1613 2813 
Q 1428 2813 1281 2702 
Q 1134 2591 1072 2394 
Q 978 2094 978 1738 
L 978 0 
L 416 0 
z
" transform="scale(0.015625)"/>
       <path id="ArialMT-6f" d="M 213 1659 
Q 213 2581 725 3025 
Q 1153 3394 1769 3394 
Q 2453 3394 2887 2945 
Q 3322 2497 3322 1706 
Q 3322 1066 3130 698 
Q 2938 331 2570 128 
Q 2203 -75 1769 -75 
Q 1072 -75 642 372 
Q 213 819 213 1659 
z
M 791 1659 
Q 791 1022 1069 705 
Q 1347 388 1769 388 
Q 2188 388 2466 706 
Q 2744 1025 2744 1678 
Q 2744 2294 2464 2611 
Q 2184 2928 1769 2928 
Q 1347 2928 1069 2612 
Q 791 2297 791 1659 
z
" transform="scale(0.015625)"/>
       <path id="ArialMT-66" d="M 556 0 
L 556 2881 
L 59 2881 
L 59 3319 
L 556 3319 
L 556 3672 
Q 556 4006 616 4169 
Q 697 4388 901 4523 
Q 1106 4659 1475 4659 
Q 1713 4659 2000 4603 
L 1916 4113 
Q 1741 4144 1584 4144 
Q 1328 4144 1222 4034 
Q 1116 3925 1116 3625 
L 1116 3319 
L 1763 3319 
L 1763 2881 
L 1116 2881 
L 1116 0 
L 556 0 
z
" transform="scale(0.015625)"/>
       <path id="ArialMT-43" d="M 3763 1606 
L 4369 1453 
Q 4178 706 3683 314 
Q 3188 -78 2472 -78 
Q 1731 -78 1267 223 
Q 803 525 561 1097 
Q 319 1669 319 2325 
Q 319 3041 592 3573 
Q 866 4106 1370 4382 
Q 1875 4659 2481 4659 
Q 3169 4659 3637 4309 
Q 4106 3959 4291 3325 
L 3694 3184 
Q 3534 3684 3231 3912 
Q 2928 4141 2469 4141 
Q 1941 4141 1586 3887 
Q 1231 3634 1087 3207 
Q 944 2781 944 2328 
Q 944 1744 1114 1308 
Q 1284 872 1643 656 
Q 2003 441 2422 441 
Q 2931 441 3284 734 
Q 3638 1028 3763 1606 
z
" transform="scale(0.015625)"/>
       <path id="ArialMT-6c" d="M 409 0 
L 409 4581 
L 972 4581 
L 972 0 
L 409 0 
z
" transform="scale(0.015625)"/>
       <path id="ArialMT-69" d="M 425 3934 
L 425 4581 
L 988 4581 
L 988 3934 
L 425 3934 
z
M 425 0 
L 425 3319 
L 988 3319 
L 988 0 
L 425 0 
z
" transform="scale(0.015625)"/>
       <path id="ArialMT-64" d="M 2575 0 
L 2575 419 
Q 2259 -75 1647 -75 
Q 1250 -75 917 144 
Q 584 363 401 755 
Q 219 1147 219 1656 
Q 219 2153 384 2558 
Q 550 2963 881 3178 
Q 1213 3394 1622 3394 
Q 1922 3394 2156 3267 
Q 2391 3141 2538 2938 
L 2538 4581 
L 3097 4581 
L 3097 0 
L 2575 0 
z
M 797 1656 
Q 797 1019 1065 703 
Q 1334 388 1700 388 
Q 2069 388 2326 689 
Q 2584 991 2584 1609 
Q 2584 2291 2321 2609 
Q 2059 2928 1675 2928 
Q 1300 2928 1048 2622 
Q 797 2316 797 1656 
z
" transform="scale(0.015625)"/>
       <path id="ArialMT-73" d="M 197 991 
L 753 1078 
Q 800 744 1014 566 
Q 1228 388 1613 388 
Q 2000 388 2187 545 
Q 2375 703 2375 916 
Q 2375 1106 2209 1216 
Q 2094 1291 1634 1406 
Q 1016 1563 777 1677 
Q 538 1791 414 1992 
Q 291 2194 291 2438 
Q 291 2659 392 2848 
Q 494 3038 669 3163 
Q 800 3259 1026 3326 
Q 1253 3394 1513 3394 
Q 1903 3394 2198 3281 
Q 2494 3169 2634 2976 
Q 2775 2784 2828 2463 
L 2278 2388 
Q 2241 2644 2061 2787 
Q 1881 2931 1553 2931 
Q 1166 2931 1000 2803 
Q 834 2675 834 2503 
Q 834 2394 903 2306 
Q 972 2216 1119 2156 
Q 1203 2125 1616 2013 
Q 2213 1853 2448 1751 
Q 2684 1650 2818 1456 
Q 2953 1263 2953 975 
Q 2953 694 2789 445 
Q 2625 197 2315 61 
Q 2006 -75 1616 -75 
Q 969 -75 630 194 
Q 291 463 197 991 
z
" transform="scale(0.015625)"/>
       <path id="ArialMT-29" d="M 791 -1347 
L 388 -1347 
Q 1322 153 1322 1656 
Q 1322 2244 1188 2822 
Q 1081 3291 891 3722 
Q 769 4003 388 4659 
L 791 4659 
Q 1378 3875 1659 3084 
Q 1900 2403 1900 1659 
Q 1900 816 1576 28 
Q 1253 -759 791 -1347 
z
" transform="scale(0.015625)"/>
      </defs>
      <use xlink:href="#ArialMT-53"/>
      <use xlink:href="#ArialMT-65" x="66.699219"/>
      <use xlink:href="#ArialMT-71" x="122.314453"/>
      <use xlink:href="#ArialMT-75" x="177.929688"/>
      <use xlink:href="#ArialMT-65" x="233.544922"/>
      <use xlink:href="#ArialMT-6e" x="289.160156"/>
      <use xlink:href="#ArialMT-63" x="344.775391"/>
      <use xlink:href="#ArialMT-65" x="394.775391"/>
      <use xlink:href="#ArialMT-20" x="450.390625"/>
      <use xlink:href="#ArialMT-4c" x="478.173828"/>
      <use xlink:href="#ArialMT-65" x="533.789062"/>
      <use xlink:href="#ArialMT-6e" x="589.404297"/>
      <use xlink:href="#ArialMT-67" x="645.019531"/>
      <use xlink:href="#ArialMT-74" x="700.634766"/>
      <use xlink:href="#ArialMT-68" x="728.417969"/>
      <use xlink:href="#ArialMT-20" x="784.033203"/>
      <use xlink:href="#ArialMT-28" x="811.816406"/>
      <use xlink:href="#ArialMT-4e" x="845.117188"/>
      <use xlink:href="#ArialMT-75" x="917.333984"/>
      <use xlink:href="#ArialMT-6d" x="972.949219"/>
      <use xlink:href="#ArialMT-62" x="1056.25"/>
      <use xlink:href="#ArialMT-65" x="1111.865234"/>
      <use xlink:href="#ArialMT-72" x="1167.480469"/>
      <use xlink:href="#ArialMT-20" x="1200.78125"/>
      <use xlink:href="#ArialMT-6f" x="1228.564453"/>
      <use xlink:href="#ArialMT-66" x="1284.179688"/>
      <use xlink:href="#ArialMT-20" x="1311.962891"/>
      <use xlink:href="#ArialMT-43" x="1339.746094"/>
      <use xlink:href="#ArialMT-6c" x="1411.962891"/>
      <use xlink:href="#ArialMT-69" x="1434.179688"/>
      <use xlink:href="#ArialMT-66" x="1456.396484"/>
      <use xlink:href="#ArialMT-66" x="1482.429688"/>
      <use xlink:href="#ArialMT-6f" x="1510.212891"/>
      <use xlink:href="#ArialMT-72" x="1565.828125"/>
      <use xlink:href="#ArialMT-64" x="1599.128906"/>
      <use xlink:href="#ArialMT-73" x="1654.744141"/>
      <use xlink:href="#ArialMT-29" x="1704.744141"/>
     </g>
    </g>
   </g>
   <g id="matplotlib.axis_2">
    <g id="ytick_1">
     <g id="line2d_6">
      <path d="M 86.036563 448.179218 
L 867.236563 448.179218 
" clip-path="url(#p616aa60f78)" style="fill: none; stroke: #cccccc; stroke-linecap: round"/>
     </g>
     <g id="text_7">
      <!-- 0.90 -->
      <g style="fill: #262626" transform="translate(33.7225 456.052812) scale(0.22 -0.22)">
       <defs>
        <path id="ArialMT-2e" d="M 581 0 
L 581 641 
L 1222 641 
L 1222 0 
L 581 0 
z
" transform="scale(0.015625)"/>
        <path id="ArialMT-39" d="M 350 1059 
L 891 1109 
Q 959 728 1153 556 
Q 1347 384 1650 384 
Q 1909 384 2104 503 
Q 2300 622 2425 820 
Q 2550 1019 2634 1356 
Q 2719 1694 2719 2044 
Q 2719 2081 2716 2156 
Q 2547 1888 2255 1720 
Q 1963 1553 1622 1553 
Q 1053 1553 659 1965 
Q 266 2378 266 3053 
Q 266 3750 677 4175 
Q 1088 4600 1706 4600 
Q 2153 4600 2523 4359 
Q 2894 4119 3086 3673 
Q 3278 3228 3278 2384 
Q 3278 1506 3087 986 
Q 2897 466 2520 194 
Q 2144 -78 1638 -78 
Q 1100 -78 759 220 
Q 419 519 350 1059 
z
M 2653 3081 
Q 2653 3566 2395 3850 
Q 2138 4134 1775 4134 
Q 1400 4134 1122 3828 
Q 844 3522 844 3034 
Q 844 2597 1108 2323 
Q 1372 2050 1759 2050 
Q 2150 2050 2401 2323 
Q 2653 2597 2653 3081 
z
" transform="scale(0.015625)"/>
       </defs>
       <use xlink:href="#ArialMT-30"/>
       <use xlink:href="#ArialMT-2e" x="55.615234"/>
       <use xlink:href="#ArialMT-39" x="83.398438"/>
       <use xlink:href="#ArialMT-30" x="139.013672"/>
      </g>
     </g>
    </g>
    <g id="ytick_2">
     <g id="line2d_7">
      <path d="M 86.036563 370.731029 
L 867.236563 370.731029 
" clip-path="url(#p616aa60f78)" style="fill: none; stroke: #cccccc; stroke-linecap: round"/>
     </g>
     <g id="text_8">
      <!-- 0.92 -->
      <g style="fill: #262626" transform="translate(33.7225 378.604623) scale(0.22 -0.22)">
       <use xlink:href="#ArialMT-30"/>
       <use xlink:href="#ArialMT-2e" x="55.615234"/>
       <use xlink:href="#ArialMT-39" x="83.398438"/>
       <use xlink:href="#ArialMT-32" x="139.013672"/>
      </g>
     </g>
    </g>
    <g id="ytick_3">
     <g id="line2d_8">
      <path d="M 86.036563 293.28284 
L 867.236563 293.28284 
" clip-path="url(#p616aa60f78)" style="fill: none; stroke: #cccccc; stroke-linecap: round"/>
     </g>
     <g id="text_9">
      <!-- 0.94 -->
      <g style="fill: #262626" transform="translate(33.7225 301.156434) scale(0.22 -0.22)">
       <defs>
        <path id="ArialMT-34" d="M 2069 0 
L 2069 1097 
L 81 1097 
L 81 1613 
L 2172 4581 
L 2631 4581 
L 2631 1613 
L 3250 1613 
L 3250 1097 
L 2631 1097 
L 2631 0 
L 2069 0 
z
M 2069 1613 
L 2069 3678 
L 634 1613 
L 2069 1613 
z
" transform="scale(0.015625)"/>
       </defs>
       <use xlink:href="#ArialMT-30"/>
       <use xlink:href="#ArialMT-2e" x="55.615234"/>
       <use xlink:href="#ArialMT-39" x="83.398438"/>
       <use xlink:href="#ArialMT-34" x="139.013672"/>
      </g>
     </g>
    </g>
    <g id="ytick_4">
     <g id="line2d_9">
      <path d="M 86.036563 215.834651 
L 867.236563 215.834651 
" clip-path="url(#p616aa60f78)" style="fill: none; stroke: #cccccc; stroke-linecap: round"/>
     </g>
     <g id="text_10">
      <!-- 0.96 -->
      <g style="fill: #262626" transform="translate(33.7225 223.708245) scale(0.22 -0.22)">
       <defs>
        <path id="ArialMT-36" d="M 3184 3459 
L 2625 3416 
Q 2550 3747 2413 3897 
Q 2184 4138 1850 4138 
Q 1581 4138 1378 3988 
Q 1113 3794 959 3422 
Q 806 3050 800 2363 
Q 1003 2672 1297 2822 
Q 1591 2972 1913 2972 
Q 2475 2972 2870 2558 
Q 3266 2144 3266 1488 
Q 3266 1056 3080 686 
Q 2894 316 2569 119 
Q 2244 -78 1831 -78 
Q 1128 -78 684 439 
Q 241 956 241 2144 
Q 241 3472 731 4075 
Q 1159 4600 1884 4600 
Q 2425 4600 2770 4297 
Q 3116 3994 3184 3459 
z
M 888 1484 
Q 888 1194 1011 928 
Q 1134 663 1356 523 
Q 1578 384 1822 384 
Q 2178 384 2434 671 
Q 2691 959 2691 1453 
Q 2691 1928 2437 2201 
Q 2184 2475 1800 2475 
Q 1419 2475 1153 2201 
Q 888 1928 888 1484 
z
" transform="scale(0.015625)"/>
       </defs>
       <use xlink:href="#ArialMT-30"/>
       <use xlink:href="#ArialMT-2e" x="55.615234"/>
       <use xlink:href="#ArialMT-39" x="83.398438"/>
       <use xlink:href="#ArialMT-36" x="139.013672"/>
      </g>
     </g>
    </g>
    <g id="ytick_5">
     <g id="line2d_10">
      <path d="M 86.036563 138.386462 
L 867.236563 138.386462 
" clip-path="url(#p616aa60f78)" style="fill: none; stroke: #cccccc; stroke-linecap: round"/>
     </g>
     <g id="text_11">
      <!-- 0.98 -->
      <g style="fill: #262626" transform="translate(33.7225 146.260056) scale(0.22 -0.22)">
       <defs>
        <path id="ArialMT-38" d="M 1131 2484 
Q 781 2613 612 2850 
Q 444 3088 444 3419 
Q 444 3919 803 4259 
Q 1163 4600 1759 4600 
Q 2359 4600 2725 4251 
Q 3091 3903 3091 3403 
Q 3091 3084 2923 2848 
Q 2756 2613 2416 2484 
Q 2838 2347 3058 2040 
Q 3278 1734 3278 1309 
Q 3278 722 2862 322 
Q 2447 -78 1769 -78 
Q 1091 -78 675 323 
Q 259 725 259 1325 
Q 259 1772 486 2073 
Q 713 2375 1131 2484 
z
M 1019 3438 
Q 1019 3113 1228 2906 
Q 1438 2700 1772 2700 
Q 2097 2700 2305 2904 
Q 2513 3109 2513 3406 
Q 2513 3716 2298 3927 
Q 2084 4138 1766 4138 
Q 1444 4138 1231 3931 
Q 1019 3725 1019 3438 
z
M 838 1322 
Q 838 1081 952 856 
Q 1066 631 1291 507 
Q 1516 384 1775 384 
Q 2178 384 2440 643 
Q 2703 903 2703 1303 
Q 2703 1709 2433 1975 
Q 2163 2241 1756 2241 
Q 1359 2241 1098 1978 
Q 838 1716 838 1322 
z
" transform="scale(0.015625)"/>
       </defs>
       <use xlink:href="#ArialMT-30"/>
       <use xlink:href="#ArialMT-2e" x="55.615234"/>
       <use xlink:href="#ArialMT-39" x="83.398438"/>
       <use xlink:href="#ArialMT-38" x="139.013672"/>
      </g>
     </g>
    </g>
    <g id="ytick_6">
     <g id="line2d_11">
      <path d="M 86.036563 60.938273 
L 867.236563 60.938273 
" clip-path="url(#p616aa60f78)" style="fill: none; stroke: #cccccc; stroke-linecap: round"/>
     </g>
     <g id="text_12">
      <!-- 1.00 -->
      <g style="fill: #262626" transform="translate(33.7225 68.811867) scale(0.22 -0.22)">
       <use xlink:href="#ArialMT-31"/>
       <use xlink:href="#ArialMT-2e" x="55.615234"/>
       <use xlink:href="#ArialMT-30" x="83.398438"/>
       <use xlink:href="#ArialMT-30" x="139.013672"/>
      </g>
     </g>
    </g>
    <g id="text_13">
     <!-- Average Survival Probability -->
     <g style="fill: #262626" transform="translate(24.67125 401.9925) rotate(-90) scale(0.24 -0.24)">
      <defs>
       <path id="ArialMT-41" d="M -9 0 
L 1750 4581 
L 2403 4581 
L 4278 0 
L 3588 0 
L 3053 1388 
L 1138 1388 
L 634 0 
L -9 0 
z
M 1313 1881 
L 2866 1881 
L 2388 3150 
Q 2169 3728 2063 4100 
Q 1975 3659 1816 3225 
L 1313 1881 
z
" transform="scale(0.015625)"/>
       <path id="ArialMT-76" d="M 1344 0 
L 81 3319 
L 675 3319 
L 1388 1331 
Q 1503 1009 1600 663 
Q 1675 925 1809 1294 
L 2547 3319 
L 3125 3319 
L 1869 0 
L 1344 0 
z
" transform="scale(0.015625)"/>
       <path id="ArialMT-61" d="M 2588 409 
Q 2275 144 1986 34 
Q 1697 -75 1366 -75 
Q 819 -75 525 192 
Q 231 459 231 875 
Q 231 1119 342 1320 
Q 453 1522 633 1644 
Q 813 1766 1038 1828 
Q 1203 1872 1538 1913 
Q 2219 1994 2541 2106 
Q 2544 2222 2544 2253 
Q 2544 2597 2384 2738 
Q 2169 2928 1744 2928 
Q 1347 2928 1158 2789 
Q 969 2650 878 2297 
L 328 2372 
Q 403 2725 575 2942 
Q 747 3159 1072 3276 
Q 1397 3394 1825 3394 
Q 2250 3394 2515 3294 
Q 2781 3194 2906 3042 
Q 3031 2891 3081 2659 
Q 3109 2516 3109 2141 
L 3109 1391 
Q 3109 606 3145 398 
Q 3181 191 3288 0 
L 2700 0 
Q 2613 175 2588 409 
z
M 2541 1666 
Q 2234 1541 1622 1453 
Q 1275 1403 1131 1340 
Q 988 1278 909 1158 
Q 831 1038 831 891 
Q 831 666 1001 516 
Q 1172 366 1500 366 
Q 1825 366 2078 508 
Q 2331 650 2450 897 
Q 2541 1088 2541 1459 
L 2541 1666 
z
" transform="scale(0.015625)"/>
       <path id="ArialMT-50" d="M 494 0 
L 494 4581 
L 2222 4581 
Q 2678 4581 2919 4538 
Q 3256 4481 3484 4323 
Q 3713 4166 3852 3881 
Q 3991 3597 3991 3256 
Q 3991 2672 3619 2267 
Q 3247 1863 2275 1863 
L 1100 1863 
L 1100 0 
L 494 0 
z
M 1100 2403 
L 2284 2403 
Q 2872 2403 3119 2622 
Q 3366 2841 3366 3238 
Q 3366 3525 3220 3729 
Q 3075 3934 2838 4000 
Q 2684 4041 2272 4041 
L 1100 4041 
L 1100 2403 
z
" transform="scale(0.015625)"/>
       <path id="ArialMT-79" d="M 397 -1278 
L 334 -750 
Q 519 -800 656 -800 
Q 844 -800 956 -737 
Q 1069 -675 1141 -563 
Q 1194 -478 1313 -144 
Q 1328 -97 1363 -6 
L 103 3319 
L 709 3319 
L 1400 1397 
Q 1534 1031 1641 628 
Q 1738 1016 1872 1384 
L 2581 3319 
L 3144 3319 
L 1881 -56 
Q 1678 -603 1566 -809 
Q 1416 -1088 1222 -1217 
Q 1028 -1347 759 -1347 
Q 597 -1347 397 -1278 
z
" transform="scale(0.015625)"/>
      </defs>
      <use xlink:href="#ArialMT-41"/>
      <use xlink:href="#ArialMT-76" x="64.949219"/>
      <use xlink:href="#ArialMT-65" x="114.949219"/>
      <use xlink:href="#ArialMT-72" x="170.564453"/>
      <use xlink:href="#ArialMT-61" x="203.865234"/>
      <use xlink:href="#ArialMT-67" x="259.480469"/>
      <use xlink:href="#ArialMT-65" x="315.095703"/>
      <use xlink:href="#ArialMT-20" x="370.710938"/>
      <use xlink:href="#ArialMT-53" x="398.494141"/>
      <use xlink:href="#ArialMT-75" x="465.193359"/>
      <use xlink:href="#ArialMT-72" x="520.808594"/>
      <use xlink:href="#ArialMT-76" x="554.109375"/>
      <use xlink:href="#ArialMT-69" x="604.109375"/>
      <use xlink:href="#ArialMT-76" x="626.326172"/>
      <use xlink:href="#ArialMT-61" x="676.326172"/>
      <use xlink:href="#ArialMT-6c" x="731.941406"/>
      <use xlink:href="#ArialMT-20" x="754.158203"/>
      <use xlink:href="#ArialMT-50" x="781.941406"/>
      <use xlink:href="#ArialMT-72" x="848.640625"/>
      <use xlink:href="#ArialMT-6f" x="881.941406"/>
      <use xlink:href="#ArialMT-62" x="937.556641"/>
      <use xlink:href="#ArialMT-61" x="993.171875"/>
      <use xlink:href="#ArialMT-62" x="1048.787109"/>
      <use xlink:href="#ArialMT-69" x="1104.402344"/>
      <use xlink:href="#ArialMT-6c" x="1126.619141"/>
      <use xlink:href="#ArialMT-69" x="1148.835938"/>
      <use xlink:href="#ArialMT-74" x="1171.052734"/>
      <use xlink:href="#ArialMT-79" x="1198.835938"/>
     </g>
    </g>
   </g>
   <g id="PolyCollection_1"/>
   <g id="PolyCollection_2"/>
   <g id="PolyCollection_3"/>
   <g id="PolyCollection_4"/>
   <g id="PolyCollection_5"/>
   <g id="PolyCollection_6"/>
   <g id="PolyCollection_7"/>
   <g id="PolyCollection_8"/>
   <g id="PathCollection_1">
    <defs>
     <path id="C0_0_30f4d93093" d="M 0 3 
C 0.795609 3 1.55874 2.683901 2.12132 2.12132 
C 2.683901 1.55874 3 0.795609 3 -0 
C 3 -0.795609 2.683901 -1.55874 2.12132 -2.12132 
C 1.55874 -2.683901 0.795609 -3 0 -3 
C -0.795609 -3 -1.55874 -2.683901 -2.12132 -2.12132 
C -2.683901 -1.55874 -3 -0.795609 -3 0 
C -3 0.795609 -2.683901 1.55874 -2.12132 2.12132 
C -1.55874 2.683901 -0.795609 3 0 3 
z
"/>
    </defs>
    <g clip-path="url(#p616aa60f78)">
     <use xlink:href="#C0_0_30f4d93093" x="121.545653" y="89.981344" style="fill: #1f77b4; stroke: #ffffff; stroke-width: 0.48"/>
    </g>
    <g clip-path="url(#p616aa60f78)">
     <use xlink:href="#C0_0_30f4d93093" x="298.483967" y="157.748509" style="fill: #1f77b4; stroke: #ffffff; stroke-width: 0.48"/>
    </g>
    <g clip-path="url(#p616aa60f78)">
     <use xlink:href="#C0_0_30f4d93093" x="831.380534" y="186.79158" style="fill: #1f77b4; stroke: #ffffff; stroke-width: 0.48"/>
    </g>
    <g clip-path="url(#p616aa60f78)">
     <use xlink:href="#C0_0_30f4d93093" x="121.545653" y="70.619296" style="fill: #ff7f0e; stroke: #ffffff; stroke-width: 0.48"/>
    </g>
    <g clip-path="url(#p616aa60f78)">
     <use xlink:href="#C0_0_30f4d93093" x="298.483967" y="138.386462" style="fill: #ff7f0e; stroke: #ffffff; stroke-width: 0.48"/>
    </g>
    <g clip-path="url(#p616aa60f78)">
     <use xlink:href="#C0_0_30f4d93093" x="831.380534" y="283.601816" style="fill: #ff7f0e; stroke: #ffffff; stroke-width: 0.48"/>
    </g>
    <g clip-path="url(#p616aa60f78)">
     <use xlink:href="#C0_0_30f4d93093" x="121.545653" y="70.619296" style="fill: #2ca02c; stroke: #ffffff; stroke-width: 0.48"/>
    </g>
    <g clip-path="url(#p616aa60f78)">
     <use xlink:href="#C0_0_30f4d93093" x="298.483967" y="167.429533" style="fill: #2ca02c; stroke: #ffffff; stroke-width: 0.48"/>
    </g>
    <g clip-path="url(#p616aa60f78)">
     <use xlink:href="#C0_0_30f4d93093" x="831.380534" y="322.325911" style="fill: #2ca02c; stroke: #ffffff; stroke-width: 0.48"/>
    </g>
    <g clip-path="url(#p616aa60f78)">
     <use xlink:href="#C0_0_30f4d93093" x="121.545653" y="60.938273" style="fill: #d62728; stroke: #ffffff; stroke-width: 0.48"/>
    </g>
    <g clip-path="url(#p616aa60f78)">
     <use xlink:href="#C0_0_30f4d93093" x="298.483967" y="167.429533" style="fill: #d62728; stroke: #ffffff; stroke-width: 0.48"/>
    </g>
    <g clip-path="url(#p616aa60f78)">
     <use xlink:href="#C0_0_30f4d93093" x="831.380534" y="361.050005" style="fill: #d62728; stroke: #ffffff; stroke-width: 0.48"/>
    </g>
    <g clip-path="url(#p616aa60f78)">
     <use xlink:href="#C0_0_30f4d93093" x="121.545653" y="60.938273" style="fill: #9467bd; stroke: #ffffff; stroke-width: 0.48"/>
    </g>
    <g clip-path="url(#p616aa60f78)">
     <use xlink:href="#C0_0_30f4d93093" x="298.483967" y="109.343391" style="fill: #9467bd; stroke: #ffffff; stroke-width: 0.48"/>
    </g>
    <g clip-path="url(#p616aa60f78)">
     <use xlink:href="#C0_0_30f4d93093" x="831.380534" y="332.006935" style="fill: #9467bd; stroke: #ffffff; stroke-width: 0.48"/>
    </g>
    <g clip-path="url(#p616aa60f78)">
     <use xlink:href="#C0_0_30f4d93093" x="121.545653" y="80.30032" style="fill: #8c564b; stroke: #ffffff; stroke-width: 0.48"/>
    </g>
    <g clip-path="url(#p616aa60f78)">
     <use xlink:href="#C0_0_30f4d93093" x="298.483967" y="109.343391" style="fill: #8c564b; stroke: #ffffff; stroke-width: 0.48"/>
    </g>
    <g clip-path="url(#p616aa60f78)">
     <use xlink:href="#C0_0_30f4d93093" x="831.380534" y="225.515675" style="fill: #8c564b; stroke: #ffffff; stroke-width: 0.48"/>
    </g>
    <g clip-path="url(#p616aa60f78)">
     <use xlink:href="#C0_0_30f4d93093" x="121.545653" y="60.938273" style="fill: #e377c2; stroke: #ffffff; stroke-width: 0.48"/>
    </g>
    <g clip-path="url(#p616aa60f78)">
     <use xlink:href="#C0_0_30f4d93093" x="298.483967" y="119.024415" style="fill: #e377c2; stroke: #ffffff; stroke-width: 0.48"/>
    </g>
    <g clip-path="url(#p616aa60f78)">
     <use xlink:href="#C0_0_30f4d93093" x="831.380534" y="283.601816" style="fill: #e377c2; stroke: #ffffff; stroke-width: 0.48"/>
    </g>
    <g clip-path="url(#p616aa60f78)">
     <use xlink:href="#C0_0_30f4d93093" x="121.545653" y="60.938273" style="fill: #7f7f7f; stroke: #ffffff; stroke-width: 0.48"/>
    </g>
    <g clip-path="url(#p616aa60f78)">
     <use xlink:href="#C0_0_30f4d93093" x="298.483967" y="177.110556" style="fill: #7f7f7f; stroke: #ffffff; stroke-width: 0.48"/>
    </g>
    <g clip-path="url(#p616aa60f78)">
     <use xlink:href="#C0_0_30f4d93093" x="831.380534" y="312.644887" style="fill: #7f7f7f; stroke: #ffffff; stroke-width: 0.48"/>
    </g>
   </g>
   <g id="line2d_12">
    <path d="M 121.545653 109.791881 
L 292.33086 130.323867 
L 463.116067 150.63249 
L 635.324484 170.886658 
L 808.956111 191.083294 
L 831.727472 193.715413 
L 831.727472 193.715413 
" clip-path="url(#p616aa60f78)" style="fill: none; stroke: #1f77b4; stroke-width: 1.5; stroke-linecap: round"/>
   </g>
   <g id="line2d_13">
    <path d="M 121.545653 76.21559 
L 189.859736 97.443105 
L 258.173819 118.436041 
L 326.487902 139.196991 
L 394.801984 159.728519 
L 464.539277 180.453779 
L 534.27657 200.945267 
L 604.013863 221.205619 
L 673.751155 241.237443 
L 744.911658 261.445184 
L 816.072161 281.420365 
L 831.727472 285.783961 
L 831.727472 285.783961 
" clip-path="url(#p616aa60f78)" style="fill: none; stroke: #ff7f0e; stroke-width: 1.5; stroke-linecap: round"/>
   </g>
   <g id="line2d_14">
    <path d="M 121.545653 84.535435 
L 179.897266 105.787919 
L 238.248878 126.804249 
L 296.60049 147.587051 
L 356.375313 168.63732 
L 416.150135 189.448011 
L 475.924957 210.02185 
L 535.69978 230.361532 
L 595.474602 250.469724 
L 656.672635 270.819609 
L 717.870667 290.932405 
L 779.0687 310.810873 
L 831.727472 327.730123 
L 831.727472 327.730123 
" clip-path="url(#p616aa60f78)" style="fill: none; stroke: #2ca02c; stroke-width: 1.5; stroke-linecap: round"/>
   </g>
   <g id="line2d_15">
    <path d="M 121.545653 73.057437 
L 169.934795 94.584056 
L 218.323937 115.869836 
L 266.713079 136.917471 
L 316.525431 158.33821 
L 366.337783 179.512287 
L 416.150135 200.442541 
L 465.962487 221.131781 
L 515.774839 241.582781 
L 565.587191 261.798286 
L 616.822753 282.348547 
L 668.058315 302.655449 
L 719.293877 322.721872 
L 770.529439 342.550666 
L 821.765001 362.144643 
L 831.727472 365.927551 
L 831.727472 365.927551 
" clip-path="url(#p616aa60f78)" style="fill: none; stroke: #d62728; stroke-width: 1.5; stroke-linecap: round"/>
   </g>
   <g id="line2d_16">
    <path d="M 121.545653 50.53875 
L 172.781215 72.023943 
L 224.016777 93.271997 
L 276.67555 114.865918 
L 329.334322 136.214919 
L 381.993094 157.321776 
L 434.651866 178.189237 
L 487.310638 198.820017 
L 539.96941 219.216801 
L 594.051392 239.924067 
L 648.133374 260.390159 
L 702.215356 280.617885 
L 756.297339 300.610021 
L 810.379321 320.369312 
L 831.727472 328.105532 
L 831.727472 328.105532 
" clip-path="url(#p616aa60f78)" style="fill: none; stroke: #9467bd; stroke-width: 1.5; stroke-linecap: round"/>
   </g>
   <g id="line2d_17">
    <path d="M 121.545653 76.541619 
L 218.323937 97.370099 
L 315.102221 117.9727 
L 413.303715 138.649909 
L 511.505209 159.099598 
L 609.706703 179.324273 
L 709.331407 199.61467 
L 808.956111 219.678586 
L 831.727472 224.233089 
L 831.727472 224.233089 
" clip-path="url(#p616aa60f78)" style="fill: none; stroke: #8c564b; stroke-width: 1.5; stroke-linecap: round"/>
   </g>
   <g id="line2d_18">
    <path d="M 121.545653 60.944122 
L 185.590106 82.168397 
L 249.634558 103.160014 
L 313.679011 123.921525 
L 379.146674 144.909196 
L 444.614336 165.66172 
L 510.081999 186.181731 
L 575.549661 206.471835 
L 642.440534 226.968249 
L 709.331407 247.230057 
L 776.222279 267.259944 
L 831.727472 283.706324 
L 831.727472 283.706324 
" clip-path="url(#p616aa60f78)" style="fill: none; stroke: #e377c2; stroke-width: 1.5; stroke-linecap: round"/>
   </g>
   <g id="line2d_19">
    <path d="M 121.545653 83.643081 
L 181.320476 104.889 
L 241.095298 125.899021 
L 300.870121 146.675765 
L 360.644943 167.221821 
L 421.842975 188.020751 
L 483.041008 208.58328 
L 544.23904 228.912095 
L 605.437073 249.009852 
L 668.058315 269.338557 
L 730.679558 289.430864 
L 793.3008 309.289522 
L 831.727472 321.361011 
L 831.727472 321.361011 
" clip-path="url(#p616aa60f78)" style="fill: none; stroke: #7f7f7f; stroke-width: 1.5; stroke-linecap: round"/>
   </g>
   <g id="line2d_20"/>
   <g id="line2d_21"/>
   <g id="line2d_22"/>
   <g id="line2d_23"/>
   <g id="line2d_24"/>
   <g id="line2d_25"/>
   <g id="line2d_26"/>
   <g id="line2d_27"/>
   <g id="LineCollection_1">
    <path d="M 121.545653 99.662367 
L 121.545653 80.30032 
" clip-path="url(#p616aa60f78)" style="fill: none; stroke: #1f77b4"/>
    <path d="M 298.483967 168.927192 
L 298.483967 146.569826 
" clip-path="url(#p616aa60f78)" style="fill: none; stroke: #1f77b4"/>
    <path d="M 831.380534 211.154955 
L 831.380534 162.428205 
" clip-path="url(#p616aa60f78)" style="fill: none; stroke: #1f77b4"/>
   </g>
   <g id="line2d_28">
    <defs>
     <path id="mefdcbf2456" d="M 3 0 
L -3 -0 
" style="stroke: #1f77b4"/>
    </defs>
    <g clip-path="url(#p616aa60f78)">
     <use xlink:href="#mefdcbf2456" x="121.545653" y="99.662367" style="fill: #1f77b4; stroke: #1f77b4"/>
     <use xlink:href="#mefdcbf2456" x="298.483967" y="168.927192" style="fill: #1f77b4; stroke: #1f77b4"/>
     <use xlink:href="#mefdcbf2456" x="831.380534" y="211.154955" style="fill: #1f77b4; stroke: #1f77b4"/>
    </g>
   </g>
   <g id="line2d_29">
    <g clip-path="url(#p616aa60f78)">
     <use xlink:href="#mefdcbf2456" x="121.545653" y="80.30032" style="fill: #1f77b4; stroke: #1f77b4"/>
     <use xlink:href="#mefdcbf2456" x="298.483967" y="146.569826" style="fill: #1f77b4; stroke: #1f77b4"/>
     <use xlink:href="#mefdcbf2456" x="831.380534" y="162.428205" style="fill: #1f77b4; stroke: #1f77b4"/>
    </g>
   </g>
   <g id="LineCollection_2">
    <path d="M 121.545653 80.30032 
L 121.545653 60.938273 
" clip-path="url(#p616aa60f78)" style="fill: none; stroke: #ff7f0e"/>
    <path d="M 298.483967 165.768532 
L 298.483967 111.004392 
" clip-path="url(#p616aa60f78)" style="fill: none; stroke: #ff7f0e"/>
    <path d="M 831.380534 334.523142 
L 831.380534 232.680491 
" clip-path="url(#p616aa60f78)" style="fill: none; stroke: #ff7f0e"/>
   </g>
   <g id="line2d_30">
    <defs>
     <path id="mc69e6d0a4c" d="M 3 0 
L -3 -0 
" style="stroke: #ff7f0e"/>
    </defs>
    <g clip-path="url(#p616aa60f78)">
     <use xlink:href="#mc69e6d0a4c" x="121.545653" y="80.30032" style="fill: #ff7f0e; stroke: #ff7f0e"/>
     <use xlink:href="#mc69e6d0a4c" x="298.483967" y="165.768532" style="fill: #ff7f0e; stroke: #ff7f0e"/>
     <use xlink:href="#mc69e6d0a4c" x="831.380534" y="334.523142" style="fill: #ff7f0e; stroke: #ff7f0e"/>
    </g>
   </g>
   <g id="line2d_31">
    <g clip-path="url(#p616aa60f78)">
     <use xlink:href="#mc69e6d0a4c" x="121.545653" y="60.938273" style="fill: #ff7f0e; stroke: #ff7f0e"/>
     <use xlink:href="#mc69e6d0a4c" x="298.483967" y="111.004392" style="fill: #ff7f0e; stroke: #ff7f0e"/>
     <use xlink:href="#mc69e6d0a4c" x="831.380534" y="232.680491" style="fill: #ff7f0e; stroke: #ff7f0e"/>
    </g>
   </g>
   <g id="LineCollection_3">
    <path d="M 121.545653 80.30032 
L 121.545653 60.938273 
" clip-path="url(#p616aa60f78)" style="fill: none; stroke: #2ca02c"/>
    <path d="M 298.483967 185.967282 
L 298.483967 148.891784 
" clip-path="url(#p616aa60f78)" style="fill: none; stroke: #2ca02c"/>
    <path d="M 831.380534 382.264922 
L 831.380534 262.3869 
" clip-path="url(#p616aa60f78)" style="fill: none; stroke: #2ca02c"/>
   </g>
   <g id="line2d_32">
    <defs>
     <path id="mcf24431ae9" d="M 3 0 
L -3 -0 
" style="stroke: #2ca02c"/>
    </defs>
    <g clip-path="url(#p616aa60f78)">
     <use xlink:href="#mcf24431ae9" x="121.545653" y="80.30032" style="fill: #2ca02c; stroke: #2ca02c"/>
     <use xlink:href="#mcf24431ae9" x="298.483967" y="185.967282" style="fill: #2ca02c; stroke: #2ca02c"/>
     <use xlink:href="#mcf24431ae9" x="831.380534" y="382.264922" style="fill: #2ca02c; stroke: #2ca02c"/>
    </g>
   </g>
   <g id="line2d_33">
    <g clip-path="url(#p616aa60f78)">
     <use xlink:href="#mcf24431ae9" x="121.545653" y="60.938273" style="fill: #2ca02c; stroke: #2ca02c"/>
     <use xlink:href="#mcf24431ae9" x="298.483967" y="148.891784" style="fill: #2ca02c; stroke: #2ca02c"/>
     <use xlink:href="#mcf24431ae9" x="831.380534" y="262.3869" style="fill: #2ca02c; stroke: #2ca02c"/>
    </g>
   </g>
   <g id="LineCollection_4">
    <path d="M 121.545653 60.938273 
L 121.545653 60.938273 
" clip-path="url(#p616aa60f78)" style="fill: none; stroke: #d62728"/>
    <path d="M 298.483967 204.081297 
L 298.483967 130.777769 
" clip-path="url(#p616aa60f78)" style="fill: none; stroke: #d62728"/>
    <path d="M 831.380534 453.73875 
L 831.380534 268.361261 
" clip-path="url(#p616aa60f78)" style="fill: none; stroke: #d62728"/>
   </g>
   <g id="line2d_34">
    <defs>
     <path id="m295593ed68" d="M 3 0 
L -3 -0 
" style="stroke: #d62728"/>
    </defs>
    <g clip-path="url(#p616aa60f78)">
     <use xlink:href="#m295593ed68" x="121.545653" y="60.938273" style="fill: #d62728; stroke: #d62728"/>
     <use xlink:href="#m295593ed68" x="298.483967" y="204.081297" style="fill: #d62728; stroke: #d62728"/>
     <use xlink:href="#m295593ed68" x="831.380534" y="453.73875" style="fill: #d62728; stroke: #d62728"/>
    </g>
   </g>
   <g id="line2d_35">
    <g clip-path="url(#p616aa60f78)">
     <use xlink:href="#m295593ed68" x="121.545653" y="60.938273" style="fill: #d62728; stroke: #d62728"/>
     <use xlink:href="#m295593ed68" x="298.483967" y="130.777769" style="fill: #d62728; stroke: #d62728"/>
     <use xlink:href="#m295593ed68" x="831.380534" y="268.361261" style="fill: #d62728; stroke: #d62728"/>
    </g>
   </g>
   <g id="LineCollection_5">
    <path d="M 121.545653 60.938273 
L 121.545653 60.938273 
" clip-path="url(#p616aa60f78)" style="fill: none; stroke: #9467bd"/>
    <path d="M 298.483967 138.386462 
L 298.483967 80.30032 
" clip-path="url(#p616aa60f78)" style="fill: none; stroke: #9467bd"/>
    <path d="M 831.380534 389.007258 
L 831.380534 275.006611 
" clip-path="url(#p616aa60f78)" style="fill: none; stroke: #9467bd"/>
   </g>
   <g id="line2d_36">
    <defs>
     <path id="m6970929d53" d="M 3 0 
L -3 -0 
" style="stroke: #9467bd"/>
    </defs>
    <g clip-path="url(#p616aa60f78)">
     <use xlink:href="#m6970929d53" x="121.545653" y="60.938273" style="fill: #9467bd; stroke: #9467bd"/>
     <use xlink:href="#m6970929d53" x="298.483967" y="138.386462" style="fill: #9467bd; stroke: #9467bd"/>
     <use xlink:href="#m6970929d53" x="831.380534" y="389.007258" style="fill: #9467bd; stroke: #9467bd"/>
    </g>
   </g>
   <g id="line2d_37">
    <g clip-path="url(#p616aa60f78)">
     <use xlink:href="#m6970929d53" x="121.545653" y="60.938273" style="fill: #9467bd; stroke: #9467bd"/>
     <use xlink:href="#m6970929d53" x="298.483967" y="80.30032" style="fill: #9467bd; stroke: #9467bd"/>
     <use xlink:href="#m6970929d53" x="831.380534" y="275.006611" style="fill: #9467bd; stroke: #9467bd"/>
    </g>
   </g>
   <g id="LineCollection_6">
    <path d="M 121.545653 91.479003 
L 121.545653 69.121637 
" clip-path="url(#p616aa60f78)" style="fill: none; stroke: #8c564b"/>
    <path d="M 298.483967 133.706766 
L 298.483967 84.980016 
" clip-path="url(#p616aa60f78)" style="fill: none; stroke: #8c564b"/>
    <path d="M 831.380534 254.558745 
L 831.380534 196.472604 
" clip-path="url(#p616aa60f78)" style="fill: none; stroke: #8c564b"/>
   </g>
   <g id="line2d_38">
    <defs>
     <path id="med701f2cc0" d="M 3 0 
L -3 -0 
" style="stroke: #8c564b"/>
    </defs>
    <g clip-path="url(#p616aa60f78)">
     <use xlink:href="#med701f2cc0" x="121.545653" y="91.479003" style="fill: #8c564b; stroke: #8c564b"/>
     <use xlink:href="#med701f2cc0" x="298.483967" y="133.706766" style="fill: #8c564b; stroke: #8c564b"/>
     <use xlink:href="#med701f2cc0" x="831.380534" y="254.558745" style="fill: #8c564b; stroke: #8c564b"/>
    </g>
   </g>
   <g id="line2d_39">
    <g clip-path="url(#p616aa60f78)">
     <use xlink:href="#med701f2cc0" x="121.545653" y="69.121637" style="fill: #8c564b; stroke: #8c564b"/>
     <use xlink:href="#med701f2cc0" x="298.483967" y="84.980016" style="fill: #8c564b; stroke: #8c564b"/>
     <use xlink:href="#med701f2cc0" x="831.380534" y="196.472604" style="fill: #8c564b; stroke: #8c564b"/>
    </g>
   </g>
   <g id="LineCollection_7">
    <path d="M 121.545653 60.938273 
L 121.545653 60.938273 
" clip-path="url(#p616aa60f78)" style="fill: none; stroke: #e377c2"/>
    <path d="M 298.483967 144.02071 
L 298.483967 94.028119 
" clip-path="url(#p616aa60f78)" style="fill: none; stroke: #e377c2"/>
    <path d="M 831.380534 341.418415 
L 831.380534 225.785217 
" clip-path="url(#p616aa60f78)" style="fill: none; stroke: #e377c2"/>
   </g>
   <g id="line2d_40">
    <defs>
     <path id="m956e82e0be" d="M 3 0 
L -3 -0 
" style="stroke: #e377c2"/>
    </defs>
    <g clip-path="url(#p616aa60f78)">
     <use xlink:href="#m956e82e0be" x="121.545653" y="60.938273" style="fill: #e377c2; stroke: #e377c2"/>
     <use xlink:href="#m956e82e0be" x="298.483967" y="144.02071" style="fill: #e377c2; stroke: #e377c2"/>
     <use xlink:href="#m956e82e0be" x="831.380534" y="341.418415" style="fill: #e377c2; stroke: #e377c2"/>
    </g>
   </g>
   <g id="line2d_41">
    <g clip-path="url(#p616aa60f78)">
     <use xlink:href="#m956e82e0be" x="121.545653" y="60.938273" style="fill: #e377c2; stroke: #e377c2"/>
     <use xlink:href="#m956e82e0be" x="298.483967" y="94.028119" style="fill: #e377c2; stroke: #e377c2"/>
     <use xlink:href="#m956e82e0be" x="831.380534" y="225.785217" style="fill: #e377c2; stroke: #e377c2"/>
    </g>
   </g>
   <g id="LineCollection_8">
    <path d="M 121.545653 60.938273 
L 121.545653 60.938273 
" clip-path="url(#p616aa60f78)" style="fill: none; stroke: #7f7f7f"/>
    <path d="M 298.483967 204.492626 
L 298.483967 149.728487 
" clip-path="url(#p616aa60f78)" style="fill: none; stroke: #7f7f7f"/>
    <path d="M 831.380534 376.861533 
L 831.380534 248.428241 
" clip-path="url(#p616aa60f78)" style="fill: none; stroke: #7f7f7f"/>
   </g>
   <g id="line2d_42">
    <defs>
     <path id="m521e3ce16d" d="M 3 0 
L -3 -0 
" style="stroke: #7f7f7f"/>
    </defs>
    <g clip-path="url(#p616aa60f78)">
     <use xlink:href="#m521e3ce16d" x="121.545653" y="60.938273" style="fill: #7f7f7f; stroke: #7f7f7f"/>
     <use xlink:href="#m521e3ce16d" x="298.483967" y="204.492626" style="fill: #7f7f7f; stroke: #7f7f7f"/>
     <use xlink:href="#m521e3ce16d" x="831.380534" y="376.861533" style="fill: #7f7f7f; stroke: #7f7f7f"/>
    </g>
   </g>
   <g id="line2d_43">
    <g clip-path="url(#p616aa60f78)">
     <use xlink:href="#m521e3ce16d" x="121.545653" y="60.938273" style="fill: #7f7f7f; stroke: #7f7f7f"/>
     <use xlink:href="#m521e3ce16d" x="298.483967" y="149.728487" style="fill: #7f7f7f; stroke: #7f7f7f"/>
     <use xlink:href="#m521e3ce16d" x="831.380534" y="248.428241" style="fill: #7f7f7f; stroke: #7f7f7f"/>
    </g>
   </g>
   <g id="line2d_44">
    <defs>
     <path id="m9c1efe4cb4" d="M 0 3 
C 0.795609 3 1.55874 2.683901 2.12132 2.12132 
C 2.683901 1.55874 3 0.795609 3 0 
C 3 -0.795609 2.683901 -1.55874 2.12132 -2.12132 
C 1.55874 -2.683901 0.795609 -3 0 -3 
C -0.795609 -3 -1.55874 -2.683901 -2.12132 -2.12132 
C -2.683901 -1.55874 -3 -0.795609 -3 0 
C -3 0.795609 -2.683901 1.55874 -2.12132 2.12132 
C -1.55874 2.683901 -0.795609 3 0 3 
z
" style="stroke: #1f77b4"/>
    </defs>
    <g clip-path="url(#p616aa60f78)">
     <use xlink:href="#m9c1efe4cb4" x="121.545653" y="89.981344" style="fill: #1f77b4; stroke: #1f77b4"/>
     <use xlink:href="#m9c1efe4cb4" x="298.483967" y="157.748509" style="fill: #1f77b4; stroke: #1f77b4"/>
     <use xlink:href="#m9c1efe4cb4" x="831.380534" y="186.79158" style="fill: #1f77b4; stroke: #1f77b4"/>
    </g>
   </g>
   <g id="line2d_45">
    <defs>
     <path id="m48b5ba2f97" d="M 0 3 
C 0.795609 3 1.55874 2.683901 2.12132 2.12132 
C 2.683901 1.55874 3 0.795609 3 0 
C 3 -0.795609 2.683901 -1.55874 2.12132 -2.12132 
C 1.55874 -2.683901 0.795609 -3 0 -3 
C -0.795609 -3 -1.55874 -2.683901 -2.12132 -2.12132 
C -2.683901 -1.55874 -3 -0.795609 -3 0 
C -3 0.795609 -2.683901 1.55874 -2.12132 2.12132 
C -1.55874 2.683901 -0.795609 3 0 3 
z
" style="stroke: #ff7f0e"/>
    </defs>
    <g clip-path="url(#p616aa60f78)">
     <use xlink:href="#m48b5ba2f97" x="121.545653" y="70.619296" style="fill: #ff7f0e; stroke: #ff7f0e"/>
     <use xlink:href="#m48b5ba2f97" x="298.483967" y="138.386462" style="fill: #ff7f0e; stroke: #ff7f0e"/>
     <use xlink:href="#m48b5ba2f97" x="831.380534" y="283.601816" style="fill: #ff7f0e; stroke: #ff7f0e"/>
    </g>
   </g>
   <g id="line2d_46">
    <defs>
     <path id="m99dccc3c49" d="M 0 3 
C 0.795609 3 1.55874 2.683901 2.12132 2.12132 
C 2.683901 1.55874 3 0.795609 3 0 
C 3 -0.795609 2.683901 -1.55874 2.12132 -2.12132 
C 1.55874 -2.683901 0.795609 -3 0 -3 
C -0.795609 -3 -1.55874 -2.683901 -2.12132 -2.12132 
C -2.683901 -1.55874 -3 -0.795609 -3 0 
C -3 0.795609 -2.683901 1.55874 -2.12132 2.12132 
C -1.55874 2.683901 -0.795609 3 0 3 
z
" style="stroke: #2ca02c"/>
    </defs>
    <g clip-path="url(#p616aa60f78)">
     <use xlink:href="#m99dccc3c49" x="121.545653" y="70.619296" style="fill: #2ca02c; stroke: #2ca02c"/>
     <use xlink:href="#m99dccc3c49" x="298.483967" y="167.429533" style="fill: #2ca02c; stroke: #2ca02c"/>
     <use xlink:href="#m99dccc3c49" x="831.380534" y="322.325911" style="fill: #2ca02c; stroke: #2ca02c"/>
    </g>
   </g>
   <g id="line2d_47">
    <defs>
     <path id="md527823c6c" d="M 0 3 
C 0.795609 3 1.55874 2.683901 2.12132 2.12132 
C 2.683901 1.55874 3 0.795609 3 0 
C 3 -0.795609 2.683901 -1.55874 2.12132 -2.12132 
C 1.55874 -2.683901 0.795609 -3 0 -3 
C -0.795609 -3 -1.55874 -2.683901 -2.12132 -2.12132 
C -2.683901 -1.55874 -3 -0.795609 -3 0 
C -3 0.795609 -2.683901 1.55874 -2.12132 2.12132 
C -1.55874 2.683901 -0.795609 3 0 3 
z
" style="stroke: #d62728"/>
    </defs>
    <g clip-path="url(#p616aa60f78)">
     <use xlink:href="#md527823c6c" x="121.545653" y="60.938273" style="fill: #d62728; stroke: #d62728"/>
     <use xlink:href="#md527823c6c" x="298.483967" y="167.429533" style="fill: #d62728; stroke: #d62728"/>
     <use xlink:href="#md527823c6c" x="831.380534" y="361.050005" style="fill: #d62728; stroke: #d62728"/>
    </g>
   </g>
   <g id="line2d_48">
    <defs>
     <path id="ma698b60240" d="M 0 3 
C 0.795609 3 1.55874 2.683901 2.12132 2.12132 
C 2.683901 1.55874 3 0.795609 3 0 
C 3 -0.795609 2.683901 -1.55874 2.12132 -2.12132 
C 1.55874 -2.683901 0.795609 -3 0 -3 
C -0.795609 -3 -1.55874 -2.683901 -2.12132 -2.12132 
C -2.683901 -1.55874 -3 -0.795609 -3 0 
C -3 0.795609 -2.683901 1.55874 -2.12132 2.12132 
C -1.55874 2.683901 -0.795609 3 0 3 
z
" style="stroke: #9467bd"/>
    </defs>
    <g clip-path="url(#p616aa60f78)">
     <use xlink:href="#ma698b60240" x="121.545653" y="60.938273" style="fill: #9467bd; stroke: #9467bd"/>
     <use xlink:href="#ma698b60240" x="298.483967" y="109.343391" style="fill: #9467bd; stroke: #9467bd"/>
     <use xlink:href="#ma698b60240" x="831.380534" y="332.006935" style="fill: #9467bd; stroke: #9467bd"/>
    </g>
   </g>
   <g id="line2d_49">
    <defs>
     <path id="md13fae8d1b" d="M 0 3 
C 0.795609 3 1.55874 2.683901 2.12132 2.12132 
C 2.683901 1.55874 3 0.795609 3 0 
C 3 -0.795609 2.683901 -1.55874 2.12132 -2.12132 
C 1.55874 -2.683901 0.795609 -3 0 -3 
C -0.795609 -3 -1.55874 -2.683901 -2.12132 -2.12132 
C -2.683901 -1.55874 -3 -0.795609 -3 0 
C -3 0.795609 -2.683901 1.55874 -2.12132 2.12132 
C -1.55874 2.683901 -0.795609 3 0 3 
z
" style="stroke: #8c564b"/>
    </defs>
    <g clip-path="url(#p616aa60f78)">
     <use xlink:href="#md13fae8d1b" x="121.545653" y="80.30032" style="fill: #8c564b; stroke: #8c564b"/>
     <use xlink:href="#md13fae8d1b" x="298.483967" y="109.343391" style="fill: #8c564b; stroke: #8c564b"/>
     <use xlink:href="#md13fae8d1b" x="831.380534" y="225.515675" style="fill: #8c564b; stroke: #8c564b"/>
    </g>
   </g>
   <g id="line2d_50">
    <defs>
     <path id="m72efc53d85" d="M 0 3 
C 0.795609 3 1.55874 2.683901 2.12132 2.12132 
C 2.683901 1.55874 3 0.795609 3 0 
C 3 -0.795609 2.683901 -1.55874 2.12132 -2.12132 
C 1.55874 -2.683901 0.795609 -3 0 -3 
C -0.795609 -3 -1.55874 -2.683901 -2.12132 -2.12132 
C -2.683901 -1.55874 -3 -0.795609 -3 0 
C -3 0.795609 -2.683901 1.55874 -2.12132 2.12132 
C -1.55874 2.683901 -0.795609 3 0 3 
z
" style="stroke: #e377c2"/>
    </defs>
    <g clip-path="url(#p616aa60f78)">
     <use xlink:href="#m72efc53d85" x="121.545653" y="60.938273" style="fill: #e377c2; stroke: #e377c2"/>
     <use xlink:href="#m72efc53d85" x="298.483967" y="119.024415" style="fill: #e377c2; stroke: #e377c2"/>
     <use xlink:href="#m72efc53d85" x="831.380534" y="283.601816" style="fill: #e377c2; stroke: #e377c2"/>
    </g>
   </g>
   <g id="line2d_51">
    <defs>
     <path id="m94003a6056" d="M 0 3 
C 0.795609 3 1.55874 2.683901 2.12132 2.12132 
C 2.683901 1.55874 3 0.795609 3 0 
C 3 -0.795609 2.683901 -1.55874 2.12132 -2.12132 
C 1.55874 -2.683901 0.795609 -3 0 -3 
C -0.795609 -3 -1.55874 -2.683901 -2.12132 -2.12132 
C -2.683901 -1.55874 -3 -0.795609 -3 0 
C -3 0.795609 -2.683901 1.55874 -2.12132 2.12132 
C -1.55874 2.683901 -0.795609 3 0 3 
z
" style="stroke: #7f7f7f"/>
    </defs>
    <g clip-path="url(#p616aa60f78)">
     <use xlink:href="#m94003a6056" x="121.545653" y="60.938273" style="fill: #7f7f7f; stroke: #7f7f7f"/>
     <use xlink:href="#m94003a6056" x="298.483967" y="177.110556" style="fill: #7f7f7f; stroke: #7f7f7f"/>
     <use xlink:href="#m94003a6056" x="831.380534" y="312.644887" style="fill: #7f7f7f; stroke: #7f7f7f"/>
    </g>
   </g>
   <g id="patch_3">
    <path d="M 86.036563 473.89875 
L 86.036563 30.37875 
" style="fill: none; stroke: #cccccc; stroke-width: 4; stroke-linejoin: miter; stroke-linecap: square"/>
   </g>
   <g id="patch_4">
    <path d="M 86.036563 473.89875 
L 867.236563 473.89875 
" style="fill: none; stroke: #cccccc; stroke-width: 4; stroke-linejoin: miter; stroke-linecap: square"/>
   </g>
   <g id="text_14">
    <!-- Data collected on 2024/05/20 -->
    <g style="fill: #262626" transform="translate(320.531563 24.37875) scale(0.24 -0.24)">
     <defs>
      <path id="ArialMT-44" d="M 494 0 
L 494 4581 
L 2072 4581 
Q 2606 4581 2888 4516 
Q 3281 4425 3559 4188 
Q 3922 3881 4101 3404 
Q 4281 2928 4281 2316 
Q 4281 1794 4159 1391 
Q 4038 988 3847 723 
Q 3656 459 3429 307 
Q 3203 156 2883 78 
Q 2563 0 2147 0 
L 494 0 
z
M 1100 541 
L 2078 541 
Q 2531 541 2789 625 
Q 3047 709 3200 863 
Q 3416 1078 3536 1442 
Q 3656 1806 3656 2325 
Q 3656 3044 3420 3430 
Q 3184 3816 2847 3947 
Q 2603 4041 2063 4041 
L 1100 4041 
L 1100 541 
z
" transform="scale(0.015625)"/>
      <path id="ArialMT-2f" d="M 0 -78 
L 1328 4659 
L 1778 4659 
L 453 -78 
L 0 -78 
z
" transform="scale(0.015625)"/>
     </defs>
     <use xlink:href="#ArialMT-44"/>
     <use xlink:href="#ArialMT-61" x="72.216797"/>
     <use xlink:href="#ArialMT-74" x="127.832031"/>
     <use xlink:href="#ArialMT-61" x="155.615234"/>
     <use xlink:href="#ArialMT-20" x="211.230469"/>
     <use xlink:href="#ArialMT-63" x="239.013672"/>
     <use xlink:href="#ArialMT-6f" x="289.013672"/>
     <use xlink:href="#ArialMT-6c" x="344.628906"/>
     <use xlink:href="#ArialMT-6c" x="366.845703"/>
     <use xlink:href="#ArialMT-65" x="389.0625"/>
     <use xlink:href="#ArialMT-63" x="444.677734"/>
     <use xlink:href="#ArialMT-74" x="494.677734"/>
     <use xlink:href="#ArialMT-65" x="522.460938"/>
     <use xlink:href="#ArialMT-64" x="578.076172"/>
     <use xlink:href="#ArialMT-20" x="633.691406"/>
     <use xlink:href="#ArialMT-6f" x="661.474609"/>
     <use xlink:href="#ArialMT-6e" x="717.089844"/>
     <use xlink:href="#ArialMT-20" x="772.705078"/>
     <use xlink:href="#ArialMT-32" x="800.488281"/>
     <use xlink:href="#ArialMT-30" x="856.103516"/>
     <use xlink:href="#ArialMT-32" x="911.71875"/>
     <use xlink:href="#ArialMT-34" x="967.333984"/>
     <use xlink:href="#ArialMT-2f" x="1022.949219"/>
     <use xlink:href="#ArialMT-30" x="1050.732422"/>
     <use xlink:href="#ArialMT-35" x="1106.347656"/>
     <use xlink:href="#ArialMT-2f" x="1161.962891"/>
     <use xlink:href="#ArialMT-32" x="1189.746094"/>
     <use xlink:href="#ArialMT-30" x="1245.361328"/>
    </g>
   </g>
   <g id="legend_1">
    <g id="patch_5">
     <path d="M 889.459875 299.04 
L 1039.324562 299.04 
Q 1043.724563 299.04 1043.724563 294.64 
L 1043.724563 45.77875 
Q 1043.724563 41.37875 1039.324562 41.37875 
L 889.459875 41.37875 
Q 885.059875 41.37875 885.059875 45.77875 
L 885.059875 294.64 
Q 885.059875 299.04 889.459875 299.04 
z
" style="fill: #ffffff; opacity: 0.8; stroke: #cccccc; stroke-linejoin: miter"/>
    </g>
    <g id="line2d_52">
     <path d="M 893.859875 58.225937 
L 915.859875 58.225937 
L 937.859875 58.225937 
" style="fill: none; stroke: #1f77b4; stroke-width: 1.5; stroke-linecap: round"/>
    </g>
    <g id="text_15">
     <!-- G1-left -->
     <g style="fill: #262626" transform="translate(955.459875 65.925937) scale(0.22 -0.22)">
      <defs>
       <path id="ArialMT-47" d="M 2638 1797 
L 2638 2334 
L 4578 2338 
L 4578 638 
Q 4131 281 3656 101 
Q 3181 -78 2681 -78 
Q 2006 -78 1454 211 
Q 903 500 622 1047 
Q 341 1594 341 2269 
Q 341 2938 620 3517 
Q 900 4097 1425 4378 
Q 1950 4659 2634 4659 
Q 3131 4659 3532 4498 
Q 3934 4338 4162 4050 
Q 4391 3763 4509 3300 
L 3963 3150 
Q 3859 3500 3706 3700 
Q 3553 3900 3268 4020 
Q 2984 4141 2638 4141 
Q 2222 4141 1919 4014 
Q 1616 3888 1430 3681 
Q 1244 3475 1141 3228 
Q 966 2803 966 2306 
Q 966 1694 1177 1281 
Q 1388 869 1791 669 
Q 2194 469 2647 469 
Q 3041 469 3416 620 
Q 3791 772 3984 944 
L 3984 1797 
L 2638 1797 
z
" transform="scale(0.015625)"/>
       <path id="ArialMT-2d" d="M 203 1375 
L 203 1941 
L 1931 1941 
L 1931 1375 
L 203 1375 
z
" transform="scale(0.015625)"/>
      </defs>
      <use xlink:href="#ArialMT-47"/>
      <use xlink:href="#ArialMT-31" x="77.783203"/>
      <use xlink:href="#ArialMT-2d" x="133.398438"/>
      <use xlink:href="#ArialMT-6c" x="166.699219"/>
      <use xlink:href="#ArialMT-65" x="188.916016"/>
      <use xlink:href="#ArialMT-66" x="244.53125"/>
      <use xlink:href="#ArialMT-74" x="272.314453"/>
     </g>
    </g>
    <g id="line2d_53">
     <path d="M 893.859875 89.61375 
L 915.859875 89.61375 
L 937.859875 89.61375 
" style="fill: none; stroke: #ff7f0e; stroke-width: 1.5; stroke-linecap: round"/>
    </g>
    <g id="text_16">
     <!-- G1-right -->
     <g style="fill: #262626" transform="translate(955.459875 97.31375) scale(0.22 -0.22)">
      <use xlink:href="#ArialMT-47"/>
      <use xlink:href="#ArialMT-31" x="77.783203"/>
      <use xlink:href="#ArialMT-2d" x="133.398438"/>
      <use xlink:href="#ArialMT-72" x="166.699219"/>
      <use xlink:href="#ArialMT-69" x="200"/>
      <use xlink:href="#ArialMT-67" x="222.216797"/>
      <use xlink:href="#ArialMT-68" x="277.832031"/>
      <use xlink:href="#ArialMT-74" x="333.447266"/>
     </g>
    </g>
    <g id="line2d_54">
     <path d="M 893.859875 120.99125 
L 915.859875 120.99125 
L 937.859875 120.99125 
" style="fill: none; stroke: #2ca02c; stroke-width: 1.5; stroke-linecap: round"/>
    </g>
    <g id="text_17">
     <!-- G2-left -->
     <g style="fill: #262626" transform="translate(955.459875 128.69125) scale(0.22 -0.22)">
      <use xlink:href="#ArialMT-47"/>
      <use xlink:href="#ArialMT-32" x="77.783203"/>
      <use xlink:href="#ArialMT-2d" x="133.398438"/>
      <use xlink:href="#ArialMT-6c" x="166.699219"/>
      <use xlink:href="#ArialMT-65" x="188.916016"/>
      <use xlink:href="#ArialMT-66" x="244.53125"/>
      <use xlink:href="#ArialMT-74" x="272.314453"/>
     </g>
    </g>
    <g id="line2d_55">
     <path d="M 893.859875 152.379062 
L 915.859875 152.379062 
L 937.859875 152.379062 
" style="fill: none; stroke: #d62728; stroke-width: 1.5; stroke-linecap: round"/>
    </g>
    <g id="text_18">
     <!-- G2-right -->
     <g style="fill: #262626" transform="translate(955.459875 160.079062) scale(0.22 -0.22)">
      <use xlink:href="#ArialMT-47"/>
      <use xlink:href="#ArialMT-32" x="77.783203"/>
      <use xlink:href="#ArialMT-2d" x="133.398438"/>
      <use xlink:href="#ArialMT-72" x="166.699219"/>
      <use xlink:href="#ArialMT-69" x="200"/>
      <use xlink:href="#ArialMT-67" x="222.216797"/>
      <use xlink:href="#ArialMT-68" x="277.832031"/>
      <use xlink:href="#ArialMT-74" x="333.447266"/>
     </g>
    </g>
    <g id="line2d_56">
     <path d="M 893.859875 183.756562 
L 915.859875 183.756562 
L 937.859875 183.756562 
" style="fill: none; stroke: #9467bd; stroke-width: 1.5; stroke-linecap: round"/>
    </g>
    <g id="text_19">
     <!-- G3-left -->
     <g style="fill: #262626" transform="translate(955.459875 191.456562) scale(0.22 -0.22)">
      <defs>
       <path id="ArialMT-33" d="M 269 1209 
L 831 1284 
Q 928 806 1161 595 
Q 1394 384 1728 384 
Q 2125 384 2398 659 
Q 2672 934 2672 1341 
Q 2672 1728 2419 1979 
Q 2166 2231 1775 2231 
Q 1616 2231 1378 2169 
L 1441 2663 
Q 1497 2656 1531 2656 
Q 1891 2656 2178 2843 
Q 2466 3031 2466 3422 
Q 2466 3731 2256 3934 
Q 2047 4138 1716 4138 
Q 1388 4138 1169 3931 
Q 950 3725 888 3313 
L 325 3413 
Q 428 3978 793 4289 
Q 1159 4600 1703 4600 
Q 2078 4600 2393 4439 
Q 2709 4278 2876 4000 
Q 3044 3722 3044 3409 
Q 3044 3113 2884 2869 
Q 2725 2625 2413 2481 
Q 2819 2388 3044 2092 
Q 3269 1797 3269 1353 
Q 3269 753 2831 336 
Q 2394 -81 1725 -81 
Q 1122 -81 723 278 
Q 325 638 269 1209 
z
" transform="scale(0.015625)"/>
      </defs>
      <use xlink:href="#ArialMT-47"/>
      <use xlink:href="#ArialMT-33" x="77.783203"/>
      <use xlink:href="#ArialMT-2d" x="133.398438"/>
      <use xlink:href="#ArialMT-6c" x="166.699219"/>
      <use xlink:href="#ArialMT-65" x="188.916016"/>
      <use xlink:href="#ArialMT-66" x="244.53125"/>
      <use xlink:href="#ArialMT-74" x="272.314453"/>
     </g>
    </g>
    <g id="line2d_57">
     <path d="M 893.859875 215.144375 
L 915.859875 215.144375 
L 937.859875 215.144375 
" style="fill: none; stroke: #8c564b; stroke-width: 1.5; stroke-linecap: round"/>
    </g>
    <g id="text_20">
     <!-- G3-right -->
     <g style="fill: #262626" transform="translate(955.459875 222.844375) scale(0.22 -0.22)">
      <use xlink:href="#ArialMT-47"/>
      <use xlink:href="#ArialMT-33" x="77.783203"/>
      <use xlink:href="#ArialMT-2d" x="133.398438"/>
      <use xlink:href="#ArialMT-72" x="166.699219"/>
      <use xlink:href="#ArialMT-69" x="200"/>
      <use xlink:href="#ArialMT-67" x="222.216797"/>
      <use xlink:href="#ArialMT-68" x="277.832031"/>
      <use xlink:href="#ArialMT-74" x="333.447266"/>
     </g>
    </g>
    <g id="line2d_58">
     <path d="M 893.859875 246.521875 
L 915.859875 246.521875 
L 937.859875 246.521875 
" style="fill: none; stroke: #e377c2; stroke-width: 1.5; stroke-linecap: round"/>
    </g>
    <g id="text_21">
     <!-- G4-left -->
     <g style="fill: #262626" transform="translate(955.459875 254.221875) scale(0.22 -0.22)">
      <use xlink:href="#ArialMT-47"/>
      <use xlink:href="#ArialMT-34" x="77.783203"/>
      <use xlink:href="#ArialMT-2d" x="133.398438"/>
      <use xlink:href="#ArialMT-6c" x="166.699219"/>
      <use xlink:href="#ArialMT-65" x="188.916016"/>
      <use xlink:href="#ArialMT-66" x="244.53125"/>
      <use xlink:href="#ArialMT-74" x="272.314453"/>
     </g>
    </g>
    <g id="line2d_59">
     <path d="M 893.859875 277.909687 
L 915.859875 277.909687 
L 937.859875 277.909687 
" style="fill: none; stroke: #7f7f7f; stroke-width: 1.5; stroke-linecap: round"/>
    </g>
    <g id="text_22">
     <!-- G4-right -->
     <g style="fill: #262626" transform="translate(955.459875 285.609687) scale(0.22 -0.22)">
      <use xlink:href="#ArialMT-47"/>
      <use xlink:href="#ArialMT-34" x="77.783203"/>
      <use xlink:href="#ArialMT-2d" x="133.398438"/>
      <use xlink:href="#ArialMT-72" x="166.699219"/>
      <use xlink:href="#ArialMT-69" x="200"/>
      <use xlink:href="#ArialMT-67" x="222.216797"/>
      <use xlink:href="#ArialMT-68" x="277.832031"/>
      <use xlink:href="#ArialMT-74" x="333.447266"/>
     </g>
    </g>
   </g>
  </g>
 </g>
 <defs>
  <clipPath id="p616aa60f78">
   <rect x="86.036563" y="30.37875" width="781.2" height="443.52"/>
  </clipPath>
 </defs>
</svg>
