<svg width="252" height="252" viewBox="0 0 252 252" fill="none" xmlns="http://www.w3.org/2000/svg">
<g clip-path="url(#clip0_3_297)">
<path d="M68.36 0.515533V252" stroke="#E4E4E7" stroke-miterlimit="10"/>
<path d="M181.943 0V251.484" stroke="#E4E4E7" stroke-miterlimit="10"/>
<path d="M34.5664 0V251.484" stroke="#E4E4E7" stroke-miterlimit="10"/>
<path d="M215.743 0.515533V252" stroke="#E4E4E7" stroke-miterlimit="10"/>
<path d="M0.515015 183.313H251.743" stroke="#E4E4E7" stroke-miterlimit="10"/>
<path d="M0 68.1716H251.228" stroke="#E4E4E7" stroke-miterlimit="10"/>
<path d="M-1.18311 217.659H250.045" stroke="#E4E4E7" stroke-miterlimit="10"/>
<path d="M-0.668091 34.8566H250.56" stroke="#E4E4E7" stroke-miterlimit="10"/>
<path d="M34.6502 34.8566L217.099 217.659" stroke="#E4E4E7" stroke-miterlimit="10"/>
<path d="M217.099 34.8566L34.6502 217.659" stroke="#E4E4E7" stroke-miterlimit="10"/>
<path d="M181.637 125.977C181.637 133.05 180.367 139.911 177.85 146.416H169.887C171.958 101.282 113.529 81.5924 87.8084 118.549C83.6487 104.557 88.216 88.7914 98.9445 79.218C98.9527 79.218 98.9527 79.2098 98.9527 79.2098C102.858 75.652 107.52 72.8903 112.524 71.1981C146.906 61.1549 182.215 90.7264 181.637 125.978V125.977Z" stroke="black" stroke-miterlimit="10"/>
<path d="M181.637 152.897V182.791H124.882C124.162 182.791 123.514 182.774 122.843 182.734C108.114 182.215 94.3475 176.082 84.0859 165.462C61.8411 143.831 63.5695 103.901 86.5222 84.1344C78.4973 96.9344 77.6228 113.852 84.2889 127.394C91.6604 142.75 107.694 152.932 124.883 152.897H181.638H181.637Z" stroke="black" stroke-miterlimit="10"/>
</g>
<defs>
<clipPath id="clip0_3_297">
<rect width="252" height="252" fill="white"/>
</clipPath>
</defs>
</svg>
