<svg width="80" height="16" viewBox="0 0 80 16" fill="none" xmlns="http://www.w3.org/2000/svg">
<g clip-path="url(#clip0_3_36)">
<path d="M58.1598 2.99006V0.0127258H45.2072H42.2235V2.99006V6.59086V9.56819V13.0163V15.9427V16H58.1598V13.0163H45.2072V9.56819H58.1598V6.59086H45.2072V2.99006H58.1598Z" fill="black"/>
<path d="M61.6461 3.03459H69.2231V16H72.2131V3.03459H79.7901V0.0508881H61.6461V3.03459Z" fill="black"/>
<path d="M0 3.03459H7.57694V16H10.5734V3.03459H18.1503V0.0508881H0V3.03459Z" fill="black"/>
<path d="M38.6799 0H33.7113L25.6827 6.01829V3.7662V0.0636183H22.7054V15.9873H25.6827V10.1726L33.4505 16H38.4127L27.8775 8.09861L38.6799 0Z" fill="black"/>
</g>
<defs>
<clipPath id="clip0_3_36">
<rect width="79.7901" height="16" fill="white"/>
</clipPath>
</defs>
</svg>
