<?xml version="1.0" encoding="UTF-8" standalone="no"?>
<svg
   xmlns:dc="http://purl.org/dc/elements/1.1/"
   xmlns:cc="http://creativecommons.org/ns#"
   xmlns:rdf="http://www.w3.org/1999/02/22-rdf-syntax-ns#"
   xmlns:svg="http://www.w3.org/2000/svg"
   xmlns="http://www.w3.org/2000/svg"
   xmlns:sodipodi="http://sodipodi.sourceforge.net/DTD/sodipodi-0.dtd"
   xmlns:inkscape="http://www.inkscape.org/namespaces/inkscape"
   version="1.1"
   id="svg60"
   width="870.20404"
   height="112.67152"
   viewBox="0 0 870.20404 112.67152"
   sodipodi:docname="lambeq.svg"
   inkscape:version="1.0.1 (c497b03c, 2020-09-10)">
  <metadata
     id="metadata66">
    <rdf:RDF>
      <cc:Work
         rdf:about="">
        <dc:format>image/svg+xml</dc:format>
        <dc:type
           rdf:resource="http://purl.org/dc/dcmitype/StillImage" />
        <dc:title></dc:title>
      </cc:Work>
    </rdf:RDF>
  </metadata>
  <defs
     id="defs64" />
  <sodipodi:namedview
     pagecolor="#ffffff"
     bordercolor="#666666"
     borderopacity="1"
     objecttolerance="10"
     gridtolerance="10"
     guidetolerance="10"
     inkscape:pageopacity="0"
     inkscape:pageshadow="2"
     inkscape:window-width="1792"
     inkscape:window-height="1007"
     id="namedview62"
     showgrid="false"
     fit-margin-top="0"
     fit-margin-left="0"
     fit-margin-right="0"
     fit-margin-bottom="0"
     inkscape:zoom="0.92953982"
     inkscape:cx="611.49843"
     inkscape:cy="-8.7007863"
     inkscape:window-x="0"
     inkscape:window-y="25"
     inkscape:window-maximized="0"
     inkscape:current-layer="g68" />
  <g
     inkscape:groupmode="layer"
     inkscape:label="Image"
     id="g68"
     transform="translate(-59.194174,-51.532359)">
    <path
       style="fill:#000000"
       d="m 847.46632,163.15591 c -15.79264,-4.00925 -30.13939,-15.85618 -37.23261,-30.74509 -10.97105,-23.0286 -6.162,-48.309181 12.51288,-65.778621 11.0717,-10.35702 23.09009,-15.09984 38.26333,-15.09984 15.59127,0 27.7416,4.87627 39.32309,15.78144 7.38237,6.95126 13.60274,17.56353 15.95413,27.21856 3.0735,12.620081 1.03638,28.372701 -5.15972,39.899011 l -2.9023,5.39901 10.58655,11.35099 10.58656,11.35099 h -12.89382 -12.89382 l -4.34437,-4.42659 -4.34437,-4.42659 -3.99045,2.51906 c -8.30287,5.24137 -16.49117,7.58778 -27.73723,7.94827 -6.54356,0.20976 -12.46988,-0.1635 -15.72785,-0.9906 z m 25.72785,-20.3729 c 9.29003,-3.09507 17.3706,-10.55061 21.89889,-20.20502 2.19943,-4.68923 2.60111,-6.93873 2.60111,-14.56666 0,-8.170331 -0.30875,-9.648181 -3.27411,-15.671691 -8.68127,-17.63416 -28.75632,-25.78574 -46.51047,-18.88581 -8.07492,3.13822 -16.58632,11.22311 -20.31448,19.29651 -2.52103,5.45933 -2.90094,7.460671 -2.90094,15.282021 0,7.65591 0.39731,9.84754 2.66041,14.67515 8.46003,18.04683 27.24078,26.27188 45.83959,20.0755 z M 59.194174,108.03236 V 55.532359 h 9.5 9.5 v 43 43.000001 h 40.999996 41 v 9.5 9.5 h -50.5 -50.499996 z m 149.398626,6.25 c 12.94199,-25.437501 25.00925,-49.058861 26.81613,-52.491921 l 3.28524,-6.24192 13.15378,-0.008 13.15378,-0.008 26.59622,52.073711 c 14.62792,28.64054 26.59622,52.26554 26.59622,52.5 0,0.23446 -4.94498,0.42629 -10.98884,0.42629 h -10.98884 l -4.02232,-8 -4.02232,-8 h -36.47768 -36.47768 l -4.02232,8 -4.02232,8 h -11.05497 -11.05497 z m 65.2901,2 c -2.46029,-4.5375 -8.38328,-16.0805 -13.1622,-25.651111 l -8.68896,-17.40111 -3.25793,5.90111 c -1.79186,3.24561 -7.76072,14.78861 -13.26412,25.651111 l -10.00618,19.75 h 26.42631 26.42632 z m 70.31127,-8.25 V 55.532359 h 15.27202 15.27202 l 24.34258,44 c 13.38842,24.200001 24.6543,44.000001 25.03529,44.000001 0.38099,0 11.50176,-19.6875 24.71283,-43.750001 l 24.02011,-43.75 15.17258,-0.27604 15.17257,-0.27605 v 52.526041 52.52605 h -9.5 -9.5 v -41.2 c 0,-27.151141 -0.33712,-40.862881 -0.98864,-40.211351 -0.54376,0.54375 -10.86344,18.97125 -22.93264,40.949991 l -21.94399,39.96136 h -14.14471 -14.14472 l -22.67265,-40.87368 -22.67265,-40.873681 -0.26109,41.123681 -0.2611,41.12368 h -9.9889 -9.98891 z m 192,0.01 V 55.430099 l 41.25,0.30125 41.25,0.30125 5.66054,2.77979 c 6.52403,3.20382 12.14144,8.97061 15.19377,15.59781 1.62823,3.53518 2.1182,6.50406 2.08314,12.6224 -0.0453,7.90396 -1.63664,12.61311 -6.65433,19.691461 -0.95856,1.35222 -0.87986,2.05419 0.39241,3.5 6.9699,7.92065 8.53492,22.30727 3.53438,32.49014 -3.28333,6.68604 -8.01039,11.12732 -15.66428,14.71729 l -5.54563,2.60087 -40.75,0.31101 -40.75,0.31102 v -52.61227 z m 80.73384,31.03418 c 1.77861,-1.07584 3.98213,-3.53297 4.89671,-5.4603 1.47117,-3.10025 1.50185,-3.9662 0.26616,-7.51134 -0.87249,-2.50315 -2.67201,-4.86381 -4.79459,-6.2897 -3.34605,-2.24802 -3.84563,-2.28284 -32.75,-2.28284 h -29.35212 v 12.05555 12.05554 l 29.25,-0.30554 c 26.94993,-0.28152 29.50429,-0.45936 32.48384,-2.26161 z m 0.9448,-43.134531 c 1.55175,-1.14982 3.44988,-3.86769 4.21807,-6.0397 1.24351,-3.51593 1.20664,-4.34966 -0.33615,-7.60085 -3.42165,-7.21058 -3.52902,-7.23268 -36.81056,-7.57365 l -29.75,-0.30503 v 12.09686 12.09687 l 29.92864,-0.29208 c 28.5519,-0.27863 30.05842,-0.38824 32.75,-2.38266 z m 55.32136,12.090351 V 55.532359 h 52 52 v 9.48915 9.48915 l -42.25,0.26085 -42.25,0.26085 v 11.5 11.5 l 42.25,0.26086 42.25,0.26085 v 9.478291 9.47829 l -42.25,0.26086 -42.25,0.26085 -0.28275,11.25 -0.28275,11.25 h 42.53275 42.53275 v 10 10 h -52 -52 z"
       id="path72" />
  </g>
</svg>
