<?xml version="1.0" encoding="UTF-8" standalone="no"?>
<svg
   xmlns:dc="http://purl.org/dc/elements/1.1/"
   xmlns:cc="http://creativecommons.org/ns#"
   xmlns:rdf="http://www.w3.org/1999/02/22-rdf-syntax-ns#"
   xmlns:svg="http://www.w3.org/2000/svg"
   xmlns="http://www.w3.org/2000/svg"
   xmlns:sodipodi="http://sodipodi.sourceforge.net/DTD/sodipodi-0.dtd"
   xmlns:inkscape="http://www.inkscape.org/namespaces/inkscape"
   version="1.1"
   id="svg"
   x="0px"
   y="0px"
   viewBox="0 0 491.33857 264.56693"
   xml:space="preserve"
   sodipodi:docname="lambeq__logo_gray1.svg"
   inkscape:version="1.0.1 (c497b03c, 2020-09-10)"
   width="130mm"
   height="70mm"><metadata
   id="metadata23"><rdf:RDF><cc:Work
       rdf:about=""><dc:format>image/svg+xml</dc:format><dc:type
         rdf:resource="http://purl.org/dc/dcmitype/StillImage" /><dc:title></dc:title></cc:Work></rdf:RDF></metadata><defs
   id="defs21" /><sodipodi:namedview
   pagecolor="#ffffff"
   bordercolor="#666666"
   borderopacity="1"
   objecttolerance="10"
   gridtolerance="10"
   guidetolerance="10"
   inkscape:pageopacity="0"
   inkscape:pageshadow="2"
   inkscape:window-width="1681"
   inkscape:window-height="929"
   id="namedview19"
   showgrid="false"
   inkscape:zoom="1.1034588"
   inkscape:cx="249.06236"
   inkscape:cy="212.5136"
   inkscape:window-x="0"
   inkscape:window-y="25"
   inkscape:window-maximized="0"
   inkscape:current-layer="svg" />
<style
   type="text/css"
   id="style10">
	.st0{fill-rule:evenodd;clip-rule:evenodd;fill:#FFFFFF;stroke:#939598;stroke-width:5;stroke-miterlimit:10;}
</style>


<g
   id="g44"
   transform="matrix(0.62917664,0,0,0.62917664,217.69695,9.6336143)"><path
     class="st0"
     d="M 190.14113,9.5480521 C 168.35158,10.992663 140.84378,18.938024 119.77653,29.772606 106.11292,36.815091 88.897965,48.672932 76.438199,59.627905 70.298599,65.045193 57.598058,79.310734 51.157505,88.038592 35.688127,108.98545 23.168162,138.35921 18.112023,165.44567 c -7.343441,39.72681 -0.421345,83.06514 19.62263,123.03271 3.190192,6.38037 13.54323,21.78955 20.284755,30.15626 11.49669,14.26553 28.169913,29.97569 40.810267,38.40258 18.117825,12.03843 47.130435,23.83609 67.896725,27.5078 23.41473,4.15326 53.75156,2.58827 76.444,-3.91248 13.12188,-3.79211 36.77739,-15.10823 36.77739,-17.57611 0,-1.02327 -1.565,-0.7223 -11.07535,2.04654 -8.60747,2.52806 -23.95647,5.41729 -38.94431,7.34344 -10.05209,1.26403 -35.27259,1.08346 -45.02371,-0.30097 -17.87707,-2.64845 -38.88412,-7.88516 -50.441,-12.70054 C 123.44825,354.8703 109.42349,347.16571 96.963721,338.67862 77.280888,325.37615 63.015346,310.62909 50.13424,290.22396 32.136789,261.81327 24.251621,236.352 23.228354,203.4871 21.964319,164.00106 32.859095,127.16347 55.009801,95.983949 67.168614,78.829196 84.323366,61.975397 100.75582,50.960236 c 15.64996,-10.473434 41.11123,-21.247818 58.98829,-24.91954 13.78399,-2.82903 21.84974,-3.551336 41.05103,-3.551336 18.47899,0 18.59937,0 28.59126,2.166917 29.31357,6.259978 46.04698,13.242268 69.40152,28.771839 10.89478,7.223054 18.59937,13.603418 27.68839,22.812814 9.26959,9.38998 13.30246,14.32573 20.94686,25.82243 13.0015,19.44206 22.0905,42.61602 25.76223,65.42884 5.3571,33.46683 1.80576,65.48904 -11.25593,100.46066 -7.52402,20.22456 -16.0713,34.30952 -35.81432,58.9281 -2.10672,2.58826 -4.5144,6.07941 -5.41729,7.76479 -0.90288,1.68538 -2.76884,4.03287 -4.15325,5.17652 l -2.52807,2.10672 3.12999,-2.04652 c 1.74557,-1.14366 4.27364,-2.46788 5.59786,-2.94942 6.1396,-2.16692 19.68283,-13.60342 29.13299,-24.55839 12.03843,-13.96458 24.19724,-33.82797 30.63781,-49.95947 C 405.20761,205.41325 394.79437,135.77095 355.78987,84.065909 337.49146,59.80848 313.23404,39.343159 289.69891,28.388188 270.6782,19.539946 250.57402,13.279964 234.44254,11.17324 227.8816,10.33055 202.54071,8.7655542 198.92917,8.9461308 c -0.78249,0.060189 -4.69497,0.3611532 -8.78804,0.6019213"
     id="path12" /><path
     class="st0"
     d="m 187.97421,83.704757 c -1.32422,0.601916 -5.41729,3.250371 -9.02882,5.838638 -3.61152,2.588257 -14.98783,10.533625 -25.28069,17.636295 -10.29285,7.10267 -22.21089,15.40918 -26.48454,18.47898 -4.27364,3.0096 -9.9317,6.9221 -12.45977,8.66767 -5.11633,3.43095 -6.50074,5.3571 -6.50074,9.2094 0,2.94941 0.36115,3.61152 2.2271,4.63479 3.55134,1.86595 4.15326,1.56499 43.81987,-18.41879 12.09862,-6.07941 22.09051,-10.83459 22.63224,-10.65401 0.90289,0.30096 8.30652,15.2888 19.98379,40.26853 2.46788,5.2969 23.47493,49.7187 46.64891,98.7151 23.17396,48.99639 47.61196,100.58104 54.2331,114.666 6.62113,14.08496 12.58016,25.94282 13.12189,26.36416 0.54172,0.42135 1.62518,0.72231 2.34749,0.72231 1.20384,0 17.09457,-11.91805 37.07835,-27.74858 3.49115,-2.76884 9.02882,-7.10267 12.219,-9.51035 6.50075,-4.99595 7.34344,-6.01922 6.32018,-7.94537 -0.54173,-0.96308 -1.08346,-1.20384 -2.40769,-0.90288 -1.62518,0.30097 -19.86341,9.63075 -38.58315,19.74302 -4.81537,2.58826 -8.90844,4.75518 -9.08902,4.75518 -0.6621,0 -12.51996,-30.09606 -32.08241,-81.25937 -7.04247,-18.53918 -17.5761,-45.44506 -38.40257,-98.47433 -10.35305,-26.30396 -21.12744,-52.90888 -32.8649,-81.19918 -1.26404,-2.94942 -3.25038,-8.00556 -4.45422,-11.13555 -3.73192,-9.751121 -8.84824,-19.321679 -11.37631,-21.30802 -3.00961,-2.407682 -8.00556,-2.829022 -11.61709,-1.143643"
     id="path14" /><path
     class="st0"
     d="m 181.17251,159.0653 c -2.28731,1.38442 -5.3571,6.01921 -5.89884,8.84824 -0.30095,1.50482 0.36115,4.15326 2.70865,10.89478 4.03288,11.73746 9.2094,29.49415 9.26959,31.78144 0.0603,2.70866 -1.80577,5.89884 -10.35305,17.69649 -12.39958,17.09457 -54.59426,75.7217 -56.15926,78.12939 -0.60191,0.90288 -0.96307,2.40768 -0.90288,3.43094 0.12039,1.50481 0.42135,1.80578 1.98634,1.98634 1.44462,0.12039 3.25038,-0.84268 8.4269,-4.39402 69.88306,-48.27409 92.99684,-64.34539 94.38127,-65.54922 0.90288,-0.7825 1.68537,-1.98634 1.68537,-2.70865 0,-0.72231 -8.60747,-18.77995 -19.1411,-40.20834 -15.95091,-32.56395 -19.38186,-39.12489 -20.94686,-40.02778 -2.34749,-1.32421 -2.64845,-1.32421 -5.05613,0.12039"
     id="path16" /></g>
<text
   xml:space="preserve"
   style="font-style:normal;font-variant:normal;font-weight:bold;font-stretch:normal;font-size:42.2511px;line-height:1.25;font-family:sans-serif;-inkscape-font-specification:'sans-serif, Bold';font-variant-ligatures:normal;font-variant-caps:normal;font-variant-numeric:normal;font-variant-east-asian:normal;fill:#000000;fill-opacity:1;stroke:none;stroke-width:1.05628"
   x="7.657937"
   y="65.025429"
   id="text27"
   transform="scale(0.94672111,1.0562773)"><tspan
     sodipodi:role="line"
     id="tspan25"
     x="7.657937"
     y="65.025429"
     style="font-style:normal;font-variant:normal;font-weight:normal;font-stretch:normal;font-size:42.2511px;font-family:sans-serif;-inkscape-font-specification:'sans-serif, Normal';font-variant-ligatures:normal;font-variant-caps:normal;font-variant-numeric:normal;font-variant-east-asian:normal;stroke-width:1.05628"><tspan
   style="font-style:normal;font-variant:normal;font-weight:bold;font-stretch:normal;font-size:42.2511px;font-family:sans-serif;-inkscape-font-specification:'sans-serif, Normal';font-variant-ligatures:normal;font-variant-caps:normal;font-variant-numeric:normal;font-variant-east-asian:normal;fill:#808080;stroke-width:1.05628"
   id="tspan46">Q</tspan>uantum</tspan><tspan
     sodipodi:role="line"
     x="7.657937"
     y="117.8393"
     id="tspan29"
     style="font-style:normal;font-variant:normal;font-weight:normal;font-stretch:normal;font-size:42.2511px;font-family:sans-serif;-inkscape-font-specification:'sans-serif, Normal';font-variant-ligatures:normal;font-variant-caps:normal;font-variant-numeric:normal;font-variant-east-asian:normal;stroke-width:1.05628"><tspan
   style="font-style:normal;font-variant:normal;font-weight:bold;font-stretch:normal;font-size:42.2511px;font-family:sans-serif;-inkscape-font-specification:'sans-serif, Normal';font-variant-ligatures:normal;font-variant-caps:normal;font-variant-numeric:normal;font-variant-east-asian:normal;fill:#666666;stroke-width:1.05628"
   id="tspan48">N</tspan>atural</tspan><tspan
     sodipodi:role="line"
     x="7.657937"
     y="170.65318"
     id="tspan31"
     style="font-style:normal;font-variant:normal;font-weight:normal;font-stretch:normal;font-size:42.2511px;font-family:sans-serif;-inkscape-font-specification:'sans-serif, Normal';font-variant-ligatures:normal;font-variant-caps:normal;font-variant-numeric:normal;font-variant-east-asian:normal;stroke-width:1.05628"><tspan
   style="font-style:normal;font-variant:normal;font-weight:bold;font-stretch:normal;font-size:42.2511px;font-family:sans-serif;-inkscape-font-specification:'sans-serif, Normal';font-variant-ligatures:normal;font-variant-caps:normal;font-variant-numeric:normal;font-variant-east-asian:normal;fill:#666666;stroke-width:1.05628"
   id="tspan50">L</tspan>anguage</tspan><tspan
     sodipodi:role="line"
     x="7.657937"
     y="223.46706"
     id="tspan33"
     style="font-style:normal;font-variant:normal;font-weight:normal;font-stretch:normal;font-size:42.2511px;font-family:sans-serif;-inkscape-font-specification:'sans-serif, Normal';font-variant-ligatures:normal;font-variant-caps:normal;font-variant-numeric:normal;font-variant-east-asian:normal;stroke-width:1.05628"><tspan
   style="font-style:normal;font-variant:normal;font-weight:bold;font-stretch:normal;font-size:42.2511px;font-family:sans-serif;-inkscape-font-specification:'sans-serif, Normal';font-variant-ligatures:normal;font-variant-caps:normal;font-variant-numeric:normal;font-variant-east-asian:normal;fill:#666666;stroke-width:1.05628"
   id="tspan52">P</tspan>rocessing</tspan></text></svg>
