<?xml version="1.0" encoding="UTF-8"?>
<svg id="Layer_2" data-name="Layer 2" xmlns="http://www.w3.org/2000/svg" version="1.1" viewBox="0 0 795.4 138.4">
  <defs>
    <style>
      .cls-1 {
        fill: #000;
        stroke-width: 0px;
      }
    </style>
  </defs>
  <g id="Layer_1-2" data-name="Layer 1-2">
    <g>
      <polygon class="cls-1" points="115.1 100.6 24.8 11.7 0 11.7 0 126.7 21.5 126.7 21.5 38.4 108.6 126.7 136.6 126.7 136.6 11.7 115.1 11.7 115.1 100.6"/>
      <path class="cls-1" d="M615.1,66.1c0,21.8-17.7,39.5-39.5,39.5s-39.5-17.7-39.5-39.5V11.7h-21v54.4c0,33.4,27.2,60.6,60.5,60.6s60.6-27.2,60.6-60.6V11.7h-21.1v54.4Z"/>
      <path class="cls-1" d="M474.7,11.7l-51.5,57.5,51.5,57.5h-27.5l-37.7-42.2-37.9,42.2h-27.5l51.5-57.5-51.5-57.5h27.5l37.9,42.1,37.7-42.1h27.5Z"/>
      <path class="cls-1" d="M775.4,65.2c5.9,2.3,10.6,5.5,14,9.8,4,5.1,6,11.2,6,18.3s-.5,7.1-1.4,10.2c-.9,2.9-2.5,5.8-4.5,8.6-3.5,4.5-8.2,8-14.3,10.5-9.2,3.9-21.9,5.8-38.2,5.7-11.1,0-21.3-1.6-30.7-4.7-9.9-3.1-17.4-7.6-22.5-13.5-1.5-1.7-2.7-3.2-3.5-4.8l17.1-11.7c.2.4.5.8.9,1.2,2.7,2.9,7.2,5.5,13.6,7.7,7.6,2.4,15.8,3.6,24.8,3.6,13.8,0,24-1.4,30.9-4.2,3-1.2,5-2.6,6.3-4.3.9-1.2,1.3-2.7,1.4-4.5,0-1.4-.4-2.7-1.1-3.7-1.2-1.3-3.1-2.5-5.7-3.6-4.9-1.8-15.2-3.7-31-5.5l-1.7-.2c-17.5-2-29.5-4.3-36-6.9-5.8-2.1-10.5-5.3-14-9.5-4-5.1-6-11.2-6-18.5s.5-6.9,1.6-10.2c1.1-3.2,2.6-6.1,4.5-8.6,3.2-4.4,8-7.8,14.3-10.5,8.9-3.8,21.6-5.7,38.2-5.7s21.6,1.5,30.5,4.6c9.7,3.1,17.2,7.6,22.4,13.5.9,1,2.1,2.6,3.5,4.8l-17.2,11.7-.8-1.2c-2.5-3-7.1-5.5-13.6-7.6-7.4-2.5-15.7-3.7-24.8-3.7-13.9,0-24.2,1.4-31,4.2-3,1.3-5.1,2.8-6.2,4.3-.9,1.2-1.3,2.7-1.4,4.5,0,2,.4,3.2,1.1,3.8.8,1,2.7,2.2,5.6,3.6,4.9,1.8,15.3,3.7,31.2,5.5l1.4.2c17.6,2.1,29.7,4.4,36.1,6.8v.2c.1,0,.1,0,.1,0Z"/>
      <polygon class="cls-1" points="301.5 33.1 301.5 11.7 208.4 11.7 187 11.7 187 33.1 187 59 187 80.5 187 105.2 187 126.3 187 126.7 301.5 126.7 301.5 105.2 208.4 105.2 208.4 80.5 301.5 80.5 301.5 59 208.4 59 208.4 33.1 301.5 33.1"/>
    </g>
  </g>
</svg>