<svg width="34" height="34" viewBox="0 0 34 34" fill="none" xmlns="http://www.w3.org/2000/svg">
<path d="M2.83333 4.25H11.3333C12.8362 4.25 14.2776 4.84702 15.3403 5.90973C16.403 6.97243 17 8.41377 17 9.91667V29.75C17 28.6228 16.5522 27.5418 15.7552 26.7448C14.9582 25.9478 13.8772 25.5 12.75 25.5H2.83333V4.25Z" stroke="black" stroke-width="2" stroke-linecap="round" stroke-linejoin="round"/>
<path d="M31.1667 4.25H22.6667C21.1638 4.25 19.7224 4.84702 18.6597 5.90973C17.597 6.97243 17 8.41377 17 9.91667V29.75C17 28.6228 17.4478 27.5418 18.2448 26.7448C19.0418 25.9478 20.1228 25.5 21.25 25.5H31.1667V4.25Z" stroke="black" stroke-width="2" stroke-linecap="round" stroke-linejoin="round"/>
<path d="M8.5 11.3333H11.3333" stroke="black" stroke-width="2" stroke-linecap="round" stroke-linejoin="round"/>
<path d="M8.5 17H11.3333" stroke="black" stroke-width="2" stroke-linecap="round" stroke-linejoin="round"/>
<path d="M22.6667 11.3333H25.5" stroke="black" stroke-width="2" stroke-linecap="round" stroke-linejoin="round"/>
<path d="M22.6667 17H25.5" stroke="black" stroke-width="2" stroke-linecap="round" stroke-linejoin="round"/>
</svg>
