<?xml version="1.0" encoding="UTF-8"?>
<svg id="Layer_2" data-name="Layer 2" xmlns="http://www.w3.org/2000/svg" viewBox="0 0 1141.43 219.61">
  <g id="Layer_1-2" data-name="Layer 1">
    <g>
      <polygon points="461.09 191.9 370.81 103.07 346.04 103.07 346.04 218 367.53 218 367.53 129.77 454.59 218.02 482.59 218 482.59 103.07 461.09 103.07 461.09 191.9"/>
      <path d="m961.14,157.44c0,21.78-17.72,39.5-39.5,39.5s-39.5-17.72-39.5-39.5v-54.37h-21.01v54.37c0,33.4,27.15,60.58,60.51,60.58s60.58-27.17,60.58-60.58v-54.37h-21.08v54.37Z"/>
      <path d="m820.75,103.07l-51.51,57.47,51.51,57.47h-27.46l-37.74-42.17-37.88,42.17h-27.47l51.51-57.47-51.51-57.47h27.47l37.88,42.08,37.74-42.08h27.46Z"/>
      <path d="m1121.41,156.54c5.91,2.3,10.59,5.55,13.97,9.75,4.03,5.07,6.05,11.17,6.05,18.3,0,3.72-.5,7.13-1.44,10.22-.93,2.93-2.45,5.78-4.54,8.64-3.45,4.51-8.21,8-14.26,10.46-9.15,3.88-21.89,5.78-38.24,5.71-11.09,0-21.32-1.59-30.68-4.67-9.87-3.09-17.36-7.61-22.47-13.47-1.51-1.66-2.66-3.25-3.46-4.83l17.07-11.73c.22.4.5.79.94,1.19,2.66,2.93,7.2,5.47,13.61,7.69,7.56,2.38,15.84,3.57,24.84,3.57,13.75,0,24.05-1.43,30.89-4.2,2.95-1.19,5.04-2.61,6.27-4.28.86-1.19,1.3-2.7,1.37-4.52,0-1.42-.36-2.69-1.08-3.72-1.22-1.35-3.1-2.54-5.69-3.56-4.9-1.82-15.19-3.65-30.97-5.47l-1.66-.16c-17.5-1.98-29.53-4.28-36.01-6.89-5.83-2.14-10.51-5.31-14.04-9.51-4.03-5.07-6.05-11.25-6.05-18.46,0-3.49.5-6.89,1.58-10.22,1.08-3.25,2.59-6.1,4.54-8.64,3.24-4.36,7.99-7.84,14.26-10.54,8.86-3.8,21.6-5.71,38.24-5.71,11.45,0,21.6,1.51,30.53,4.6,9.72,3.09,17.21,7.61,22.4,13.47.94,1.03,2.09,2.61,3.46,4.75l-17.21,11.73-.79-1.19c-2.52-3.01-7.06-5.55-13.61-7.61-7.42-2.46-15.7-3.73-24.84-3.73-13.9,0-24.2,1.43-30.97,4.2-3.03,1.35-5.11,2.78-6.19,4.28-.86,1.19-1.3,2.69-1.37,4.52,0,1.98.36,3.25,1.08,3.8.79,1.03,2.66,2.22,5.62,3.57,4.9,1.82,15.27,3.65,31.18,5.47l1.44.16c17.64,2.06,29.67,4.36,36.08,6.81l.14.24Z"/>
      <polygon points="647.56 124.49 647.56 103.07 554.44 103.07 533.01 103.07 533.01 124.49 533.01 150.39 533.01 171.81 533.01 196.59 533.01 217.61 533.01 218.02 647.56 218.02 647.56 196.59 554.44 196.59 554.44 171.81 647.56 171.81 647.56 150.39 554.44 150.39 554.44 124.49 647.56 124.49"/>
    </g>
    <path d="m682.41,11.94h26.21v44.83h10.35V11.94h26.21V1.63h-62.76v10.31Zm-29.73,32.31L609.37,1.63h-11.89v55.15h10.31V14.44l41.77,42.34h13.43V1.63h-10.31v42.62ZM536.12,1.63l-28.17,55.15h11.56l4.19-8.26h38.7l4.17,8.26h11.6l-28.17-55.15h-13.89Zm-7.16,36.58l14.08-27.49,14.07,27.49h-28.16Zm-125.1,10.31h11.33l.22-.61c2.78-7.71,2.83-15.62.13-23.52-4.11-12.14-14.83-21.38-27.32-23.55-2.12-.38-4.29-.57-6.46-.57-9.56,0-18.53,3.71-25.27,10.45-6.74,6.74-10.45,15.73-10.45,25.3,0,19.33,15.74,35.34,35.09,35.7l1.58.03h33.89s.92,0,.92,0v-10.32h-35.88c-10.28,0-19.62-6.09-23.24-15.16-3.4-8.39-2.56-17.31,2.3-24.48,4.74-7.02,12.62-11.21,21.07-11.21,1.83,0,3.72.2,5.62.6,9.3,2,16.79,9.35,19.08,18.72,1.46,5.98.8,11.95-1.91,17.28l-.68,1.34Zm81.85-20.2c0,10.69-8.7,19.39-19.39,19.39s-19.39-8.7-19.39-19.39V1.63h-10.31v26.69c0,16.4,13.32,29.73,29.7,29.73s29.7-13.34,29.7-29.73V1.63h-10.31v26.69ZM1125.53,1.63l-25.89,47.15-26.16-47.15h-15.96v55.15h10.31V12.69l24.43,44.09h14.75l24.09-43.86v43.86h10.31V1.63h-15.9Zm-100.89,26.69c0,10.69-8.7,19.39-19.39,19.39s-19.39-8.7-19.39-19.39V1.63h-10.35v26.69c0,16.4,13.34,29.73,29.73,29.73s29.7-13.34,29.7-29.73V1.63h-10.31v26.69Zm-164.35,15.93L816.97,1.63h-11.89v55.15h10.31V14.44l41.77,42.34h13.43V1.63h-10.31v42.62Zm82.53-15.93c0,10.69-8.7,19.39-19.39,19.39s-19.39-8.7-19.39-19.39V1.63h-10.31v26.69c0,16.4,13.32,29.73,29.7,29.73s29.73-13.34,29.73-29.73V1.63h-10.35v26.69Zm-175.43,28.46h10.31V1.63h-10.31v55.15Z"/>
    <g>
      <polygon points="40.72 168.28 40.72 168.25 0 168.25 0 217.72 53.04 217.75 107.26 162.78 77.15 132.43 40.72 168.28"/>
      <polygon points="217.96 158.91 217.96 158.91 217.96 168.28 46.92 0 40.72 0 0 0 0 57.97 0 137.45 40.72 137.45 40.72 57.97 40.72 57.97 40.72 50.58 205.64 217.75 217.96 217.75 217.96 217.75 258.68 217.75 258.68 217.72 258.68 158.91 258.68 80.31 217.96 80.31 217.96 158.91"/>
      <polygon points="205.64 0 149.32 57.04 179.44 87.39 217.96 49.48 217.96 49.5 258.68 49.5 258.68 .03 205.64 0"/>
    </g>
  </g>
</svg>