<svg width="32" height="32" viewBox="0 0 32 32" fill="none" xmlns="http://www.w3.org/2000/svg">
<path d="M24 28C24 25.171 22.8762 22.4579 20.8758 20.4575C18.8754 18.4571 16.1623 17.3333 13.3333 17.3333C10.5043 17.3333 7.79124 18.4571 5.79085 20.4575C3.79046 22.4579 2.66666 25.171 2.66666 28" stroke="black" stroke-width="2" stroke-linecap="round" stroke-linejoin="round"/>
<path d="M13.3333 17.3333C17.0152 17.3333 20 14.3486 20 10.6667C20 6.98477 17.0152 4 13.3333 4C9.65142 4 6.66666 6.98477 6.66666 10.6667C6.66666 14.3486 9.65142 17.3333 13.3333 17.3333Z" stroke="black" stroke-width="2" stroke-linecap="round" stroke-linejoin="round"/>
<path d="M29.3333 26.6667C29.3333 22.1733 26.6667 18 24 16C24.8766 15.3423 25.5775 14.4788 26.0408 13.4857C26.504 12.4926 26.7153 11.4006 26.656 10.3064C26.5967 9.21216 26.2686 8.14943 25.7006 7.21225C25.1327 6.27507 24.3425 5.49234 23.4 4.93332" stroke="black" stroke-width="2" stroke-linecap="round" stroke-linejoin="round"/>
</svg>
