<?xml version="1.0" encoding="utf-8" standalone="no"?>
<!DOCTYPE svg PUBLIC "-//W3C//DTD SVG 1.1//EN"
  "http://www.w3.org/Graphics/SVG/1.1/DTD/svg11.dtd">
<svg xmlns:xlink="http://www.w3.org/1999/xlink" width="1050.924563pt" height="537.240937pt" viewBox="0 0 1050.924563 537.240937" xmlns="http://www.w3.org/2000/svg" version="1.1">
 <metadata>
  <rdf:RDF xmlns:dc="http://purl.org/dc/elements/1.1/" xmlns:cc="http://creativecommons.org/ns#" xmlns:rdf="http://www.w3.org/1999/02/22-rdf-syntax-ns#">
   <cc:Work>
    <dc:type rdf:resource="http://purl.org/dc/dcmitype/StillImage"/>
    <dc:date>2025-01-20T23:42:29.906783</dc:date>
    <dc:format>image/svg+xml</dc:format>
    <dc:creator>
     <cc:Agent>
      <dc:title>Matplotlib v3.9.2, https://matplotlib.org/</dc:title>
     </cc:Agent>
    </dc:creator>
   </cc:Work>
  </rdf:RDF>
 </metadata>
 <defs>
  <style type="text/css">*{stroke-linejoin: round; stroke-linecap: butt}</style>
 </defs>
 <g id="figure_1">
  <g id="patch_1">
   <path d="M 0 537.240937 
L 1050.924563 537.240937 
L 1050.924563 0 
L 0 0 
z
" style="fill: #ffffff"/>
  </g>
  <g id="axes_1">
   <g id="patch_2">
    <path d="M 86.036563 473.89875 
L 867.236563 473.89875 
L 867.236563 30.37875 
L 86.036563 30.37875 
z
" style="fill: #ffffff"/>
   </g>
   <g id="matplotlib.axis_1">
    <g id="xtick_1">
     <g id="line2d_1">
      <path d="M 120.851778 473.89875 
L 120.851778 30.37875 
" clip-path="url(#p867207f0de)" style="fill: none; stroke: #cccccc; stroke-linecap: round"/>
     </g>
     <g id="text_1">
      <!-- 0 -->
      <g style="fill: #262626" transform="translate(114.734746 499.145937) scale(0.22 -0.22)">
       <defs>
        <path id="ArialMT-30" d="M 266 2259 
Q 266 3072 433 3567 
Q 600 4063 929 4331 
Q 1259 4600 1759 4600 
Q 2128 4600 2406 4451 
Q 2684 4303 2865 4023 
Q 3047 3744 3150 3342 
Q 3253 2941 3253 2259 
Q 3253 1453 3087 958 
Q 2922 463 2592 192 
Q 2263 -78 1759 -78 
Q 1097 -78 719 397 
Q 266 969 266 2259 
z
M 844 2259 
Q 844 1131 1108 757 
Q 1372 384 1759 384 
Q 2147 384 2411 759 
Q 2675 1134 2675 2259 
Q 2675 3391 2411 3762 
Q 2147 4134 1753 4134 
Q 1366 4134 1134 3806 
Q 844 3388 844 2259 
z
" transform="scale(0.015625)"/>
       </defs>
       <use xlink:href="#ArialMT-30"/>
      </g>
     </g>
    </g>
    <g id="xtick_2">
     <g id="line2d_2">
      <path d="M 294.320712 473.89875 
L 294.320712 30.37875 
" clip-path="url(#p867207f0de)" style="fill: none; stroke: #cccccc; stroke-linecap: round"/>
     </g>
     <g id="text_2">
      <!-- 500 -->
      <g style="fill: #262626" transform="translate(275.969619 499.145937) scale(0.22 -0.22)">
       <defs>
        <path id="ArialMT-35" d="M 266 1200 
L 856 1250 
Q 922 819 1161 601 
Q 1400 384 1738 384 
Q 2144 384 2425 690 
Q 2706 997 2706 1503 
Q 2706 1984 2436 2262 
Q 2166 2541 1728 2541 
Q 1456 2541 1237 2417 
Q 1019 2294 894 2097 
L 366 2166 
L 809 4519 
L 3088 4519 
L 3088 3981 
L 1259 3981 
L 1013 2750 
Q 1425 3038 1878 3038 
Q 2478 3038 2890 2622 
Q 3303 2206 3303 1553 
Q 3303 931 2941 478 
Q 2500 -78 1738 -78 
Q 1113 -78 717 272 
Q 322 622 266 1200 
z
" transform="scale(0.015625)"/>
       </defs>
       <use xlink:href="#ArialMT-35"/>
       <use xlink:href="#ArialMT-30" x="55.615234"/>
       <use xlink:href="#ArialMT-30" x="111.230469"/>
      </g>
     </g>
    </g>
    <g id="xtick_3">
     <g id="line2d_3">
      <path d="M 467.789647 473.89875 
L 467.789647 30.37875 
" clip-path="url(#p867207f0de)" style="fill: none; stroke: #cccccc; stroke-linecap: round"/>
     </g>
     <g id="text_3">
      <!-- 1000 -->
      <g style="fill: #262626" transform="translate(443.321522 499.145937) scale(0.22 -0.22)">
       <defs>
        <path id="ArialMT-31" d="M 2384 0 
L 1822 0 
L 1822 3584 
Q 1619 3391 1289 3197 
Q 959 3003 697 2906 
L 697 3450 
Q 1169 3672 1522 3987 
Q 1875 4303 2022 4600 
L 2384 4600 
L 2384 0 
z
" transform="scale(0.015625)"/>
       </defs>
       <use xlink:href="#ArialMT-31"/>
       <use xlink:href="#ArialMT-30" x="55.615234"/>
       <use xlink:href="#ArialMT-30" x="111.230469"/>
       <use xlink:href="#ArialMT-30" x="166.845703"/>
      </g>
     </g>
    </g>
    <g id="xtick_4">
     <g id="line2d_4">
      <path d="M 641.258581 473.89875 
L 641.258581 30.37875 
" clip-path="url(#p867207f0de)" style="fill: none; stroke: #cccccc; stroke-linecap: round"/>
     </g>
     <g id="text_4">
      <!-- 1500 -->
      <g style="fill: #262626" transform="translate(616.790456 499.145937) scale(0.22 -0.22)">
       <use xlink:href="#ArialMT-31"/>
       <use xlink:href="#ArialMT-35" x="55.615234"/>
       <use xlink:href="#ArialMT-30" x="111.230469"/>
       <use xlink:href="#ArialMT-30" x="166.845703"/>
      </g>
     </g>
    </g>
    <g id="xtick_5">
     <g id="line2d_5">
      <path d="M 814.727516 473.89875 
L 814.727516 30.37875 
" clip-path="url(#p867207f0de)" style="fill: none; stroke: #cccccc; stroke-linecap: round"/>
     </g>
     <g id="text_5">
      <!-- 2000 -->
      <g style="fill: #262626" transform="translate(790.259391 499.145937) scale(0.22 -0.22)">
       <defs>
        <path id="ArialMT-32" d="M 3222 541 
L 3222 0 
L 194 0 
Q 188 203 259 391 
Q 375 700 629 1000 
Q 884 1300 1366 1694 
Q 2113 2306 2375 2664 
Q 2638 3022 2638 3341 
Q 2638 3675 2398 3904 
Q 2159 4134 1775 4134 
Q 1369 4134 1125 3890 
Q 881 3647 878 3216 
L 300 3275 
Q 359 3922 746 4261 
Q 1134 4600 1788 4600 
Q 2447 4600 2831 4234 
Q 3216 3869 3216 3328 
Q 3216 3053 3103 2787 
Q 2991 2522 2730 2228 
Q 2469 1934 1863 1422 
Q 1356 997 1212 845 
Q 1069 694 975 541 
L 3222 541 
z
" transform="scale(0.015625)"/>
       </defs>
       <use xlink:href="#ArialMT-32"/>
       <use xlink:href="#ArialMT-30" x="55.615234"/>
       <use xlink:href="#ArialMT-30" x="111.230469"/>
       <use xlink:href="#ArialMT-30" x="166.845703"/>
      </g>
     </g>
    </g>
    <g id="text_6">
     <!-- Sequence Length (Number of Cliffords) -->
     <g style="fill: #262626" transform="translate(268.085938 524.989687) scale(0.24 -0.24)">
      <defs>
       <path id="ArialMT-53" d="M 288 1472 
L 859 1522 
Q 900 1178 1048 958 
Q 1197 738 1509 602 
Q 1822 466 2213 466 
Q 2559 466 2825 569 
Q 3091 672 3220 851 
Q 3350 1031 3350 1244 
Q 3350 1459 3225 1620 
Q 3100 1781 2813 1891 
Q 2628 1963 1997 2114 
Q 1366 2266 1113 2400 
Q 784 2572 623 2826 
Q 463 3081 463 3397 
Q 463 3744 659 4045 
Q 856 4347 1234 4503 
Q 1613 4659 2075 4659 
Q 2584 4659 2973 4495 
Q 3363 4331 3572 4012 
Q 3781 3694 3797 3291 
L 3216 3247 
Q 3169 3681 2898 3903 
Q 2628 4125 2100 4125 
Q 1550 4125 1298 3923 
Q 1047 3722 1047 3438 
Q 1047 3191 1225 3031 
Q 1400 2872 2139 2705 
Q 2878 2538 3153 2413 
Q 3553 2228 3743 1945 
Q 3934 1663 3934 1294 
Q 3934 928 3725 604 
Q 3516 281 3123 101 
Q 2731 -78 2241 -78 
Q 1619 -78 1198 103 
Q 778 284 539 648 
Q 300 1013 288 1472 
z
" transform="scale(0.015625)"/>
       <path id="ArialMT-65" d="M 2694 1069 
L 3275 997 
Q 3138 488 2766 206 
Q 2394 -75 1816 -75 
Q 1088 -75 661 373 
Q 234 822 234 1631 
Q 234 2469 665 2931 
Q 1097 3394 1784 3394 
Q 2450 3394 2872 2941 
Q 3294 2488 3294 1666 
Q 3294 1616 3291 1516 
L 816 1516 
Q 847 969 1125 678 
Q 1403 388 1819 388 
Q 2128 388 2347 550 
Q 2566 713 2694 1069 
z
M 847 1978 
L 2700 1978 
Q 2663 2397 2488 2606 
Q 2219 2931 1791 2931 
Q 1403 2931 1139 2672 
Q 875 2413 847 1978 
z
" transform="scale(0.015625)"/>
       <path id="ArialMT-71" d="M 2538 -1272 
L 2538 353 
Q 2406 169 2170 47 
Q 1934 -75 1669 -75 
Q 1078 -75 651 397 
Q 225 869 225 1691 
Q 225 2191 398 2587 
Q 572 2984 901 3189 
Q 1231 3394 1625 3394 
Q 2241 3394 2594 2875 
L 2594 3319 
L 3100 3319 
L 3100 -1272 
L 2538 -1272 
z
M 803 1669 
Q 803 1028 1072 708 
Q 1341 388 1716 388 
Q 2075 388 2334 692 
Q 2594 997 2594 1619 
Q 2594 2281 2320 2615 
Q 2047 2950 1678 2950 
Q 1313 2950 1058 2639 
Q 803 2328 803 1669 
z
" transform="scale(0.015625)"/>
       <path id="ArialMT-75" d="M 2597 0 
L 2597 488 
Q 2209 -75 1544 -75 
Q 1250 -75 995 37 
Q 741 150 617 320 
Q 494 491 444 738 
Q 409 903 409 1263 
L 409 3319 
L 972 3319 
L 972 1478 
Q 972 1038 1006 884 
Q 1059 663 1231 536 
Q 1403 409 1656 409 
Q 1909 409 2131 539 
Q 2353 669 2445 892 
Q 2538 1116 2538 1541 
L 2538 3319 
L 3100 3319 
L 3100 0 
L 2597 0 
z
" transform="scale(0.015625)"/>
       <path id="ArialMT-6e" d="M 422 0 
L 422 3319 
L 928 3319 
L 928 2847 
Q 1294 3394 1984 3394 
Q 2284 3394 2536 3286 
Q 2788 3178 2913 3003 
Q 3038 2828 3088 2588 
Q 3119 2431 3119 2041 
L 3119 0 
L 2556 0 
L 2556 2019 
Q 2556 2363 2490 2533 
Q 2425 2703 2258 2804 
Q 2091 2906 1866 2906 
Q 1506 2906 1245 2678 
Q 984 2450 984 1813 
L 984 0 
L 422 0 
z
" transform="scale(0.015625)"/>
       <path id="ArialMT-63" d="M 2588 1216 
L 3141 1144 
Q 3050 572 2676 248 
Q 2303 -75 1759 -75 
Q 1078 -75 664 370 
Q 250 816 250 1647 
Q 250 2184 428 2587 
Q 606 2991 970 3192 
Q 1334 3394 1763 3394 
Q 2303 3394 2647 3120 
Q 2991 2847 3088 2344 
L 2541 2259 
Q 2463 2594 2264 2762 
Q 2066 2931 1784 2931 
Q 1359 2931 1093 2626 
Q 828 2322 828 1663 
Q 828 994 1084 691 
Q 1341 388 1753 388 
Q 2084 388 2306 591 
Q 2528 794 2588 1216 
z
" transform="scale(0.015625)"/>
       <path id="ArialMT-20" transform="scale(0.015625)"/>
       <path id="ArialMT-4c" d="M 469 0 
L 469 4581 
L 1075 4581 
L 1075 541 
L 3331 541 
L 3331 0 
L 469 0 
z
" transform="scale(0.015625)"/>
       <path id="ArialMT-67" d="M 319 -275 
L 866 -356 
Q 900 -609 1056 -725 
Q 1266 -881 1628 -881 
Q 2019 -881 2231 -725 
Q 2444 -569 2519 -288 
Q 2563 -116 2559 434 
Q 2191 0 1641 0 
Q 956 0 581 494 
Q 206 988 206 1678 
Q 206 2153 378 2554 
Q 550 2956 876 3175 
Q 1203 3394 1644 3394 
Q 2231 3394 2613 2919 
L 2613 3319 
L 3131 3319 
L 3131 450 
Q 3131 -325 2973 -648 
Q 2816 -972 2473 -1159 
Q 2131 -1347 1631 -1347 
Q 1038 -1347 672 -1080 
Q 306 -813 319 -275 
z
M 784 1719 
Q 784 1066 1043 766 
Q 1303 466 1694 466 
Q 2081 466 2343 764 
Q 2606 1063 2606 1700 
Q 2606 2309 2336 2618 
Q 2066 2928 1684 2928 
Q 1309 2928 1046 2623 
Q 784 2319 784 1719 
z
" transform="scale(0.015625)"/>
       <path id="ArialMT-74" d="M 1650 503 
L 1731 6 
Q 1494 -44 1306 -44 
Q 1000 -44 831 53 
Q 663 150 594 308 
Q 525 466 525 972 
L 525 2881 
L 113 2881 
L 113 3319 
L 525 3319 
L 525 4141 
L 1084 4478 
L 1084 3319 
L 1650 3319 
L 1650 2881 
L 1084 2881 
L 1084 941 
Q 1084 700 1114 631 
Q 1144 563 1211 522 
Q 1278 481 1403 481 
Q 1497 481 1650 503 
z
" transform="scale(0.015625)"/>
       <path id="ArialMT-68" d="M 422 0 
L 422 4581 
L 984 4581 
L 984 2938 
Q 1378 3394 1978 3394 
Q 2347 3394 2619 3248 
Q 2891 3103 3008 2847 
Q 3125 2591 3125 2103 
L 3125 0 
L 2563 0 
L 2563 2103 
Q 2563 2525 2380 2717 
Q 2197 2909 1863 2909 
Q 1613 2909 1392 2779 
Q 1172 2650 1078 2428 
Q 984 2206 984 1816 
L 984 0 
L 422 0 
z
" transform="scale(0.015625)"/>
       <path id="ArialMT-28" d="M 1497 -1347 
Q 1031 -759 709 28 
Q 388 816 388 1659 
Q 388 2403 628 3084 
Q 909 3875 1497 4659 
L 1900 4659 
Q 1522 4009 1400 3731 
Q 1209 3300 1100 2831 
Q 966 2247 966 1656 
Q 966 153 1900 -1347 
L 1497 -1347 
z
" transform="scale(0.015625)"/>
       <path id="ArialMT-4e" d="M 488 0 
L 488 4581 
L 1109 4581 
L 3516 984 
L 3516 4581 
L 4097 4581 
L 4097 0 
L 3475 0 
L 1069 3600 
L 1069 0 
L 488 0 
z
" transform="scale(0.015625)"/>
       <path id="ArialMT-6d" d="M 422 0 
L 422 3319 
L 925 3319 
L 925 2853 
Q 1081 3097 1340 3245 
Q 1600 3394 1931 3394 
Q 2300 3394 2536 3241 
Q 2772 3088 2869 2813 
Q 3263 3394 3894 3394 
Q 4388 3394 4653 3120 
Q 4919 2847 4919 2278 
L 4919 0 
L 4359 0 
L 4359 2091 
Q 4359 2428 4304 2576 
Q 4250 2725 4106 2815 
Q 3963 2906 3769 2906 
Q 3419 2906 3187 2673 
Q 2956 2441 2956 1928 
L 2956 0 
L 2394 0 
L 2394 2156 
Q 2394 2531 2256 2718 
Q 2119 2906 1806 2906 
Q 1569 2906 1367 2781 
Q 1166 2656 1075 2415 
Q 984 2175 984 1722 
L 984 0 
L 422 0 
z
" transform="scale(0.015625)"/>
       <path id="ArialMT-62" d="M 941 0 
L 419 0 
L 419 4581 
L 981 4581 
L 981 2947 
Q 1338 3394 1891 3394 
Q 2197 3394 2470 3270 
Q 2744 3147 2920 2923 
Q 3097 2700 3197 2384 
Q 3297 2069 3297 1709 
Q 3297 856 2875 390 
Q 2453 -75 1863 -75 
Q 1275 -75 941 416 
L 941 0 
z
M 934 1684 
Q 934 1088 1097 822 
Q 1363 388 1816 388 
Q 2184 388 2453 708 
Q 2722 1028 2722 1663 
Q 2722 2313 2464 2622 
Q 2206 2931 1841 2931 
Q 1472 2931 1203 2611 
Q 934 2291 934 1684 
z
" transform="scale(0.015625)"/>
       <path id="ArialMT-72" d="M 416 0 
L 416 3319 
L 922 3319 
L 922 2816 
Q 1116 3169 1280 3281 
Q 1444 3394 1641 3394 
Q 1925 3394 2219 3213 
L 2025 2691 
Q 1819 2813 1613 2813 
Q 1428 2813 1281 2702 
Q 1134 2591 1072 2394 
Q 978 2094 978 1738 
L 978 0 
L 416 0 
z
" transform="scale(0.015625)"/>
       <path id="ArialMT-6f" d="M 213 1659 
Q 213 2581 725 3025 
Q 1153 3394 1769 3394 
Q 2453 3394 2887 2945 
Q 3322 2497 3322 1706 
Q 3322 1066 3130 698 
Q 2938 331 2570 128 
Q 2203 -75 1769 -75 
Q 1072 -75 642 372 
Q 213 819 213 1659 
z
M 791 1659 
Q 791 1022 1069 705 
Q 1347 388 1769 388 
Q 2188 388 2466 706 
Q 2744 1025 2744 1678 
Q 2744 2294 2464 2611 
Q 2184 2928 1769 2928 
Q 1347 2928 1069 2612 
Q 791 2297 791 1659 
z
" transform="scale(0.015625)"/>
       <path id="ArialMT-66" d="M 556 0 
L 556 2881 
L 59 2881 
L 59 3319 
L 556 3319 
L 556 3672 
Q 556 4006 616 4169 
Q 697 4388 901 4523 
Q 1106 4659 1475 4659 
Q 1713 4659 2000 4603 
L 1916 4113 
Q 1741 4144 1584 4144 
Q 1328 4144 1222 4034 
Q 1116 3925 1116 3625 
L 1116 3319 
L 1763 3319 
L 1763 2881 
L 1116 2881 
L 1116 0 
L 556 0 
z
" transform="scale(0.015625)"/>
       <path id="ArialMT-43" d="M 3763 1606 
L 4369 1453 
Q 4178 706 3683 314 
Q 3188 -78 2472 -78 
Q 1731 -78 1267 223 
Q 803 525 561 1097 
Q 319 1669 319 2325 
Q 319 3041 592 3573 
Q 866 4106 1370 4382 
Q 1875 4659 2481 4659 
Q 3169 4659 3637 4309 
Q 4106 3959 4291 3325 
L 3694 3184 
Q 3534 3684 3231 3912 
Q 2928 4141 2469 4141 
Q 1941 4141 1586 3887 
Q 1231 3634 1087 3207 
Q 944 2781 944 2328 
Q 944 1744 1114 1308 
Q 1284 872 1643 656 
Q 2003 441 2422 441 
Q 2931 441 3284 734 
Q 3638 1028 3763 1606 
z
" transform="scale(0.015625)"/>
       <path id="ArialMT-6c" d="M 409 0 
L 409 4581 
L 972 4581 
L 972 0 
L 409 0 
z
" transform="scale(0.015625)"/>
       <path id="ArialMT-69" d="M 425 3934 
L 425 4581 
L 988 4581 
L 988 3934 
L 425 3934 
z
M 425 0 
L 425 3319 
L 988 3319 
L 988 0 
L 425 0 
z
" transform="scale(0.015625)"/>
       <path id="ArialMT-64" d="M 2575 0 
L 2575 419 
Q 2259 -75 1647 -75 
Q 1250 -75 917 144 
Q 584 363 401 755 
Q 219 1147 219 1656 
Q 219 2153 384 2558 
Q 550 2963 881 3178 
Q 1213 3394 1622 3394 
Q 1922 3394 2156 3267 
Q 2391 3141 2538 2938 
L 2538 4581 
L 3097 4581 
L 3097 0 
L 2575 0 
z
M 797 1656 
Q 797 1019 1065 703 
Q 1334 388 1700 388 
Q 2069 388 2326 689 
Q 2584 991 2584 1609 
Q 2584 2291 2321 2609 
Q 2059 2928 1675 2928 
Q 1300 2928 1048 2622 
Q 797 2316 797 1656 
z
" transform="scale(0.015625)"/>
       <path id="ArialMT-73" d="M 197 991 
L 753 1078 
Q 800 744 1014 566 
Q 1228 388 1613 388 
Q 2000 388 2187 545 
Q 2375 703 2375 916 
Q 2375 1106 2209 1216 
Q 2094 1291 1634 1406 
Q 1016 1563 777 1677 
Q 538 1791 414 1992 
Q 291 2194 291 2438 
Q 291 2659 392 2848 
Q 494 3038 669 3163 
Q 800 3259 1026 3326 
Q 1253 3394 1513 3394 
Q 1903 3394 2198 3281 
Q 2494 3169 2634 2976 
Q 2775 2784 2828 2463 
L 2278 2388 
Q 2241 2644 2061 2787 
Q 1881 2931 1553 2931 
Q 1166 2931 1000 2803 
Q 834 2675 834 2503 
Q 834 2394 903 2306 
Q 972 2216 1119 2156 
Q 1203 2125 1616 2013 
Q 2213 1853 2448 1751 
Q 2684 1650 2818 1456 
Q 2953 1263 2953 975 
Q 2953 694 2789 445 
Q 2625 197 2315 61 
Q 2006 -75 1616 -75 
Q 969 -75 630 194 
Q 291 463 197 991 
z
" transform="scale(0.015625)"/>
       <path id="ArialMT-29" d="M 791 -1347 
L 388 -1347 
Q 1322 153 1322 1656 
Q 1322 2244 1188 2822 
Q 1081 3291 891 3722 
Q 769 4003 388 4659 
L 791 4659 
Q 1378 3875 1659 3084 
Q 1900 2403 1900 1659 
Q 1900 816 1576 28 
Q 1253 -759 791 -1347 
z
" transform="scale(0.015625)"/>
      </defs>
      <use xlink:href="#ArialMT-53"/>
      <use xlink:href="#ArialMT-65" x="66.699219"/>
      <use xlink:href="#ArialMT-71" x="122.314453"/>
      <use xlink:href="#ArialMT-75" x="177.929688"/>
      <use xlink:href="#ArialMT-65" x="233.544922"/>
      <use xlink:href="#ArialMT-6e" x="289.160156"/>
      <use xlink:href="#ArialMT-63" x="344.775391"/>
      <use xlink:href="#ArialMT-65" x="394.775391"/>
      <use xlink:href="#ArialMT-20" x="450.390625"/>
      <use xlink:href="#ArialMT-4c" x="478.173828"/>
      <use xlink:href="#ArialMT-65" x="533.789062"/>
      <use xlink:href="#ArialMT-6e" x="589.404297"/>
      <use xlink:href="#ArialMT-67" x="645.019531"/>
      <use xlink:href="#ArialMT-74" x="700.634766"/>
      <use xlink:href="#ArialMT-68" x="728.417969"/>
      <use xlink:href="#ArialMT-20" x="784.033203"/>
      <use xlink:href="#ArialMT-28" x="811.816406"/>
      <use xlink:href="#ArialMT-4e" x="845.117188"/>
      <use xlink:href="#ArialMT-75" x="917.333984"/>
      <use xlink:href="#ArialMT-6d" x="972.949219"/>
      <use xlink:href="#ArialMT-62" x="1056.25"/>
      <use xlink:href="#ArialMT-65" x="1111.865234"/>
      <use xlink:href="#ArialMT-72" x="1167.480469"/>
      <use xlink:href="#ArialMT-20" x="1200.78125"/>
      <use xlink:href="#ArialMT-6f" x="1228.564453"/>
      <use xlink:href="#ArialMT-66" x="1284.179688"/>
      <use xlink:href="#ArialMT-20" x="1311.962891"/>
      <use xlink:href="#ArialMT-43" x="1339.746094"/>
      <use xlink:href="#ArialMT-6c" x="1411.962891"/>
      <use xlink:href="#ArialMT-69" x="1434.179688"/>
      <use xlink:href="#ArialMT-66" x="1456.396484"/>
      <use xlink:href="#ArialMT-66" x="1482.429688"/>
      <use xlink:href="#ArialMT-6f" x="1510.212891"/>
      <use xlink:href="#ArialMT-72" x="1565.828125"/>
      <use xlink:href="#ArialMT-64" x="1599.128906"/>
      <use xlink:href="#ArialMT-73" x="1654.744141"/>
      <use xlink:href="#ArialMT-29" x="1704.744141"/>
     </g>
    </g>
   </g>
   <g id="matplotlib.axis_2">
    <g id="ytick_1">
     <g id="line2d_6">
      <path d="M 86.036563 454.961799 
L 867.236563 454.961799 
" clip-path="url(#p867207f0de)" style="fill: none; stroke: #cccccc; stroke-linecap: round"/>
     </g>
     <g id="text_7">
      <!-- 0.90 -->
      <g style="fill: #262626" transform="translate(33.7225 462.835392) scale(0.22 -0.22)">
       <defs>
        <path id="ArialMT-2e" d="M 581 0 
L 581 641 
L 1222 641 
L 1222 0 
L 581 0 
z
" transform="scale(0.015625)"/>
        <path id="ArialMT-39" d="M 350 1059 
L 891 1109 
Q 959 728 1153 556 
Q 1347 384 1650 384 
Q 1909 384 2104 503 
Q 2300 622 2425 820 
Q 2550 1019 2634 1356 
Q 2719 1694 2719 2044 
Q 2719 2081 2716 2156 
Q 2547 1888 2255 1720 
Q 1963 1553 1622 1553 
Q 1053 1553 659 1965 
Q 266 2378 266 3053 
Q 266 3750 677 4175 
Q 1088 4600 1706 4600 
Q 2153 4600 2523 4359 
Q 2894 4119 3086 3673 
Q 3278 3228 3278 2384 
Q 3278 1506 3087 986 
Q 2897 466 2520 194 
Q 2144 -78 1638 -78 
Q 1100 -78 759 220 
Q 419 519 350 1059 
z
M 2653 3081 
Q 2653 3566 2395 3850 
Q 2138 4134 1775 4134 
Q 1400 4134 1122 3828 
Q 844 3522 844 3034 
Q 844 2597 1108 2323 
Q 1372 2050 1759 2050 
Q 2150 2050 2401 2323 
Q 2653 2597 2653 3081 
z
" transform="scale(0.015625)"/>
       </defs>
       <use xlink:href="#ArialMT-30"/>
       <use xlink:href="#ArialMT-2e" x="55.615234"/>
       <use xlink:href="#ArialMT-39" x="83.398438"/>
       <use xlink:href="#ArialMT-30" x="139.013672"/>
      </g>
     </g>
    </g>
    <g id="ytick_2">
     <g id="line2d_7">
      <path d="M 86.036563 374.147337 
L 867.236563 374.147337 
" clip-path="url(#p867207f0de)" style="fill: none; stroke: #cccccc; stroke-linecap: round"/>
     </g>
     <g id="text_8">
      <!-- 0.92 -->
      <g style="fill: #262626" transform="translate(33.7225 382.020931) scale(0.22 -0.22)">
       <use xlink:href="#ArialMT-30"/>
       <use xlink:href="#ArialMT-2e" x="55.615234"/>
       <use xlink:href="#ArialMT-39" x="83.398438"/>
       <use xlink:href="#ArialMT-32" x="139.013672"/>
      </g>
     </g>
    </g>
    <g id="ytick_3">
     <g id="line2d_8">
      <path d="M 86.036563 293.332876 
L 867.236563 293.332876 
" clip-path="url(#p867207f0de)" style="fill: none; stroke: #cccccc; stroke-linecap: round"/>
     </g>
     <g id="text_9">
      <!-- 0.94 -->
      <g style="fill: #262626" transform="translate(33.7225 301.20647) scale(0.22 -0.22)">
       <defs>
        <path id="ArialMT-34" d="M 2069 0 
L 2069 1097 
L 81 1097 
L 81 1613 
L 2172 4581 
L 2631 4581 
L 2631 1613 
L 3250 1613 
L 3250 1097 
L 2631 1097 
L 2631 0 
L 2069 0 
z
M 2069 1613 
L 2069 3678 
L 634 1613 
L 2069 1613 
z
" transform="scale(0.015625)"/>
       </defs>
       <use xlink:href="#ArialMT-30"/>
       <use xlink:href="#ArialMT-2e" x="55.615234"/>
       <use xlink:href="#ArialMT-39" x="83.398438"/>
       <use xlink:href="#ArialMT-34" x="139.013672"/>
      </g>
     </g>
    </g>
    <g id="ytick_4">
     <g id="line2d_9">
      <path d="M 86.036563 212.518415 
L 867.236563 212.518415 
" clip-path="url(#p867207f0de)" style="fill: none; stroke: #cccccc; stroke-linecap: round"/>
     </g>
     <g id="text_10">
      <!-- 0.96 -->
      <g style="fill: #262626" transform="translate(33.7225 220.392009) scale(0.22 -0.22)">
       <defs>
        <path id="ArialMT-36" d="M 3184 3459 
L 2625 3416 
Q 2550 3747 2413 3897 
Q 2184 4138 1850 4138 
Q 1581 4138 1378 3988 
Q 1113 3794 959 3422 
Q 806 3050 800 2363 
Q 1003 2672 1297 2822 
Q 1591 2972 1913 2972 
Q 2475 2972 2870 2558 
Q 3266 2144 3266 1488 
Q 3266 1056 3080 686 
Q 2894 316 2569 119 
Q 2244 -78 1831 -78 
Q 1128 -78 684 439 
Q 241 956 241 2144 
Q 241 3472 731 4075 
Q 1159 4600 1884 4600 
Q 2425 4600 2770 4297 
Q 3116 3994 3184 3459 
z
M 888 1484 
Q 888 1194 1011 928 
Q 1134 663 1356 523 
Q 1578 384 1822 384 
Q 2178 384 2434 671 
Q 2691 959 2691 1453 
Q 2691 1928 2437 2201 
Q 2184 2475 1800 2475 
Q 1419 2475 1153 2201 
Q 888 1928 888 1484 
z
" transform="scale(0.015625)"/>
       </defs>
       <use xlink:href="#ArialMT-30"/>
       <use xlink:href="#ArialMT-2e" x="55.615234"/>
       <use xlink:href="#ArialMT-39" x="83.398438"/>
       <use xlink:href="#ArialMT-36" x="139.013672"/>
      </g>
     </g>
    </g>
    <g id="ytick_5">
     <g id="line2d_10">
      <path d="M 86.036563 131.703954 
L 867.236563 131.703954 
" clip-path="url(#p867207f0de)" style="fill: none; stroke: #cccccc; stroke-linecap: round"/>
     </g>
     <g id="text_11">
      <!-- 0.98 -->
      <g style="fill: #262626" transform="translate(33.7225 139.577548) scale(0.22 -0.22)">
       <defs>
        <path id="ArialMT-38" d="M 1131 2484 
Q 781 2613 612 2850 
Q 444 3088 444 3419 
Q 444 3919 803 4259 
Q 1163 4600 1759 4600 
Q 2359 4600 2725 4251 
Q 3091 3903 3091 3403 
Q 3091 3084 2923 2848 
Q 2756 2613 2416 2484 
Q 2838 2347 3058 2040 
Q 3278 1734 3278 1309 
Q 3278 722 2862 322 
Q 2447 -78 1769 -78 
Q 1091 -78 675 323 
Q 259 725 259 1325 
Q 259 1772 486 2073 
Q 713 2375 1131 2484 
z
M 1019 3438 
Q 1019 3113 1228 2906 
Q 1438 2700 1772 2700 
Q 2097 2700 2305 2904 
Q 2513 3109 2513 3406 
Q 2513 3716 2298 3927 
Q 2084 4138 1766 4138 
Q 1444 4138 1231 3931 
Q 1019 3725 1019 3438 
z
M 838 1322 
Q 838 1081 952 856 
Q 1066 631 1291 507 
Q 1516 384 1775 384 
Q 2178 384 2440 643 
Q 2703 903 2703 1303 
Q 2703 1709 2433 1975 
Q 2163 2241 1756 2241 
Q 1359 2241 1098 1978 
Q 838 1716 838 1322 
z
" transform="scale(0.015625)"/>
       </defs>
       <use xlink:href="#ArialMT-30"/>
       <use xlink:href="#ArialMT-2e" x="55.615234"/>
       <use xlink:href="#ArialMT-39" x="83.398438"/>
       <use xlink:href="#ArialMT-38" x="139.013672"/>
      </g>
     </g>
    </g>
    <g id="ytick_6">
     <g id="line2d_11">
      <path d="M 86.036563 50.889493 
L 867.236563 50.889493 
" clip-path="url(#p867207f0de)" style="fill: none; stroke: #cccccc; stroke-linecap: round"/>
     </g>
     <g id="text_12">
      <!-- 1.00 -->
      <g style="fill: #262626" transform="translate(33.7225 58.763087) scale(0.22 -0.22)">
       <use xlink:href="#ArialMT-31"/>
       <use xlink:href="#ArialMT-2e" x="55.615234"/>
       <use xlink:href="#ArialMT-30" x="83.398438"/>
       <use xlink:href="#ArialMT-30" x="139.013672"/>
      </g>
     </g>
    </g>
    <g id="text_13">
     <!-- Average Survival Probability -->
     <g style="fill: #262626" transform="translate(24.67125 401.9925) rotate(-90) scale(0.24 -0.24)">
      <defs>
       <path id="ArialMT-41" d="M -9 0 
L 1750 4581 
L 2403 4581 
L 4278 0 
L 3588 0 
L 3053 1388 
L 1138 1388 
L 634 0 
L -9 0 
z
M 1313 1881 
L 2866 1881 
L 2388 3150 
Q 2169 3728 2063 4100 
Q 1975 3659 1816 3225 
L 1313 1881 
z
" transform="scale(0.015625)"/>
       <path id="ArialMT-76" d="M 1344 0 
L 81 3319 
L 675 3319 
L 1388 1331 
Q 1503 1009 1600 663 
Q 1675 925 1809 1294 
L 2547 3319 
L 3125 3319 
L 1869 0 
L 1344 0 
z
" transform="scale(0.015625)"/>
       <path id="ArialMT-61" d="M 2588 409 
Q 2275 144 1986 34 
Q 1697 -75 1366 -75 
Q 819 -75 525 192 
Q 231 459 231 875 
Q 231 1119 342 1320 
Q 453 1522 633 1644 
Q 813 1766 1038 1828 
Q 1203 1872 1538 1913 
Q 2219 1994 2541 2106 
Q 2544 2222 2544 2253 
Q 2544 2597 2384 2738 
Q 2169 2928 1744 2928 
Q 1347 2928 1158 2789 
Q 969 2650 878 2297 
L 328 2372 
Q 403 2725 575 2942 
Q 747 3159 1072 3276 
Q 1397 3394 1825 3394 
Q 2250 3394 2515 3294 
Q 2781 3194 2906 3042 
Q 3031 2891 3081 2659 
Q 3109 2516 3109 2141 
L 3109 1391 
Q 3109 606 3145 398 
Q 3181 191 3288 0 
L 2700 0 
Q 2613 175 2588 409 
z
M 2541 1666 
Q 2234 1541 1622 1453 
Q 1275 1403 1131 1340 
Q 988 1278 909 1158 
Q 831 1038 831 891 
Q 831 666 1001 516 
Q 1172 366 1500 366 
Q 1825 366 2078 508 
Q 2331 650 2450 897 
Q 2541 1088 2541 1459 
L 2541 1666 
z
" transform="scale(0.015625)"/>
       <path id="ArialMT-50" d="M 494 0 
L 494 4581 
L 2222 4581 
Q 2678 4581 2919 4538 
Q 3256 4481 3484 4323 
Q 3713 4166 3852 3881 
Q 3991 3597 3991 3256 
Q 3991 2672 3619 2267 
Q 3247 1863 2275 1863 
L 1100 1863 
L 1100 0 
L 494 0 
z
M 1100 2403 
L 2284 2403 
Q 2872 2403 3119 2622 
Q 3366 2841 3366 3238 
Q 3366 3525 3220 3729 
Q 3075 3934 2838 4000 
Q 2684 4041 2272 4041 
L 1100 4041 
L 1100 2403 
z
" transform="scale(0.015625)"/>
       <path id="ArialMT-79" d="M 397 -1278 
L 334 -750 
Q 519 -800 656 -800 
Q 844 -800 956 -737 
Q 1069 -675 1141 -563 
Q 1194 -478 1313 -144 
Q 1328 -97 1363 -6 
L 103 3319 
L 709 3319 
L 1400 1397 
Q 1534 1031 1641 628 
Q 1738 1016 1872 1384 
L 2581 3319 
L 3144 3319 
L 1881 -56 
Q 1678 -603 1566 -809 
Q 1416 -1088 1222 -1217 
Q 1028 -1347 759 -1347 
Q 597 -1347 397 -1278 
z
" transform="scale(0.015625)"/>
      </defs>
      <use xlink:href="#ArialMT-41"/>
      <use xlink:href="#ArialMT-76" x="64.949219"/>
      <use xlink:href="#ArialMT-65" x="114.949219"/>
      <use xlink:href="#ArialMT-72" x="170.564453"/>
      <use xlink:href="#ArialMT-61" x="203.865234"/>
      <use xlink:href="#ArialMT-67" x="259.480469"/>
      <use xlink:href="#ArialMT-65" x="315.095703"/>
      <use xlink:href="#ArialMT-20" x="370.710938"/>
      <use xlink:href="#ArialMT-53" x="398.494141"/>
      <use xlink:href="#ArialMT-75" x="465.193359"/>
      <use xlink:href="#ArialMT-72" x="520.808594"/>
      <use xlink:href="#ArialMT-76" x="554.109375"/>
      <use xlink:href="#ArialMT-69" x="604.109375"/>
      <use xlink:href="#ArialMT-76" x="626.326172"/>
      <use xlink:href="#ArialMT-61" x="676.326172"/>
      <use xlink:href="#ArialMT-6c" x="731.941406"/>
      <use xlink:href="#ArialMT-20" x="754.158203"/>
      <use xlink:href="#ArialMT-50" x="781.941406"/>
      <use xlink:href="#ArialMT-72" x="848.640625"/>
      <use xlink:href="#ArialMT-6f" x="881.941406"/>
      <use xlink:href="#ArialMT-62" x="937.556641"/>
      <use xlink:href="#ArialMT-61" x="993.171875"/>
      <use xlink:href="#ArialMT-62" x="1048.787109"/>
      <use xlink:href="#ArialMT-69" x="1104.402344"/>
      <use xlink:href="#ArialMT-6c" x="1126.619141"/>
      <use xlink:href="#ArialMT-69" x="1148.835938"/>
      <use xlink:href="#ArialMT-74" x="1171.052734"/>
      <use xlink:href="#ArialMT-79" x="1198.835938"/>
     </g>
    </g>
   </g>
   <g id="PolyCollection_1"/>
   <g id="PolyCollection_2"/>
   <g id="PolyCollection_3"/>
   <g id="PolyCollection_4"/>
   <g id="PolyCollection_5"/>
   <g id="PolyCollection_6"/>
   <g id="PolyCollection_7"/>
   <g id="PolyCollection_8"/>
   <g id="PolyCollection_9"/>
   <g id="PolyCollection_10"/>
   <g id="PathCollection_1">
    <defs>
     <path id="C0_0_f726e7c6c8" d="M 0 3 
C 0.795609 3 1.55874 2.683901 2.12132 2.12132 
C 2.683901 1.55874 3 0.795609 3 -0 
C 3 -0.795609 2.683901 -1.55874 2.12132 -2.12132 
C 1.55874 -2.683901 0.795609 -3 0 -3 
C -0.795609 -3 -1.55874 -2.683901 -2.12132 -2.12132 
C -2.683901 -1.55874 -3 -0.795609 -3 0 
C -3 0.795609 -2.683901 1.55874 -2.12132 2.12132 
C -1.55874 2.683901 -0.795609 3 0 3 
z
"/>
    </defs>
    <g clip-path="url(#p867207f0de)">
     <use xlink:href="#C0_0_f726e7c6c8" x="121.545653" y="71.093108" style="fill: #1f77b4; stroke: #ffffff; stroke-width: 0.48"/>
    </g>
    <g clip-path="url(#p867207f0de)">
     <use xlink:href="#C0_0_f726e7c6c8" x="165.259825" y="66.042204" style="fill: #1f77b4; stroke: #ffffff; stroke-width: 0.48"/>
    </g>
    <g clip-path="url(#p867207f0de)">
     <use xlink:href="#C0_0_f726e7c6c8" x="209.667872" y="96.347627" style="fill: #1f77b4; stroke: #ffffff; stroke-width: 0.48"/>
    </g>
    <g clip-path="url(#p867207f0de)">
     <use xlink:href="#C0_0_f726e7c6c8" x="831.380534" y="257.97655" style="fill: #1f77b4; stroke: #ffffff; stroke-width: 0.48"/>
    </g>
    <g clip-path="url(#p867207f0de)">
     <use xlink:href="#C0_0_f726e7c6c8" x="121.545653" y="76.144012" style="fill: #ff7f0e; stroke: #ffffff; stroke-width: 0.48"/>
    </g>
    <g clip-path="url(#p867207f0de)">
     <use xlink:href="#C0_0_f726e7c6c8" x="165.259825" y="60.9913" style="fill: #ff7f0e; stroke: #ffffff; stroke-width: 0.48"/>
    </g>
    <g clip-path="url(#p867207f0de)">
     <use xlink:href="#C0_0_f726e7c6c8" x="209.667872" y="101.398531" style="fill: #ff7f0e; stroke: #ffffff; stroke-width: 0.48"/>
    </g>
    <g clip-path="url(#p867207f0de)">
     <use xlink:href="#C0_0_f726e7c6c8" x="831.380534" y="358.994626" style="fill: #ff7f0e; stroke: #ffffff; stroke-width: 0.48"/>
    </g>
    <g clip-path="url(#p867207f0de)">
     <use xlink:href="#C0_0_f726e7c6c8" x="121.545653" y="66.042204" style="fill: #2ca02c; stroke: #ffffff; stroke-width: 0.48"/>
    </g>
    <g clip-path="url(#p867207f0de)">
     <use xlink:href="#C0_0_f726e7c6c8" x="165.259825" y="55.940397" style="fill: #2ca02c; stroke: #ffffff; stroke-width: 0.48"/>
    </g>
    <g clip-path="url(#p867207f0de)">
     <use xlink:href="#C0_0_f726e7c6c8" x="209.667872" y="71.093108" style="fill: #2ca02c; stroke: #ffffff; stroke-width: 0.48"/>
    </g>
    <g clip-path="url(#p867207f0de)">
     <use xlink:href="#C0_0_f726e7c6c8" x="831.380534" y="187.263896" style="fill: #2ca02c; stroke: #ffffff; stroke-width: 0.48"/>
    </g>
    <g clip-path="url(#p867207f0de)">
     <use xlink:href="#C0_0_f726e7c6c8" x="121.545653" y="60.9913" style="fill: #d62728; stroke: #ffffff; stroke-width: 0.48"/>
    </g>
    <g clip-path="url(#p867207f0de)">
     <use xlink:href="#C0_0_f726e7c6c8" x="165.259825" y="60.9913" style="fill: #d62728; stroke: #ffffff; stroke-width: 0.48"/>
    </g>
    <g clip-path="url(#p867207f0de)">
     <use xlink:href="#C0_0_f726e7c6c8" x="209.667872" y="60.9913" style="fill: #d62728; stroke: #ffffff; stroke-width: 0.48"/>
    </g>
    <g clip-path="url(#p867207f0de)">
     <use xlink:href="#C0_0_f726e7c6c8" x="831.380534" y="222.620223" style="fill: #d62728; stroke: #ffffff; stroke-width: 0.48"/>
    </g>
    <g clip-path="url(#p867207f0de)">
     <use xlink:href="#C0_0_f726e7c6c8" x="121.545653" y="60.9913" style="fill: #9467bd; stroke: #ffffff; stroke-width: 0.48"/>
    </g>
    <g clip-path="url(#p867207f0de)">
     <use xlink:href="#C0_0_f726e7c6c8" x="165.259825" y="60.9913" style="fill: #9467bd; stroke: #ffffff; stroke-width: 0.48"/>
    </g>
    <g clip-path="url(#p867207f0de)">
     <use xlink:href="#C0_0_f726e7c6c8" x="209.667872" y="71.093108" style="fill: #9467bd; stroke: #ffffff; stroke-width: 0.48"/>
    </g>
    <g clip-path="url(#p867207f0de)">
     <use xlink:href="#C0_0_f726e7c6c8" x="831.380534" y="177.162088" style="fill: #9467bd; stroke: #ffffff; stroke-width: 0.48"/>
    </g>
    <g clip-path="url(#p867207f0de)">
     <use xlink:href="#C0_0_f726e7c6c8" x="121.545653" y="81.194916" style="fill: #8c564b; stroke: #ffffff; stroke-width: 0.48"/>
    </g>
    <g clip-path="url(#p867207f0de)">
     <use xlink:href="#C0_0_f726e7c6c8" x="165.259825" y="66.042204" style="fill: #8c564b; stroke: #ffffff; stroke-width: 0.48"/>
    </g>
    <g clip-path="url(#p867207f0de)">
     <use xlink:href="#C0_0_f726e7c6c8" x="209.667872" y="91.296723" style="fill: #8c564b; stroke: #ffffff; stroke-width: 0.48"/>
    </g>
    <g clip-path="url(#p867207f0de)">
     <use xlink:href="#C0_0_f726e7c6c8" x="831.380534" y="106.449435" style="fill: #8c564b; stroke: #ffffff; stroke-width: 0.48"/>
    </g>
    <g clip-path="url(#p867207f0de)">
     <use xlink:href="#C0_0_f726e7c6c8" x="121.545653" y="81.194916" style="fill: #e377c2; stroke: #ffffff; stroke-width: 0.48"/>
    </g>
    <g clip-path="url(#p867207f0de)">
     <use xlink:href="#C0_0_f726e7c6c8" x="165.259825" y="81.194916" style="fill: #e377c2; stroke: #ffffff; stroke-width: 0.48"/>
    </g>
    <g clip-path="url(#p867207f0de)">
     <use xlink:href="#C0_0_f726e7c6c8" x="209.667872" y="116.551242" style="fill: #e377c2; stroke: #ffffff; stroke-width: 0.48"/>
    </g>
    <g clip-path="url(#p867207f0de)">
     <use xlink:href="#C0_0_f726e7c6c8" x="831.380534" y="263.027453" style="fill: #e377c2; stroke: #ffffff; stroke-width: 0.48"/>
    </g>
    <g clip-path="url(#p867207f0de)">
     <use xlink:href="#C0_0_f726e7c6c8" x="121.545653" y="60.9913" style="fill: #7f7f7f; stroke: #ffffff; stroke-width: 0.48"/>
    </g>
    <g clip-path="url(#p867207f0de)">
     <use xlink:href="#C0_0_f726e7c6c8" x="165.259825" y="71.093108" style="fill: #7f7f7f; stroke: #ffffff; stroke-width: 0.48"/>
    </g>
    <g clip-path="url(#p867207f0de)">
     <use xlink:href="#C0_0_f726e7c6c8" x="209.667872" y="91.296723" style="fill: #7f7f7f; stroke: #ffffff; stroke-width: 0.48"/>
    </g>
    <g clip-path="url(#p867207f0de)">
     <use xlink:href="#C0_0_f726e7c6c8" x="831.380534" y="187.263896" style="fill: #7f7f7f; stroke: #ffffff; stroke-width: 0.48"/>
    </g>
    <g clip-path="url(#p867207f0de)">
     <use xlink:href="#C0_0_f726e7c6c8" x="121.545653" y="60.9913" style="fill: #bcbd22; stroke: #ffffff; stroke-width: 0.48"/>
    </g>
    <g clip-path="url(#p867207f0de)">
     <use xlink:href="#C0_0_f726e7c6c8" x="165.259825" y="76.144012" style="fill: #bcbd22; stroke: #ffffff; stroke-width: 0.48"/>
    </g>
    <g clip-path="url(#p867207f0de)">
     <use xlink:href="#C0_0_f726e7c6c8" x="209.667872" y="96.347627" style="fill: #bcbd22; stroke: #ffffff; stroke-width: 0.48"/>
    </g>
    <g clip-path="url(#p867207f0de)">
     <use xlink:href="#C0_0_f726e7c6c8" x="831.380534" y="252.925646" style="fill: #bcbd22; stroke: #ffffff; stroke-width: 0.48"/>
    </g>
    <g clip-path="url(#p867207f0de)">
     <use xlink:href="#C0_0_f726e7c6c8" x="121.545653" y="71.093108" style="fill: #17becf; stroke: #ffffff; stroke-width: 0.48"/>
    </g>
    <g clip-path="url(#p867207f0de)">
     <use xlink:href="#C0_0_f726e7c6c8" x="165.259825" y="76.144012" style="fill: #17becf; stroke: #ffffff; stroke-width: 0.48"/>
    </g>
    <g clip-path="url(#p867207f0de)">
     <use xlink:href="#C0_0_f726e7c6c8" x="209.667872" y="116.551242" style="fill: #17becf; stroke: #ffffff; stroke-width: 0.48"/>
    </g>
    <g clip-path="url(#p867207f0de)">
     <use xlink:href="#C0_0_f726e7c6c8" x="831.380534" y="278.180165" style="fill: #17becf; stroke: #ffffff; stroke-width: 0.48"/>
    </g>
   </g>
   <g id="line2d_12">
    <path d="M 121.545653 65.346715 
L 196.975786 86.754488 
L 272.405919 107.933789 
L 349.259262 129.280244 
L 426.112605 150.394607 
L 502.965949 171.2794 
L 579.819292 191.937121 
L 658.095845 212.746526 
L 736.372398 233.325511 
L 814.648951 253.676628 
L 831.727472 258.086838 
L 831.727472 258.086838 
" clip-path="url(#p867207f0de)" style="fill: none; stroke: #1f77b4; stroke-width: 1.5; stroke-linecap: round"/>
   </g>
   <g id="line2d_13">
    <path d="M 121.545653 60.087091 
L 169.934795 81.93856 
L 219.747147 104.184751 
L 269.559499 126.182167 
L 319.371851 147.933588 
L 369.184203 169.441767 
L 418.996555 190.709422 
L 468.808907 211.739245 
L 520.044469 233.124598 
L 571.280031 254.264007 
L 622.515593 275.160303 
L 673.751155 295.816281 
L 724.986717 316.234703 
L 776.222279 336.418304 
L 828.881051 356.920703 
L 831.727472 358.022012 
L 831.727472 358.022012 
" clip-path="url(#p867207f0de)" style="fill: none; stroke: #ff7f0e; stroke-width: 1.5; stroke-linecap: round"/>
   </g>
   <g id="line2d_14">
    <path d="M 121.545653 56.329836 
L 233.979248 77.523714 
L 347.836052 98.758701 
L 461.692857 119.767517 
L 576.972871 140.810977 
L 692.252886 161.627519 
L 807.532901 182.219589 
L 831.727472 186.513109 
L 831.727472 186.513109 
" clip-path="url(#p867207f0de)" style="fill: none; stroke: #2ca02c; stroke-width: 1.5; stroke-linecap: round"/>
   </g>
   <g id="line2d_15">
    <path d="M 121.545653 50.53875 
L 206.938257 71.854011 
L 293.75407 93.294045 
L 380.569884 114.504173 
L 467.385697 135.486859 
L 555.624721 156.582972 
L 643.863744 177.449177 
L 732.102768 198.087981 
L 821.765001 218.829288 
L 831.727472 221.119654 
L 831.727472 221.119654 
" clip-path="url(#p867207f0de)" style="fill: none; stroke: #d62728; stroke-width: 1.5; stroke-linecap: round"/>
   </g>
   <g id="line2d_16">
    <path d="M 121.545653 56.847155 
L 243.941718 78.059275 
L 367.760993 99.290778 
L 491.580268 120.296122 
L 615.399543 141.077717 
L 740.642028 161.872994 
L 831.727472 176.855971 
L 831.727472 176.855971 
" clip-path="url(#p867207f0de)" style="fill: none; stroke: #9467bd; stroke-width: 1.5; stroke-linecap: round"/>
   </g>
   <g id="line2d_17">
    <path d="M 121.545653 77.53552 
L 628.208434 98.531551 
L 831.727472 106.902972 
L 831.727472 106.902972 
" clip-path="url(#p867207f0de)" style="fill: none; stroke: #8c564b; stroke-width: 1.5; stroke-linecap: round"/>
   </g>
   <g id="line2d_18">
    <path d="M 121.545653 80.873703 
L 201.245417 102.311339 
L 280.94518 123.518079 
L 360.644943 144.496409 
L 441.767916 165.617328 
L 522.890889 186.506722 
L 604.013863 207.167127 
L 685.136836 227.601055 
L 767.683019 248.163564 
L 831.727472 263.95911 
L 831.727472 263.95911 
" clip-path="url(#p867207f0de)" style="fill: none; stroke: #e377c2; stroke-width: 1.5; stroke-linecap: round"/>
   </g>
   <g id="line2d_19">
    <path d="M 121.545653 66.351855 
L 241.095298 87.429743 
L 362.068153 108.532999 
L 483.041008 129.411766 
L 605.437073 150.310138 
L 727.833137 170.983599 
L 831.727472 188.357322 
L 831.727472 188.357322 
" clip-path="url(#p867207f0de)" style="fill: none; stroke: #7f7f7f; stroke-width: 1.5; stroke-linecap: round"/>
   </g>
   <g id="line2d_20">
    <path d="M 121.545653 65.381667 
L 198.398996 86.680907 
L 276.67555 108.142107 
L 354.952103 129.371225 
L 433.228656 150.370771 
L 511.505209 171.143226 
L 591.204972 192.062581 
L 670.904735 212.751622 
L 750.604498 233.212887 
L 831.727472 253.808206 
L 831.727472 253.808206 
" clip-path="url(#p867207f0de)" style="fill: none; stroke: #bcbd22; stroke-width: 1.5; stroke-linecap: round"/>
   </g>
   <g id="line2d_21">
    <path d="M 121.545653 74.128713 
L 192.706156 95.742394 
L 263.866659 117.122163 
L 335.027162 138.270551 
L 406.187665 159.190062 
L 478.771378 180.294744 
L 551.35509 201.166479 
L 623.938803 221.807839 
L 696.522516 242.221367 
L 770.529439 262.803189 
L 831.727472 279.647713 
L 831.727472 279.647713 
" clip-path="url(#p867207f0de)" style="fill: none; stroke: #17becf; stroke-width: 1.5; stroke-linecap: round"/>
   </g>
   <g id="line2d_22"/>
   <g id="line2d_23"/>
   <g id="line2d_24"/>
   <g id="line2d_25"/>
   <g id="line2d_26"/>
   <g id="line2d_27"/>
   <g id="line2d_28"/>
   <g id="line2d_29"/>
   <g id="line2d_30"/>
   <g id="line2d_31"/>
   <g id="LineCollection_1">
    <path d="M 121.545653 81.892395 
L 121.545653 60.293821 
" clip-path="url(#p867207f0de)" style="fill: none; stroke: #1f77b4"/>
    <path d="M 165.259825 73.43597 
L 165.259825 58.648438 
" clip-path="url(#p867207f0de)" style="fill: none; stroke: #1f77b4"/>
    <path d="M 209.667872 115.722492 
L 209.667872 76.972762 
" clip-path="url(#p867207f0de)" style="fill: none; stroke: #1f77b4"/>
    <path d="M 831.380534 294.148115 
L 831.380534 221.804984 
" clip-path="url(#p867207f0de)" style="fill: none; stroke: #1f77b4"/>
   </g>
   <g id="line2d_32">
    <defs>
     <path id="mb816f224cb" d="M 3 0 
L -3 -0 
" style="stroke: #1f77b4"/>
    </defs>
    <g clip-path="url(#p867207f0de)">
     <use xlink:href="#mb816f224cb" x="121.545653" y="81.892395" style="fill: #1f77b4; stroke: #1f77b4"/>
     <use xlink:href="#mb816f224cb" x="165.259825" y="73.43597" style="fill: #1f77b4; stroke: #1f77b4"/>
     <use xlink:href="#mb816f224cb" x="209.667872" y="115.722492" style="fill: #1f77b4; stroke: #1f77b4"/>
     <use xlink:href="#mb816f224cb" x="831.380534" y="294.148115" style="fill: #1f77b4; stroke: #1f77b4"/>
    </g>
   </g>
   <g id="line2d_33">
    <g clip-path="url(#p867207f0de)">
     <use xlink:href="#mb816f224cb" x="121.545653" y="60.293821" style="fill: #1f77b4; stroke: #1f77b4"/>
     <use xlink:href="#mb816f224cb" x="165.259825" y="58.648438" style="fill: #1f77b4; stroke: #1f77b4"/>
     <use xlink:href="#mb816f224cb" x="209.667872" y="76.972762" style="fill: #1f77b4; stroke: #1f77b4"/>
     <use xlink:href="#mb816f224cb" x="831.380534" y="221.804984" style="fill: #1f77b4; stroke: #1f77b4"/>
    </g>
   </g>
   <g id="LineCollection_2">
    <path d="M 121.545653 83.537778 
L 121.545653 68.750246 
" clip-path="url(#p867207f0de)" style="fill: none; stroke: #ff7f0e"/>
    <path d="M 165.259825 67.604486 
L 165.259825 54.378115 
" clip-path="url(#p867207f0de)" style="fill: none; stroke: #ff7f0e"/>
    <path d="M 209.667872 116.186063 
L 209.667872 86.610999 
" clip-path="url(#p867207f0de)" style="fill: none; stroke: #ff7f0e"/>
    <path d="M 831.380534 453.73875 
L 831.380534 264.250502 
" clip-path="url(#p867207f0de)" style="fill: none; stroke: #ff7f0e"/>
   </g>
   <g id="line2d_34">
    <defs>
     <path id="m95639fa4f1" d="M 3 0 
L -3 -0 
" style="stroke: #ff7f0e"/>
    </defs>
    <g clip-path="url(#p867207f0de)">
     <use xlink:href="#m95639fa4f1" x="121.545653" y="83.537778" style="fill: #ff7f0e; stroke: #ff7f0e"/>
     <use xlink:href="#m95639fa4f1" x="165.259825" y="67.604486" style="fill: #ff7f0e; stroke: #ff7f0e"/>
     <use xlink:href="#m95639fa4f1" x="209.667872" y="116.186063" style="fill: #ff7f0e; stroke: #ff7f0e"/>
     <use xlink:href="#m95639fa4f1" x="831.380534" y="453.73875" style="fill: #ff7f0e; stroke: #ff7f0e"/>
    </g>
   </g>
   <g id="line2d_35">
    <g clip-path="url(#p867207f0de)">
     <use xlink:href="#m95639fa4f1" x="121.545653" y="68.750246" style="fill: #ff7f0e; stroke: #ff7f0e"/>
     <use xlink:href="#m95639fa4f1" x="165.259825" y="54.378115" style="fill: #ff7f0e; stroke: #ff7f0e"/>
     <use xlink:href="#m95639fa4f1" x="209.667872" y="86.610999" style="fill: #ff7f0e; stroke: #ff7f0e"/>
     <use xlink:href="#m95639fa4f1" x="831.380534" y="264.250502" style="fill: #ff7f0e; stroke: #ff7f0e"/>
    </g>
   </g>
   <g id="LineCollection_3">
    <path d="M 121.545653 76.671413 
L 121.545653 55.412996 
" clip-path="url(#p867207f0de)" style="fill: none; stroke: #2ca02c"/>
    <path d="M 165.259825 60.9913 
L 165.259825 50.889493 
" clip-path="url(#p867207f0de)" style="fill: none; stroke: #2ca02c"/>
    <path d="M 209.667872 81.892395 
L 209.667872 60.293821 
" clip-path="url(#p867207f0de)" style="fill: none; stroke: #2ca02c"/>
    <path d="M 831.380534 208.777934 
L 831.380534 165.749858 
" clip-path="url(#p867207f0de)" style="fill: none; stroke: #2ca02c"/>
   </g>
   <g id="line2d_36">
    <defs>
     <path id="mcdccbf1e7d" d="M 3 0 
L -3 -0 
" style="stroke: #2ca02c"/>
    </defs>
    <g clip-path="url(#p867207f0de)">
     <use xlink:href="#mcdccbf1e7d" x="121.545653" y="76.671413" style="fill: #2ca02c; stroke: #2ca02c"/>
     <use xlink:href="#mcdccbf1e7d" x="165.259825" y="60.9913" style="fill: #2ca02c; stroke: #2ca02c"/>
     <use xlink:href="#mcdccbf1e7d" x="209.667872" y="81.892395" style="fill: #2ca02c; stroke: #2ca02c"/>
     <use xlink:href="#mcdccbf1e7d" x="831.380534" y="208.777934" style="fill: #2ca02c; stroke: #2ca02c"/>
    </g>
   </g>
   <g id="line2d_37">
    <g clip-path="url(#p867207f0de)">
     <use xlink:href="#mcdccbf1e7d" x="121.545653" y="55.412996" style="fill: #2ca02c; stroke: #2ca02c"/>
     <use xlink:href="#mcdccbf1e7d" x="165.259825" y="50.889493" style="fill: #2ca02c; stroke: #2ca02c"/>
     <use xlink:href="#mcdccbf1e7d" x="209.667872" y="60.293821" style="fill: #2ca02c; stroke: #2ca02c"/>
     <use xlink:href="#mcdccbf1e7d" x="831.380534" y="165.749858" style="fill: #2ca02c; stroke: #2ca02c"/>
    </g>
   </g>
   <g id="LineCollection_4">
    <path d="M 121.545653 67.604486 
L 121.545653 54.378115 
" clip-path="url(#p867207f0de)" style="fill: none; stroke: #d62728"/>
    <path d="M 165.259825 67.604486 
L 165.259825 54.378115 
" clip-path="url(#p867207f0de)" style="fill: none; stroke: #d62728"/>
    <path d="M 209.667872 67.604486 
L 209.667872 54.378115 
" clip-path="url(#p867207f0de)" style="fill: none; stroke: #d62728"/>
    <path d="M 831.380534 246.464402 
L 831.380534 198.776043 
" clip-path="url(#p867207f0de)" style="fill: none; stroke: #d62728"/>
   </g>
   <g id="line2d_38">
    <defs>
     <path id="m38ed367f3a" d="M 3 0 
L -3 -0 
" style="stroke: #d62728"/>
    </defs>
    <g clip-path="url(#p867207f0de)">
     <use xlink:href="#m38ed367f3a" x="121.545653" y="67.604486" style="fill: #d62728; stroke: #d62728"/>
     <use xlink:href="#m38ed367f3a" x="165.259825" y="67.604486" style="fill: #d62728; stroke: #d62728"/>
     <use xlink:href="#m38ed367f3a" x="209.667872" y="67.604486" style="fill: #d62728; stroke: #d62728"/>
     <use xlink:href="#m38ed367f3a" x="831.380534" y="246.464402" style="fill: #d62728; stroke: #d62728"/>
    </g>
   </g>
   <g id="line2d_39">
    <g clip-path="url(#p867207f0de)">
     <use xlink:href="#m38ed367f3a" x="121.545653" y="54.378115" style="fill: #d62728; stroke: #d62728"/>
     <use xlink:href="#m38ed367f3a" x="165.259825" y="54.378115" style="fill: #d62728; stroke: #d62728"/>
     <use xlink:href="#m38ed367f3a" x="209.667872" y="54.378115" style="fill: #d62728; stroke: #d62728"/>
     <use xlink:href="#m38ed367f3a" x="831.380534" y="198.776043" style="fill: #d62728; stroke: #d62728"/>
    </g>
   </g>
   <g id="LineCollection_5">
    <path d="M 121.545653 67.604486 
L 121.545653 54.378115 
" clip-path="url(#p867207f0de)" style="fill: none; stroke: #9467bd"/>
    <path d="M 165.259825 67.604486 
L 165.259825 54.378115 
" clip-path="url(#p867207f0de)" style="fill: none; stroke: #9467bd"/>
    <path d="M 209.667872 78.729357 
L 209.667872 63.456859 
" clip-path="url(#p867207f0de)" style="fill: none; stroke: #9467bd"/>
    <path d="M 831.380534 196.536954 
L 831.380534 157.787223 
" clip-path="url(#p867207f0de)" style="fill: none; stroke: #9467bd"/>
   </g>
   <g id="line2d_40">
    <defs>
     <path id="m86c5f7b46e" d="M 3 0 
L -3 -0 
" style="stroke: #9467bd"/>
    </defs>
    <g clip-path="url(#p867207f0de)">
     <use xlink:href="#m86c5f7b46e" x="121.545653" y="67.604486" style="fill: #9467bd; stroke: #9467bd"/>
     <use xlink:href="#m86c5f7b46e" x="165.259825" y="67.604486" style="fill: #9467bd; stroke: #9467bd"/>
     <use xlink:href="#m86c5f7b46e" x="209.667872" y="78.729357" style="fill: #9467bd; stroke: #9467bd"/>
     <use xlink:href="#m86c5f7b46e" x="831.380534" y="196.536954" style="fill: #9467bd; stroke: #9467bd"/>
    </g>
   </g>
   <g id="line2d_41">
    <g clip-path="url(#p867207f0de)">
     <use xlink:href="#m86c5f7b46e" x="121.545653" y="54.378115" style="fill: #9467bd; stroke: #9467bd"/>
     <use xlink:href="#m86c5f7b46e" x="165.259825" y="54.378115" style="fill: #9467bd; stroke: #9467bd"/>
     <use xlink:href="#m86c5f7b46e" x="209.667872" y="63.456859" style="fill: #9467bd; stroke: #9467bd"/>
     <use xlink:href="#m86c5f7b46e" x="831.380534" y="157.787223" style="fill: #9467bd; stroke: #9467bd"/>
    </g>
   </g>
   <g id="LineCollection_6">
    <path d="M 121.545653 97.837734 
L 121.545653 64.552097 
" clip-path="url(#p867207f0de)" style="fill: none; stroke: #8c564b"/>
    <path d="M 165.259825 73.43597 
L 165.259825 58.648438 
" clip-path="url(#p867207f0de)" style="fill: none; stroke: #8c564b"/>
    <path d="M 209.667872 104.523094 
L 209.667872 78.070352 
" clip-path="url(#p867207f0de)" style="fill: none; stroke: #8c564b"/>
    <path d="M 831.380534 121.602146 
L 831.380534 91.296723 
" clip-path="url(#p867207f0de)" style="fill: none; stroke: #8c564b"/>
   </g>
   <g id="line2d_42">
    <defs>
     <path id="md33f14075a" d="M 3 0 
L -3 -0 
" style="stroke: #8c564b"/>
    </defs>
    <g clip-path="url(#p867207f0de)">
     <use xlink:href="#md33f14075a" x="121.545653" y="97.837734" style="fill: #8c564b; stroke: #8c564b"/>
     <use xlink:href="#md33f14075a" x="165.259825" y="73.43597" style="fill: #8c564b; stroke: #8c564b"/>
     <use xlink:href="#md33f14075a" x="209.667872" y="104.523094" style="fill: #8c564b; stroke: #8c564b"/>
     <use xlink:href="#md33f14075a" x="831.380534" y="121.602146" style="fill: #8c564b; stroke: #8c564b"/>
    </g>
   </g>
   <g id="line2d_43">
    <g clip-path="url(#p867207f0de)">
     <use xlink:href="#md33f14075a" x="121.545653" y="64.552097" style="fill: #8c564b; stroke: #8c564b"/>
     <use xlink:href="#md33f14075a" x="165.259825" y="58.648438" style="fill: #8c564b; stroke: #8c564b"/>
     <use xlink:href="#md33f14075a" x="209.667872" y="78.070352" style="fill: #8c564b; stroke: #8c564b"/>
     <use xlink:href="#md33f14075a" x="831.380534" y="91.296723" style="fill: #8c564b; stroke: #8c564b"/>
    </g>
   </g>
   <g id="LineCollection_7">
    <path d="M 121.545653 93.858202 
L 121.545653 68.53163 
" clip-path="url(#p867207f0de)" style="fill: none; stroke: #e377c2"/>
    <path d="M 165.259825 97.837734 
L 165.259825 64.552097 
" clip-path="url(#p867207f0de)" style="fill: none; stroke: #e377c2"/>
    <path d="M 209.667872 136.664461 
L 209.667872 96.438024 
" clip-path="url(#p867207f0de)" style="fill: none; stroke: #e377c2"/>
    <path d="M 831.380534 363.684104 
L 831.380534 162.370802 
" clip-path="url(#p867207f0de)" style="fill: none; stroke: #e377c2"/>
   </g>
   <g id="line2d_44">
    <defs>
     <path id="maf5be66f1f" d="M 3 0 
L -3 -0 
" style="stroke: #e377c2"/>
    </defs>
    <g clip-path="url(#p867207f0de)">
     <use xlink:href="#maf5be66f1f" x="121.545653" y="93.858202" style="fill: #e377c2; stroke: #e377c2"/>
     <use xlink:href="#maf5be66f1f" x="165.259825" y="97.837734" style="fill: #e377c2; stroke: #e377c2"/>
     <use xlink:href="#maf5be66f1f" x="209.667872" y="136.664461" style="fill: #e377c2; stroke: #e377c2"/>
     <use xlink:href="#maf5be66f1f" x="831.380534" y="363.684104" style="fill: #e377c2; stroke: #e377c2"/>
    </g>
   </g>
   <g id="line2d_45">
    <g clip-path="url(#p867207f0de)">
     <use xlink:href="#maf5be66f1f" x="121.545653" y="68.53163" style="fill: #e377c2; stroke: #e377c2"/>
     <use xlink:href="#maf5be66f1f" x="165.259825" y="64.552097" style="fill: #e377c2; stroke: #e377c2"/>
     <use xlink:href="#maf5be66f1f" x="209.667872" y="96.438024" style="fill: #e377c2; stroke: #e377c2"/>
     <use xlink:href="#maf5be66f1f" x="831.380534" y="162.370802" style="fill: #e377c2; stroke: #e377c2"/>
    </g>
   </g>
   <g id="LineCollection_8">
    <path d="M 121.545653 71.093108 
L 121.545653 50.889493 
" clip-path="url(#p867207f0de)" style="fill: none; stroke: #7f7f7f"/>
    <path d="M 165.259825 91.296723 
L 165.259825 50.889493 
" clip-path="url(#p867207f0de)" style="fill: none; stroke: #7f7f7f"/>
    <path d="M 209.667872 108.371895 
L 209.667872 74.221552 
" clip-path="url(#p867207f0de)" style="fill: none; stroke: #7f7f7f"/>
    <path d="M 831.380534 216.777281 
L 831.380534 157.750511 
" clip-path="url(#p867207f0de)" style="fill: none; stroke: #7f7f7f"/>
   </g>
   <g id="line2d_46">
    <defs>
     <path id="mea66e67554" d="M 3 0 
L -3 -0 
" style="stroke: #7f7f7f"/>
    </defs>
    <g clip-path="url(#p867207f0de)">
     <use xlink:href="#mea66e67554" x="121.545653" y="71.093108" style="fill: #7f7f7f; stroke: #7f7f7f"/>
     <use xlink:href="#mea66e67554" x="165.259825" y="91.296723" style="fill: #7f7f7f; stroke: #7f7f7f"/>
     <use xlink:href="#mea66e67554" x="209.667872" y="108.371895" style="fill: #7f7f7f; stroke: #7f7f7f"/>
     <use xlink:href="#mea66e67554" x="831.380534" y="216.777281" style="fill: #7f7f7f; stroke: #7f7f7f"/>
    </g>
   </g>
   <g id="line2d_47">
    <g clip-path="url(#p867207f0de)">
     <use xlink:href="#mea66e67554" x="121.545653" y="50.889493" style="fill: #7f7f7f; stroke: #7f7f7f"/>
     <use xlink:href="#mea66e67554" x="165.259825" y="50.889493" style="fill: #7f7f7f; stroke: #7f7f7f"/>
     <use xlink:href="#mea66e67554" x="209.667872" y="74.221552" style="fill: #7f7f7f; stroke: #7f7f7f"/>
     <use xlink:href="#mea66e67554" x="831.380534" y="157.750511" style="fill: #7f7f7f; stroke: #7f7f7f"/>
    </g>
   </g>
   <g id="LineCollection_9">
    <path d="M 121.545653 67.604486 
L 121.545653 54.378115 
" clip-path="url(#p867207f0de)" style="fill: none; stroke: #bcbd22"/>
    <path d="M 165.259825 86.77322 
L 165.259825 65.514803 
" clip-path="url(#p867207f0de)" style="fill: none; stroke: #bcbd22"/>
    <path d="M 209.667872 112.433671 
L 209.667872 80.261583 
" clip-path="url(#p867207f0de)" style="fill: none; stroke: #bcbd22"/>
    <path d="M 831.380534 287.919334 
L 831.380534 217.931958 
" clip-path="url(#p867207f0de)" style="fill: none; stroke: #bcbd22"/>
   </g>
   <g id="line2d_48">
    <defs>
     <path id="mbd443e245a" d="M 3 0 
L -3 -0 
" style="stroke: #bcbd22"/>
    </defs>
    <g clip-path="url(#p867207f0de)">
     <use xlink:href="#mbd443e245a" x="121.545653" y="67.604486" style="fill: #bcbd22; stroke: #bcbd22"/>
     <use xlink:href="#mbd443e245a" x="165.259825" y="86.77322" style="fill: #bcbd22; stroke: #bcbd22"/>
     <use xlink:href="#mbd443e245a" x="209.667872" y="112.433671" style="fill: #bcbd22; stroke: #bcbd22"/>
     <use xlink:href="#mbd443e245a" x="831.380534" y="287.919334" style="fill: #bcbd22; stroke: #bcbd22"/>
    </g>
   </g>
   <g id="line2d_49">
    <g clip-path="url(#p867207f0de)">
     <use xlink:href="#mbd443e245a" x="121.545653" y="54.378115" style="fill: #bcbd22; stroke: #bcbd22"/>
     <use xlink:href="#mbd443e245a" x="165.259825" y="65.514803" style="fill: #bcbd22; stroke: #bcbd22"/>
     <use xlink:href="#mbd443e245a" x="209.667872" y="80.261583" style="fill: #bcbd22; stroke: #bcbd22"/>
     <use xlink:href="#mbd443e245a" x="831.380534" y="217.931958" style="fill: #bcbd22; stroke: #bcbd22"/>
    </g>
   </g>
   <g id="LineCollection_10">
    <path d="M 121.545653 81.892395 
L 121.545653 60.293821 
" clip-path="url(#p867207f0de)" style="fill: none; stroke: #17becf"/>
    <path d="M 165.259825 86.77322 
L 165.259825 65.514803 
" clip-path="url(#p867207f0de)" style="fill: none; stroke: #17becf"/>
    <path d="M 209.667872 142.935007 
L 209.667872 90.167478 
" clip-path="url(#p867207f0de)" style="fill: none; stroke: #17becf"/>
    <path d="M 831.380534 308.665443 
L 831.380534 247.694886 
" clip-path="url(#p867207f0de)" style="fill: none; stroke: #17becf"/>
   </g>
   <g id="line2d_50">
    <defs>
     <path id="m921685f6de" d="M 3 0 
L -3 -0 
" style="stroke: #17becf"/>
    </defs>
    <g clip-path="url(#p867207f0de)">
     <use xlink:href="#m921685f6de" x="121.545653" y="81.892395" style="fill: #17becf; stroke: #17becf"/>
     <use xlink:href="#m921685f6de" x="165.259825" y="86.77322" style="fill: #17becf; stroke: #17becf"/>
     <use xlink:href="#m921685f6de" x="209.667872" y="142.935007" style="fill: #17becf; stroke: #17becf"/>
     <use xlink:href="#m921685f6de" x="831.380534" y="308.665443" style="fill: #17becf; stroke: #17becf"/>
    </g>
   </g>
   <g id="line2d_51">
    <g clip-path="url(#p867207f0de)">
     <use xlink:href="#m921685f6de" x="121.545653" y="60.293821" style="fill: #17becf; stroke: #17becf"/>
     <use xlink:href="#m921685f6de" x="165.259825" y="65.514803" style="fill: #17becf; stroke: #17becf"/>
     <use xlink:href="#m921685f6de" x="209.667872" y="90.167478" style="fill: #17becf; stroke: #17becf"/>
     <use xlink:href="#m921685f6de" x="831.380534" y="247.694886" style="fill: #17becf; stroke: #17becf"/>
    </g>
   </g>
   <g id="line2d_52">
    <defs>
     <path id="m7244092e9c" d="M 0 3 
C 0.795609 3 1.55874 2.683901 2.12132 2.12132 
C 2.683901 1.55874 3 0.795609 3 0 
C 3 -0.795609 2.683901 -1.55874 2.12132 -2.12132 
C 1.55874 -2.683901 0.795609 -3 0 -3 
C -0.795609 -3 -1.55874 -2.683901 -2.12132 -2.12132 
C -2.683901 -1.55874 -3 -0.795609 -3 0 
C -3 0.795609 -2.683901 1.55874 -2.12132 2.12132 
C -1.55874 2.683901 -0.795609 3 0 3 
z
" style="stroke: #1f77b4"/>
    </defs>
    <g clip-path="url(#p867207f0de)">
     <use xlink:href="#m7244092e9c" x="121.545653" y="71.093108" style="fill: #1f77b4; stroke: #1f77b4"/>
     <use xlink:href="#m7244092e9c" x="165.259825" y="66.042204" style="fill: #1f77b4; stroke: #1f77b4"/>
     <use xlink:href="#m7244092e9c" x="209.667872" y="96.347627" style="fill: #1f77b4; stroke: #1f77b4"/>
     <use xlink:href="#m7244092e9c" x="831.380534" y="257.97655" style="fill: #1f77b4; stroke: #1f77b4"/>
    </g>
   </g>
   <g id="line2d_53">
    <defs>
     <path id="maf15b4e1c8" d="M 0 3 
C 0.795609 3 1.55874 2.683901 2.12132 2.12132 
C 2.683901 1.55874 3 0.795609 3 0 
C 3 -0.795609 2.683901 -1.55874 2.12132 -2.12132 
C 1.55874 -2.683901 0.795609 -3 0 -3 
C -0.795609 -3 -1.55874 -2.683901 -2.12132 -2.12132 
C -2.683901 -1.55874 -3 -0.795609 -3 0 
C -3 0.795609 -2.683901 1.55874 -2.12132 2.12132 
C -1.55874 2.683901 -0.795609 3 0 3 
z
" style="stroke: #ff7f0e"/>
    </defs>
    <g clip-path="url(#p867207f0de)">
     <use xlink:href="#maf15b4e1c8" x="121.545653" y="76.144012" style="fill: #ff7f0e; stroke: #ff7f0e"/>
     <use xlink:href="#maf15b4e1c8" x="165.259825" y="60.9913" style="fill: #ff7f0e; stroke: #ff7f0e"/>
     <use xlink:href="#maf15b4e1c8" x="209.667872" y="101.398531" style="fill: #ff7f0e; stroke: #ff7f0e"/>
     <use xlink:href="#maf15b4e1c8" x="831.380534" y="358.994626" style="fill: #ff7f0e; stroke: #ff7f0e"/>
    </g>
   </g>
   <g id="line2d_54">
    <defs>
     <path id="m95fd2b0485" d="M 0 3 
C 0.795609 3 1.55874 2.683901 2.12132 2.12132 
C 2.683901 1.55874 3 0.795609 3 0 
C 3 -0.795609 2.683901 -1.55874 2.12132 -2.12132 
C 1.55874 -2.683901 0.795609 -3 0 -3 
C -0.795609 -3 -1.55874 -2.683901 -2.12132 -2.12132 
C -2.683901 -1.55874 -3 -0.795609 -3 0 
C -3 0.795609 -2.683901 1.55874 -2.12132 2.12132 
C -1.55874 2.683901 -0.795609 3 0 3 
z
" style="stroke: #2ca02c"/>
    </defs>
    <g clip-path="url(#p867207f0de)">
     <use xlink:href="#m95fd2b0485" x="121.545653" y="66.042204" style="fill: #2ca02c; stroke: #2ca02c"/>
     <use xlink:href="#m95fd2b0485" x="165.259825" y="55.940397" style="fill: #2ca02c; stroke: #2ca02c"/>
     <use xlink:href="#m95fd2b0485" x="209.667872" y="71.093108" style="fill: #2ca02c; stroke: #2ca02c"/>
     <use xlink:href="#m95fd2b0485" x="831.380534" y="187.263896" style="fill: #2ca02c; stroke: #2ca02c"/>
    </g>
   </g>
   <g id="line2d_55">
    <defs>
     <path id="maa983ae4c7" d="M 0 3 
C 0.795609 3 1.55874 2.683901 2.12132 2.12132 
C 2.683901 1.55874 3 0.795609 3 0 
C 3 -0.795609 2.683901 -1.55874 2.12132 -2.12132 
C 1.55874 -2.683901 0.795609 -3 0 -3 
C -0.795609 -3 -1.55874 -2.683901 -2.12132 -2.12132 
C -2.683901 -1.55874 -3 -0.795609 -3 0 
C -3 0.795609 -2.683901 1.55874 -2.12132 2.12132 
C -1.55874 2.683901 -0.795609 3 0 3 
z
" style="stroke: #d62728"/>
    </defs>
    <g clip-path="url(#p867207f0de)">
     <use xlink:href="#maa983ae4c7" x="121.545653" y="60.9913" style="fill: #d62728; stroke: #d62728"/>
     <use xlink:href="#maa983ae4c7" x="165.259825" y="60.9913" style="fill: #d62728; stroke: #d62728"/>
     <use xlink:href="#maa983ae4c7" x="209.667872" y="60.9913" style="fill: #d62728; stroke: #d62728"/>
     <use xlink:href="#maa983ae4c7" x="831.380534" y="222.620223" style="fill: #d62728; stroke: #d62728"/>
    </g>
   </g>
   <g id="line2d_56">
    <defs>
     <path id="mb2a079e785" d="M 0 3 
C 0.795609 3 1.55874 2.683901 2.12132 2.12132 
C 2.683901 1.55874 3 0.795609 3 0 
C 3 -0.795609 2.683901 -1.55874 2.12132 -2.12132 
C 1.55874 -2.683901 0.795609 -3 0 -3 
C -0.795609 -3 -1.55874 -2.683901 -2.12132 -2.12132 
C -2.683901 -1.55874 -3 -0.795609 -3 0 
C -3 0.795609 -2.683901 1.55874 -2.12132 2.12132 
C -1.55874 2.683901 -0.795609 3 0 3 
z
" style="stroke: #9467bd"/>
    </defs>
    <g clip-path="url(#p867207f0de)">
     <use xlink:href="#mb2a079e785" x="121.545653" y="60.9913" style="fill: #9467bd; stroke: #9467bd"/>
     <use xlink:href="#mb2a079e785" x="165.259825" y="60.9913" style="fill: #9467bd; stroke: #9467bd"/>
     <use xlink:href="#mb2a079e785" x="209.667872" y="71.093108" style="fill: #9467bd; stroke: #9467bd"/>
     <use xlink:href="#mb2a079e785" x="831.380534" y="177.162088" style="fill: #9467bd; stroke: #9467bd"/>
    </g>
   </g>
   <g id="line2d_57">
    <defs>
     <path id="me4b8b32b7a" d="M 0 3 
C 0.795609 3 1.55874 2.683901 2.12132 2.12132 
C 2.683901 1.55874 3 0.795609 3 0 
C 3 -0.795609 2.683901 -1.55874 2.12132 -2.12132 
C 1.55874 -2.683901 0.795609 -3 0 -3 
C -0.795609 -3 -1.55874 -2.683901 -2.12132 -2.12132 
C -2.683901 -1.55874 -3 -0.795609 -3 0 
C -3 0.795609 -2.683901 1.55874 -2.12132 2.12132 
C -1.55874 2.683901 -0.795609 3 0 3 
z
" style="stroke: #8c564b"/>
    </defs>
    <g clip-path="url(#p867207f0de)">
     <use xlink:href="#me4b8b32b7a" x="121.545653" y="81.194916" style="fill: #8c564b; stroke: #8c564b"/>
     <use xlink:href="#me4b8b32b7a" x="165.259825" y="66.042204" style="fill: #8c564b; stroke: #8c564b"/>
     <use xlink:href="#me4b8b32b7a" x="209.667872" y="91.296723" style="fill: #8c564b; stroke: #8c564b"/>
     <use xlink:href="#me4b8b32b7a" x="831.380534" y="106.449435" style="fill: #8c564b; stroke: #8c564b"/>
    </g>
   </g>
   <g id="line2d_58">
    <defs>
     <path id="maf82823cdb" d="M 0 3 
C 0.795609 3 1.55874 2.683901 2.12132 2.12132 
C 2.683901 1.55874 3 0.795609 3 0 
C 3 -0.795609 2.683901 -1.55874 2.12132 -2.12132 
C 1.55874 -2.683901 0.795609 -3 0 -3 
C -0.795609 -3 -1.55874 -2.683901 -2.12132 -2.12132 
C -2.683901 -1.55874 -3 -0.795609 -3 0 
C -3 0.795609 -2.683901 1.55874 -2.12132 2.12132 
C -1.55874 2.683901 -0.795609 3 0 3 
z
" style="stroke: #e377c2"/>
    </defs>
    <g clip-path="url(#p867207f0de)">
     <use xlink:href="#maf82823cdb" x="121.545653" y="81.194916" style="fill: #e377c2; stroke: #e377c2"/>
     <use xlink:href="#maf82823cdb" x="165.259825" y="81.194916" style="fill: #e377c2; stroke: #e377c2"/>
     <use xlink:href="#maf82823cdb" x="209.667872" y="116.551242" style="fill: #e377c2; stroke: #e377c2"/>
     <use xlink:href="#maf82823cdb" x="831.380534" y="263.027453" style="fill: #e377c2; stroke: #e377c2"/>
    </g>
   </g>
   <g id="line2d_59">
    <defs>
     <path id="mc5b3dacdd4" d="M 0 3 
C 0.795609 3 1.55874 2.683901 2.12132 2.12132 
C 2.683901 1.55874 3 0.795609 3 0 
C 3 -0.795609 2.683901 -1.55874 2.12132 -2.12132 
C 1.55874 -2.683901 0.795609 -3 0 -3 
C -0.795609 -3 -1.55874 -2.683901 -2.12132 -2.12132 
C -2.683901 -1.55874 -3 -0.795609 -3 0 
C -3 0.795609 -2.683901 1.55874 -2.12132 2.12132 
C -1.55874 2.683901 -0.795609 3 0 3 
z
" style="stroke: #7f7f7f"/>
    </defs>
    <g clip-path="url(#p867207f0de)">
     <use xlink:href="#mc5b3dacdd4" x="121.545653" y="60.9913" style="fill: #7f7f7f; stroke: #7f7f7f"/>
     <use xlink:href="#mc5b3dacdd4" x="165.259825" y="71.093108" style="fill: #7f7f7f; stroke: #7f7f7f"/>
     <use xlink:href="#mc5b3dacdd4" x="209.667872" y="91.296723" style="fill: #7f7f7f; stroke: #7f7f7f"/>
     <use xlink:href="#mc5b3dacdd4" x="831.380534" y="187.263896" style="fill: #7f7f7f; stroke: #7f7f7f"/>
    </g>
   </g>
   <g id="line2d_60">
    <defs>
     <path id="mf0909cdc42" d="M 0 3 
C 0.795609 3 1.55874 2.683901 2.12132 2.12132 
C 2.683901 1.55874 3 0.795609 3 0 
C 3 -0.795609 2.683901 -1.55874 2.12132 -2.12132 
C 1.55874 -2.683901 0.795609 -3 0 -3 
C -0.795609 -3 -1.55874 -2.683901 -2.12132 -2.12132 
C -2.683901 -1.55874 -3 -0.795609 -3 0 
C -3 0.795609 -2.683901 1.55874 -2.12132 2.12132 
C -1.55874 2.683901 -0.795609 3 0 3 
z
" style="stroke: #bcbd22"/>
    </defs>
    <g clip-path="url(#p867207f0de)">
     <use xlink:href="#mf0909cdc42" x="121.545653" y="60.9913" style="fill: #bcbd22; stroke: #bcbd22"/>
     <use xlink:href="#mf0909cdc42" x="165.259825" y="76.144012" style="fill: #bcbd22; stroke: #bcbd22"/>
     <use xlink:href="#mf0909cdc42" x="209.667872" y="96.347627" style="fill: #bcbd22; stroke: #bcbd22"/>
     <use xlink:href="#mf0909cdc42" x="831.380534" y="252.925646" style="fill: #bcbd22; stroke: #bcbd22"/>
    </g>
   </g>
   <g id="line2d_61">
    <defs>
     <path id="m5a4d4d361e" d="M 0 3 
C 0.795609 3 1.55874 2.683901 2.12132 2.12132 
C 2.683901 1.55874 3 0.795609 3 0 
C 3 -0.795609 2.683901 -1.55874 2.12132 -2.12132 
C 1.55874 -2.683901 0.795609 -3 0 -3 
C -0.795609 -3 -1.55874 -2.683901 -2.12132 -2.12132 
C -2.683901 -1.55874 -3 -0.795609 -3 0 
C -3 0.795609 -2.683901 1.55874 -2.12132 2.12132 
C -1.55874 2.683901 -0.795609 3 0 3 
z
" style="stroke: #17becf"/>
    </defs>
    <g clip-path="url(#p867207f0de)">
     <use xlink:href="#m5a4d4d361e" x="121.545653" y="71.093108" style="fill: #17becf; stroke: #17becf"/>
     <use xlink:href="#m5a4d4d361e" x="165.259825" y="76.144012" style="fill: #17becf; stroke: #17becf"/>
     <use xlink:href="#m5a4d4d361e" x="209.667872" y="116.551242" style="fill: #17becf; stroke: #17becf"/>
     <use xlink:href="#m5a4d4d361e" x="831.380534" y="278.180165" style="fill: #17becf; stroke: #17becf"/>
    </g>
   </g>
   <g id="patch_3">
    <path d="M 86.036563 473.89875 
L 86.036563 30.37875 
" style="fill: none; stroke: #cccccc; stroke-width: 4; stroke-linejoin: miter; stroke-linecap: square"/>
   </g>
   <g id="patch_4">
    <path d="M 86.036563 473.89875 
L 867.236563 473.89875 
" style="fill: none; stroke: #cccccc; stroke-width: 4; stroke-linejoin: miter; stroke-linecap: square"/>
   </g>
   <g id="text_14">
    <!-- Data collected on 2024/04/10 -->
    <g style="fill: #262626" transform="translate(320.531563 24.37875) scale(0.24 -0.24)">
     <defs>
      <path id="ArialMT-44" d="M 494 0 
L 494 4581 
L 2072 4581 
Q 2606 4581 2888 4516 
Q 3281 4425 3559 4188 
Q 3922 3881 4101 3404 
Q 4281 2928 4281 2316 
Q 4281 1794 4159 1391 
Q 4038 988 3847 723 
Q 3656 459 3429 307 
Q 3203 156 2883 78 
Q 2563 0 2147 0 
L 494 0 
z
M 1100 541 
L 2078 541 
Q 2531 541 2789 625 
Q 3047 709 3200 863 
Q 3416 1078 3536 1442 
Q 3656 1806 3656 2325 
Q 3656 3044 3420 3430 
Q 3184 3816 2847 3947 
Q 2603 4041 2063 4041 
L 1100 4041 
L 1100 541 
z
" transform="scale(0.015625)"/>
      <path id="ArialMT-2f" d="M 0 -78 
L 1328 4659 
L 1778 4659 
L 453 -78 
L 0 -78 
z
" transform="scale(0.015625)"/>
     </defs>
     <use xlink:href="#ArialMT-44"/>
     <use xlink:href="#ArialMT-61" x="72.216797"/>
     <use xlink:href="#ArialMT-74" x="127.832031"/>
     <use xlink:href="#ArialMT-61" x="155.615234"/>
     <use xlink:href="#ArialMT-20" x="211.230469"/>
     <use xlink:href="#ArialMT-63" x="239.013672"/>
     <use xlink:href="#ArialMT-6f" x="289.013672"/>
     <use xlink:href="#ArialMT-6c" x="344.628906"/>
     <use xlink:href="#ArialMT-6c" x="366.845703"/>
     <use xlink:href="#ArialMT-65" x="389.0625"/>
     <use xlink:href="#ArialMT-63" x="444.677734"/>
     <use xlink:href="#ArialMT-74" x="494.677734"/>
     <use xlink:href="#ArialMT-65" x="522.460938"/>
     <use xlink:href="#ArialMT-64" x="578.076172"/>
     <use xlink:href="#ArialMT-20" x="633.691406"/>
     <use xlink:href="#ArialMT-6f" x="661.474609"/>
     <use xlink:href="#ArialMT-6e" x="717.089844"/>
     <use xlink:href="#ArialMT-20" x="772.705078"/>
     <use xlink:href="#ArialMT-32" x="800.488281"/>
     <use xlink:href="#ArialMT-30" x="856.103516"/>
     <use xlink:href="#ArialMT-32" x="911.71875"/>
     <use xlink:href="#ArialMT-34" x="967.333984"/>
     <use xlink:href="#ArialMT-2f" x="1022.949219"/>
     <use xlink:href="#ArialMT-30" x="1050.732422"/>
     <use xlink:href="#ArialMT-34" x="1106.347656"/>
     <use xlink:href="#ArialMT-2f" x="1161.962891"/>
     <use xlink:href="#ArialMT-31" x="1189.746094"/>
     <use xlink:href="#ArialMT-30" x="1245.361328"/>
    </g>
   </g>
   <g id="legend_1">
    <g id="patch_5">
     <path d="M 889.459875 361.805313 
L 1039.324562 361.805313 
Q 1043.724563 361.805313 1043.724563 357.405313 
L 1043.724563 45.77875 
Q 1043.724563 41.37875 1039.324562 41.37875 
L 889.459875 41.37875 
Q 885.059875 41.37875 885.059875 45.77875 
L 885.059875 357.405313 
Q 885.059875 361.805313 889.459875 361.805313 
z
" style="fill: #ffffff; opacity: 0.8; stroke: #cccccc; stroke-linejoin: miter"/>
    </g>
    <g id="line2d_62">
     <path d="M 893.859875 58.225937 
L 915.859875 58.225937 
L 937.859875 58.225937 
" style="fill: none; stroke: #1f77b4; stroke-width: 1.5; stroke-linecap: round"/>
    </g>
    <g id="text_15">
     <!-- G1-left -->
     <g style="fill: #262626" transform="translate(955.459875 65.925937) scale(0.22 -0.22)">
      <defs>
       <path id="ArialMT-47" d="M 2638 1797 
L 2638 2334 
L 4578 2338 
L 4578 638 
Q 4131 281 3656 101 
Q 3181 -78 2681 -78 
Q 2006 -78 1454 211 
Q 903 500 622 1047 
Q 341 1594 341 2269 
Q 341 2938 620 3517 
Q 900 4097 1425 4378 
Q 1950 4659 2634 4659 
Q 3131 4659 3532 4498 
Q 3934 4338 4162 4050 
Q 4391 3763 4509 3300 
L 3963 3150 
Q 3859 3500 3706 3700 
Q 3553 3900 3268 4020 
Q 2984 4141 2638 4141 
Q 2222 4141 1919 4014 
Q 1616 3888 1430 3681 
Q 1244 3475 1141 3228 
Q 966 2803 966 2306 
Q 966 1694 1177 1281 
Q 1388 869 1791 669 
Q 2194 469 2647 469 
Q 3041 469 3416 620 
Q 3791 772 3984 944 
L 3984 1797 
L 2638 1797 
z
" transform="scale(0.015625)"/>
       <path id="ArialMT-2d" d="M 203 1375 
L 203 1941 
L 1931 1941 
L 1931 1375 
L 203 1375 
z
" transform="scale(0.015625)"/>
      </defs>
      <use xlink:href="#ArialMT-47"/>
      <use xlink:href="#ArialMT-31" x="77.783203"/>
      <use xlink:href="#ArialMT-2d" x="133.398438"/>
      <use xlink:href="#ArialMT-6c" x="166.699219"/>
      <use xlink:href="#ArialMT-65" x="188.916016"/>
      <use xlink:href="#ArialMT-66" x="244.53125"/>
      <use xlink:href="#ArialMT-74" x="272.314453"/>
     </g>
    </g>
    <g id="line2d_63">
     <path d="M 893.859875 89.61375 
L 915.859875 89.61375 
L 937.859875 89.61375 
" style="fill: none; stroke: #ff7f0e; stroke-width: 1.5; stroke-linecap: round"/>
    </g>
    <g id="text_16">
     <!-- G1-right -->
     <g style="fill: #262626" transform="translate(955.459875 97.31375) scale(0.22 -0.22)">
      <use xlink:href="#ArialMT-47"/>
      <use xlink:href="#ArialMT-31" x="77.783203"/>
      <use xlink:href="#ArialMT-2d" x="133.398438"/>
      <use xlink:href="#ArialMT-72" x="166.699219"/>
      <use xlink:href="#ArialMT-69" x="200"/>
      <use xlink:href="#ArialMT-67" x="222.216797"/>
      <use xlink:href="#ArialMT-68" x="277.832031"/>
      <use xlink:href="#ArialMT-74" x="333.447266"/>
     </g>
    </g>
    <g id="line2d_64">
     <path d="M 893.859875 120.99125 
L 915.859875 120.99125 
L 937.859875 120.99125 
" style="fill: none; stroke: #2ca02c; stroke-width: 1.5; stroke-linecap: round"/>
    </g>
    <g id="text_17">
     <!-- G2-left -->
     <g style="fill: #262626" transform="translate(955.459875 128.69125) scale(0.22 -0.22)">
      <use xlink:href="#ArialMT-47"/>
      <use xlink:href="#ArialMT-32" x="77.783203"/>
      <use xlink:href="#ArialMT-2d" x="133.398438"/>
      <use xlink:href="#ArialMT-6c" x="166.699219"/>
      <use xlink:href="#ArialMT-65" x="188.916016"/>
      <use xlink:href="#ArialMT-66" x="244.53125"/>
      <use xlink:href="#ArialMT-74" x="272.314453"/>
     </g>
    </g>
    <g id="line2d_65">
     <path d="M 893.859875 152.379062 
L 915.859875 152.379062 
L 937.859875 152.379062 
" style="fill: none; stroke: #d62728; stroke-width: 1.5; stroke-linecap: round"/>
    </g>
    <g id="text_18">
     <!-- G2-right -->
     <g style="fill: #262626" transform="translate(955.459875 160.079062) scale(0.22 -0.22)">
      <use xlink:href="#ArialMT-47"/>
      <use xlink:href="#ArialMT-32" x="77.783203"/>
      <use xlink:href="#ArialMT-2d" x="133.398438"/>
      <use xlink:href="#ArialMT-72" x="166.699219"/>
      <use xlink:href="#ArialMT-69" x="200"/>
      <use xlink:href="#ArialMT-67" x="222.216797"/>
      <use xlink:href="#ArialMT-68" x="277.832031"/>
      <use xlink:href="#ArialMT-74" x="333.447266"/>
     </g>
    </g>
    <g id="line2d_66">
     <path d="M 893.859875 183.756563 
L 915.859875 183.756563 
L 937.859875 183.756563 
" style="fill: none; stroke: #9467bd; stroke-width: 1.5; stroke-linecap: round"/>
    </g>
    <g id="text_19">
     <!-- G3-left -->
     <g style="fill: #262626" transform="translate(955.459875 191.456563) scale(0.22 -0.22)">
      <defs>
       <path id="ArialMT-33" d="M 269 1209 
L 831 1284 
Q 928 806 1161 595 
Q 1394 384 1728 384 
Q 2125 384 2398 659 
Q 2672 934 2672 1341 
Q 2672 1728 2419 1979 
Q 2166 2231 1775 2231 
Q 1616 2231 1378 2169 
L 1441 2663 
Q 1497 2656 1531 2656 
Q 1891 2656 2178 2843 
Q 2466 3031 2466 3422 
Q 2466 3731 2256 3934 
Q 2047 4138 1716 4138 
Q 1388 4138 1169 3931 
Q 950 3725 888 3313 
L 325 3413 
Q 428 3978 793 4289 
Q 1159 4600 1703 4600 
Q 2078 4600 2393 4439 
Q 2709 4278 2876 4000 
Q 3044 3722 3044 3409 
Q 3044 3113 2884 2869 
Q 2725 2625 2413 2481 
Q 2819 2388 3044 2092 
Q 3269 1797 3269 1353 
Q 3269 753 2831 336 
Q 2394 -81 1725 -81 
Q 1122 -81 723 278 
Q 325 638 269 1209 
z
" transform="scale(0.015625)"/>
      </defs>
      <use xlink:href="#ArialMT-47"/>
      <use xlink:href="#ArialMT-33" x="77.783203"/>
      <use xlink:href="#ArialMT-2d" x="133.398438"/>
      <use xlink:href="#ArialMT-6c" x="166.699219"/>
      <use xlink:href="#ArialMT-65" x="188.916016"/>
      <use xlink:href="#ArialMT-66" x="244.53125"/>
      <use xlink:href="#ArialMT-74" x="272.314453"/>
     </g>
    </g>
    <g id="line2d_67">
     <path d="M 893.859875 215.144375 
L 915.859875 215.144375 
L 937.859875 215.144375 
" style="fill: none; stroke: #8c564b; stroke-width: 1.5; stroke-linecap: round"/>
    </g>
    <g id="text_20">
     <!-- G3-right -->
     <g style="fill: #262626" transform="translate(955.459875 222.844375) scale(0.22 -0.22)">
      <use xlink:href="#ArialMT-47"/>
      <use xlink:href="#ArialMT-33" x="77.783203"/>
      <use xlink:href="#ArialMT-2d" x="133.398438"/>
      <use xlink:href="#ArialMT-72" x="166.699219"/>
      <use xlink:href="#ArialMT-69" x="200"/>
      <use xlink:href="#ArialMT-67" x="222.216797"/>
      <use xlink:href="#ArialMT-68" x="277.832031"/>
      <use xlink:href="#ArialMT-74" x="333.447266"/>
     </g>
    </g>
    <g id="line2d_68">
     <path d="M 893.859875 246.521875 
L 915.859875 246.521875 
L 937.859875 246.521875 
" style="fill: none; stroke: #e377c2; stroke-width: 1.5; stroke-linecap: round"/>
    </g>
    <g id="text_21">
     <!-- G4-left -->
     <g style="fill: #262626" transform="translate(955.459875 254.221875) scale(0.22 -0.22)">
      <use xlink:href="#ArialMT-47"/>
      <use xlink:href="#ArialMT-34" x="77.783203"/>
      <use xlink:href="#ArialMT-2d" x="133.398438"/>
      <use xlink:href="#ArialMT-6c" x="166.699219"/>
      <use xlink:href="#ArialMT-65" x="188.916016"/>
      <use xlink:href="#ArialMT-66" x="244.53125"/>
      <use xlink:href="#ArialMT-74" x="272.314453"/>
     </g>
    </g>
    <g id="line2d_69">
     <path d="M 893.859875 277.909687 
L 915.859875 277.909687 
L 937.859875 277.909687 
" style="fill: none; stroke: #7f7f7f; stroke-width: 1.5; stroke-linecap: round"/>
    </g>
    <g id="text_22">
     <!-- G4-right -->
     <g style="fill: #262626" transform="translate(955.459875 285.609687) scale(0.22 -0.22)">
      <use xlink:href="#ArialMT-47"/>
      <use xlink:href="#ArialMT-34" x="77.783203"/>
      <use xlink:href="#ArialMT-2d" x="133.398438"/>
      <use xlink:href="#ArialMT-72" x="166.699219"/>
      <use xlink:href="#ArialMT-69" x="200"/>
      <use xlink:href="#ArialMT-67" x="222.216797"/>
      <use xlink:href="#ArialMT-68" x="277.832031"/>
      <use xlink:href="#ArialMT-74" x="333.447266"/>
     </g>
    </g>
    <g id="line2d_70">
     <path d="M 893.859875 309.287188 
L 915.859875 309.287188 
L 937.859875 309.287188 
" style="fill: none; stroke: #bcbd22; stroke-width: 1.5; stroke-linecap: round"/>
    </g>
    <g id="text_23">
     <!-- G5-left -->
     <g style="fill: #262626" transform="translate(955.459875 316.987188) scale(0.22 -0.22)">
      <use xlink:href="#ArialMT-47"/>
      <use xlink:href="#ArialMT-35" x="77.783203"/>
      <use xlink:href="#ArialMT-2d" x="133.398438"/>
      <use xlink:href="#ArialMT-6c" x="166.699219"/>
      <use xlink:href="#ArialMT-65" x="188.916016"/>
      <use xlink:href="#ArialMT-66" x="244.53125"/>
      <use xlink:href="#ArialMT-74" x="272.314453"/>
     </g>
    </g>
    <g id="line2d_71">
     <path d="M 893.859875 340.675 
L 915.859875 340.675 
L 937.859875 340.675 
" style="fill: none; stroke: #17becf; stroke-width: 1.5; stroke-linecap: round"/>
    </g>
    <g id="text_24">
     <!-- G5-right -->
     <g style="fill: #262626" transform="translate(955.459875 348.375) scale(0.22 -0.22)">
      <use xlink:href="#ArialMT-47"/>
      <use xlink:href="#ArialMT-35" x="77.783203"/>
      <use xlink:href="#ArialMT-2d" x="133.398438"/>
      <use xlink:href="#ArialMT-72" x="166.699219"/>
      <use xlink:href="#ArialMT-69" x="200"/>
      <use xlink:href="#ArialMT-67" x="222.216797"/>
      <use xlink:href="#ArialMT-68" x="277.832031"/>
      <use xlink:href="#ArialMT-74" x="333.447266"/>
     </g>
    </g>
   </g>
  </g>
 </g>
 <defs>
  <clipPath id="p867207f0de">
   <rect x="86.036563" y="30.37875" width="781.2" height="443.52"/>
  </clipPath>
 </defs>
</svg>
