<svg width="150" height="86" viewBox="0 0 150 86" fill="none" xmlns="http://www.w3.org/2000/svg">
<path d="M146.35 0L126.015 20.0508H23.427L3.09127 0L0 0L0 85.55H3.09127L23.427 65.4992H126.015L146.35 85.55H149.442V0L146.35 0Z" fill="#6AD3BE"/>
<path d="M125.106 42.7446V42.775C125.106 43.656 124.984 44.537 124.772 45.3573C124.621 45.9345 124.984 46.5421 125.56 46.694C126.136 46.8459 126.742 46.4814 126.894 45.9041C127.136 44.9016 127.288 43.8383 127.288 42.775V42.7142C127.288 42.1066 126.803 41.6206 126.197 41.6206C125.59 41.6206 125.106 42.137 125.106 42.7446ZM121.317 34.6939C121.984 35.2711 122.59 35.9091 123.105 36.6079C123.469 37.0939 124.136 37.2155 124.651 36.8509C125.136 36.4863 125.257 35.818 124.893 35.3015C124.287 34.4509 123.56 33.661 122.742 32.9926C122.287 32.5977 121.59 32.6585 121.196 33.1142C120.802 33.6002 120.863 34.299 121.317 34.6939ZM112.589 32.1724H114.529C114.832 32.1724 115.104 32.1724 115.377 32.2028C115.983 32.2635 116.498 31.8078 116.559 31.2002C116.62 30.5926 116.165 30.0762 115.559 30.0154C115.226 29.985 114.862 29.985 114.529 29.985H112.589C111.983 29.985 111.498 30.4711 111.498 31.0787C111.498 31.6863 111.983 32.1724 112.589 32.1724ZM102.467 32.1724H105.346C105.952 32.1724 106.437 31.6863 106.437 31.0787C106.437 30.4711 105.952 29.985 105.346 29.985H102.467C101.86 29.985 101.376 30.4711 101.376 31.0787C101.376 31.6863 101.86 32.1724 102.467 32.1724ZM92.3745 32.1724H95.2536C95.8597 32.1724 96.3446 31.6863 96.3446 31.0787C96.3446 30.4711 95.8597 29.985 95.2536 29.985H92.3745C91.7683 29.985 91.2834 30.4711 91.2834 31.0787C91.2834 31.6863 91.7683 32.1724 92.3745 32.1724ZM82.2521 32.1724H85.1312C85.7373 32.1724 86.2222 31.6863 86.2222 31.0787C86.2222 30.4711 85.7373 29.985 85.1312 29.985H82.2521C81.6459 29.985 81.161 30.4711 81.161 31.0787C81.161 31.6863 81.6459 32.1724 82.2521 32.1724ZM72.16 32.1724H75.0391C75.6452 32.1724 76.1301 31.6863 76.1301 31.0787C76.1301 30.4711 75.6452 29.985 75.0391 29.985H72.16C71.5538 29.985 71.0689 30.4711 71.0689 31.0787C71.0689 31.6863 71.5538 32.1724 72.16 32.1724ZM62.0376 32.1724H64.9167C65.5228 32.1724 66.0077 31.6863 66.0077 31.0787C66.0077 30.4711 65.5228 29.985 64.9167 29.985H62.0376C61.4314 29.985 60.9465 30.4711 60.9465 31.0787C60.9465 31.6863 61.4314 32.1724 62.0376 32.1724ZM51.9455 32.1724H54.8246C55.4307 32.1724 55.9156 31.6863 55.9156 31.0787C55.9156 30.4711 55.4307 29.985 54.8246 29.985H51.9455C51.3393 29.985 50.8544 30.4711 50.8544 31.0787C50.8544 31.6863 51.3393 32.1724 51.9455 32.1724ZM41.8231 32.1724H44.7022C45.3083 32.1724 45.7932 31.6863 45.7932 31.0787C45.7932 30.4711 45.3083 29.985 44.7022 29.985H41.8231C41.2169 29.985 40.732 30.4711 40.732 31.0787C40.732 31.6863 41.2169 32.1724 41.8231 32.1724ZM32.0644 32.5673C32.8826 32.3243 33.7615 32.2028 34.6404 32.1724C35.2466 32.142 35.7315 31.6559 35.7012 31.0483C35.6708 30.4407 35.1859 29.9546 34.5798 29.985C33.5191 30.0154 32.4583 30.1673 31.4582 30.4711C30.8824 30.623 30.549 31.2306 30.7006 31.8382C30.8824 32.385 31.4885 32.7496 32.0644 32.5673ZM25.306 38.3699C25.6697 37.58 26.1546 36.8205 26.7001 36.1522C27.0941 35.6661 27.0032 34.9977 26.5486 34.6028C26.0637 34.2078 25.3969 34.299 25.0029 34.7547C24.3362 35.5749 23.7907 36.456 23.3361 37.4281C23.0936 37.975 23.3058 38.6433 23.8816 38.8864C24.4574 39.1294 25.0635 38.9167 25.306 38.3699ZM25.3363 47.2409C24.9726 46.451 24.6999 45.6307 24.518 44.7497C24.3968 44.1421 23.821 43.7472 23.2451 43.8687C22.639 43.9902 22.245 44.5674 22.3663 45.1446C22.5784 46.2079 22.8815 47.2105 23.3361 48.1522C23.5785 48.6991 24.2453 48.9421 24.7908 48.6687C25.3363 48.456 25.5788 47.7877 25.3363 47.2409ZM32.0947 52.9827C31.2461 52.7396 30.4278 52.4054 29.7004 51.9801C29.1852 51.6763 28.5185 51.8586 28.2154 52.3751C27.9124 52.8915 28.0942 53.5599 28.6094 53.8637C29.5186 54.3801 30.4884 54.8055 31.5188 55.0789C32.0947 55.2308 32.7008 54.8966 32.8826 54.3194C33.0342 53.7725 32.7008 53.1649 32.0947 52.9827ZM41.8837 53.3776H39.0046C38.3984 53.3776 37.9135 53.8637 37.9135 54.4713C37.9135 55.0789 38.3984 55.565 39.0046 55.565H41.8837C42.4898 55.565 42.9747 55.0789 42.9747 54.4713C42.9747 53.8637 42.4898 53.3776 41.8837 53.3776ZM51.9758 53.3776H49.0967C48.4905 53.3776 48.0056 53.8637 48.0056 54.4713C48.0056 55.0789 48.4905 55.565 49.0967 55.565H51.9758C52.5819 55.565 53.0668 55.0789 53.0668 54.4713C53.0971 53.8637 52.5819 53.3776 51.9758 53.3776ZM62.0982 53.3776H59.2191C58.6129 53.3776 58.128 53.8637 58.128 54.4713C58.128 55.0789 58.6129 55.565 59.2191 55.565H62.0982C62.7043 55.565 63.1892 55.0789 63.1892 54.4713C63.1892 53.8637 62.7043 53.3776 62.0982 53.3776ZM72.1903 53.3776H69.3112C68.705 53.3776 68.2201 53.8637 68.2201 54.4713C68.2201 55.0789 68.705 55.565 69.3112 55.565H72.1903C72.7964 55.565 73.2813 55.0789 73.2813 54.4713C73.3116 53.8637 72.7964 53.3776 72.1903 53.3776ZM82.3127 53.3776H79.4336C78.8274 53.3776 78.3425 53.8637 78.3425 54.4713C78.3425 55.0789 78.8274 55.565 79.4336 55.565H82.3127C82.9188 55.565 83.4037 55.0789 83.4037 54.4713C83.4037 53.8637 82.9188 53.3776 82.3127 53.3776ZM92.4351 53.3776H89.5559C88.9498 53.3776 88.4649 53.8637 88.4649 54.4713C88.4649 55.0789 88.9498 55.565 89.5559 55.565H92.4351C93.0412 55.565 93.5261 55.0789 93.5261 54.4713C93.5261 53.8637 93.0412 53.3776 92.4351 53.3776ZM102.527 53.3776H99.648C99.0419 53.3776 98.557 53.8637 98.557 54.4713C98.557 55.0789 99.0419 55.565 99.648 55.565H102.527C103.133 55.565 103.618 55.0789 103.618 54.4713C103.618 53.8637 103.133 53.3776 102.527 53.3776ZM112.65 53.3776H109.77C109.164 53.3776 108.679 53.8637 108.679 54.4713C108.679 55.0789 109.164 55.565 109.77 55.565H112.65C113.256 55.565 113.741 55.0789 113.741 54.4713C113.741 53.8637 113.256 53.3776 112.65 53.3776ZM121.348 50.8561C120.681 51.4333 119.953 51.9194 119.165 52.2839C118.62 52.5574 118.408 53.2257 118.681 53.7422C118.953 54.289 119.62 54.5017 120.135 54.2282C121.075 53.7725 121.954 53.1649 122.772 52.4966C123.227 52.1017 123.287 51.4029 122.893 50.9472C122.53 50.5219 121.832 50.4611 121.348 50.8561Z" fill="#2B2B2B"/>
<path d="M121.438 42.775H120.62C120.62 44.6282 119.862 46.299 118.65 47.5142C117.438 48.7294 115.771 49.4889 113.922 49.4889H35.5188C33.6701 49.4889 32.0033 48.7294 30.791 47.5142C29.5787 46.299 28.8211 44.6282 28.8211 42.775C28.8211 40.9218 29.5787 39.2509 30.791 38.0357C32.0033 36.8205 33.6701 36.061 35.5188 36.061H113.892C115.74 36.061 117.407 36.8205 118.619 38.0357C119.832 39.2509 120.589 40.9218 120.589 42.775H121.438H122.287C122.287 40.4661 121.347 38.3699 119.832 36.8509C118.316 35.3319 116.225 34.3901 113.922 34.3901H35.5188C33.2155 34.3901 31.1244 35.3319 29.609 36.8509C28.0937 38.3699 27.1542 40.4661 27.1542 42.775C27.1542 45.0839 28.0937 47.1801 29.609 48.6991C31.1244 50.2181 33.2155 51.1598 35.5188 51.1598H113.892C116.195 51.1598 118.286 50.2181 119.801 48.6991C121.317 47.1801 122.256 45.0839 122.256 42.775H121.438Z" fill="#2B2B2B"/>
<path d="M35.9137 46.3903H113.499V44.689H35.9137" fill="#2B2B2B"/>
<path d="M35.9436 40.8611H113.498V39.1902H35.9436" fill="#2B2B2B"/>
</svg>
