<svg width="71" height="42" xmlns="http://www.w3.org/2000/svg" xmlns:xlink="http://www.w3.org/1999/xlink" xml:space="preserve" overflow="hidden"><defs><clipPath id="clip0"><rect x="245" y="188" width="71" height="42"/></clipPath></defs><g clip-path="url(#clip0)" transform="translate(-245 -188)"><path d="M3.7881 2.17465C4.02194 2.26559 4.20121 2.39809 4.33631 2.56437 4.4948 2.76443 4.57534 3.00606 4.57534 3.28926 4.57534 3.43735 4.55456 3.57246 4.51818 3.69457 4.48181 3.81149 4.42205 3.92321 4.33891 4.03753 4.20121 4.2168 4.01414 4.3545 3.77511 4.45063 3.41397 4.60392 2.90993 4.67927 2.26299 4.67667 1.8239 4.67667 1.41859 4.61432 1.04965 4.4922 0.65993 4.37009 0.363741 4.19082 0.161085 3.95958 0.101328 3.89463 0.0545612 3.83227 0.0233834 3.76732L0.698903 3.30225C0.706697 3.31784 0.719688 3.33343 0.735277 3.34902 0.841801 3.46593 1.02107 3.56466 1.27309 3.653 1.57188 3.74653 1.89925 3.7933 2.25519 3.7933 2.79821 3.7933 3.20612 3.73614 3.47892 3.62702 3.59584 3.58025 3.67898 3.52309 3.72575 3.45814 3.75952 3.41137 3.77771 3.35161 3.78031 3.27887 3.78031 3.22171 3.76472 3.17234 3.73874 3.13077 3.68937 3.07621 3.61663 3.02944 3.5127 2.99047 3.31784 2.91772 2.91253 2.84497 2.28637 2.77483L2.22142 2.76963C1.52771 2.69168 1.05225 2.60075 0.797632 2.49682 0.566397 2.41108 0.381928 2.28637 0.241628 2.12009 0.0831408 1.92003 0.00259815 1.67581 0.00259815 1.39001 0.00259815 1.25231 0.0233834 1.1172 0.0649538 0.984699 0.106524 0.85739 0.166282 0.743071 0.244226 0.641743 0.371536 0.470265 0.561201 0.332563 0.808025 0.226039 1.15878 0.0753464 1.66282 3.74989e-16 2.32015 3.74989e-16 2.77223 3.74989e-16 3.17494 0.0597575 3.52829 0.181871 3.91282 0.303984 4.209 0.483256 4.41426 0.714491 4.45063 0.756062 4.4974 0.818417 4.55196 0.901558L3.87124 1.36663 3.84007 1.31986C3.74134 1.20035 3.56206 1.09902 3.30225 1.01848 3.00866 0.922343 2.68129 0.87038 2.32015 0.87038 1.76934 0.87038 1.36143 0.92754 1.09382 1.03666 0.974307 1.09122 0.891166 1.14578 0.849595 1.20554 0.815819 1.25231 0.797632 1.31207 0.795034 1.38481 0.795034 1.46276 0.815819 1.50693 0.836605 1.53551 0.875577 1.57448 0.943129 1.62384 1.06005 1.67581 1.25491 1.74856 1.66541 1.8213 2.29417 1.89145L2.35133 1.89665C3.05023 1.97719 3.52569 2.06813 3.77771 2.16686L3.7881 2.17205Z" transform="matrix(1 0 0 1.00306 245.024 188)"/><path d="M10.1692 0.179272 9.1377 0.179272 7.71911 1.75895 6.30311 0.179272 5.27165 0.179272 7.31639 2.46045 7.31639 4.4948 8.12442 4.4948 8.12442 2.46045 10.1692 0.179272Z" transform="matrix(1 0 0 1.00306 245.024 188)"/><path d="M14.6744 2.17465C14.9082 2.26559 15.0875 2.39809 15.2226 2.56437 15.3811 2.76443 15.4616 3.00606 15.4616 3.28926 15.4616 3.43735 15.4408 3.57246 15.4044 3.69457 15.3681 3.81149 15.3083 3.92321 15.2252 4.03753 15.0875 4.2168 14.9004 4.3545 14.6614 4.45063 14.3002 4.60392 13.7962 4.67927 13.1492 4.67667 12.7102 4.67667 12.3048 4.61432 11.9359 4.4922 11.5462 4.37009 11.25 4.19082 11.0473 3.95958 10.9876 3.89463 10.9408 3.83227 10.9096 3.76732L11.5852 3.30225C11.5929 3.31784 11.6059 3.33343 11.6215 3.34902 11.7281 3.46593 11.9073 3.56466 12.1593 3.653 12.4581 3.74653 12.7855 3.7933 13.1414 3.7933 13.6845 3.7933 14.0924 3.73614 14.3652 3.62702 14.4821 3.58025 14.5652 3.52309 14.612 3.45814 14.6458 3.41137 14.664 3.35161 14.6666 3.27887 14.6666 3.22171 14.651 3.17234 14.625 3.13077 14.5756 3.07621 14.5029 3.02944 14.399 2.99047 14.2041 2.91772 13.7988 2.84497 13.1726 2.77483L13.1077 2.76963C12.414 2.69168 11.9385 2.60075 11.6839 2.49682 11.4526 2.41108 11.2682 2.28637 11.1279 2.12009 10.9694 1.92003 10.8888 1.67581 10.8888 1.39001 10.8888 1.25231 10.9096 1.1172 10.9512 0.984699 10.9928 0.85739 11.0525 0.743071 11.1305 0.641743 11.2578 0.470265 11.4475 0.332563 11.6943 0.226039 12.045 0.0753464 12.5491 3.74989e-16 13.2064 3.74989e-16 13.6585 3.74989e-16 14.0612 0.0597575 14.4145 0.181871 14.7991 0.303984 15.0953 0.483256 15.3005 0.714491 15.3369 0.756062 15.3836 0.818417 15.4382 0.901558L14.7575 1.36663 14.7263 1.31986C14.6276 1.20035 14.4483 1.09902 14.1885 1.01848 13.8949 0.922343 13.5675 0.87038 13.2064 0.87038 12.6556 0.87038 12.2477 0.92754 11.9801 1.03666 11.8606 1.09122 11.7774 1.14578 11.7358 1.20554 11.7021 1.25231 11.6839 1.31207 11.6813 1.38481 11.6813 1.46276 11.7021 1.50693 11.7229 1.53551 11.7618 1.57448 11.8294 1.62384 11.9463 1.67581 12.1412 1.74856 12.5517 1.8213 13.1804 1.89145L13.2376 1.89665C13.9365 1.97719 14.4119 2.06813 14.664 2.16686L14.6744 2.17205Z" transform="matrix(1 0 0 1.00306 245.024 188)"/><path d="M16.3813 0.987297 18.4313 0.987297 18.4313 4.4948 19.2419 4.4948 19.2419 0.987297 21.2918 0.987297 21.2918 0.179272 16.3813 0.179272 16.3813 0.987297Z" transform="matrix(1 0 0 1.00306 245.024 188)"/><path d="M26.7272 0.982101 26.7272 0.176674 23.2275 0.176674 22.422 0.176674 22.422 0.982101 22.422 1.95641 22.422 2.76183 22.422 3.69197 22.422 4.48181 22.422 4.4974 26.7272 4.4974 26.7272 3.69197 23.2275 3.69197 23.2275 2.76183 26.7272 2.76183 26.7272 1.95641 23.2275 1.95641 23.2275 0.982101 26.7272 0.982101Z" transform="matrix(1 0 0 1.00306 245.024 188)"/><path d="M33.7188 0.176674 31.6922 3.87124 29.6449 0.176674 28.3926 0.176674 28.3926 4.4974 29.2006 4.4974 29.2006 1.04446 31.1155 4.4974 32.2716 4.4974 34.1579 1.06264 34.1579 4.4974 34.9659 4.4974 34.9659 0.176674 33.7188 0.176674Z" transform="matrix(1 0 0 1.00306 245.024 188)"/><path d="M46.099 0.176674 44.0724 3.87124 42.0251 0.176674 40.7728 0.176674 40.7728 4.4974 41.5808 4.4974 41.5808 1.04446 43.4956 4.4974 44.6518 4.4974 46.5381 1.06264 46.5381 4.4974 47.3461 4.4974 47.3461 0.176674 46.099 0.176674Z" transform="matrix(1 0 0 1.00306 245.024 188)"/><path d="M51.129 4.67407C49.8403 4.67407 48.7907 3.62442 48.7907 2.33574 48.7907 1.04705 49.8403 0 51.129 0 52.4177 0 53.4673 1.04965 53.4673 2.33834 53.4673 3.62702 52.4177 4.67667 51.129 4.67667ZM51.129 0.805427C50.2846 0.805427 49.5961 1.49394 49.5961 2.33834 49.5961 3.18273 50.2846 3.87124 51.129 3.87124 51.9734 3.87124 52.6619 3.18273 52.6619 2.33834 52.6619 1.49394 51.9734 0.805427 51.129 0.805427Z" transform="matrix(1 0 0 1.00306 245.024 188)"/><path d="M57.271 0.179272 57.1125 0.179272C57.1125 0.179272 55.0106 0.179272 55.0106 0.179272L55.0106 4.4974 57.1125 4.4974C57.1125 4.4974 57.271 4.4974 57.271 4.4974 58.409 4.43504 59.3158 3.49191 59.3158 2.33834 59.3158 1.18476 58.409 0.241628 57.271 0.179272ZM57.1541 3.69197 57.1151 3.69197C57.1151 3.69197 55.8187 3.69197 55.8187 3.69197L55.8187 3.69197 55.8187 0.982101 57.1151 0.982101C57.1151 0.982101 57.1541 0.982101 57.1541 0.982101 57.9024 0.982101 58.5078 1.59007 58.5078 2.33574 58.5078 3.084 57.8998 3.68937 57.1541 3.68937Z" transform="matrix(1 0 0 1.00306 245.024 188)"/><path d="M65.0759 0.982101 65.0759 0.176674 61.5762 0.176674 60.7733 0.176674 60.7733 0.982101 60.7733 1.95641 60.7733 2.76183 60.7733 3.69197 60.7733 4.48181 60.7733 4.4974 65.0759 4.4974 65.0759 3.69197 61.5762 3.69197 61.5762 2.76183 65.0759 2.76183 65.0759 1.95641 61.5762 1.95641 61.5762 0.982101 65.0759 0.982101Z" transform="matrix(1 0 0 1.00306 245.024 188)"/><path d="M67.5441 0.176674 66.7595 0.176674 66.7595 1.07563 66.7595 2.02136 66.7595 2.806 66.7595 3.71276 66.7595 4.48181 66.7595 4.4974 70.9529 4.4974 70.9529 3.71276 67.5441 3.71276 67.5441 0.176674Z" transform="matrix(1 0 0 1.00306 245.024 188)"/><path d="M30.6296 10.0211 30.6296 23.108 10.8031 23.108 10.8031 10.0211 4.84815 10.0211 4.84815 23.108 4.84815 29.0655 4.84815 41.8718 10.8031 41.8718 10.8031 29.0655 30.6296 29.0655 30.6296 41.8718 36.5872 41.8718 36.5872 29.0655 36.5872 23.108 36.5872 10.0211 30.6296 10.0211Z" transform="matrix(1 0 0 1.00306 245.024 188)"/><path d="M47.1382 30.9466 51.3161 26.7687C49.3181 25.7373 47.9333 23.6743 47.9333 21.2711 47.9333 17.8493 50.7185 15.0641 54.1403 15.0641 57.562 15.0641 60.3472 17.8493 60.3472 21.2711 60.3472 23.0118 59.625 24.5889 58.4662 25.7165L51.3031 32.8822C51.3031 32.8822 51.3031 32.8822 51.3057 32.8822L42.2044 41.8666 50.4587 41.8666C50.4587 41.8666 66.1021 41.8666 66.1021 41.8666L66.1021 36.0779 56.2422 36.0779 62.5609 29.7566 62.5609 29.7566C64.7459 27.5872 66.1021 24.5837 66.1021 21.2685 66.1021 14.6718 60.7344 9.30398 54.1377 9.30398 47.541 9.30398 42.1732 14.6718 42.1732 21.2685 42.1732 25.2488 44.1348 28.7693 47.1357 30.9414Z" transform="matrix(1 0 0 1.00306 245.024 188)"/></g></svg>